M48
; DRILL file {KiCad (5.1.9-0-10_14)} date Sunday, September 19, 2021 at 10:05:29 PM
; FORMAT={-:-/ absolute / inch / decimal}
; #@! TF.CreationDate,2021-09-19T22:05:29+02:00
; #@! TF.GenerationSoftware,Kicad,Pcbnew,(5.1.9-0-10_14)
; #@! TF.FileFunction,Plated,1,2,PTH
FMAT,2
INCH
T1C0.0098
T2C0.0197
T3C0.1063
%
G90
G05
T1
X4.0945Y-2.9134
X4.0945Y-3.0315
X4.0945Y-3.1496
X4.0945Y-3.5433
X4.0945Y-3.6614
X4.0945Y-3.7795
X4.0945Y-3.8976
X4.0945Y-4.252
X4.0945Y-4.3701
X4.0945Y-4.4882
X4.1339Y-3.2579
X4.1339Y-3.435
X4.1339Y-3.9764
X4.1339Y-4.1535
X4.2126Y-3.248
X4.2126Y-3.4449
X4.2126Y-3.9665
X4.2126Y-4.1634
X4.2913Y-3.2579
X4.2913Y-3.435
X4.2913Y-3.9764
X4.2913Y-4.1535
X4.3307Y-2.6772
X4.3307Y-4.7244
X4.3701Y-3.2972
X4.3701Y-3.3957
X4.3701Y-4.0157
X4.3701Y-4.0157
X4.3701Y-4.1142
X4.4488Y-2.6772
X4.4488Y-4.7244
X4.4685Y-3.2972
X4.4685Y-3.2972
X4.4685Y-3.3957
X4.4685Y-4.0157
X4.4685Y-4.0157
X4.4685Y-4.1142
X4.5669Y-2.6772
X4.5669Y-3.2972
X4.5669Y-3.3957
X4.5669Y-4.0157
X4.5669Y-4.0157
X4.5669Y-4.1142
X4.5669Y-4.7244
X4.6654Y-3.2972
X4.6654Y-3.3957
X4.6654Y-4.0157
X4.6654Y-4.0157
X4.6654Y-4.1142
X4.685Y-2.6772
X4.685Y-4.7244
X4.7638Y-3.2972
X4.7638Y-3.3957
X4.7638Y-4.0157
X4.7638Y-4.0157
X4.7638Y-4.1142
X4.8031Y-2.6772
X4.8031Y-4.7244
X4.8622Y-3.2972
X4.8622Y-3.3957
X4.8622Y-4.0157
X4.8622Y-4.0157
X4.8622Y-4.1142
X4.9213Y-2.6772
X4.9213Y-4.7244
X4.9606Y-2.8248
X4.9606Y-2.9035
X4.9606Y-3.2972
X4.9606Y-3.2972
X4.9606Y-3.3957
X4.9606Y-3.3957
X4.9606Y-4.0157
X4.9606Y-4.0157
X4.9606Y-4.1142
X4.9606Y-4.5079
X4.9606Y-4.5866
X5.0295Y-3.061
X5.0295Y-3.1594
X5.0295Y-4.252
X5.0295Y-4.3504
X5.0394Y-2.6772
X5.0394Y-2.8248
X5.0394Y-2.9035
X5.0394Y-4.5079
X5.0394Y-4.5866
X5.0394Y-4.7244
X5.0591Y-3.2972
X5.0591Y-3.3957
X5.0591Y-3.3957
X5.0591Y-4.0157
X5.0591Y-4.1142
X5.1181Y-3.061
X5.1181Y-3.1594
X5.1181Y-3.2972
X5.1181Y-3.3957
X5.1181Y-4.0157
X5.1181Y-4.1142
X5.1181Y-4.252
X5.1181Y-4.3504
X5.1575Y-2.6772
X5.1575Y-4.7244
X5.2264Y-2.9232
X5.2264Y-3.061
X5.2264Y-3.061
X5.2264Y-3.1594
X5.2264Y-3.2185
X5.2264Y-3.2972
X5.2264Y-3.3957
X5.2264Y-3.3957
X5.2264Y-3.3957
X5.2264Y-3.5335
X5.2264Y-3.878
X5.2264Y-3.878
X5.2264Y-4.0157
X5.2264Y-4.0157
X5.2264Y-4.1142
X5.2264Y-4.1929
X5.2264Y-4.252
X5.2264Y-4.3504
X5.2264Y-4.3504
X5.2264Y-4.4882
X5.2264Y-4.4882
X5.2756Y-2.6772
X5.2756Y-4.7244
X5.3051Y-3.2185
X5.3051Y-3.2972
X5.3051Y-4.1142
X5.3051Y-4.1929
X5.315Y-3.1398
X5.315Y-4.2717
X5.3248Y-2.9232
X5.3248Y-3.061
X5.3248Y-3.3957
X5.3248Y-3.3957
X5.3248Y-3.5335
X5.3248Y-3.878
X5.3248Y-4.0157
X5.3248Y-4.0157
X5.3248Y-4.3504
X5.3248Y-4.4882
X5.3937Y-2.6772
X5.3937Y-4.7244
X5.4035Y-3.1201
X5.4035Y-3.1791
X5.4035Y-3.2972
X5.4035Y-4.1142
X5.4035Y-4.2323
X5.4035Y-4.2913
X5.4232Y-2.9232
X5.4232Y-3.061
X5.4232Y-3.3957
X5.4232Y-3.3957
X5.4232Y-3.5335
X5.4232Y-3.878
X5.4232Y-4.0157
X5.4232Y-4.0157
X5.4232Y-4.3504
X5.4232Y-4.4882
X5.4724Y-3.1791
X5.4724Y-3.2677
X5.4724Y-3.3071
X5.4724Y-4.1043
X5.4724Y-4.1437
X5.4724Y-4.2323
X5.5118Y-2.6772
X5.5118Y-4.7244
X5.5217Y-2.9232
X5.5217Y-3.061
X5.5217Y-3.061
X5.5217Y-3.3957
X5.5217Y-3.5335
X5.5217Y-3.878
X5.5217Y-4.0157
X5.5217Y-4.3504
X5.5217Y-4.4882
X5.5413Y-3.1201
X5.5413Y-3.1791
X5.5413Y-3.2972
X5.5413Y-4.1142
X5.5413Y-4.2323
X5.5413Y-4.2913
X5.6299Y-2.6772
X5.6299Y-4.3504
X5.6299Y-4.4882
X5.6299Y-4.7244
X5.6398Y-2.9232
X5.6398Y-3.061
X5.6398Y-3.1496
X5.6398Y-3.2283
X5.6398Y-3.2972
X5.6398Y-3.3957
X5.6398Y-3.5335
X5.6398Y-3.878
X5.6398Y-4.0157
X5.6398Y-4.1142
X5.6398Y-4.1831
X5.6398Y-4.2618
X5.689Y-3.2579
X5.689Y-4.1535
X5.748Y-2.6772
X5.748Y-2.9232
X5.748Y-3.061
X5.748Y-3.1496
X5.748Y-3.2283
X5.748Y-3.2972
X5.748Y-3.3465
X5.748Y-3.3957
X5.748Y-3.5335
X5.748Y-3.878
X5.748Y-4.0157
X5.748Y-4.0157
X5.748Y-4.0157
X5.748Y-4.0669
X5.748Y-4.1142
X5.748Y-4.1831
X5.748Y-4.2618
X5.748Y-4.3504
X5.748Y-4.4882
X5.748Y-4.7244
X5.8071Y-3.2579
X5.8071Y-4.1535
X5.8465Y-4.1831
X5.8465Y-4.2618
X5.8563Y-2.9232
X5.8563Y-3.061
X5.8563Y-3.1496
X5.8563Y-3.2283
X5.8563Y-3.2972
X5.8563Y-3.3957
X5.8563Y-3.5335
X5.8563Y-3.878
X5.8563Y-4.0157
X5.8563Y-4.1142
X5.8563Y-4.3504
X5.8563Y-4.4882
X5.8661Y-2.6772
X5.8661Y-4.7244
X5.9547Y-3.1201
X5.9547Y-3.1791
X5.9547Y-3.2972
X5.9547Y-4.1142
X5.9547Y-4.2323
X5.9547Y-4.2913
X5.9744Y-2.9232
X5.9744Y-3.061
X5.9744Y-3.3957
X5.9744Y-3.3957
X5.9744Y-3.5335
X5.9744Y-3.878
X5.9744Y-3.878
X5.9744Y-4.0157
X5.9744Y-4.3504
X5.9744Y-4.4882
X5.9843Y-2.6772
X5.9843Y-4.7244
X6.0236Y-3.1791
X6.0236Y-3.2677
X6.0236Y-3.3071
X6.0236Y-4.1043
X6.0236Y-4.1437
X6.0236Y-4.2323
X6.0728Y-2.9232
X6.0728Y-3.061
X6.0728Y-3.3957
X6.0728Y-3.3957
X6.0728Y-3.5335
X6.0728Y-3.878
X6.0728Y-4.0157
X6.0728Y-4.0157
X6.0728Y-4.3504
X6.0728Y-4.4882
X6.0925Y-3.1201
X6.0925Y-3.1791
X6.0925Y-3.2972
X6.0925Y-4.1142
X6.0925Y-4.2323
X6.0925Y-4.2913
X6.1024Y-2.6772
X6.1024Y-4.7244
X6.1713Y-2.9232
X6.1713Y-3.061
X6.1713Y-3.3957
X6.1713Y-3.3957
X6.1713Y-3.5335
X6.1713Y-3.878
X6.1713Y-4.0157
X6.1713Y-4.0157
X6.1713Y-4.3504
X6.1713Y-4.4882
X6.1811Y-3.1398
X6.1811Y-4.2717
X6.1909Y-3.2185
X6.1909Y-3.2972
X6.1909Y-4.1142
X6.1909Y-4.1929
X6.2205Y-2.6772
X6.2205Y-4.7244
X6.2697Y-2.9232
X6.2697Y-3.061
X6.2697Y-3.061
X6.2697Y-3.1594
X6.2697Y-3.2185
X6.2697Y-3.2972
X6.2697Y-3.3957
X6.2697Y-3.3957
X6.2697Y-3.5335
X6.2697Y-3.878
X6.2697Y-4.0157
X6.2697Y-4.0157
X6.2697Y-4.1142
X6.2697Y-4.1929
X6.2697Y-4.252
X6.2697Y-4.3504
X6.2697Y-4.3504
X6.2697Y-4.4882
X6.2697Y-4.4882
X6.3386Y-2.6772
X6.3386Y-4.7244
X6.378Y-3.061
X6.378Y-3.1594
X6.378Y-3.2972
X6.378Y-3.3957
X6.378Y-4.0157
X6.378Y-4.1142
X6.378Y-4.252
X6.378Y-4.3504
X6.4567Y-2.6772
X6.4567Y-2.8248
X6.4567Y-2.9035
X6.4567Y-4.5079
X6.4567Y-4.5866
X6.4567Y-4.7244
X6.4665Y-3.061
X6.4665Y-3.1594
X6.4665Y-4.252
X6.4665Y-4.3504
X6.5157Y-3.2972
X6.5157Y-3.2972
X6.5157Y-3.3957
X6.5157Y-4.0157
X6.5157Y-4.1142
X6.5354Y-2.8248
X6.5354Y-2.9035
X6.5354Y-4.5079
X6.5354Y-4.5866
X6.5748Y-2.6772
X6.5748Y-4.7244
X6.6142Y-3.2972
X6.6142Y-3.2972
X6.6142Y-3.3957
X6.6142Y-3.3957
X6.6142Y-4.0157
X6.6142Y-4.1142
X6.6929Y-2.6772
X6.6929Y-4.7244
X6.7126Y-3.2972
X6.7126Y-3.2972
X6.7126Y-3.3957
X6.7126Y-4.0157
X6.7126Y-4.1142
X6.811Y-2.6772
X6.811Y-3.2972
X6.811Y-3.3957
X6.811Y-3.3957
X6.811Y-4.0157
X6.811Y-4.1142
X6.811Y-4.7244
X6.9094Y-3.2972
X6.9094Y-3.3957
X6.9094Y-4.0157
X6.9094Y-4.1142
X6.9291Y-2.6772
X6.9291Y-4.7244
X7.0079Y-3.2972
X7.0079Y-3.2972
X7.0079Y-3.3957
X7.0079Y-4.0157
X7.0079Y-4.1142
X7.0472Y-2.6772
X7.0472Y-4.7244
X7.1063Y-3.2972
X7.1063Y-3.2972
X7.1063Y-3.3957
X7.1063Y-3.3957
X7.1063Y-4.0157
X7.1063Y-4.0157
X7.1063Y-4.1142
X7.1063Y-4.1142
X7.1654Y-2.6772
X7.1654Y-4.7244
X7.1949Y-3.2579
X7.1949Y-3.435
X7.1949Y-3.9862
X7.1949Y-4.1437
X7.2677Y-3.248
X7.2677Y-3.4449
X7.2677Y-3.9685
X7.2677Y-4.1614
X7.3425Y-3.2579
X7.3425Y-3.435
X7.3425Y-3.9862
X7.3425Y-4.1437
X7.3622Y-2.9134
X7.3622Y-3.0315
X7.3622Y-3.1496
X7.3622Y-3.5433
X7.3622Y-3.6614
X7.3622Y-3.7795
X7.3622Y-3.8976
X7.3622Y-4.252
X7.3622Y-4.3701
X7.3622Y-4.4882
T2
X4.0935Y-2.7559
X4.0935Y-4.6449
X4.1169Y-2.6995
X4.1169Y-2.8123
X4.1169Y-4.5885
X4.1169Y-4.7013
X4.1732Y-2.6762
X4.1732Y-2.8356
X4.1732Y-4.5652
X4.1732Y-4.7246
X4.2296Y-2.6995
X4.2296Y-2.8123
X4.2296Y-4.5885
X4.2296Y-4.7013
X4.253Y-2.7559
X4.253Y-4.6449
X7.2274Y-2.7559
X7.2274Y-4.6449
X7.2507Y-2.6995
X7.2507Y-2.8123
X7.2507Y-4.5885
X7.2507Y-4.7013
X7.3071Y-2.6762
X7.3071Y-2.8356
X7.3071Y-4.5652
X7.3071Y-4.7246
X7.3635Y-2.6995
X7.3635Y-2.8123
X7.3635Y-4.5885
X7.3635Y-4.7013
X7.3868Y-2.7559
X7.3868Y-4.6449
T3
X4.1732Y-2.7559
X4.1732Y-4.6449
X7.3071Y-2.7559
X7.3071Y-4.6449
T0
M30
