%TF.GenerationSoftware,KiCad,Pcbnew,9.0.0*%
%TF.CreationDate,2025-02-26T11:30:23+01:00*%
%TF.ProjectId,rf-proto-card,72662d70-726f-4746-9f2d-636172642e6b,2*%
%TF.SameCoordinates,Original*%
%TF.FileFunction,Soldermask,Top*%
%TF.FilePolarity,Negative*%
%FSLAX46Y46*%
G04 Gerber Fmt 4.6, Leading zero omitted, Abs format (unit mm)*
G04 Created by KiCad (PCBNEW 9.0.0) date 2025-02-26 11:30:23*
%MOMM*%
%LPD*%
G01*
G04 APERTURE LIST*
G04 Aperture macros list*
%AMRoundRect*
0 Rectangle with rounded corners*
0 $1 Rounding radius*
0 $2 $3 $4 $5 $6 $7 $8 $9 X,Y pos of 4 corners*
0 Add a 4 corners polygon primitive as box body*
4,1,4,$2,$3,$4,$5,$6,$7,$8,$9,$2,$3,0*
0 Add four circle primitives for the rounded corners*
1,1,$1+$1,$2,$3*
1,1,$1+$1,$4,$5*
1,1,$1+$1,$6,$7*
1,1,$1+$1,$8,$9*
0 Add four rect primitives between the rounded corners*
20,1,$1+$1,$2,$3,$4,$5,0*
20,1,$1+$1,$4,$5,$6,$7,0*
20,1,$1+$1,$6,$7,$8,$9,0*
20,1,$1+$1,$8,$9,$2,$3,0*%
%AMFreePoly0*
4,1,25,-1.500000,1.420000,-1.360000,1.280000,-1.205000,1.155000,-1.035000,1.045000,-0.860000,0.950000,-0.675000,0.875000,-0.480000,0.820000,-0.280000,0.780000,-0.085000,0.765000,0.085000,0.765000,0.280000,0.780000,0.480000,0.820000,0.675000,0.875000,0.860000,0.950000,1.035000,1.045000,1.205000,1.155000,1.360000,1.280000,1.500000,1.420000,1.645000,1.595000,3.555000,1.595000,
3.555000,-0.755000,-3.555000,-0.755000,-3.555000,1.595000,-1.645000,1.595000,-1.500000,1.420000,-1.500000,1.420000,$1*%
%AMFreePoly1*
4,1,9,3.862500,-0.866500,0.737500,-0.866500,0.737500,-0.450000,-0.737500,-0.450000,-0.737500,0.450000,0.737500,0.450000,0.737500,0.866500,3.862500,0.866500,3.862500,-0.866500,3.862500,-0.866500,$1*%
G04 Aperture macros list end*
%ADD10C,0.100000*%
%ADD11C,0.800000*%
%ADD12C,5.400000*%
%ADD13C,1.730000*%
%ADD14FreePoly0,180.000000*%
%ADD15FreePoly0,0.000000*%
%ADD16RoundRect,0.200000X0.200000X0.275000X-0.200000X0.275000X-0.200000X-0.275000X0.200000X-0.275000X0*%
%ADD17RoundRect,0.200000X-0.275000X0.200000X-0.275000X-0.200000X0.275000X-0.200000X0.275000X0.200000X0*%
%ADD18C,1.000000*%
%ADD19R,0.900000X1.300000*%
%ADD20FreePoly1,270.000000*%
%ADD21C,0.900000*%
%ADD22R,1.000000X1.000000*%
%ADD23R,1.000000X4.550000*%
%ADD24R,1.000000X3.800000*%
%ADD25R,3.980000X1.000000*%
%ADD26R,3.800000X1.000000*%
%ADD27RoundRect,0.200000X0.275000X-0.200000X0.275000X0.200000X-0.275000X0.200000X-0.275000X-0.200000X0*%
%ADD28FreePoly1,90.000000*%
G04 APERTURE END LIST*
D10*
X185750000Y-104250000D02*
X157000000Y-104250000D01*
X157000000Y-110250000D01*
X135000000Y-110250000D01*
X135000000Y-104250000D01*
X106000000Y-104250000D01*
X106000000Y-102250000D01*
X185750000Y-102250000D01*
X185750000Y-104250000D01*
G36*
X185750000Y-104250000D02*
G01*
X157000000Y-104250000D01*
X157000000Y-110250000D01*
X135000000Y-110250000D01*
X135000000Y-104250000D01*
X106000000Y-104250000D01*
X106000000Y-102250000D01*
X185750000Y-102250000D01*
X185750000Y-104250000D01*
G37*
X157000000Y-84000000D02*
X185750000Y-84000000D01*
X185750000Y-86000000D01*
X106000000Y-86000000D01*
X106000000Y-84000000D01*
X135000000Y-84000000D01*
X135000000Y-78000000D01*
X157000000Y-78000000D01*
X157000000Y-84000000D01*
G36*
X157000000Y-84000000D02*
G01*
X185750000Y-84000000D01*
X185750000Y-86000000D01*
X106000000Y-86000000D01*
X106000000Y-84000000D01*
X135000000Y-84000000D01*
X135000000Y-78000000D01*
X157000000Y-78000000D01*
X157000000Y-84000000D01*
G37*
D11*
%TO.C,H2*%
X103975000Y-117980000D03*
X104568109Y-116548109D03*
X104568109Y-119411891D03*
X106000000Y-115955000D03*
D12*
X106000000Y-117980000D03*
D11*
X106000000Y-120005000D03*
X107431891Y-116548109D03*
X107431891Y-119411891D03*
X108025000Y-117980000D03*
%TD*%
%TO.C,H3*%
X183575000Y-117980000D03*
X184168109Y-116548109D03*
X184168109Y-119411891D03*
X185600000Y-115955000D03*
D12*
X185600000Y-117980000D03*
D11*
X185600000Y-120005000D03*
X187031891Y-116548109D03*
X187031891Y-119411891D03*
X187625000Y-117980000D03*
%TD*%
%TO.C,H1*%
X103975000Y-70000000D03*
X104568109Y-68568109D03*
X104568109Y-71431891D03*
X106000000Y-67975000D03*
D12*
X106000000Y-70000000D03*
D11*
X106000000Y-72025000D03*
X107431891Y-68568109D03*
X107431891Y-71431891D03*
X108025000Y-70000000D03*
%TD*%
%TO.C,H4*%
X183575000Y-70000000D03*
X184168109Y-68568109D03*
X184168109Y-71431891D03*
X185600000Y-67975000D03*
D12*
X185600000Y-70000000D03*
D11*
X185600000Y-72025000D03*
X187031891Y-68568109D03*
X187031891Y-71431891D03*
X187625000Y-70000000D03*
%TD*%
D13*
%TO.C,J3*%
X184600000Y-85000000D03*
D14*
X184600000Y-82200000D03*
D15*
X184600000Y-87800000D03*
%TD*%
D16*
%TO.C,C7*%
X153825000Y-103250000D03*
X152175000Y-103250000D03*
%TD*%
D17*
%TO.C,C6*%
X150000000Y-103250000D03*
X150000000Y-104900000D03*
%TD*%
%TO.C,D5*%
X142000000Y-103250000D03*
X142000000Y-104900000D03*
%TD*%
D16*
%TO.C,D4*%
X139825000Y-106250000D03*
X138175000Y-106250000D03*
%TD*%
%TO.C,D7*%
X139825000Y-103250000D03*
X138175000Y-103250000D03*
%TD*%
D17*
%TO.C,D2*%
X136000000Y-107600000D03*
X136000000Y-109250000D03*
%TD*%
%TO.C,D6*%
X136000000Y-103250000D03*
X136000000Y-104900000D03*
%TD*%
%TO.C,D3*%
X134000000Y-107600000D03*
X134000000Y-109250000D03*
%TD*%
D18*
%TO.C,TP5*%
X165000000Y-109250000D03*
%TD*%
%TO.C,TP7*%
X165000000Y-115500000D03*
%TD*%
D17*
%TO.C,C1*%
X158000000Y-107600000D03*
X158000000Y-109250000D03*
%TD*%
D16*
%TO.C,C4*%
X153825000Y-106250000D03*
X152175000Y-106250000D03*
%TD*%
D17*
%TO.C,C5*%
X156000000Y-103250000D03*
X156000000Y-104900000D03*
%TD*%
%TO.C,C2*%
X156000000Y-107600000D03*
X156000000Y-109250000D03*
%TD*%
%TO.C,D1*%
X142000000Y-107600000D03*
X142000000Y-109250000D03*
%TD*%
D19*
%TO.C,U2*%
X147500000Y-103250000D03*
D20*
X146000000Y-103337500D03*
D19*
X144500000Y-103250000D03*
%TD*%
D17*
%TO.C,C3*%
X150000000Y-107600000D03*
X150000000Y-109250000D03*
%TD*%
D21*
%TO.C,Z1*%
X116000000Y-71000000D03*
X116000000Y-72270000D03*
X116000000Y-73540000D03*
X116000000Y-74810000D03*
X116000000Y-76080000D03*
X116000000Y-77350000D03*
X116000000Y-78620000D03*
X117270000Y-71000000D03*
X117270000Y-72270000D03*
X117270000Y-73540000D03*
X117270000Y-74810000D03*
X117270000Y-76080000D03*
X117270000Y-77350000D03*
X117270000Y-78620000D03*
X118540000Y-71000000D03*
X118540000Y-72270000D03*
X118540000Y-73540000D03*
X118540000Y-74810000D03*
X118540000Y-76080000D03*
X118540000Y-77350000D03*
X118540000Y-78620000D03*
X119810000Y-71000000D03*
X119810000Y-72270000D03*
X119810000Y-73540000D03*
X119810000Y-74810000D03*
X119810000Y-76080000D03*
X119810000Y-77350000D03*
X119810000Y-78620000D03*
X121080000Y-71000000D03*
X121080000Y-72270000D03*
X121080000Y-73540000D03*
X121080000Y-74810000D03*
X121080000Y-76080000D03*
X121080000Y-77350000D03*
X121080000Y-78620000D03*
X122350000Y-71000000D03*
X122350000Y-72270000D03*
X122350000Y-73540000D03*
X122350000Y-74810000D03*
X122350000Y-76080000D03*
X122350000Y-77350000D03*
X122350000Y-78620000D03*
X123620000Y-71000000D03*
X123620000Y-72270000D03*
X123620000Y-73540000D03*
X123620000Y-74810000D03*
X123620000Y-76080000D03*
X123620000Y-77350000D03*
X123620000Y-78620000D03*
%TD*%
%TO.C,Z2*%
X168380000Y-109380000D03*
X168380000Y-110650000D03*
X168380000Y-111920000D03*
X168380000Y-113190000D03*
X168380000Y-114460000D03*
X168380000Y-115730000D03*
X168380000Y-117000000D03*
X169650000Y-109380000D03*
X169650000Y-110650000D03*
X169650000Y-111920000D03*
X169650000Y-113190000D03*
X169650000Y-114460000D03*
X169650000Y-115730000D03*
X169650000Y-117000000D03*
X170920000Y-109380000D03*
X170920000Y-110650000D03*
X170920000Y-111920000D03*
X170920000Y-113190000D03*
X170920000Y-114460000D03*
X170920000Y-115730000D03*
X170920000Y-117000000D03*
X172190000Y-109380000D03*
X172190000Y-110650000D03*
X172190000Y-111920000D03*
X172190000Y-113190000D03*
X172190000Y-114460000D03*
X172190000Y-115730000D03*
X172190000Y-117000000D03*
X173460000Y-109380000D03*
X173460000Y-110650000D03*
X173460000Y-111920000D03*
X173460000Y-113190000D03*
X173460000Y-114460000D03*
X173460000Y-115730000D03*
X173460000Y-117000000D03*
X174730000Y-109380000D03*
X174730000Y-110650000D03*
X174730000Y-111920000D03*
X174730000Y-113190000D03*
X174730000Y-114460000D03*
X174730000Y-115730000D03*
X174730000Y-117000000D03*
X176000000Y-109380000D03*
X176000000Y-110650000D03*
X176000000Y-111920000D03*
X176000000Y-113190000D03*
X176000000Y-114460000D03*
X176000000Y-115730000D03*
X176000000Y-117000000D03*
%TD*%
%TO.C,Z3*%
X123620000Y-117000000D03*
X123620000Y-115730000D03*
X123620000Y-114460000D03*
X123620000Y-113190000D03*
X123620000Y-111920000D03*
X123620000Y-110650000D03*
X123620000Y-109380000D03*
X122350000Y-117000000D03*
X122350000Y-115730000D03*
X122350000Y-114460000D03*
X122350000Y-113190000D03*
X122350000Y-111920000D03*
X122350000Y-110650000D03*
X122350000Y-109380000D03*
X121080000Y-117000000D03*
X121080000Y-115730000D03*
X121080000Y-114460000D03*
X121080000Y-113190000D03*
X121080000Y-111920000D03*
X121080000Y-110650000D03*
X121080000Y-109380000D03*
X119810000Y-117000000D03*
X119810000Y-115730000D03*
X119810000Y-114460000D03*
X119810000Y-113190000D03*
X119810000Y-111920000D03*
X119810000Y-110650000D03*
X119810000Y-109380000D03*
X118540000Y-117000000D03*
X118540000Y-115730000D03*
X118540000Y-114460000D03*
X118540000Y-113190000D03*
X118540000Y-111920000D03*
X118540000Y-110650000D03*
X118540000Y-109380000D03*
X117270000Y-117000000D03*
X117270000Y-115730000D03*
X117270000Y-114460000D03*
X117270000Y-113190000D03*
X117270000Y-111920000D03*
X117270000Y-110650000D03*
X117270000Y-109380000D03*
X116000000Y-117000000D03*
X116000000Y-115730000D03*
X116000000Y-114460000D03*
X116000000Y-113190000D03*
X116000000Y-111920000D03*
X116000000Y-110650000D03*
X116000000Y-109380000D03*
%TD*%
%TO.C,Z4*%
X168380000Y-71000000D03*
X168380000Y-72270000D03*
X168380000Y-73540000D03*
X168380000Y-74810000D03*
X168380000Y-76080000D03*
X168380000Y-77350000D03*
X168380000Y-78620000D03*
X169650000Y-71000000D03*
X169650000Y-72270000D03*
X169650000Y-73540000D03*
X169650000Y-74810000D03*
X169650000Y-76080000D03*
X169650000Y-77350000D03*
X169650000Y-78620000D03*
X170920000Y-71000000D03*
X170920000Y-72270000D03*
X170920000Y-73540000D03*
X170920000Y-74810000D03*
X170920000Y-76080000D03*
X170920000Y-77350000D03*
X170920000Y-78620000D03*
X172190000Y-71000000D03*
X172190000Y-72270000D03*
X172190000Y-73540000D03*
X172190000Y-74810000D03*
X172190000Y-76080000D03*
X172190000Y-77350000D03*
X172190000Y-78620000D03*
X173460000Y-71000000D03*
X173460000Y-72270000D03*
X173460000Y-73540000D03*
X173460000Y-74810000D03*
X173460000Y-76080000D03*
X173460000Y-77350000D03*
X173460000Y-78620000D03*
X174730000Y-71000000D03*
X174730000Y-72270000D03*
X174730000Y-73540000D03*
X174730000Y-74810000D03*
X174730000Y-76080000D03*
X174730000Y-77350000D03*
X174730000Y-78620000D03*
X176000000Y-71000000D03*
X176000000Y-72270000D03*
X176000000Y-73540000D03*
X176000000Y-74810000D03*
X176000000Y-76080000D03*
X176000000Y-77350000D03*
X176000000Y-78620000D03*
%TD*%
D22*
%TO.C,J4*%
X160580000Y-115400000D03*
D23*
X160580000Y-112625000D03*
D24*
X160580000Y-106250000D03*
D23*
X160580000Y-99875000D03*
D22*
X160580000Y-97100000D03*
D25*
X158090000Y-115400000D03*
X158090000Y-97100000D03*
D26*
X152000000Y-115400000D03*
X152000000Y-97100000D03*
X146000000Y-115400000D03*
X146000000Y-97100000D03*
X140000000Y-115400000D03*
X140000000Y-97100000D03*
D25*
X133910000Y-115400000D03*
X133910000Y-97100000D03*
D22*
X131420000Y-115400000D03*
D23*
X131420000Y-112625000D03*
D24*
X131420000Y-106250000D03*
D23*
X131420000Y-99875000D03*
D22*
X131420000Y-97100000D03*
%TD*%
D16*
%TO.C,B7*%
X153825000Y-85000000D03*
X152175000Y-85000000D03*
%TD*%
D27*
%TO.C,A6*%
X142000000Y-85000000D03*
X142000000Y-83350000D03*
%TD*%
%TO.C,B6*%
X156000000Y-85000000D03*
X156000000Y-83350000D03*
%TD*%
D16*
%TO.C,A7*%
X139825000Y-85000000D03*
X138175000Y-85000000D03*
%TD*%
D19*
%TO.C,U1*%
X144500000Y-85000000D03*
D28*
X146000000Y-84912500D03*
D19*
X147500000Y-85000000D03*
%TD*%
D18*
%TO.C,TP3*%
X127000000Y-72750000D03*
%TD*%
D27*
%TO.C,B5*%
X150000000Y-85000000D03*
X150000000Y-83350000D03*
%TD*%
%TO.C,A5*%
X136000000Y-85000000D03*
X136000000Y-83350000D03*
%TD*%
%TO.C,A2*%
X136000000Y-80650000D03*
X136000000Y-79000000D03*
%TD*%
%TO.C,B3*%
X158000000Y-80650000D03*
X158000000Y-79000000D03*
%TD*%
%TO.C,B2*%
X156000000Y-80650000D03*
X156000000Y-79000000D03*
%TD*%
%TO.C,A1*%
X134000000Y-80650000D03*
X134000000Y-79000000D03*
%TD*%
%TO.C,A3*%
X142000000Y-80650000D03*
X142000000Y-79000000D03*
%TD*%
D16*
%TO.C,A4*%
X139825000Y-82000000D03*
X138175000Y-82000000D03*
%TD*%
%TO.C,B4*%
X153825000Y-82000000D03*
X152175000Y-82000000D03*
%TD*%
D27*
%TO.C,B1*%
X150000000Y-80650000D03*
X150000000Y-79000000D03*
%TD*%
D22*
%TO.C,J1*%
X131420000Y-72850000D03*
D23*
X131420000Y-75625000D03*
D24*
X131420000Y-82000000D03*
D23*
X131420000Y-88375000D03*
D22*
X131420000Y-91150000D03*
D25*
X133910000Y-72850000D03*
X133910000Y-91150000D03*
D26*
X140000000Y-72850000D03*
X140000000Y-91150000D03*
X146000000Y-72850000D03*
X146000000Y-91150000D03*
X152000000Y-72850000D03*
X152000000Y-91150000D03*
D25*
X158090000Y-72850000D03*
X158090000Y-91150000D03*
D22*
X160580000Y-72850000D03*
D23*
X160580000Y-75625000D03*
D24*
X160580000Y-82000000D03*
D23*
X160580000Y-88375000D03*
D22*
X160580000Y-91150000D03*
%TD*%
D13*
%TO.C,J2*%
X107000000Y-85000000D03*
D14*
X107000000Y-82200000D03*
D15*
X107000000Y-87800000D03*
%TD*%
D18*
%TO.C,TP2*%
X165000000Y-79000000D03*
%TD*%
%TO.C,TP4*%
X165000000Y-72750000D03*
%TD*%
%TO.C,TP6*%
X127000000Y-109250000D03*
%TD*%
%TO.C,TP8*%
X127000000Y-115500000D03*
%TD*%
%TO.C,TP1*%
X127000000Y-79000000D03*
%TD*%
D13*
%TO.C,J5*%
X184600000Y-103250000D03*
D15*
X184600000Y-106050000D03*
D14*
X184600000Y-100450000D03*
%TD*%
D13*
%TO.C,J6*%
X107000000Y-103250000D03*
D15*
X107000000Y-106050000D03*
D14*
X107000000Y-100450000D03*
%TD*%
M02*
