M48
; DRILL file {KiCad 9.0.0} date 2025-02-26T11:30:24+0100
; FORMAT={-:-/ absolute / metric / decimal}
; #@! TF.CreationDate,2025-02-26T11:30:24+01:00
; #@! TF.GenerationSoftware,Kicad,Pcbnew,9.0.0
; #@! TF.FileFunction,Plated,1,2,PTH
FMAT,2
METRIC
; #@! TA.AperFunction,Plated,PTH,ViaDrill
T1C0.250
; #@! TA.AperFunction,Plated,PTH,ComponentDrill
T2C0.500
; #@! TA.AperFunction,Plated,PTH,ComponentDrill
T3C2.700
%
G90
G05
T1
X104.0Y-74.0
X104.0Y-77.0
X104.0Y-80.0
X104.0Y-90.0
X104.0Y-93.0
X104.0Y-96.0
X104.0Y-99.0
X104.0Y-108.0
X104.0Y-111.0
X104.0Y-114.0
X105.0Y-82.75
X105.0Y-87.25
X105.0Y-101.0
X105.0Y-105.5
X107.0Y-82.5
X107.0Y-87.5
X107.0Y-100.75
X107.0Y-105.75
X109.0Y-82.75
X109.0Y-87.25
X109.0Y-101.0
X109.0Y-105.5
X110.0Y-68.0
X110.0Y-120.0
X111.0Y-83.75
X111.0Y-86.25
X111.0Y-102.0
X111.0Y-104.5
X113.0Y-68.0
X113.0Y-120.0
X113.5Y-83.75
X113.5Y-86.25
X113.5Y-102.0
X113.5Y-104.5
X116.0Y-68.0
X116.0Y-83.75
X116.0Y-86.25
X116.0Y-102.0
X116.0Y-104.5
X116.0Y-120.0
X118.5Y-83.75
X118.5Y-86.25
X118.5Y-102.0
X118.5Y-104.5
X119.0Y-68.0
X119.0Y-120.0
X121.0Y-83.75
X121.0Y-86.25
X121.0Y-102.0
X121.0Y-104.5
X122.0Y-68.0
X122.0Y-120.0
X123.5Y-83.75
X123.5Y-86.25
X123.5Y-102.0
X123.5Y-104.5
X125.0Y-68.0
X125.0Y-120.0
X126.0Y-71.75
X126.0Y-73.75
X126.0Y-83.75
X126.0Y-86.25
X126.0Y-102.0
X126.0Y-104.5
X126.0Y-114.5
X126.0Y-116.5
X127.75Y-77.75
X127.75Y-80.25
X127.75Y-108.0
X127.75Y-110.5
X128.0Y-68.0
X128.0Y-71.75
X128.0Y-73.75
X128.0Y-114.5
X128.0Y-116.5
X128.0Y-120.0
X128.5Y-83.75
X128.5Y-86.25
X128.5Y-102.0
X128.5Y-104.5
X130.0Y-77.75
X130.0Y-80.25
X130.0Y-83.75
X130.0Y-86.25
X130.0Y-102.0
X130.0Y-104.5
X130.0Y-108.0
X130.0Y-110.5
X131.0Y-68.0
X131.0Y-120.0
X132.75Y-74.25
X132.75Y-77.75
X132.75Y-80.25
X132.75Y-81.75
X132.75Y-83.75
X132.75Y-86.25
X132.75Y-89.75
X132.75Y-98.5
X132.75Y-102.0
X132.75Y-104.5
X132.75Y-106.5
X132.75Y-108.0
X132.75Y-110.5
X132.75Y-114.0
X134.0Y-68.0
X134.0Y-120.0
X134.75Y-81.75
X134.75Y-83.75
X134.75Y-104.5
X134.75Y-106.5
X135.0Y-79.75
X135.0Y-108.5
X135.25Y-74.25
X135.25Y-77.75
X135.25Y-86.25
X135.25Y-89.75
X135.25Y-98.5
X135.25Y-102.0
X135.25Y-110.5
X135.25Y-114.0
X137.0Y-68.0
X137.0Y-120.0
X137.25Y-79.25
X137.25Y-80.75
X137.25Y-83.75
X137.25Y-104.5
X137.25Y-107.5
X137.25Y-109.0
X137.75Y-74.25
X137.75Y-77.75
X137.75Y-86.25
X137.75Y-89.75
X137.75Y-98.5
X137.75Y-102.0
X137.75Y-110.5
X137.75Y-114.0
X139.0Y-80.75
X139.0Y-83.0
X139.0Y-84.0
X139.0Y-104.25
X139.0Y-105.25
X139.0Y-107.5
X140.0Y-68.0
X140.0Y-120.0
X140.25Y-74.25
X140.25Y-77.75
X140.25Y-86.25
X140.25Y-89.75
X140.25Y-98.5
X140.25Y-102.0
X140.25Y-110.5
X140.25Y-114.0
X140.75Y-79.25
X140.75Y-80.75
X140.75Y-83.75
X140.75Y-104.5
X140.75Y-107.5
X140.75Y-109.0
X143.0Y-68.0
X143.0Y-110.5
X143.0Y-114.0
X143.0Y-120.0
X143.25Y-74.25
X143.25Y-77.75
X143.25Y-80.0
X143.25Y-82.0
X143.25Y-83.75
X143.25Y-86.25
X143.25Y-89.75
X143.25Y-98.5
X143.25Y-102.0
X143.25Y-104.5
X143.25Y-106.25
X143.25Y-108.25
X144.5Y-82.75
X144.5Y-105.5
X146.0Y-68.0
X146.0Y-74.25
X146.0Y-77.75
X146.0Y-80.0
X146.0Y-82.0
X146.0Y-83.75
X146.0Y-85.0
X146.0Y-86.25
X146.0Y-89.75
X146.0Y-98.5
X146.0Y-102.0
X146.0Y-103.3
X146.0Y-104.5
X146.0Y-106.25
X146.0Y-108.25
X146.0Y-110.5
X146.0Y-114.0
X146.0Y-120.0
X147.5Y-82.75
X147.5Y-105.5
X148.5Y-106.25
X148.5Y-108.25
X148.75Y-74.25
X148.75Y-77.75
X148.75Y-80.0
X148.75Y-82.0
X148.75Y-83.75
X148.75Y-86.25
X148.75Y-89.75
X148.75Y-98.5
X148.75Y-102.0
X148.75Y-104.5
X148.75Y-110.5
X148.75Y-114.0
X149.0Y-68.0
X149.0Y-120.0
X151.25Y-79.25
X151.25Y-80.75
X151.25Y-83.75
X151.25Y-104.5
X151.25Y-107.5
X151.25Y-109.0
X151.75Y-74.25
X151.75Y-77.75
X151.75Y-86.25
X151.75Y-89.75
X151.75Y-98.5
X151.75Y-102.0
X151.75Y-110.5
X151.75Y-114.0
X152.0Y-68.0
X152.0Y-120.0
X153.0Y-80.75
X153.0Y-83.0
X153.0Y-84.0
X153.0Y-104.25
X153.0Y-105.25
X153.0Y-107.5
X154.25Y-74.25
X154.25Y-77.75
X154.25Y-86.25
X154.25Y-89.75
X154.25Y-98.5
X154.25Y-102.0
X154.25Y-110.5
X154.25Y-114.0
X154.75Y-79.25
X154.75Y-80.75
X154.75Y-83.75
X154.75Y-104.5
X154.75Y-107.5
X154.75Y-109.0
X155.0Y-68.0
X155.0Y-120.0
X156.75Y-74.25
X156.75Y-77.75
X156.75Y-86.25
X156.75Y-89.75
X156.75Y-98.5
X156.75Y-102.0
X156.75Y-110.5
X156.75Y-114.0
X157.0Y-79.75
X157.0Y-108.5
X157.25Y-81.75
X157.25Y-83.75
X157.25Y-104.5
X157.25Y-106.5
X158.0Y-68.0
X158.0Y-120.0
X159.25Y-74.25
X159.25Y-77.75
X159.25Y-80.25
X159.25Y-81.75
X159.25Y-83.75
X159.25Y-86.25
X159.25Y-89.75
X159.25Y-98.5
X159.25Y-102.0
X159.25Y-104.5
X159.25Y-106.5
X159.25Y-108.0
X159.25Y-110.5
X159.25Y-114.0
X161.0Y-68.0
X161.0Y-120.0
X162.0Y-77.75
X162.0Y-80.25
X162.0Y-83.75
X162.0Y-86.25
X162.0Y-102.0
X162.0Y-104.5
X162.0Y-108.0
X162.0Y-110.5
X164.0Y-68.0
X164.0Y-71.75
X164.0Y-73.75
X164.0Y-114.5
X164.0Y-116.5
X164.0Y-120.0
X164.25Y-77.75
X164.25Y-80.25
X164.25Y-108.0
X164.25Y-110.5
X165.5Y-83.75
X165.5Y-86.25
X165.5Y-102.0
X165.5Y-104.5
X166.0Y-71.75
X166.0Y-73.75
X166.0Y-114.5
X166.0Y-116.5
X167.0Y-68.0
X167.0Y-120.0
X168.0Y-83.75
X168.0Y-86.25
X168.0Y-102.0
X168.0Y-104.5
X170.0Y-68.0
X170.0Y-120.0
X170.5Y-83.75
X170.5Y-86.25
X170.5Y-102.0
X170.5Y-104.5
X173.0Y-68.0
X173.0Y-83.75
X173.0Y-86.25
X173.0Y-102.0
X173.0Y-104.5
X173.0Y-120.0
X175.5Y-83.75
X175.5Y-86.25
X175.5Y-102.0
X175.5Y-104.5
X176.0Y-68.0
X176.0Y-120.0
X178.0Y-83.75
X178.0Y-86.25
X178.0Y-102.0
X178.0Y-104.5
X179.0Y-68.0
X179.0Y-120.0
X180.5Y-83.75
X180.5Y-86.25
X180.5Y-102.0
X180.5Y-104.5
X182.0Y-68.0
X182.0Y-120.0
X182.75Y-82.75
X182.75Y-87.25
X182.75Y-101.25
X182.75Y-105.25
X184.6Y-82.5
X184.6Y-87.5
X184.6Y-100.8
X184.6Y-105.7
X186.5Y-82.75
X186.5Y-87.25
X186.5Y-101.25
X186.5Y-105.25
X187.0Y-74.0
X187.0Y-77.0
X187.0Y-80.0
X187.0Y-90.0
X187.0Y-93.0
X187.0Y-96.0
X187.0Y-99.0
X187.0Y-108.0
X187.0Y-111.0
X187.0Y-114.0
T2
X103.975Y-70.0
X103.975Y-117.98
X104.568Y-68.568
X104.568Y-71.432
X104.568Y-116.548
X104.568Y-119.412
X106.0Y-67.975
X106.0Y-72.025
X106.0Y-115.955
X106.0Y-120.005
X107.432Y-68.568
X107.432Y-71.432
X107.432Y-116.548
X107.432Y-119.412
X108.025Y-70.0
X108.025Y-117.98
X183.575Y-70.0
X183.575Y-117.98
X184.168Y-68.568
X184.168Y-71.432
X184.168Y-116.548
X184.168Y-119.412
X185.6Y-67.975
X185.6Y-72.025
X185.6Y-115.955
X185.6Y-120.005
X187.032Y-68.568
X187.032Y-71.432
X187.032Y-116.548
X187.032Y-119.412
X187.625Y-70.0
X187.625Y-117.98
T3
X106.0Y-70.0
X106.0Y-117.98
X185.6Y-70.0
X185.6Y-117.98
M30
