%TF.GenerationSoftware,KiCad,Pcbnew,9.0.0*%
%TF.CreationDate,2025-02-26T11:30:22+01:00*%
%TF.ProjectId,rf-proto-card,72662d70-726f-4746-9f2d-636172642e6b,2*%
%TF.SameCoordinates,Original*%
%TF.FileFunction,Legend,Top*%
%TF.FilePolarity,Positive*%
%FSLAX46Y46*%
G04 Gerber Fmt 4.6, Leading zero omitted, Abs format (unit mm)*
G04 Created by KiCad (PCBNEW 9.0.0) date 2025-02-26 11:30:22*
%MOMM*%
%LPD*%
G01*
G04 APERTURE LIST*
G04 Aperture macros list*
%AMRoundRect*
0 Rectangle with rounded corners*
0 $1 Rounding radius*
0 $2 $3 $4 $5 $6 $7 $8 $9 X,Y pos of 4 corners*
0 Add a 4 corners polygon primitive as box body*
4,1,4,$2,$3,$4,$5,$6,$7,$8,$9,$2,$3,0*
0 Add four circle primitives for the rounded corners*
1,1,$1+$1,$2,$3*
1,1,$1+$1,$4,$5*
1,1,$1+$1,$6,$7*
1,1,$1+$1,$8,$9*
0 Add four rect primitives between the rounded corners*
20,1,$1+$1,$2,$3,$4,$5,0*
20,1,$1+$1,$4,$5,$6,$7,0*
20,1,$1+$1,$6,$7,$8,$9,0*
20,1,$1+$1,$8,$9,$2,$3,0*%
%AMFreePoly0*
4,1,25,-1.500000,1.420000,-1.360000,1.280000,-1.205000,1.155000,-1.035000,1.045000,-0.860000,0.950000,-0.675000,0.875000,-0.480000,0.820000,-0.280000,0.780000,-0.085000,0.765000,0.085000,0.765000,0.280000,0.780000,0.480000,0.820000,0.675000,0.875000,0.860000,0.950000,1.035000,1.045000,1.205000,1.155000,1.360000,1.280000,1.500000,1.420000,1.645000,1.595000,3.555000,1.595000,
3.555000,-0.755000,-3.555000,-0.755000,-3.555000,1.595000,-1.645000,1.595000,-1.500000,1.420000,-1.500000,1.420000,$1*%
%AMFreePoly1*
4,1,9,3.862500,-0.866500,0.737500,-0.866500,0.737500,-0.450000,-0.737500,-0.450000,-0.737500,0.450000,0.737500,0.450000,0.737500,0.866500,3.862500,0.866500,3.862500,-0.866500,3.862500,-0.866500,$1*%
G04 Aperture macros list end*
%ADD10C,0.120000*%
%ADD11C,0.300000*%
%ADD12C,0.150000*%
%ADD13C,0.375000*%
%ADD14C,0.100000*%
%ADD15C,0.800000*%
%ADD16C,5.400000*%
%ADD17C,1.730000*%
%ADD18FreePoly0,180.000000*%
%ADD19FreePoly0,0.000000*%
%ADD20RoundRect,0.200000X0.200000X0.275000X-0.200000X0.275000X-0.200000X-0.275000X0.200000X-0.275000X0*%
%ADD21RoundRect,0.200000X-0.275000X0.200000X-0.275000X-0.200000X0.275000X-0.200000X0.275000X0.200000X0*%
%ADD22C,1.000000*%
%ADD23R,0.900000X1.300000*%
%ADD24FreePoly1,270.000000*%
%ADD25C,0.900000*%
%ADD26R,1.000000X1.000000*%
%ADD27R,1.000000X4.550000*%
%ADD28R,1.000000X3.800000*%
%ADD29R,3.980000X1.000000*%
%ADD30R,3.800000X1.000000*%
%ADD31RoundRect,0.200000X0.275000X-0.200000X0.275000X0.200000X-0.275000X0.200000X-0.275000X-0.200000X0*%
%ADD32FreePoly1,90.000000*%
G04 APERTURE END LIST*
D10*
X115000000Y-79600000D02*
X115000000Y-70000000D01*
X115000000Y-108400000D02*
X124600000Y-108400000D01*
X115000000Y-118000000D02*
X115000000Y-108400000D01*
X124600000Y-108400000D02*
X124600000Y-118000000D01*
X124600000Y-118000000D02*
X115000000Y-118000000D01*
D11*
X167600000Y-87800000D02*
X170200000Y-87800000D01*
X170200000Y-87800000D02*
X169600000Y-88200000D01*
X170200000Y-87800000D02*
X169600000Y-87400000D01*
X174200000Y-100400000D02*
X174800000Y-100000000D01*
X174200000Y-100400000D02*
X174800000Y-100800000D01*
X176800000Y-100400000D02*
X174200000Y-100400000D01*
D10*
X167400000Y-79600000D02*
X167400000Y-70000000D01*
D11*
X117600000Y-87800000D02*
X117000000Y-88200000D01*
D10*
X167400000Y-108400000D02*
X177000000Y-108400000D01*
D11*
X117600000Y-87800000D02*
X117000000Y-87400000D01*
D10*
X124600000Y-79600000D02*
X115000000Y-79600000D01*
D11*
X121400000Y-100400000D02*
X122000000Y-100800000D01*
D10*
X177000000Y-118000000D02*
X167400000Y-118000000D01*
X167400000Y-118000000D02*
X167400000Y-108400000D01*
X177000000Y-70000000D02*
X177000000Y-79600000D01*
X177000000Y-79600000D02*
X167400000Y-79600000D01*
X167400000Y-70000000D02*
X177000000Y-70000000D01*
X115000000Y-70000000D02*
X124600000Y-70000000D01*
X177000000Y-108400000D02*
X177000000Y-118000000D01*
D11*
X124000000Y-100400000D02*
X121400000Y-100400000D01*
D10*
X124600000Y-70000000D02*
X124600000Y-79600000D01*
D11*
X115000000Y-87800000D02*
X117600000Y-87800000D01*
X121400000Y-100400000D02*
X122000000Y-100000000D01*
D12*
X126309523Y-70288152D02*
X126309523Y-71097676D01*
X126309523Y-71097676D02*
X126261904Y-71192914D01*
X126261904Y-71192914D02*
X126214285Y-71240533D01*
X126214285Y-71240533D02*
X126119047Y-71288152D01*
X126119047Y-71288152D02*
X125976190Y-71288152D01*
X125976190Y-71288152D02*
X125880952Y-71240533D01*
X126309523Y-70907200D02*
X126214285Y-70954819D01*
X126214285Y-70954819D02*
X126023809Y-70954819D01*
X126023809Y-70954819D02*
X125928571Y-70907200D01*
X125928571Y-70907200D02*
X125880952Y-70859580D01*
X125880952Y-70859580D02*
X125833333Y-70764342D01*
X125833333Y-70764342D02*
X125833333Y-70478628D01*
X125833333Y-70478628D02*
X125880952Y-70383390D01*
X125880952Y-70383390D02*
X125928571Y-70335771D01*
X125928571Y-70335771D02*
X126023809Y-70288152D01*
X126023809Y-70288152D02*
X126214285Y-70288152D01*
X126214285Y-70288152D02*
X126309523Y-70335771D01*
X126785714Y-70288152D02*
X126785714Y-70954819D01*
X126785714Y-70383390D02*
X126833333Y-70335771D01*
X126833333Y-70335771D02*
X126928571Y-70288152D01*
X126928571Y-70288152D02*
X127071428Y-70288152D01*
X127071428Y-70288152D02*
X127166666Y-70335771D01*
X127166666Y-70335771D02*
X127214285Y-70431009D01*
X127214285Y-70431009D02*
X127214285Y-70954819D01*
X128119047Y-70954819D02*
X128119047Y-69954819D01*
X128119047Y-70907200D02*
X128023809Y-70954819D01*
X128023809Y-70954819D02*
X127833333Y-70954819D01*
X127833333Y-70954819D02*
X127738095Y-70907200D01*
X127738095Y-70907200D02*
X127690476Y-70859580D01*
X127690476Y-70859580D02*
X127642857Y-70764342D01*
X127642857Y-70764342D02*
X127642857Y-70478628D01*
X127642857Y-70478628D02*
X127690476Y-70383390D01*
X127690476Y-70383390D02*
X127738095Y-70335771D01*
X127738095Y-70335771D02*
X127833333Y-70288152D01*
X127833333Y-70288152D02*
X128023809Y-70288152D01*
X128023809Y-70288152D02*
X128119047Y-70335771D01*
X126309523Y-113038152D02*
X126309523Y-113847676D01*
X126309523Y-113847676D02*
X126261904Y-113942914D01*
X126261904Y-113942914D02*
X126214285Y-113990533D01*
X126214285Y-113990533D02*
X126119047Y-114038152D01*
X126119047Y-114038152D02*
X125976190Y-114038152D01*
X125976190Y-114038152D02*
X125880952Y-113990533D01*
X126309523Y-113657200D02*
X126214285Y-113704819D01*
X126214285Y-113704819D02*
X126023809Y-113704819D01*
X126023809Y-113704819D02*
X125928571Y-113657200D01*
X125928571Y-113657200D02*
X125880952Y-113609580D01*
X125880952Y-113609580D02*
X125833333Y-113514342D01*
X125833333Y-113514342D02*
X125833333Y-113228628D01*
X125833333Y-113228628D02*
X125880952Y-113133390D01*
X125880952Y-113133390D02*
X125928571Y-113085771D01*
X125928571Y-113085771D02*
X126023809Y-113038152D01*
X126023809Y-113038152D02*
X126214285Y-113038152D01*
X126214285Y-113038152D02*
X126309523Y-113085771D01*
X126785714Y-113038152D02*
X126785714Y-113704819D01*
X126785714Y-113133390D02*
X126833333Y-113085771D01*
X126833333Y-113085771D02*
X126928571Y-113038152D01*
X126928571Y-113038152D02*
X127071428Y-113038152D01*
X127071428Y-113038152D02*
X127166666Y-113085771D01*
X127166666Y-113085771D02*
X127214285Y-113181009D01*
X127214285Y-113181009D02*
X127214285Y-113704819D01*
X128119047Y-113704819D02*
X128119047Y-112704819D01*
X128119047Y-113657200D02*
X128023809Y-113704819D01*
X128023809Y-113704819D02*
X127833333Y-113704819D01*
X127833333Y-113704819D02*
X127738095Y-113657200D01*
X127738095Y-113657200D02*
X127690476Y-113609580D01*
X127690476Y-113609580D02*
X127642857Y-113514342D01*
X127642857Y-113514342D02*
X127642857Y-113228628D01*
X127642857Y-113228628D02*
X127690476Y-113133390D01*
X127690476Y-113133390D02*
X127738095Y-113085771D01*
X127738095Y-113085771D02*
X127833333Y-113038152D01*
X127833333Y-113038152D02*
X128023809Y-113038152D01*
X128023809Y-113038152D02*
X128119047Y-113085771D01*
X125238095Y-76538152D02*
X125476190Y-77204819D01*
X125476190Y-77204819D02*
X125714285Y-76538152D01*
X126095238Y-77204819D02*
X126095238Y-76204819D01*
X126095238Y-76585771D02*
X126190476Y-76538152D01*
X126190476Y-76538152D02*
X126380952Y-76538152D01*
X126380952Y-76538152D02*
X126476190Y-76585771D01*
X126476190Y-76585771D02*
X126523809Y-76633390D01*
X126523809Y-76633390D02*
X126571428Y-76728628D01*
X126571428Y-76728628D02*
X126571428Y-77014342D01*
X126571428Y-77014342D02*
X126523809Y-77109580D01*
X126523809Y-77109580D02*
X126476190Y-77157200D01*
X126476190Y-77157200D02*
X126380952Y-77204819D01*
X126380952Y-77204819D02*
X126190476Y-77204819D01*
X126190476Y-77204819D02*
X126095238Y-77157200D01*
X127000000Y-76823866D02*
X127761905Y-76823866D01*
X128666666Y-77204819D02*
X128666666Y-76681009D01*
X128666666Y-76681009D02*
X128619047Y-76585771D01*
X128619047Y-76585771D02*
X128523809Y-76538152D01*
X128523809Y-76538152D02*
X128333333Y-76538152D01*
X128333333Y-76538152D02*
X128238095Y-76585771D01*
X128666666Y-77157200D02*
X128571428Y-77204819D01*
X128571428Y-77204819D02*
X128333333Y-77204819D01*
X128333333Y-77204819D02*
X128238095Y-77157200D01*
X128238095Y-77157200D02*
X128190476Y-77061961D01*
X128190476Y-77061961D02*
X128190476Y-76966723D01*
X128190476Y-76966723D02*
X128238095Y-76871485D01*
X128238095Y-76871485D02*
X128333333Y-76823866D01*
X128333333Y-76823866D02*
X128571428Y-76823866D01*
X128571428Y-76823866D02*
X128666666Y-76776247D01*
X182147618Y-80204819D02*
X182147618Y-79204819D01*
X182147618Y-79585771D02*
X182242856Y-79538152D01*
X182242856Y-79538152D02*
X182433332Y-79538152D01*
X182433332Y-79538152D02*
X182528570Y-79585771D01*
X182528570Y-79585771D02*
X182576189Y-79633390D01*
X182576189Y-79633390D02*
X182623808Y-79728628D01*
X182623808Y-79728628D02*
X182623808Y-80014342D01*
X182623808Y-80014342D02*
X182576189Y-80109580D01*
X182576189Y-80109580D02*
X182528570Y-80157200D01*
X182528570Y-80157200D02*
X182433332Y-80204819D01*
X182433332Y-80204819D02*
X182242856Y-80204819D01*
X182242856Y-80204819D02*
X182147618Y-80157200D01*
X184099999Y-80585771D02*
X184052380Y-80538152D01*
X184052380Y-80538152D02*
X183957142Y-80395295D01*
X183957142Y-80395295D02*
X183909523Y-80300057D01*
X183909523Y-80300057D02*
X183861904Y-80157200D01*
X183861904Y-80157200D02*
X183814285Y-79919104D01*
X183814285Y-79919104D02*
X183814285Y-79728628D01*
X183814285Y-79728628D02*
X183861904Y-79490533D01*
X183861904Y-79490533D02*
X183909523Y-79347676D01*
X183909523Y-79347676D02*
X183957142Y-79252438D01*
X183957142Y-79252438D02*
X184052380Y-79109580D01*
X184052380Y-79109580D02*
X184099999Y-79061961D01*
X184623809Y-80204819D02*
X184528571Y-80157200D01*
X184528571Y-80157200D02*
X184480952Y-80109580D01*
X184480952Y-80109580D02*
X184433333Y-80014342D01*
X184433333Y-80014342D02*
X184433333Y-79728628D01*
X184433333Y-79728628D02*
X184480952Y-79633390D01*
X184480952Y-79633390D02*
X184528571Y-79585771D01*
X184528571Y-79585771D02*
X184623809Y-79538152D01*
X184623809Y-79538152D02*
X184766666Y-79538152D01*
X184766666Y-79538152D02*
X184861904Y-79585771D01*
X184861904Y-79585771D02*
X184909523Y-79633390D01*
X184909523Y-79633390D02*
X184957142Y-79728628D01*
X184957142Y-79728628D02*
X184957142Y-80014342D01*
X184957142Y-80014342D02*
X184909523Y-80109580D01*
X184909523Y-80109580D02*
X184861904Y-80157200D01*
X184861904Y-80157200D02*
X184766666Y-80204819D01*
X184766666Y-80204819D02*
X184623809Y-80204819D01*
X185814285Y-79538152D02*
X185814285Y-80204819D01*
X185385714Y-79538152D02*
X185385714Y-80061961D01*
X185385714Y-80061961D02*
X185433333Y-80157200D01*
X185433333Y-80157200D02*
X185528571Y-80204819D01*
X185528571Y-80204819D02*
X185671428Y-80204819D01*
X185671428Y-80204819D02*
X185766666Y-80157200D01*
X185766666Y-80157200D02*
X185814285Y-80109580D01*
X186147619Y-79538152D02*
X186528571Y-79538152D01*
X186290476Y-79204819D02*
X186290476Y-80061961D01*
X186290476Y-80061961D02*
X186338095Y-80157200D01*
X186338095Y-80157200D02*
X186433333Y-80204819D01*
X186433333Y-80204819D02*
X186528571Y-80204819D01*
X186766667Y-80585771D02*
X186814286Y-80538152D01*
X186814286Y-80538152D02*
X186909524Y-80395295D01*
X186909524Y-80395295D02*
X186957143Y-80300057D01*
X186957143Y-80300057D02*
X187004762Y-80157200D01*
X187004762Y-80157200D02*
X187052381Y-79919104D01*
X187052381Y-79919104D02*
X187052381Y-79728628D01*
X187052381Y-79728628D02*
X187004762Y-79490533D01*
X187004762Y-79490533D02*
X186957143Y-79347676D01*
X186957143Y-79347676D02*
X186909524Y-79252438D01*
X186909524Y-79252438D02*
X186814286Y-79109580D01*
X186814286Y-79109580D02*
X186766667Y-79061961D01*
X104976189Y-98404819D02*
X104976189Y-97404819D01*
X104976189Y-98357200D02*
X104880951Y-98404819D01*
X104880951Y-98404819D02*
X104690475Y-98404819D01*
X104690475Y-98404819D02*
X104595237Y-98357200D01*
X104595237Y-98357200D02*
X104547618Y-98309580D01*
X104547618Y-98309580D02*
X104499999Y-98214342D01*
X104499999Y-98214342D02*
X104499999Y-97928628D01*
X104499999Y-97928628D02*
X104547618Y-97833390D01*
X104547618Y-97833390D02*
X104595237Y-97785771D01*
X104595237Y-97785771D02*
X104690475Y-97738152D01*
X104690475Y-97738152D02*
X104880951Y-97738152D01*
X104880951Y-97738152D02*
X104976189Y-97785771D01*
X106499999Y-98785771D02*
X106452380Y-98738152D01*
X106452380Y-98738152D02*
X106357142Y-98595295D01*
X106357142Y-98595295D02*
X106309523Y-98500057D01*
X106309523Y-98500057D02*
X106261904Y-98357200D01*
X106261904Y-98357200D02*
X106214285Y-98119104D01*
X106214285Y-98119104D02*
X106214285Y-97928628D01*
X106214285Y-97928628D02*
X106261904Y-97690533D01*
X106261904Y-97690533D02*
X106309523Y-97547676D01*
X106309523Y-97547676D02*
X106357142Y-97452438D01*
X106357142Y-97452438D02*
X106452380Y-97309580D01*
X106452380Y-97309580D02*
X106499999Y-97261961D01*
X107023809Y-98404819D02*
X106928571Y-98357200D01*
X106928571Y-98357200D02*
X106880952Y-98309580D01*
X106880952Y-98309580D02*
X106833333Y-98214342D01*
X106833333Y-98214342D02*
X106833333Y-97928628D01*
X106833333Y-97928628D02*
X106880952Y-97833390D01*
X106880952Y-97833390D02*
X106928571Y-97785771D01*
X106928571Y-97785771D02*
X107023809Y-97738152D01*
X107023809Y-97738152D02*
X107166666Y-97738152D01*
X107166666Y-97738152D02*
X107261904Y-97785771D01*
X107261904Y-97785771D02*
X107309523Y-97833390D01*
X107309523Y-97833390D02*
X107357142Y-97928628D01*
X107357142Y-97928628D02*
X107357142Y-98214342D01*
X107357142Y-98214342D02*
X107309523Y-98309580D01*
X107309523Y-98309580D02*
X107261904Y-98357200D01*
X107261904Y-98357200D02*
X107166666Y-98404819D01*
X107166666Y-98404819D02*
X107023809Y-98404819D01*
X108214285Y-97738152D02*
X108214285Y-98404819D01*
X107785714Y-97738152D02*
X107785714Y-98261961D01*
X107785714Y-98261961D02*
X107833333Y-98357200D01*
X107833333Y-98357200D02*
X107928571Y-98404819D01*
X107928571Y-98404819D02*
X108071428Y-98404819D01*
X108071428Y-98404819D02*
X108166666Y-98357200D01*
X108166666Y-98357200D02*
X108214285Y-98309580D01*
X108547619Y-97738152D02*
X108928571Y-97738152D01*
X108690476Y-97404819D02*
X108690476Y-98261961D01*
X108690476Y-98261961D02*
X108738095Y-98357200D01*
X108738095Y-98357200D02*
X108833333Y-98404819D01*
X108833333Y-98404819D02*
X108928571Y-98404819D01*
X109166667Y-98785771D02*
X109214286Y-98738152D01*
X109214286Y-98738152D02*
X109309524Y-98595295D01*
X109309524Y-98595295D02*
X109357143Y-98500057D01*
X109357143Y-98500057D02*
X109404762Y-98357200D01*
X109404762Y-98357200D02*
X109452381Y-98119104D01*
X109452381Y-98119104D02*
X109452381Y-97928628D01*
X109452381Y-97928628D02*
X109404762Y-97690533D01*
X109404762Y-97690533D02*
X109357143Y-97547676D01*
X109357143Y-97547676D02*
X109309524Y-97452438D01*
X109309524Y-97452438D02*
X109214286Y-97309580D01*
X109214286Y-97309580D02*
X109166667Y-97261961D01*
X116061904Y-68538152D02*
X116061904Y-69538152D01*
X116061904Y-68585771D02*
X116157142Y-68538152D01*
X116157142Y-68538152D02*
X116347618Y-68538152D01*
X116347618Y-68538152D02*
X116442856Y-68585771D01*
X116442856Y-68585771D02*
X116490475Y-68633390D01*
X116490475Y-68633390D02*
X116538094Y-68728628D01*
X116538094Y-68728628D02*
X116538094Y-69014342D01*
X116538094Y-69014342D02*
X116490475Y-69109580D01*
X116490475Y-69109580D02*
X116442856Y-69157200D01*
X116442856Y-69157200D02*
X116347618Y-69204819D01*
X116347618Y-69204819D02*
X116157142Y-69204819D01*
X116157142Y-69204819D02*
X116061904Y-69157200D01*
X116966666Y-69204819D02*
X116966666Y-68538152D01*
X116966666Y-68728628D02*
X117014285Y-68633390D01*
X117014285Y-68633390D02*
X117061904Y-68585771D01*
X117061904Y-68585771D02*
X117157142Y-68538152D01*
X117157142Y-68538152D02*
X117252380Y-68538152D01*
X117728571Y-69204819D02*
X117633333Y-69157200D01*
X117633333Y-69157200D02*
X117585714Y-69109580D01*
X117585714Y-69109580D02*
X117538095Y-69014342D01*
X117538095Y-69014342D02*
X117538095Y-68728628D01*
X117538095Y-68728628D02*
X117585714Y-68633390D01*
X117585714Y-68633390D02*
X117633333Y-68585771D01*
X117633333Y-68585771D02*
X117728571Y-68538152D01*
X117728571Y-68538152D02*
X117871428Y-68538152D01*
X117871428Y-68538152D02*
X117966666Y-68585771D01*
X117966666Y-68585771D02*
X118014285Y-68633390D01*
X118014285Y-68633390D02*
X118061904Y-68728628D01*
X118061904Y-68728628D02*
X118061904Y-69014342D01*
X118061904Y-69014342D02*
X118014285Y-69109580D01*
X118014285Y-69109580D02*
X117966666Y-69157200D01*
X117966666Y-69157200D02*
X117871428Y-69204819D01*
X117871428Y-69204819D02*
X117728571Y-69204819D01*
X118347619Y-68538152D02*
X118728571Y-68538152D01*
X118490476Y-68204819D02*
X118490476Y-69061961D01*
X118490476Y-69061961D02*
X118538095Y-69157200D01*
X118538095Y-69157200D02*
X118633333Y-69204819D01*
X118633333Y-69204819D02*
X118728571Y-69204819D01*
X119204762Y-69204819D02*
X119109524Y-69157200D01*
X119109524Y-69157200D02*
X119061905Y-69109580D01*
X119061905Y-69109580D02*
X119014286Y-69014342D01*
X119014286Y-69014342D02*
X119014286Y-68728628D01*
X119014286Y-68728628D02*
X119061905Y-68633390D01*
X119061905Y-68633390D02*
X119109524Y-68585771D01*
X119109524Y-68585771D02*
X119204762Y-68538152D01*
X119204762Y-68538152D02*
X119347619Y-68538152D01*
X119347619Y-68538152D02*
X119442857Y-68585771D01*
X119442857Y-68585771D02*
X119490476Y-68633390D01*
X119490476Y-68633390D02*
X119538095Y-68728628D01*
X119538095Y-68728628D02*
X119538095Y-69014342D01*
X119538095Y-69014342D02*
X119490476Y-69109580D01*
X119490476Y-69109580D02*
X119442857Y-69157200D01*
X119442857Y-69157200D02*
X119347619Y-69204819D01*
X119347619Y-69204819D02*
X119204762Y-69204819D01*
X121157143Y-69204819D02*
X121157143Y-68681009D01*
X121157143Y-68681009D02*
X121109524Y-68585771D01*
X121109524Y-68585771D02*
X121014286Y-68538152D01*
X121014286Y-68538152D02*
X120823810Y-68538152D01*
X120823810Y-68538152D02*
X120728572Y-68585771D01*
X121157143Y-69157200D02*
X121061905Y-69204819D01*
X121061905Y-69204819D02*
X120823810Y-69204819D01*
X120823810Y-69204819D02*
X120728572Y-69157200D01*
X120728572Y-69157200D02*
X120680953Y-69061961D01*
X120680953Y-69061961D02*
X120680953Y-68966723D01*
X120680953Y-68966723D02*
X120728572Y-68871485D01*
X120728572Y-68871485D02*
X120823810Y-68823866D01*
X120823810Y-68823866D02*
X121061905Y-68823866D01*
X121061905Y-68823866D02*
X121157143Y-68776247D01*
X121633334Y-69204819D02*
X121633334Y-68538152D01*
X121633334Y-68728628D02*
X121680953Y-68633390D01*
X121680953Y-68633390D02*
X121728572Y-68585771D01*
X121728572Y-68585771D02*
X121823810Y-68538152D01*
X121823810Y-68538152D02*
X121919048Y-68538152D01*
X122633334Y-69157200D02*
X122538096Y-69204819D01*
X122538096Y-69204819D02*
X122347620Y-69204819D01*
X122347620Y-69204819D02*
X122252382Y-69157200D01*
X122252382Y-69157200D02*
X122204763Y-69061961D01*
X122204763Y-69061961D02*
X122204763Y-68681009D01*
X122204763Y-68681009D02*
X122252382Y-68585771D01*
X122252382Y-68585771D02*
X122347620Y-68538152D01*
X122347620Y-68538152D02*
X122538096Y-68538152D01*
X122538096Y-68538152D02*
X122633334Y-68585771D01*
X122633334Y-68585771D02*
X122680953Y-68681009D01*
X122680953Y-68681009D02*
X122680953Y-68776247D01*
X122680953Y-68776247D02*
X122204763Y-68871485D01*
X123538096Y-69204819D02*
X123538096Y-68681009D01*
X123538096Y-68681009D02*
X123490477Y-68585771D01*
X123490477Y-68585771D02*
X123395239Y-68538152D01*
X123395239Y-68538152D02*
X123204763Y-68538152D01*
X123204763Y-68538152D02*
X123109525Y-68585771D01*
X123538096Y-69157200D02*
X123442858Y-69204819D01*
X123442858Y-69204819D02*
X123204763Y-69204819D01*
X123204763Y-69204819D02*
X123109525Y-69157200D01*
X123109525Y-69157200D02*
X123061906Y-69061961D01*
X123061906Y-69061961D02*
X123061906Y-68966723D01*
X123061906Y-68966723D02*
X123109525Y-68871485D01*
X123109525Y-68871485D02*
X123204763Y-68823866D01*
X123204763Y-68823866D02*
X123442858Y-68823866D01*
X123442858Y-68823866D02*
X123538096Y-68776247D01*
X116061904Y-118788152D02*
X116061904Y-119788152D01*
X116061904Y-118835771D02*
X116157142Y-118788152D01*
X116157142Y-118788152D02*
X116347618Y-118788152D01*
X116347618Y-118788152D02*
X116442856Y-118835771D01*
X116442856Y-118835771D02*
X116490475Y-118883390D01*
X116490475Y-118883390D02*
X116538094Y-118978628D01*
X116538094Y-118978628D02*
X116538094Y-119264342D01*
X116538094Y-119264342D02*
X116490475Y-119359580D01*
X116490475Y-119359580D02*
X116442856Y-119407200D01*
X116442856Y-119407200D02*
X116347618Y-119454819D01*
X116347618Y-119454819D02*
X116157142Y-119454819D01*
X116157142Y-119454819D02*
X116061904Y-119407200D01*
X116966666Y-119454819D02*
X116966666Y-118788152D01*
X116966666Y-118978628D02*
X117014285Y-118883390D01*
X117014285Y-118883390D02*
X117061904Y-118835771D01*
X117061904Y-118835771D02*
X117157142Y-118788152D01*
X117157142Y-118788152D02*
X117252380Y-118788152D01*
X117728571Y-119454819D02*
X117633333Y-119407200D01*
X117633333Y-119407200D02*
X117585714Y-119359580D01*
X117585714Y-119359580D02*
X117538095Y-119264342D01*
X117538095Y-119264342D02*
X117538095Y-118978628D01*
X117538095Y-118978628D02*
X117585714Y-118883390D01*
X117585714Y-118883390D02*
X117633333Y-118835771D01*
X117633333Y-118835771D02*
X117728571Y-118788152D01*
X117728571Y-118788152D02*
X117871428Y-118788152D01*
X117871428Y-118788152D02*
X117966666Y-118835771D01*
X117966666Y-118835771D02*
X118014285Y-118883390D01*
X118014285Y-118883390D02*
X118061904Y-118978628D01*
X118061904Y-118978628D02*
X118061904Y-119264342D01*
X118061904Y-119264342D02*
X118014285Y-119359580D01*
X118014285Y-119359580D02*
X117966666Y-119407200D01*
X117966666Y-119407200D02*
X117871428Y-119454819D01*
X117871428Y-119454819D02*
X117728571Y-119454819D01*
X118347619Y-118788152D02*
X118728571Y-118788152D01*
X118490476Y-118454819D02*
X118490476Y-119311961D01*
X118490476Y-119311961D02*
X118538095Y-119407200D01*
X118538095Y-119407200D02*
X118633333Y-119454819D01*
X118633333Y-119454819D02*
X118728571Y-119454819D01*
X119204762Y-119454819D02*
X119109524Y-119407200D01*
X119109524Y-119407200D02*
X119061905Y-119359580D01*
X119061905Y-119359580D02*
X119014286Y-119264342D01*
X119014286Y-119264342D02*
X119014286Y-118978628D01*
X119014286Y-118978628D02*
X119061905Y-118883390D01*
X119061905Y-118883390D02*
X119109524Y-118835771D01*
X119109524Y-118835771D02*
X119204762Y-118788152D01*
X119204762Y-118788152D02*
X119347619Y-118788152D01*
X119347619Y-118788152D02*
X119442857Y-118835771D01*
X119442857Y-118835771D02*
X119490476Y-118883390D01*
X119490476Y-118883390D02*
X119538095Y-118978628D01*
X119538095Y-118978628D02*
X119538095Y-119264342D01*
X119538095Y-119264342D02*
X119490476Y-119359580D01*
X119490476Y-119359580D02*
X119442857Y-119407200D01*
X119442857Y-119407200D02*
X119347619Y-119454819D01*
X119347619Y-119454819D02*
X119204762Y-119454819D01*
X121157143Y-119454819D02*
X121157143Y-118931009D01*
X121157143Y-118931009D02*
X121109524Y-118835771D01*
X121109524Y-118835771D02*
X121014286Y-118788152D01*
X121014286Y-118788152D02*
X120823810Y-118788152D01*
X120823810Y-118788152D02*
X120728572Y-118835771D01*
X121157143Y-119407200D02*
X121061905Y-119454819D01*
X121061905Y-119454819D02*
X120823810Y-119454819D01*
X120823810Y-119454819D02*
X120728572Y-119407200D01*
X120728572Y-119407200D02*
X120680953Y-119311961D01*
X120680953Y-119311961D02*
X120680953Y-119216723D01*
X120680953Y-119216723D02*
X120728572Y-119121485D01*
X120728572Y-119121485D02*
X120823810Y-119073866D01*
X120823810Y-119073866D02*
X121061905Y-119073866D01*
X121061905Y-119073866D02*
X121157143Y-119026247D01*
X121633334Y-119454819D02*
X121633334Y-118788152D01*
X121633334Y-118978628D02*
X121680953Y-118883390D01*
X121680953Y-118883390D02*
X121728572Y-118835771D01*
X121728572Y-118835771D02*
X121823810Y-118788152D01*
X121823810Y-118788152D02*
X121919048Y-118788152D01*
X122633334Y-119407200D02*
X122538096Y-119454819D01*
X122538096Y-119454819D02*
X122347620Y-119454819D01*
X122347620Y-119454819D02*
X122252382Y-119407200D01*
X122252382Y-119407200D02*
X122204763Y-119311961D01*
X122204763Y-119311961D02*
X122204763Y-118931009D01*
X122204763Y-118931009D02*
X122252382Y-118835771D01*
X122252382Y-118835771D02*
X122347620Y-118788152D01*
X122347620Y-118788152D02*
X122538096Y-118788152D01*
X122538096Y-118788152D02*
X122633334Y-118835771D01*
X122633334Y-118835771D02*
X122680953Y-118931009D01*
X122680953Y-118931009D02*
X122680953Y-119026247D01*
X122680953Y-119026247D02*
X122204763Y-119121485D01*
X123538096Y-119454819D02*
X123538096Y-118931009D01*
X123538096Y-118931009D02*
X123490477Y-118835771D01*
X123490477Y-118835771D02*
X123395239Y-118788152D01*
X123395239Y-118788152D02*
X123204763Y-118788152D01*
X123204763Y-118788152D02*
X123109525Y-118835771D01*
X123538096Y-119407200D02*
X123442858Y-119454819D01*
X123442858Y-119454819D02*
X123204763Y-119454819D01*
X123204763Y-119454819D02*
X123109525Y-119407200D01*
X123109525Y-119407200D02*
X123061906Y-119311961D01*
X123061906Y-119311961D02*
X123061906Y-119216723D01*
X123061906Y-119216723D02*
X123109525Y-119121485D01*
X123109525Y-119121485D02*
X123204763Y-119073866D01*
X123204763Y-119073866D02*
X123442858Y-119073866D01*
X123442858Y-119073866D02*
X123538096Y-119026247D01*
D13*
X112978571Y-93466970D02*
X112978571Y-91966970D01*
X112978571Y-91966970D02*
X113478571Y-93038399D01*
X113478571Y-93038399D02*
X113978571Y-91966970D01*
X113978571Y-91966970D02*
X113978571Y-93466970D01*
X114692857Y-93466970D02*
X114692857Y-92466970D01*
X114692857Y-91966970D02*
X114621429Y-92038399D01*
X114621429Y-92038399D02*
X114692857Y-92109827D01*
X114692857Y-92109827D02*
X114764286Y-92038399D01*
X114764286Y-92038399D02*
X114692857Y-91966970D01*
X114692857Y-91966970D02*
X114692857Y-92109827D01*
X116050001Y-93395542D02*
X115907143Y-93466970D01*
X115907143Y-93466970D02*
X115621429Y-93466970D01*
X115621429Y-93466970D02*
X115478572Y-93395542D01*
X115478572Y-93395542D02*
X115407143Y-93324113D01*
X115407143Y-93324113D02*
X115335715Y-93181256D01*
X115335715Y-93181256D02*
X115335715Y-92752684D01*
X115335715Y-92752684D02*
X115407143Y-92609827D01*
X115407143Y-92609827D02*
X115478572Y-92538399D01*
X115478572Y-92538399D02*
X115621429Y-92466970D01*
X115621429Y-92466970D02*
X115907143Y-92466970D01*
X115907143Y-92466970D02*
X116050001Y-92538399D01*
X116692857Y-93466970D02*
X116692857Y-92466970D01*
X116692857Y-92752684D02*
X116764286Y-92609827D01*
X116764286Y-92609827D02*
X116835715Y-92538399D01*
X116835715Y-92538399D02*
X116978572Y-92466970D01*
X116978572Y-92466970D02*
X117121429Y-92466970D01*
X117835714Y-93466970D02*
X117692857Y-93395542D01*
X117692857Y-93395542D02*
X117621428Y-93324113D01*
X117621428Y-93324113D02*
X117550000Y-93181256D01*
X117550000Y-93181256D02*
X117550000Y-92752684D01*
X117550000Y-92752684D02*
X117621428Y-92609827D01*
X117621428Y-92609827D02*
X117692857Y-92538399D01*
X117692857Y-92538399D02*
X117835714Y-92466970D01*
X117835714Y-92466970D02*
X118050000Y-92466970D01*
X118050000Y-92466970D02*
X118192857Y-92538399D01*
X118192857Y-92538399D02*
X118264286Y-92609827D01*
X118264286Y-92609827D02*
X118335714Y-92752684D01*
X118335714Y-92752684D02*
X118335714Y-93181256D01*
X118335714Y-93181256D02*
X118264286Y-93324113D01*
X118264286Y-93324113D02*
X118192857Y-93395542D01*
X118192857Y-93395542D02*
X118050000Y-93466970D01*
X118050000Y-93466970D02*
X117835714Y-93466970D01*
X118835714Y-92466970D02*
X119121429Y-93466970D01*
X119121429Y-93466970D02*
X119407143Y-92752684D01*
X119407143Y-92752684D02*
X119692857Y-93466970D01*
X119692857Y-93466970D02*
X119978571Y-92466970D01*
X121192858Y-93466970D02*
X121192858Y-92681256D01*
X121192858Y-92681256D02*
X121121429Y-92538399D01*
X121121429Y-92538399D02*
X120978572Y-92466970D01*
X120978572Y-92466970D02*
X120692858Y-92466970D01*
X120692858Y-92466970D02*
X120550000Y-92538399D01*
X121192858Y-93395542D02*
X121050000Y-93466970D01*
X121050000Y-93466970D02*
X120692858Y-93466970D01*
X120692858Y-93466970D02*
X120550000Y-93395542D01*
X120550000Y-93395542D02*
X120478572Y-93252684D01*
X120478572Y-93252684D02*
X120478572Y-93109827D01*
X120478572Y-93109827D02*
X120550000Y-92966970D01*
X120550000Y-92966970D02*
X120692858Y-92895542D01*
X120692858Y-92895542D02*
X121050000Y-92895542D01*
X121050000Y-92895542D02*
X121192858Y-92824113D01*
X121764286Y-92466970D02*
X122121429Y-93466970D01*
X122121429Y-93466970D02*
X122478572Y-92466970D01*
X123621429Y-93395542D02*
X123478572Y-93466970D01*
X123478572Y-93466970D02*
X123192858Y-93466970D01*
X123192858Y-93466970D02*
X123050000Y-93395542D01*
X123050000Y-93395542D02*
X122978572Y-93252684D01*
X122978572Y-93252684D02*
X122978572Y-92681256D01*
X122978572Y-92681256D02*
X123050000Y-92538399D01*
X123050000Y-92538399D02*
X123192858Y-92466970D01*
X123192858Y-92466970D02*
X123478572Y-92466970D01*
X123478572Y-92466970D02*
X123621429Y-92538399D01*
X123621429Y-92538399D02*
X123692858Y-92681256D01*
X123692858Y-92681256D02*
X123692858Y-92824113D01*
X123692858Y-92824113D02*
X122978572Y-92966970D01*
X126692857Y-93466970D02*
X126621429Y-93466970D01*
X126621429Y-93466970D02*
X126478571Y-93395542D01*
X126478571Y-93395542D02*
X126264286Y-93181256D01*
X126264286Y-93181256D02*
X125907143Y-92752684D01*
X125907143Y-92752684D02*
X125764286Y-92538399D01*
X125764286Y-92538399D02*
X125692857Y-92324113D01*
X125692857Y-92324113D02*
X125692857Y-92181256D01*
X125692857Y-92181256D02*
X125764286Y-92038399D01*
X125764286Y-92038399D02*
X125907143Y-91966970D01*
X125907143Y-91966970D02*
X125978571Y-91966970D01*
X125978571Y-91966970D02*
X126121429Y-92038399D01*
X126121429Y-92038399D02*
X126192857Y-92181256D01*
X126192857Y-92181256D02*
X126192857Y-92252684D01*
X126192857Y-92252684D02*
X126121429Y-92395542D01*
X126121429Y-92395542D02*
X126050000Y-92466970D01*
X126050000Y-92466970D02*
X125621429Y-92752684D01*
X125621429Y-92752684D02*
X125550000Y-92824113D01*
X125550000Y-92824113D02*
X125478571Y-92966970D01*
X125478571Y-92966970D02*
X125478571Y-93181256D01*
X125478571Y-93181256D02*
X125550000Y-93324113D01*
X125550000Y-93324113D02*
X125621429Y-93395542D01*
X125621429Y-93395542D02*
X125764286Y-93466970D01*
X125764286Y-93466970D02*
X125978571Y-93466970D01*
X125978571Y-93466970D02*
X126121429Y-93395542D01*
X126121429Y-93395542D02*
X126192857Y-93324113D01*
X126192857Y-93324113D02*
X126407143Y-93038399D01*
X126407143Y-93038399D02*
X126478571Y-92824113D01*
X126478571Y-92824113D02*
X126478571Y-92681256D01*
X112907143Y-95881886D02*
X112407143Y-95167600D01*
X112050000Y-95881886D02*
X112050000Y-94381886D01*
X112050000Y-94381886D02*
X112621429Y-94381886D01*
X112621429Y-94381886D02*
X112764286Y-94453315D01*
X112764286Y-94453315D02*
X112835715Y-94524743D01*
X112835715Y-94524743D02*
X112907143Y-94667600D01*
X112907143Y-94667600D02*
X112907143Y-94881886D01*
X112907143Y-94881886D02*
X112835715Y-95024743D01*
X112835715Y-95024743D02*
X112764286Y-95096172D01*
X112764286Y-95096172D02*
X112621429Y-95167600D01*
X112621429Y-95167600D02*
X112050000Y-95167600D01*
X114050000Y-95096172D02*
X113550000Y-95096172D01*
X113550000Y-95881886D02*
X113550000Y-94381886D01*
X113550000Y-94381886D02*
X114264286Y-94381886D01*
X115978571Y-95881886D02*
X115978571Y-94381886D01*
X115978571Y-94381886D02*
X116550000Y-94381886D01*
X116550000Y-94381886D02*
X116692857Y-94453315D01*
X116692857Y-94453315D02*
X116764286Y-94524743D01*
X116764286Y-94524743D02*
X116835714Y-94667600D01*
X116835714Y-94667600D02*
X116835714Y-94881886D01*
X116835714Y-94881886D02*
X116764286Y-95024743D01*
X116764286Y-95024743D02*
X116692857Y-95096172D01*
X116692857Y-95096172D02*
X116550000Y-95167600D01*
X116550000Y-95167600D02*
X115978571Y-95167600D01*
X117478571Y-95881886D02*
X117478571Y-94881886D01*
X117478571Y-95167600D02*
X117550000Y-95024743D01*
X117550000Y-95024743D02*
X117621429Y-94953315D01*
X117621429Y-94953315D02*
X117764286Y-94881886D01*
X117764286Y-94881886D02*
X117907143Y-94881886D01*
X118621428Y-95881886D02*
X118478571Y-95810458D01*
X118478571Y-95810458D02*
X118407142Y-95739029D01*
X118407142Y-95739029D02*
X118335714Y-95596172D01*
X118335714Y-95596172D02*
X118335714Y-95167600D01*
X118335714Y-95167600D02*
X118407142Y-95024743D01*
X118407142Y-95024743D02*
X118478571Y-94953315D01*
X118478571Y-94953315D02*
X118621428Y-94881886D01*
X118621428Y-94881886D02*
X118835714Y-94881886D01*
X118835714Y-94881886D02*
X118978571Y-94953315D01*
X118978571Y-94953315D02*
X119050000Y-95024743D01*
X119050000Y-95024743D02*
X119121428Y-95167600D01*
X119121428Y-95167600D02*
X119121428Y-95596172D01*
X119121428Y-95596172D02*
X119050000Y-95739029D01*
X119050000Y-95739029D02*
X118978571Y-95810458D01*
X118978571Y-95810458D02*
X118835714Y-95881886D01*
X118835714Y-95881886D02*
X118621428Y-95881886D01*
X119550000Y-94881886D02*
X120121428Y-94881886D01*
X119764285Y-94381886D02*
X119764285Y-95667600D01*
X119764285Y-95667600D02*
X119835714Y-95810458D01*
X119835714Y-95810458D02*
X119978571Y-95881886D01*
X119978571Y-95881886D02*
X120121428Y-95881886D01*
X120835714Y-95881886D02*
X120692857Y-95810458D01*
X120692857Y-95810458D02*
X120621428Y-95739029D01*
X120621428Y-95739029D02*
X120550000Y-95596172D01*
X120550000Y-95596172D02*
X120550000Y-95167600D01*
X120550000Y-95167600D02*
X120621428Y-95024743D01*
X120621428Y-95024743D02*
X120692857Y-94953315D01*
X120692857Y-94953315D02*
X120835714Y-94881886D01*
X120835714Y-94881886D02*
X121050000Y-94881886D01*
X121050000Y-94881886D02*
X121192857Y-94953315D01*
X121192857Y-94953315D02*
X121264286Y-95024743D01*
X121264286Y-95024743D02*
X121335714Y-95167600D01*
X121335714Y-95167600D02*
X121335714Y-95596172D01*
X121335714Y-95596172D02*
X121264286Y-95739029D01*
X121264286Y-95739029D02*
X121192857Y-95810458D01*
X121192857Y-95810458D02*
X121050000Y-95881886D01*
X121050000Y-95881886D02*
X120835714Y-95881886D01*
X123978571Y-95739029D02*
X123907143Y-95810458D01*
X123907143Y-95810458D02*
X123692857Y-95881886D01*
X123692857Y-95881886D02*
X123550000Y-95881886D01*
X123550000Y-95881886D02*
X123335714Y-95810458D01*
X123335714Y-95810458D02*
X123192857Y-95667600D01*
X123192857Y-95667600D02*
X123121428Y-95524743D01*
X123121428Y-95524743D02*
X123050000Y-95239029D01*
X123050000Y-95239029D02*
X123050000Y-95024743D01*
X123050000Y-95024743D02*
X123121428Y-94739029D01*
X123121428Y-94739029D02*
X123192857Y-94596172D01*
X123192857Y-94596172D02*
X123335714Y-94453315D01*
X123335714Y-94453315D02*
X123550000Y-94381886D01*
X123550000Y-94381886D02*
X123692857Y-94381886D01*
X123692857Y-94381886D02*
X123907143Y-94453315D01*
X123907143Y-94453315D02*
X123978571Y-94524743D01*
X125264286Y-95881886D02*
X125264286Y-95096172D01*
X125264286Y-95096172D02*
X125192857Y-94953315D01*
X125192857Y-94953315D02*
X125050000Y-94881886D01*
X125050000Y-94881886D02*
X124764286Y-94881886D01*
X124764286Y-94881886D02*
X124621428Y-94953315D01*
X125264286Y-95810458D02*
X125121428Y-95881886D01*
X125121428Y-95881886D02*
X124764286Y-95881886D01*
X124764286Y-95881886D02*
X124621428Y-95810458D01*
X124621428Y-95810458D02*
X124550000Y-95667600D01*
X124550000Y-95667600D02*
X124550000Y-95524743D01*
X124550000Y-95524743D02*
X124621428Y-95381886D01*
X124621428Y-95381886D02*
X124764286Y-95310458D01*
X124764286Y-95310458D02*
X125121428Y-95310458D01*
X125121428Y-95310458D02*
X125264286Y-95239029D01*
X125978571Y-95881886D02*
X125978571Y-94881886D01*
X125978571Y-95167600D02*
X126050000Y-95024743D01*
X126050000Y-95024743D02*
X126121429Y-94953315D01*
X126121429Y-94953315D02*
X126264286Y-94881886D01*
X126264286Y-94881886D02*
X126407143Y-94881886D01*
X127550000Y-95881886D02*
X127550000Y-94381886D01*
X127550000Y-95810458D02*
X127407142Y-95881886D01*
X127407142Y-95881886D02*
X127121428Y-95881886D01*
X127121428Y-95881886D02*
X126978571Y-95810458D01*
X126978571Y-95810458D02*
X126907142Y-95739029D01*
X126907142Y-95739029D02*
X126835714Y-95596172D01*
X126835714Y-95596172D02*
X126835714Y-95167600D01*
X126835714Y-95167600D02*
X126907142Y-95024743D01*
X126907142Y-95024743D02*
X126978571Y-94953315D01*
X126978571Y-94953315D02*
X127121428Y-94881886D01*
X127121428Y-94881886D02*
X127407142Y-94881886D01*
X127407142Y-94881886D02*
X127550000Y-94953315D01*
D12*
X119209523Y-87254819D02*
X118733333Y-87254819D01*
X118733333Y-87254819D02*
X118685714Y-87731009D01*
X118685714Y-87731009D02*
X118733333Y-87683390D01*
X118733333Y-87683390D02*
X118828571Y-87635771D01*
X118828571Y-87635771D02*
X119066666Y-87635771D01*
X119066666Y-87635771D02*
X119161904Y-87683390D01*
X119161904Y-87683390D02*
X119209523Y-87731009D01*
X119209523Y-87731009D02*
X119257142Y-87826247D01*
X119257142Y-87826247D02*
X119257142Y-88064342D01*
X119257142Y-88064342D02*
X119209523Y-88159580D01*
X119209523Y-88159580D02*
X119161904Y-88207200D01*
X119161904Y-88207200D02*
X119066666Y-88254819D01*
X119066666Y-88254819D02*
X118828571Y-88254819D01*
X118828571Y-88254819D02*
X118733333Y-88207200D01*
X118733333Y-88207200D02*
X118685714Y-88159580D01*
X119876190Y-87254819D02*
X119971428Y-87254819D01*
X119971428Y-87254819D02*
X120066666Y-87302438D01*
X120066666Y-87302438D02*
X120114285Y-87350057D01*
X120114285Y-87350057D02*
X120161904Y-87445295D01*
X120161904Y-87445295D02*
X120209523Y-87635771D01*
X120209523Y-87635771D02*
X120209523Y-87873866D01*
X120209523Y-87873866D02*
X120161904Y-88064342D01*
X120161904Y-88064342D02*
X120114285Y-88159580D01*
X120114285Y-88159580D02*
X120066666Y-88207200D01*
X120066666Y-88207200D02*
X119971428Y-88254819D01*
X119971428Y-88254819D02*
X119876190Y-88254819D01*
X119876190Y-88254819D02*
X119780952Y-88207200D01*
X119780952Y-88207200D02*
X119733333Y-88159580D01*
X119733333Y-88159580D02*
X119685714Y-88064342D01*
X119685714Y-88064342D02*
X119638095Y-87873866D01*
X119638095Y-87873866D02*
X119638095Y-87635771D01*
X119638095Y-87635771D02*
X119685714Y-87445295D01*
X119685714Y-87445295D02*
X119733333Y-87350057D01*
X119733333Y-87350057D02*
X119780952Y-87302438D01*
X119780952Y-87302438D02*
X119876190Y-87254819D01*
X121542857Y-88254819D02*
X121447619Y-88207200D01*
X121447619Y-88207200D02*
X121400000Y-88159580D01*
X121400000Y-88159580D02*
X121352381Y-88064342D01*
X121352381Y-88064342D02*
X121352381Y-87778628D01*
X121352381Y-87778628D02*
X121400000Y-87683390D01*
X121400000Y-87683390D02*
X121447619Y-87635771D01*
X121447619Y-87635771D02*
X121542857Y-87588152D01*
X121542857Y-87588152D02*
X121685714Y-87588152D01*
X121685714Y-87588152D02*
X121780952Y-87635771D01*
X121780952Y-87635771D02*
X121828571Y-87683390D01*
X121828571Y-87683390D02*
X121876190Y-87778628D01*
X121876190Y-87778628D02*
X121876190Y-88064342D01*
X121876190Y-88064342D02*
X121828571Y-88159580D01*
X121828571Y-88159580D02*
X121780952Y-88207200D01*
X121780952Y-88207200D02*
X121685714Y-88254819D01*
X121685714Y-88254819D02*
X121542857Y-88254819D01*
X122304762Y-88254819D02*
X122304762Y-87254819D01*
X122733333Y-88254819D02*
X122733333Y-87731009D01*
X122733333Y-87731009D02*
X122685714Y-87635771D01*
X122685714Y-87635771D02*
X122590476Y-87588152D01*
X122590476Y-87588152D02*
X122447619Y-87588152D01*
X122447619Y-87588152D02*
X122352381Y-87635771D01*
X122352381Y-87635771D02*
X122304762Y-87683390D01*
X123209524Y-88254819D02*
X123209524Y-87588152D01*
X123209524Y-87683390D02*
X123257143Y-87635771D01*
X123257143Y-87635771D02*
X123352381Y-87588152D01*
X123352381Y-87588152D02*
X123495238Y-87588152D01*
X123495238Y-87588152D02*
X123590476Y-87635771D01*
X123590476Y-87635771D02*
X123638095Y-87731009D01*
X123638095Y-87731009D02*
X123638095Y-88254819D01*
X123638095Y-87731009D02*
X123685714Y-87635771D01*
X123685714Y-87635771D02*
X123780952Y-87588152D01*
X123780952Y-87588152D02*
X123923809Y-87588152D01*
X123923809Y-87588152D02*
X124019048Y-87635771D01*
X124019048Y-87635771D02*
X124066667Y-87731009D01*
X124066667Y-87731009D02*
X124066667Y-88254819D01*
X171809523Y-87254819D02*
X171333333Y-87254819D01*
X171333333Y-87254819D02*
X171285714Y-87731009D01*
X171285714Y-87731009D02*
X171333333Y-87683390D01*
X171333333Y-87683390D02*
X171428571Y-87635771D01*
X171428571Y-87635771D02*
X171666666Y-87635771D01*
X171666666Y-87635771D02*
X171761904Y-87683390D01*
X171761904Y-87683390D02*
X171809523Y-87731009D01*
X171809523Y-87731009D02*
X171857142Y-87826247D01*
X171857142Y-87826247D02*
X171857142Y-88064342D01*
X171857142Y-88064342D02*
X171809523Y-88159580D01*
X171809523Y-88159580D02*
X171761904Y-88207200D01*
X171761904Y-88207200D02*
X171666666Y-88254819D01*
X171666666Y-88254819D02*
X171428571Y-88254819D01*
X171428571Y-88254819D02*
X171333333Y-88207200D01*
X171333333Y-88207200D02*
X171285714Y-88159580D01*
X172476190Y-87254819D02*
X172571428Y-87254819D01*
X172571428Y-87254819D02*
X172666666Y-87302438D01*
X172666666Y-87302438D02*
X172714285Y-87350057D01*
X172714285Y-87350057D02*
X172761904Y-87445295D01*
X172761904Y-87445295D02*
X172809523Y-87635771D01*
X172809523Y-87635771D02*
X172809523Y-87873866D01*
X172809523Y-87873866D02*
X172761904Y-88064342D01*
X172761904Y-88064342D02*
X172714285Y-88159580D01*
X172714285Y-88159580D02*
X172666666Y-88207200D01*
X172666666Y-88207200D02*
X172571428Y-88254819D01*
X172571428Y-88254819D02*
X172476190Y-88254819D01*
X172476190Y-88254819D02*
X172380952Y-88207200D01*
X172380952Y-88207200D02*
X172333333Y-88159580D01*
X172333333Y-88159580D02*
X172285714Y-88064342D01*
X172285714Y-88064342D02*
X172238095Y-87873866D01*
X172238095Y-87873866D02*
X172238095Y-87635771D01*
X172238095Y-87635771D02*
X172285714Y-87445295D01*
X172285714Y-87445295D02*
X172333333Y-87350057D01*
X172333333Y-87350057D02*
X172380952Y-87302438D01*
X172380952Y-87302438D02*
X172476190Y-87254819D01*
X174142857Y-88254819D02*
X174047619Y-88207200D01*
X174047619Y-88207200D02*
X174000000Y-88159580D01*
X174000000Y-88159580D02*
X173952381Y-88064342D01*
X173952381Y-88064342D02*
X173952381Y-87778628D01*
X173952381Y-87778628D02*
X174000000Y-87683390D01*
X174000000Y-87683390D02*
X174047619Y-87635771D01*
X174047619Y-87635771D02*
X174142857Y-87588152D01*
X174142857Y-87588152D02*
X174285714Y-87588152D01*
X174285714Y-87588152D02*
X174380952Y-87635771D01*
X174380952Y-87635771D02*
X174428571Y-87683390D01*
X174428571Y-87683390D02*
X174476190Y-87778628D01*
X174476190Y-87778628D02*
X174476190Y-88064342D01*
X174476190Y-88064342D02*
X174428571Y-88159580D01*
X174428571Y-88159580D02*
X174380952Y-88207200D01*
X174380952Y-88207200D02*
X174285714Y-88254819D01*
X174285714Y-88254819D02*
X174142857Y-88254819D01*
X174904762Y-88254819D02*
X174904762Y-87254819D01*
X175333333Y-88254819D02*
X175333333Y-87731009D01*
X175333333Y-87731009D02*
X175285714Y-87635771D01*
X175285714Y-87635771D02*
X175190476Y-87588152D01*
X175190476Y-87588152D02*
X175047619Y-87588152D01*
X175047619Y-87588152D02*
X174952381Y-87635771D01*
X174952381Y-87635771D02*
X174904762Y-87683390D01*
X175809524Y-88254819D02*
X175809524Y-87588152D01*
X175809524Y-87683390D02*
X175857143Y-87635771D01*
X175857143Y-87635771D02*
X175952381Y-87588152D01*
X175952381Y-87588152D02*
X176095238Y-87588152D01*
X176095238Y-87588152D02*
X176190476Y-87635771D01*
X176190476Y-87635771D02*
X176238095Y-87731009D01*
X176238095Y-87731009D02*
X176238095Y-88254819D01*
X176238095Y-87731009D02*
X176285714Y-87635771D01*
X176285714Y-87635771D02*
X176380952Y-87588152D01*
X176380952Y-87588152D02*
X176523809Y-87588152D01*
X176523809Y-87588152D02*
X176619048Y-87635771D01*
X176619048Y-87635771D02*
X176666667Y-87731009D01*
X176666667Y-87731009D02*
X176666667Y-88254819D01*
X168209523Y-99854819D02*
X167733333Y-99854819D01*
X167733333Y-99854819D02*
X167685714Y-100331009D01*
X167685714Y-100331009D02*
X167733333Y-100283390D01*
X167733333Y-100283390D02*
X167828571Y-100235771D01*
X167828571Y-100235771D02*
X168066666Y-100235771D01*
X168066666Y-100235771D02*
X168161904Y-100283390D01*
X168161904Y-100283390D02*
X168209523Y-100331009D01*
X168209523Y-100331009D02*
X168257142Y-100426247D01*
X168257142Y-100426247D02*
X168257142Y-100664342D01*
X168257142Y-100664342D02*
X168209523Y-100759580D01*
X168209523Y-100759580D02*
X168161904Y-100807200D01*
X168161904Y-100807200D02*
X168066666Y-100854819D01*
X168066666Y-100854819D02*
X167828571Y-100854819D01*
X167828571Y-100854819D02*
X167733333Y-100807200D01*
X167733333Y-100807200D02*
X167685714Y-100759580D01*
X168876190Y-99854819D02*
X168971428Y-99854819D01*
X168971428Y-99854819D02*
X169066666Y-99902438D01*
X169066666Y-99902438D02*
X169114285Y-99950057D01*
X169114285Y-99950057D02*
X169161904Y-100045295D01*
X169161904Y-100045295D02*
X169209523Y-100235771D01*
X169209523Y-100235771D02*
X169209523Y-100473866D01*
X169209523Y-100473866D02*
X169161904Y-100664342D01*
X169161904Y-100664342D02*
X169114285Y-100759580D01*
X169114285Y-100759580D02*
X169066666Y-100807200D01*
X169066666Y-100807200D02*
X168971428Y-100854819D01*
X168971428Y-100854819D02*
X168876190Y-100854819D01*
X168876190Y-100854819D02*
X168780952Y-100807200D01*
X168780952Y-100807200D02*
X168733333Y-100759580D01*
X168733333Y-100759580D02*
X168685714Y-100664342D01*
X168685714Y-100664342D02*
X168638095Y-100473866D01*
X168638095Y-100473866D02*
X168638095Y-100235771D01*
X168638095Y-100235771D02*
X168685714Y-100045295D01*
X168685714Y-100045295D02*
X168733333Y-99950057D01*
X168733333Y-99950057D02*
X168780952Y-99902438D01*
X168780952Y-99902438D02*
X168876190Y-99854819D01*
X170542857Y-100854819D02*
X170447619Y-100807200D01*
X170447619Y-100807200D02*
X170400000Y-100759580D01*
X170400000Y-100759580D02*
X170352381Y-100664342D01*
X170352381Y-100664342D02*
X170352381Y-100378628D01*
X170352381Y-100378628D02*
X170400000Y-100283390D01*
X170400000Y-100283390D02*
X170447619Y-100235771D01*
X170447619Y-100235771D02*
X170542857Y-100188152D01*
X170542857Y-100188152D02*
X170685714Y-100188152D01*
X170685714Y-100188152D02*
X170780952Y-100235771D01*
X170780952Y-100235771D02*
X170828571Y-100283390D01*
X170828571Y-100283390D02*
X170876190Y-100378628D01*
X170876190Y-100378628D02*
X170876190Y-100664342D01*
X170876190Y-100664342D02*
X170828571Y-100759580D01*
X170828571Y-100759580D02*
X170780952Y-100807200D01*
X170780952Y-100807200D02*
X170685714Y-100854819D01*
X170685714Y-100854819D02*
X170542857Y-100854819D01*
X171304762Y-100854819D02*
X171304762Y-99854819D01*
X171733333Y-100854819D02*
X171733333Y-100331009D01*
X171733333Y-100331009D02*
X171685714Y-100235771D01*
X171685714Y-100235771D02*
X171590476Y-100188152D01*
X171590476Y-100188152D02*
X171447619Y-100188152D01*
X171447619Y-100188152D02*
X171352381Y-100235771D01*
X171352381Y-100235771D02*
X171304762Y-100283390D01*
X172209524Y-100854819D02*
X172209524Y-100188152D01*
X172209524Y-100283390D02*
X172257143Y-100235771D01*
X172257143Y-100235771D02*
X172352381Y-100188152D01*
X172352381Y-100188152D02*
X172495238Y-100188152D01*
X172495238Y-100188152D02*
X172590476Y-100235771D01*
X172590476Y-100235771D02*
X172638095Y-100331009D01*
X172638095Y-100331009D02*
X172638095Y-100854819D01*
X172638095Y-100331009D02*
X172685714Y-100235771D01*
X172685714Y-100235771D02*
X172780952Y-100188152D01*
X172780952Y-100188152D02*
X172923809Y-100188152D01*
X172923809Y-100188152D02*
X173019048Y-100235771D01*
X173019048Y-100235771D02*
X173066667Y-100331009D01*
X173066667Y-100331009D02*
X173066667Y-100854819D01*
X130938094Y-94654819D02*
X130938094Y-93654819D01*
X131366665Y-94654819D02*
X131366665Y-94131009D01*
X131366665Y-94131009D02*
X131319046Y-94035771D01*
X131319046Y-94035771D02*
X131223808Y-93988152D01*
X131223808Y-93988152D02*
X131080951Y-93988152D01*
X131080951Y-93988152D02*
X130985713Y-94035771D01*
X130985713Y-94035771D02*
X130938094Y-94083390D01*
X131699999Y-93988152D02*
X132080951Y-93988152D01*
X131842856Y-93654819D02*
X131842856Y-94511961D01*
X131842856Y-94511961D02*
X131890475Y-94607200D01*
X131890475Y-94607200D02*
X131985713Y-94654819D01*
X131985713Y-94654819D02*
X132080951Y-94654819D01*
X132271428Y-93988152D02*
X132652380Y-93988152D01*
X132414285Y-93654819D02*
X132414285Y-94511961D01*
X132414285Y-94511961D02*
X132461904Y-94607200D01*
X132461904Y-94607200D02*
X132557142Y-94654819D01*
X132557142Y-94654819D02*
X132652380Y-94654819D01*
X132985714Y-93988152D02*
X132985714Y-94988152D01*
X132985714Y-94035771D02*
X133080952Y-93988152D01*
X133080952Y-93988152D02*
X133271428Y-93988152D01*
X133271428Y-93988152D02*
X133366666Y-94035771D01*
X133366666Y-94035771D02*
X133414285Y-94083390D01*
X133414285Y-94083390D02*
X133461904Y-94178628D01*
X133461904Y-94178628D02*
X133461904Y-94464342D01*
X133461904Y-94464342D02*
X133414285Y-94559580D01*
X133414285Y-94559580D02*
X133366666Y-94607200D01*
X133366666Y-94607200D02*
X133271428Y-94654819D01*
X133271428Y-94654819D02*
X133080952Y-94654819D01*
X133080952Y-94654819D02*
X132985714Y-94607200D01*
X133842857Y-94607200D02*
X133938095Y-94654819D01*
X133938095Y-94654819D02*
X134128571Y-94654819D01*
X134128571Y-94654819D02*
X134223809Y-94607200D01*
X134223809Y-94607200D02*
X134271428Y-94511961D01*
X134271428Y-94511961D02*
X134271428Y-94464342D01*
X134271428Y-94464342D02*
X134223809Y-94369104D01*
X134223809Y-94369104D02*
X134128571Y-94321485D01*
X134128571Y-94321485D02*
X133985714Y-94321485D01*
X133985714Y-94321485D02*
X133890476Y-94273866D01*
X133890476Y-94273866D02*
X133842857Y-94178628D01*
X133842857Y-94178628D02*
X133842857Y-94131009D01*
X133842857Y-94131009D02*
X133890476Y-94035771D01*
X133890476Y-94035771D02*
X133985714Y-93988152D01*
X133985714Y-93988152D02*
X134128571Y-93988152D01*
X134128571Y-93988152D02*
X134223809Y-94035771D01*
X134700000Y-94559580D02*
X134747619Y-94607200D01*
X134747619Y-94607200D02*
X134700000Y-94654819D01*
X134700000Y-94654819D02*
X134652381Y-94607200D01*
X134652381Y-94607200D02*
X134700000Y-94559580D01*
X134700000Y-94559580D02*
X134700000Y-94654819D01*
X134700000Y-94035771D02*
X134747619Y-94083390D01*
X134747619Y-94083390D02*
X134700000Y-94131009D01*
X134700000Y-94131009D02*
X134652381Y-94083390D01*
X134652381Y-94083390D02*
X134700000Y-94035771D01*
X134700000Y-94035771D02*
X134700000Y-94131009D01*
X135890475Y-93607200D02*
X135033333Y-94892914D01*
X136938094Y-93607200D02*
X136080952Y-94892914D01*
X137699999Y-93988152D02*
X137699999Y-94797676D01*
X137699999Y-94797676D02*
X137652380Y-94892914D01*
X137652380Y-94892914D02*
X137604761Y-94940533D01*
X137604761Y-94940533D02*
X137509523Y-94988152D01*
X137509523Y-94988152D02*
X137366666Y-94988152D01*
X137366666Y-94988152D02*
X137271428Y-94940533D01*
X137699999Y-94607200D02*
X137604761Y-94654819D01*
X137604761Y-94654819D02*
X137414285Y-94654819D01*
X137414285Y-94654819D02*
X137319047Y-94607200D01*
X137319047Y-94607200D02*
X137271428Y-94559580D01*
X137271428Y-94559580D02*
X137223809Y-94464342D01*
X137223809Y-94464342D02*
X137223809Y-94178628D01*
X137223809Y-94178628D02*
X137271428Y-94083390D01*
X137271428Y-94083390D02*
X137319047Y-94035771D01*
X137319047Y-94035771D02*
X137414285Y-93988152D01*
X137414285Y-93988152D02*
X137604761Y-93988152D01*
X137604761Y-93988152D02*
X137699999Y-94035771D01*
X138176190Y-94654819D02*
X138176190Y-93988152D01*
X138176190Y-93654819D02*
X138128571Y-93702438D01*
X138128571Y-93702438D02*
X138176190Y-93750057D01*
X138176190Y-93750057D02*
X138223809Y-93702438D01*
X138223809Y-93702438D02*
X138176190Y-93654819D01*
X138176190Y-93654819D02*
X138176190Y-93750057D01*
X138509523Y-93988152D02*
X138890475Y-93988152D01*
X138652380Y-93654819D02*
X138652380Y-94511961D01*
X138652380Y-94511961D02*
X138699999Y-94607200D01*
X138699999Y-94607200D02*
X138795237Y-94654819D01*
X138795237Y-94654819D02*
X138890475Y-94654819D01*
X139223809Y-94654819D02*
X139223809Y-93654819D01*
X139652380Y-94654819D02*
X139652380Y-94131009D01*
X139652380Y-94131009D02*
X139604761Y-94035771D01*
X139604761Y-94035771D02*
X139509523Y-93988152D01*
X139509523Y-93988152D02*
X139366666Y-93988152D01*
X139366666Y-93988152D02*
X139271428Y-94035771D01*
X139271428Y-94035771D02*
X139223809Y-94083390D01*
X140557142Y-93988152D02*
X140557142Y-94654819D01*
X140128571Y-93988152D02*
X140128571Y-94511961D01*
X140128571Y-94511961D02*
X140176190Y-94607200D01*
X140176190Y-94607200D02*
X140271428Y-94654819D01*
X140271428Y-94654819D02*
X140414285Y-94654819D01*
X140414285Y-94654819D02*
X140509523Y-94607200D01*
X140509523Y-94607200D02*
X140557142Y-94559580D01*
X141033333Y-94654819D02*
X141033333Y-93654819D01*
X141033333Y-94035771D02*
X141128571Y-93988152D01*
X141128571Y-93988152D02*
X141319047Y-93988152D01*
X141319047Y-93988152D02*
X141414285Y-94035771D01*
X141414285Y-94035771D02*
X141461904Y-94083390D01*
X141461904Y-94083390D02*
X141509523Y-94178628D01*
X141509523Y-94178628D02*
X141509523Y-94464342D01*
X141509523Y-94464342D02*
X141461904Y-94559580D01*
X141461904Y-94559580D02*
X141414285Y-94607200D01*
X141414285Y-94607200D02*
X141319047Y-94654819D01*
X141319047Y-94654819D02*
X141128571Y-94654819D01*
X141128571Y-94654819D02*
X141033333Y-94607200D01*
X141938095Y-94559580D02*
X141985714Y-94607200D01*
X141985714Y-94607200D02*
X141938095Y-94654819D01*
X141938095Y-94654819D02*
X141890476Y-94607200D01*
X141890476Y-94607200D02*
X141938095Y-94559580D01*
X141938095Y-94559580D02*
X141938095Y-94654819D01*
X142842856Y-94607200D02*
X142747618Y-94654819D01*
X142747618Y-94654819D02*
X142557142Y-94654819D01*
X142557142Y-94654819D02*
X142461904Y-94607200D01*
X142461904Y-94607200D02*
X142414285Y-94559580D01*
X142414285Y-94559580D02*
X142366666Y-94464342D01*
X142366666Y-94464342D02*
X142366666Y-94178628D01*
X142366666Y-94178628D02*
X142414285Y-94083390D01*
X142414285Y-94083390D02*
X142461904Y-94035771D01*
X142461904Y-94035771D02*
X142557142Y-93988152D01*
X142557142Y-93988152D02*
X142747618Y-93988152D01*
X142747618Y-93988152D02*
X142842856Y-94035771D01*
X143414285Y-94654819D02*
X143319047Y-94607200D01*
X143319047Y-94607200D02*
X143271428Y-94559580D01*
X143271428Y-94559580D02*
X143223809Y-94464342D01*
X143223809Y-94464342D02*
X143223809Y-94178628D01*
X143223809Y-94178628D02*
X143271428Y-94083390D01*
X143271428Y-94083390D02*
X143319047Y-94035771D01*
X143319047Y-94035771D02*
X143414285Y-93988152D01*
X143414285Y-93988152D02*
X143557142Y-93988152D01*
X143557142Y-93988152D02*
X143652380Y-94035771D01*
X143652380Y-94035771D02*
X143699999Y-94083390D01*
X143699999Y-94083390D02*
X143747618Y-94178628D01*
X143747618Y-94178628D02*
X143747618Y-94464342D01*
X143747618Y-94464342D02*
X143699999Y-94559580D01*
X143699999Y-94559580D02*
X143652380Y-94607200D01*
X143652380Y-94607200D02*
X143557142Y-94654819D01*
X143557142Y-94654819D02*
X143414285Y-94654819D01*
X144176190Y-94654819D02*
X144176190Y-93988152D01*
X144176190Y-94083390D02*
X144223809Y-94035771D01*
X144223809Y-94035771D02*
X144319047Y-93988152D01*
X144319047Y-93988152D02*
X144461904Y-93988152D01*
X144461904Y-93988152D02*
X144557142Y-94035771D01*
X144557142Y-94035771D02*
X144604761Y-94131009D01*
X144604761Y-94131009D02*
X144604761Y-94654819D01*
X144604761Y-94131009D02*
X144652380Y-94035771D01*
X144652380Y-94035771D02*
X144747618Y-93988152D01*
X144747618Y-93988152D02*
X144890475Y-93988152D01*
X144890475Y-93988152D02*
X144985714Y-94035771D01*
X144985714Y-94035771D02*
X145033333Y-94131009D01*
X145033333Y-94131009D02*
X145033333Y-94654819D01*
X146223808Y-93607200D02*
X145366666Y-94892914D01*
X146509523Y-94607200D02*
X146604761Y-94654819D01*
X146604761Y-94654819D02*
X146795237Y-94654819D01*
X146795237Y-94654819D02*
X146890475Y-94607200D01*
X146890475Y-94607200D02*
X146938094Y-94511961D01*
X146938094Y-94511961D02*
X146938094Y-94464342D01*
X146938094Y-94464342D02*
X146890475Y-94369104D01*
X146890475Y-94369104D02*
X146795237Y-94321485D01*
X146795237Y-94321485D02*
X146652380Y-94321485D01*
X146652380Y-94321485D02*
X146557142Y-94273866D01*
X146557142Y-94273866D02*
X146509523Y-94178628D01*
X146509523Y-94178628D02*
X146509523Y-94131009D01*
X146509523Y-94131009D02*
X146557142Y-94035771D01*
X146557142Y-94035771D02*
X146652380Y-93988152D01*
X146652380Y-93988152D02*
X146795237Y-93988152D01*
X146795237Y-93988152D02*
X146890475Y-94035771D01*
X147366666Y-94654819D02*
X147366666Y-93988152D01*
X147366666Y-93654819D02*
X147319047Y-93702438D01*
X147319047Y-93702438D02*
X147366666Y-93750057D01*
X147366666Y-93750057D02*
X147414285Y-93702438D01*
X147414285Y-93702438D02*
X147366666Y-93654819D01*
X147366666Y-93654819D02*
X147366666Y-93750057D01*
X147985713Y-94654819D02*
X147890475Y-94607200D01*
X147890475Y-94607200D02*
X147842856Y-94511961D01*
X147842856Y-94511961D02*
X147842856Y-93654819D01*
X148366666Y-94654819D02*
X148366666Y-93988152D01*
X148366666Y-93654819D02*
X148319047Y-93702438D01*
X148319047Y-93702438D02*
X148366666Y-93750057D01*
X148366666Y-93750057D02*
X148414285Y-93702438D01*
X148414285Y-93702438D02*
X148366666Y-93654819D01*
X148366666Y-93654819D02*
X148366666Y-93750057D01*
X149271427Y-94607200D02*
X149176189Y-94654819D01*
X149176189Y-94654819D02*
X148985713Y-94654819D01*
X148985713Y-94654819D02*
X148890475Y-94607200D01*
X148890475Y-94607200D02*
X148842856Y-94559580D01*
X148842856Y-94559580D02*
X148795237Y-94464342D01*
X148795237Y-94464342D02*
X148795237Y-94178628D01*
X148795237Y-94178628D02*
X148842856Y-94083390D01*
X148842856Y-94083390D02*
X148890475Y-94035771D01*
X148890475Y-94035771D02*
X148985713Y-93988152D01*
X148985713Y-93988152D02*
X149176189Y-93988152D01*
X149176189Y-93988152D02*
X149271427Y-94035771D01*
X149842856Y-94654819D02*
X149747618Y-94607200D01*
X149747618Y-94607200D02*
X149699999Y-94559580D01*
X149699999Y-94559580D02*
X149652380Y-94464342D01*
X149652380Y-94464342D02*
X149652380Y-94178628D01*
X149652380Y-94178628D02*
X149699999Y-94083390D01*
X149699999Y-94083390D02*
X149747618Y-94035771D01*
X149747618Y-94035771D02*
X149842856Y-93988152D01*
X149842856Y-93988152D02*
X149985713Y-93988152D01*
X149985713Y-93988152D02*
X150080951Y-94035771D01*
X150080951Y-94035771D02*
X150128570Y-94083390D01*
X150128570Y-94083390D02*
X150176189Y-94178628D01*
X150176189Y-94178628D02*
X150176189Y-94464342D01*
X150176189Y-94464342D02*
X150128570Y-94559580D01*
X150128570Y-94559580D02*
X150080951Y-94607200D01*
X150080951Y-94607200D02*
X149985713Y-94654819D01*
X149985713Y-94654819D02*
X149842856Y-94654819D01*
X150604761Y-93988152D02*
X150604761Y-94654819D01*
X150604761Y-94083390D02*
X150652380Y-94035771D01*
X150652380Y-94035771D02*
X150747618Y-93988152D01*
X150747618Y-93988152D02*
X150890475Y-93988152D01*
X150890475Y-93988152D02*
X150985713Y-94035771D01*
X150985713Y-94035771D02*
X151033332Y-94131009D01*
X151033332Y-94131009D02*
X151033332Y-94654819D01*
X151414285Y-93988152D02*
X151604761Y-94654819D01*
X151604761Y-94654819D02*
X151795237Y-94178628D01*
X151795237Y-94178628D02*
X151985713Y-94654819D01*
X151985713Y-94654819D02*
X152176189Y-93988152D01*
X152557142Y-94654819D02*
X152557142Y-93988152D01*
X152557142Y-93654819D02*
X152509523Y-93702438D01*
X152509523Y-93702438D02*
X152557142Y-93750057D01*
X152557142Y-93750057D02*
X152604761Y-93702438D01*
X152604761Y-93702438D02*
X152557142Y-93654819D01*
X152557142Y-93654819D02*
X152557142Y-93750057D01*
X152890475Y-93988152D02*
X153271427Y-93988152D01*
X153033332Y-93654819D02*
X153033332Y-94511961D01*
X153033332Y-94511961D02*
X153080951Y-94607200D01*
X153080951Y-94607200D02*
X153176189Y-94654819D01*
X153176189Y-94654819D02*
X153271427Y-94654819D01*
X154033332Y-94607200D02*
X153938094Y-94654819D01*
X153938094Y-94654819D02*
X153747618Y-94654819D01*
X153747618Y-94654819D02*
X153652380Y-94607200D01*
X153652380Y-94607200D02*
X153604761Y-94559580D01*
X153604761Y-94559580D02*
X153557142Y-94464342D01*
X153557142Y-94464342D02*
X153557142Y-94178628D01*
X153557142Y-94178628D02*
X153604761Y-94083390D01*
X153604761Y-94083390D02*
X153652380Y-94035771D01*
X153652380Y-94035771D02*
X153747618Y-93988152D01*
X153747618Y-93988152D02*
X153938094Y-93988152D01*
X153938094Y-93988152D02*
X154033332Y-94035771D01*
X154461904Y-94654819D02*
X154461904Y-93654819D01*
X154890475Y-94654819D02*
X154890475Y-94131009D01*
X154890475Y-94131009D02*
X154842856Y-94035771D01*
X154842856Y-94035771D02*
X154747618Y-93988152D01*
X154747618Y-93988152D02*
X154604761Y-93988152D01*
X154604761Y-93988152D02*
X154509523Y-94035771D01*
X154509523Y-94035771D02*
X154461904Y-94083390D01*
X155747618Y-94607200D02*
X155652380Y-94654819D01*
X155652380Y-94654819D02*
X155461904Y-94654819D01*
X155461904Y-94654819D02*
X155366666Y-94607200D01*
X155366666Y-94607200D02*
X155319047Y-94511961D01*
X155319047Y-94511961D02*
X155319047Y-94131009D01*
X155319047Y-94131009D02*
X155366666Y-94035771D01*
X155366666Y-94035771D02*
X155461904Y-93988152D01*
X155461904Y-93988152D02*
X155652380Y-93988152D01*
X155652380Y-93988152D02*
X155747618Y-94035771D01*
X155747618Y-94035771D02*
X155795237Y-94131009D01*
X155795237Y-94131009D02*
X155795237Y-94226247D01*
X155795237Y-94226247D02*
X155319047Y-94321485D01*
X156223809Y-94654819D02*
X156223809Y-93988152D01*
X156223809Y-94178628D02*
X156271428Y-94083390D01*
X156271428Y-94083390D02*
X156319047Y-94035771D01*
X156319047Y-94035771D02*
X156414285Y-93988152D01*
X156414285Y-93988152D02*
X156509523Y-93988152D01*
X156747619Y-93988152D02*
X156985714Y-94654819D01*
X157223809Y-93988152D02*
X156985714Y-94654819D01*
X156985714Y-94654819D02*
X156890476Y-94892914D01*
X156890476Y-94892914D02*
X156842857Y-94940533D01*
X156842857Y-94940533D02*
X156747619Y-94988152D01*
X158319047Y-93607200D02*
X157461905Y-94892914D01*
X158652381Y-94654819D02*
X158652381Y-93988152D01*
X158652381Y-94178628D02*
X158700000Y-94083390D01*
X158700000Y-94083390D02*
X158747619Y-94035771D01*
X158747619Y-94035771D02*
X158842857Y-93988152D01*
X158842857Y-93988152D02*
X158938095Y-93988152D01*
X159128572Y-93988152D02*
X159509524Y-93988152D01*
X159271429Y-94654819D02*
X159271429Y-93797676D01*
X159271429Y-93797676D02*
X159319048Y-93702438D01*
X159319048Y-93702438D02*
X159414286Y-93654819D01*
X159414286Y-93654819D02*
X159509524Y-93654819D01*
X159842858Y-94273866D02*
X160604763Y-94273866D01*
X161080953Y-93988152D02*
X161080953Y-94988152D01*
X161080953Y-94035771D02*
X161176191Y-93988152D01*
X161176191Y-93988152D02*
X161366667Y-93988152D01*
X161366667Y-93988152D02*
X161461905Y-94035771D01*
X161461905Y-94035771D02*
X161509524Y-94083390D01*
X161509524Y-94083390D02*
X161557143Y-94178628D01*
X161557143Y-94178628D02*
X161557143Y-94464342D01*
X161557143Y-94464342D02*
X161509524Y-94559580D01*
X161509524Y-94559580D02*
X161461905Y-94607200D01*
X161461905Y-94607200D02*
X161366667Y-94654819D01*
X161366667Y-94654819D02*
X161176191Y-94654819D01*
X161176191Y-94654819D02*
X161080953Y-94607200D01*
X161985715Y-94654819D02*
X161985715Y-93988152D01*
X161985715Y-94178628D02*
X162033334Y-94083390D01*
X162033334Y-94083390D02*
X162080953Y-94035771D01*
X162080953Y-94035771D02*
X162176191Y-93988152D01*
X162176191Y-93988152D02*
X162271429Y-93988152D01*
X162747620Y-94654819D02*
X162652382Y-94607200D01*
X162652382Y-94607200D02*
X162604763Y-94559580D01*
X162604763Y-94559580D02*
X162557144Y-94464342D01*
X162557144Y-94464342D02*
X162557144Y-94178628D01*
X162557144Y-94178628D02*
X162604763Y-94083390D01*
X162604763Y-94083390D02*
X162652382Y-94035771D01*
X162652382Y-94035771D02*
X162747620Y-93988152D01*
X162747620Y-93988152D02*
X162890477Y-93988152D01*
X162890477Y-93988152D02*
X162985715Y-94035771D01*
X162985715Y-94035771D02*
X163033334Y-94083390D01*
X163033334Y-94083390D02*
X163080953Y-94178628D01*
X163080953Y-94178628D02*
X163080953Y-94464342D01*
X163080953Y-94464342D02*
X163033334Y-94559580D01*
X163033334Y-94559580D02*
X162985715Y-94607200D01*
X162985715Y-94607200D02*
X162890477Y-94654819D01*
X162890477Y-94654819D02*
X162747620Y-94654819D01*
X163366668Y-93988152D02*
X163747620Y-93988152D01*
X163509525Y-93654819D02*
X163509525Y-94511961D01*
X163509525Y-94511961D02*
X163557144Y-94607200D01*
X163557144Y-94607200D02*
X163652382Y-94654819D01*
X163652382Y-94654819D02*
X163747620Y-94654819D01*
X164223811Y-94654819D02*
X164128573Y-94607200D01*
X164128573Y-94607200D02*
X164080954Y-94559580D01*
X164080954Y-94559580D02*
X164033335Y-94464342D01*
X164033335Y-94464342D02*
X164033335Y-94178628D01*
X164033335Y-94178628D02*
X164080954Y-94083390D01*
X164080954Y-94083390D02*
X164128573Y-94035771D01*
X164128573Y-94035771D02*
X164223811Y-93988152D01*
X164223811Y-93988152D02*
X164366668Y-93988152D01*
X164366668Y-93988152D02*
X164461906Y-94035771D01*
X164461906Y-94035771D02*
X164509525Y-94083390D01*
X164509525Y-94083390D02*
X164557144Y-94178628D01*
X164557144Y-94178628D02*
X164557144Y-94464342D01*
X164557144Y-94464342D02*
X164509525Y-94559580D01*
X164509525Y-94559580D02*
X164461906Y-94607200D01*
X164461906Y-94607200D02*
X164366668Y-94654819D01*
X164366668Y-94654819D02*
X164223811Y-94654819D01*
X164985716Y-94273866D02*
X165747621Y-94273866D01*
X166652382Y-94607200D02*
X166557144Y-94654819D01*
X166557144Y-94654819D02*
X166366668Y-94654819D01*
X166366668Y-94654819D02*
X166271430Y-94607200D01*
X166271430Y-94607200D02*
X166223811Y-94559580D01*
X166223811Y-94559580D02*
X166176192Y-94464342D01*
X166176192Y-94464342D02*
X166176192Y-94178628D01*
X166176192Y-94178628D02*
X166223811Y-94083390D01*
X166223811Y-94083390D02*
X166271430Y-94035771D01*
X166271430Y-94035771D02*
X166366668Y-93988152D01*
X166366668Y-93988152D02*
X166557144Y-93988152D01*
X166557144Y-93988152D02*
X166652382Y-94035771D01*
X167509525Y-94654819D02*
X167509525Y-94131009D01*
X167509525Y-94131009D02*
X167461906Y-94035771D01*
X167461906Y-94035771D02*
X167366668Y-93988152D01*
X167366668Y-93988152D02*
X167176192Y-93988152D01*
X167176192Y-93988152D02*
X167080954Y-94035771D01*
X167509525Y-94607200D02*
X167414287Y-94654819D01*
X167414287Y-94654819D02*
X167176192Y-94654819D01*
X167176192Y-94654819D02*
X167080954Y-94607200D01*
X167080954Y-94607200D02*
X167033335Y-94511961D01*
X167033335Y-94511961D02*
X167033335Y-94416723D01*
X167033335Y-94416723D02*
X167080954Y-94321485D01*
X167080954Y-94321485D02*
X167176192Y-94273866D01*
X167176192Y-94273866D02*
X167414287Y-94273866D01*
X167414287Y-94273866D02*
X167509525Y-94226247D01*
X167985716Y-94654819D02*
X167985716Y-93988152D01*
X167985716Y-94178628D02*
X168033335Y-94083390D01*
X168033335Y-94083390D02*
X168080954Y-94035771D01*
X168080954Y-94035771D02*
X168176192Y-93988152D01*
X168176192Y-93988152D02*
X168271430Y-93988152D01*
X169033335Y-94654819D02*
X169033335Y-93654819D01*
X169033335Y-94607200D02*
X168938097Y-94654819D01*
X168938097Y-94654819D02*
X168747621Y-94654819D01*
X168747621Y-94654819D02*
X168652383Y-94607200D01*
X168652383Y-94607200D02*
X168604764Y-94559580D01*
X168604764Y-94559580D02*
X168557145Y-94464342D01*
X168557145Y-94464342D02*
X168557145Y-94178628D01*
X168557145Y-94178628D02*
X168604764Y-94083390D01*
X168604764Y-94083390D02*
X168652383Y-94035771D01*
X168652383Y-94035771D02*
X168747621Y-93988152D01*
X168747621Y-93988152D02*
X168938097Y-93988152D01*
X168938097Y-93988152D02*
X169033335Y-94035771D01*
X169509526Y-94559580D02*
X169557145Y-94607200D01*
X169557145Y-94607200D02*
X169509526Y-94654819D01*
X169509526Y-94654819D02*
X169461907Y-94607200D01*
X169461907Y-94607200D02*
X169509526Y-94559580D01*
X169509526Y-94559580D02*
X169509526Y-94654819D01*
X170414287Y-93988152D02*
X170414287Y-94797676D01*
X170414287Y-94797676D02*
X170366668Y-94892914D01*
X170366668Y-94892914D02*
X170319049Y-94940533D01*
X170319049Y-94940533D02*
X170223811Y-94988152D01*
X170223811Y-94988152D02*
X170080954Y-94988152D01*
X170080954Y-94988152D02*
X169985716Y-94940533D01*
X170414287Y-94607200D02*
X170319049Y-94654819D01*
X170319049Y-94654819D02*
X170128573Y-94654819D01*
X170128573Y-94654819D02*
X170033335Y-94607200D01*
X170033335Y-94607200D02*
X169985716Y-94559580D01*
X169985716Y-94559580D02*
X169938097Y-94464342D01*
X169938097Y-94464342D02*
X169938097Y-94178628D01*
X169938097Y-94178628D02*
X169985716Y-94083390D01*
X169985716Y-94083390D02*
X170033335Y-94035771D01*
X170033335Y-94035771D02*
X170128573Y-93988152D01*
X170128573Y-93988152D02*
X170319049Y-93988152D01*
X170319049Y-93988152D02*
X170414287Y-94035771D01*
X170890478Y-94654819D02*
X170890478Y-93988152D01*
X170890478Y-93654819D02*
X170842859Y-93702438D01*
X170842859Y-93702438D02*
X170890478Y-93750057D01*
X170890478Y-93750057D02*
X170938097Y-93702438D01*
X170938097Y-93702438D02*
X170890478Y-93654819D01*
X170890478Y-93654819D02*
X170890478Y-93750057D01*
X171223811Y-93988152D02*
X171604763Y-93988152D01*
X171366668Y-93654819D02*
X171366668Y-94511961D01*
X171366668Y-94511961D02*
X171414287Y-94607200D01*
X171414287Y-94607200D02*
X171509525Y-94654819D01*
X171509525Y-94654819D02*
X171604763Y-94654819D01*
X115409523Y-99854819D02*
X114933333Y-99854819D01*
X114933333Y-99854819D02*
X114885714Y-100331009D01*
X114885714Y-100331009D02*
X114933333Y-100283390D01*
X114933333Y-100283390D02*
X115028571Y-100235771D01*
X115028571Y-100235771D02*
X115266666Y-100235771D01*
X115266666Y-100235771D02*
X115361904Y-100283390D01*
X115361904Y-100283390D02*
X115409523Y-100331009D01*
X115409523Y-100331009D02*
X115457142Y-100426247D01*
X115457142Y-100426247D02*
X115457142Y-100664342D01*
X115457142Y-100664342D02*
X115409523Y-100759580D01*
X115409523Y-100759580D02*
X115361904Y-100807200D01*
X115361904Y-100807200D02*
X115266666Y-100854819D01*
X115266666Y-100854819D02*
X115028571Y-100854819D01*
X115028571Y-100854819D02*
X114933333Y-100807200D01*
X114933333Y-100807200D02*
X114885714Y-100759580D01*
X116076190Y-99854819D02*
X116171428Y-99854819D01*
X116171428Y-99854819D02*
X116266666Y-99902438D01*
X116266666Y-99902438D02*
X116314285Y-99950057D01*
X116314285Y-99950057D02*
X116361904Y-100045295D01*
X116361904Y-100045295D02*
X116409523Y-100235771D01*
X116409523Y-100235771D02*
X116409523Y-100473866D01*
X116409523Y-100473866D02*
X116361904Y-100664342D01*
X116361904Y-100664342D02*
X116314285Y-100759580D01*
X116314285Y-100759580D02*
X116266666Y-100807200D01*
X116266666Y-100807200D02*
X116171428Y-100854819D01*
X116171428Y-100854819D02*
X116076190Y-100854819D01*
X116076190Y-100854819D02*
X115980952Y-100807200D01*
X115980952Y-100807200D02*
X115933333Y-100759580D01*
X115933333Y-100759580D02*
X115885714Y-100664342D01*
X115885714Y-100664342D02*
X115838095Y-100473866D01*
X115838095Y-100473866D02*
X115838095Y-100235771D01*
X115838095Y-100235771D02*
X115885714Y-100045295D01*
X115885714Y-100045295D02*
X115933333Y-99950057D01*
X115933333Y-99950057D02*
X115980952Y-99902438D01*
X115980952Y-99902438D02*
X116076190Y-99854819D01*
X117742857Y-100854819D02*
X117647619Y-100807200D01*
X117647619Y-100807200D02*
X117600000Y-100759580D01*
X117600000Y-100759580D02*
X117552381Y-100664342D01*
X117552381Y-100664342D02*
X117552381Y-100378628D01*
X117552381Y-100378628D02*
X117600000Y-100283390D01*
X117600000Y-100283390D02*
X117647619Y-100235771D01*
X117647619Y-100235771D02*
X117742857Y-100188152D01*
X117742857Y-100188152D02*
X117885714Y-100188152D01*
X117885714Y-100188152D02*
X117980952Y-100235771D01*
X117980952Y-100235771D02*
X118028571Y-100283390D01*
X118028571Y-100283390D02*
X118076190Y-100378628D01*
X118076190Y-100378628D02*
X118076190Y-100664342D01*
X118076190Y-100664342D02*
X118028571Y-100759580D01*
X118028571Y-100759580D02*
X117980952Y-100807200D01*
X117980952Y-100807200D02*
X117885714Y-100854819D01*
X117885714Y-100854819D02*
X117742857Y-100854819D01*
X118504762Y-100854819D02*
X118504762Y-99854819D01*
X118933333Y-100854819D02*
X118933333Y-100331009D01*
X118933333Y-100331009D02*
X118885714Y-100235771D01*
X118885714Y-100235771D02*
X118790476Y-100188152D01*
X118790476Y-100188152D02*
X118647619Y-100188152D01*
X118647619Y-100188152D02*
X118552381Y-100235771D01*
X118552381Y-100235771D02*
X118504762Y-100283390D01*
X119409524Y-100854819D02*
X119409524Y-100188152D01*
X119409524Y-100283390D02*
X119457143Y-100235771D01*
X119457143Y-100235771D02*
X119552381Y-100188152D01*
X119552381Y-100188152D02*
X119695238Y-100188152D01*
X119695238Y-100188152D02*
X119790476Y-100235771D01*
X119790476Y-100235771D02*
X119838095Y-100331009D01*
X119838095Y-100331009D02*
X119838095Y-100854819D01*
X119838095Y-100331009D02*
X119885714Y-100235771D01*
X119885714Y-100235771D02*
X119980952Y-100188152D01*
X119980952Y-100188152D02*
X120123809Y-100188152D01*
X120123809Y-100188152D02*
X120219048Y-100235771D01*
X120219048Y-100235771D02*
X120266667Y-100331009D01*
X120266667Y-100331009D02*
X120266667Y-100854819D01*
X164309523Y-113038152D02*
X164309523Y-113847676D01*
X164309523Y-113847676D02*
X164261904Y-113942914D01*
X164261904Y-113942914D02*
X164214285Y-113990533D01*
X164214285Y-113990533D02*
X164119047Y-114038152D01*
X164119047Y-114038152D02*
X163976190Y-114038152D01*
X163976190Y-114038152D02*
X163880952Y-113990533D01*
X164309523Y-113657200D02*
X164214285Y-113704819D01*
X164214285Y-113704819D02*
X164023809Y-113704819D01*
X164023809Y-113704819D02*
X163928571Y-113657200D01*
X163928571Y-113657200D02*
X163880952Y-113609580D01*
X163880952Y-113609580D02*
X163833333Y-113514342D01*
X163833333Y-113514342D02*
X163833333Y-113228628D01*
X163833333Y-113228628D02*
X163880952Y-113133390D01*
X163880952Y-113133390D02*
X163928571Y-113085771D01*
X163928571Y-113085771D02*
X164023809Y-113038152D01*
X164023809Y-113038152D02*
X164214285Y-113038152D01*
X164214285Y-113038152D02*
X164309523Y-113085771D01*
X164785714Y-113038152D02*
X164785714Y-113704819D01*
X164785714Y-113133390D02*
X164833333Y-113085771D01*
X164833333Y-113085771D02*
X164928571Y-113038152D01*
X164928571Y-113038152D02*
X165071428Y-113038152D01*
X165071428Y-113038152D02*
X165166666Y-113085771D01*
X165166666Y-113085771D02*
X165214285Y-113181009D01*
X165214285Y-113181009D02*
X165214285Y-113704819D01*
X166119047Y-113704819D02*
X166119047Y-112704819D01*
X166119047Y-113657200D02*
X166023809Y-113704819D01*
X166023809Y-113704819D02*
X165833333Y-113704819D01*
X165833333Y-113704819D02*
X165738095Y-113657200D01*
X165738095Y-113657200D02*
X165690476Y-113609580D01*
X165690476Y-113609580D02*
X165642857Y-113514342D01*
X165642857Y-113514342D02*
X165642857Y-113228628D01*
X165642857Y-113228628D02*
X165690476Y-113133390D01*
X165690476Y-113133390D02*
X165738095Y-113085771D01*
X165738095Y-113085771D02*
X165833333Y-113038152D01*
X165833333Y-113038152D02*
X166023809Y-113038152D01*
X166023809Y-113038152D02*
X166119047Y-113085771D01*
X163261905Y-106788152D02*
X163500000Y-107454819D01*
X163500000Y-107454819D02*
X163738095Y-106788152D01*
X164119048Y-107454819D02*
X164119048Y-106454819D01*
X164119048Y-106835771D02*
X164214286Y-106788152D01*
X164214286Y-106788152D02*
X164404762Y-106788152D01*
X164404762Y-106788152D02*
X164500000Y-106835771D01*
X164500000Y-106835771D02*
X164547619Y-106883390D01*
X164547619Y-106883390D02*
X164595238Y-106978628D01*
X164595238Y-106978628D02*
X164595238Y-107264342D01*
X164595238Y-107264342D02*
X164547619Y-107359580D01*
X164547619Y-107359580D02*
X164500000Y-107407200D01*
X164500000Y-107407200D02*
X164404762Y-107454819D01*
X164404762Y-107454819D02*
X164214286Y-107454819D01*
X164214286Y-107454819D02*
X164119048Y-107407200D01*
X165023810Y-107073866D02*
X165785715Y-107073866D01*
X166690476Y-107407200D02*
X166595238Y-107454819D01*
X166595238Y-107454819D02*
X166404762Y-107454819D01*
X166404762Y-107454819D02*
X166309524Y-107407200D01*
X166309524Y-107407200D02*
X166261905Y-107359580D01*
X166261905Y-107359580D02*
X166214286Y-107264342D01*
X166214286Y-107264342D02*
X166214286Y-106978628D01*
X166214286Y-106978628D02*
X166261905Y-106883390D01*
X166261905Y-106883390D02*
X166309524Y-106835771D01*
X166309524Y-106835771D02*
X166404762Y-106788152D01*
X166404762Y-106788152D02*
X166595238Y-106788152D01*
X166595238Y-106788152D02*
X166690476Y-106835771D01*
X125238095Y-106788152D02*
X125476190Y-107454819D01*
X125476190Y-107454819D02*
X125714285Y-106788152D01*
X126095238Y-107454819D02*
X126095238Y-106454819D01*
X126095238Y-106835771D02*
X126190476Y-106788152D01*
X126190476Y-106788152D02*
X126380952Y-106788152D01*
X126380952Y-106788152D02*
X126476190Y-106835771D01*
X126476190Y-106835771D02*
X126523809Y-106883390D01*
X126523809Y-106883390D02*
X126571428Y-106978628D01*
X126571428Y-106978628D02*
X126571428Y-107264342D01*
X126571428Y-107264342D02*
X126523809Y-107359580D01*
X126523809Y-107359580D02*
X126476190Y-107407200D01*
X126476190Y-107407200D02*
X126380952Y-107454819D01*
X126380952Y-107454819D02*
X126190476Y-107454819D01*
X126190476Y-107454819D02*
X126095238Y-107407200D01*
X127000000Y-107073866D02*
X127761905Y-107073866D01*
X128666666Y-107454819D02*
X128666666Y-106454819D01*
X128666666Y-107407200D02*
X128571428Y-107454819D01*
X128571428Y-107454819D02*
X128380952Y-107454819D01*
X128380952Y-107454819D02*
X128285714Y-107407200D01*
X128285714Y-107407200D02*
X128238095Y-107359580D01*
X128238095Y-107359580D02*
X128190476Y-107264342D01*
X128190476Y-107264342D02*
X128190476Y-106978628D01*
X128190476Y-106978628D02*
X128238095Y-106883390D01*
X128238095Y-106883390D02*
X128285714Y-106835771D01*
X128285714Y-106835771D02*
X128380952Y-106788152D01*
X128380952Y-106788152D02*
X128571428Y-106788152D01*
X128571428Y-106788152D02*
X128666666Y-106835771D01*
X168461904Y-118788152D02*
X168461904Y-119788152D01*
X168461904Y-118835771D02*
X168557142Y-118788152D01*
X168557142Y-118788152D02*
X168747618Y-118788152D01*
X168747618Y-118788152D02*
X168842856Y-118835771D01*
X168842856Y-118835771D02*
X168890475Y-118883390D01*
X168890475Y-118883390D02*
X168938094Y-118978628D01*
X168938094Y-118978628D02*
X168938094Y-119264342D01*
X168938094Y-119264342D02*
X168890475Y-119359580D01*
X168890475Y-119359580D02*
X168842856Y-119407200D01*
X168842856Y-119407200D02*
X168747618Y-119454819D01*
X168747618Y-119454819D02*
X168557142Y-119454819D01*
X168557142Y-119454819D02*
X168461904Y-119407200D01*
X169366666Y-119454819D02*
X169366666Y-118788152D01*
X169366666Y-118978628D02*
X169414285Y-118883390D01*
X169414285Y-118883390D02*
X169461904Y-118835771D01*
X169461904Y-118835771D02*
X169557142Y-118788152D01*
X169557142Y-118788152D02*
X169652380Y-118788152D01*
X170128571Y-119454819D02*
X170033333Y-119407200D01*
X170033333Y-119407200D02*
X169985714Y-119359580D01*
X169985714Y-119359580D02*
X169938095Y-119264342D01*
X169938095Y-119264342D02*
X169938095Y-118978628D01*
X169938095Y-118978628D02*
X169985714Y-118883390D01*
X169985714Y-118883390D02*
X170033333Y-118835771D01*
X170033333Y-118835771D02*
X170128571Y-118788152D01*
X170128571Y-118788152D02*
X170271428Y-118788152D01*
X170271428Y-118788152D02*
X170366666Y-118835771D01*
X170366666Y-118835771D02*
X170414285Y-118883390D01*
X170414285Y-118883390D02*
X170461904Y-118978628D01*
X170461904Y-118978628D02*
X170461904Y-119264342D01*
X170461904Y-119264342D02*
X170414285Y-119359580D01*
X170414285Y-119359580D02*
X170366666Y-119407200D01*
X170366666Y-119407200D02*
X170271428Y-119454819D01*
X170271428Y-119454819D02*
X170128571Y-119454819D01*
X170747619Y-118788152D02*
X171128571Y-118788152D01*
X170890476Y-118454819D02*
X170890476Y-119311961D01*
X170890476Y-119311961D02*
X170938095Y-119407200D01*
X170938095Y-119407200D02*
X171033333Y-119454819D01*
X171033333Y-119454819D02*
X171128571Y-119454819D01*
X171604762Y-119454819D02*
X171509524Y-119407200D01*
X171509524Y-119407200D02*
X171461905Y-119359580D01*
X171461905Y-119359580D02*
X171414286Y-119264342D01*
X171414286Y-119264342D02*
X171414286Y-118978628D01*
X171414286Y-118978628D02*
X171461905Y-118883390D01*
X171461905Y-118883390D02*
X171509524Y-118835771D01*
X171509524Y-118835771D02*
X171604762Y-118788152D01*
X171604762Y-118788152D02*
X171747619Y-118788152D01*
X171747619Y-118788152D02*
X171842857Y-118835771D01*
X171842857Y-118835771D02*
X171890476Y-118883390D01*
X171890476Y-118883390D02*
X171938095Y-118978628D01*
X171938095Y-118978628D02*
X171938095Y-119264342D01*
X171938095Y-119264342D02*
X171890476Y-119359580D01*
X171890476Y-119359580D02*
X171842857Y-119407200D01*
X171842857Y-119407200D02*
X171747619Y-119454819D01*
X171747619Y-119454819D02*
X171604762Y-119454819D01*
X173557143Y-119454819D02*
X173557143Y-118931009D01*
X173557143Y-118931009D02*
X173509524Y-118835771D01*
X173509524Y-118835771D02*
X173414286Y-118788152D01*
X173414286Y-118788152D02*
X173223810Y-118788152D01*
X173223810Y-118788152D02*
X173128572Y-118835771D01*
X173557143Y-119407200D02*
X173461905Y-119454819D01*
X173461905Y-119454819D02*
X173223810Y-119454819D01*
X173223810Y-119454819D02*
X173128572Y-119407200D01*
X173128572Y-119407200D02*
X173080953Y-119311961D01*
X173080953Y-119311961D02*
X173080953Y-119216723D01*
X173080953Y-119216723D02*
X173128572Y-119121485D01*
X173128572Y-119121485D02*
X173223810Y-119073866D01*
X173223810Y-119073866D02*
X173461905Y-119073866D01*
X173461905Y-119073866D02*
X173557143Y-119026247D01*
X174033334Y-119454819D02*
X174033334Y-118788152D01*
X174033334Y-118978628D02*
X174080953Y-118883390D01*
X174080953Y-118883390D02*
X174128572Y-118835771D01*
X174128572Y-118835771D02*
X174223810Y-118788152D01*
X174223810Y-118788152D02*
X174319048Y-118788152D01*
X175033334Y-119407200D02*
X174938096Y-119454819D01*
X174938096Y-119454819D02*
X174747620Y-119454819D01*
X174747620Y-119454819D02*
X174652382Y-119407200D01*
X174652382Y-119407200D02*
X174604763Y-119311961D01*
X174604763Y-119311961D02*
X174604763Y-118931009D01*
X174604763Y-118931009D02*
X174652382Y-118835771D01*
X174652382Y-118835771D02*
X174747620Y-118788152D01*
X174747620Y-118788152D02*
X174938096Y-118788152D01*
X174938096Y-118788152D02*
X175033334Y-118835771D01*
X175033334Y-118835771D02*
X175080953Y-118931009D01*
X175080953Y-118931009D02*
X175080953Y-119026247D01*
X175080953Y-119026247D02*
X174604763Y-119121485D01*
X175938096Y-119454819D02*
X175938096Y-118931009D01*
X175938096Y-118931009D02*
X175890477Y-118835771D01*
X175890477Y-118835771D02*
X175795239Y-118788152D01*
X175795239Y-118788152D02*
X175604763Y-118788152D01*
X175604763Y-118788152D02*
X175509525Y-118835771D01*
X175938096Y-119407200D02*
X175842858Y-119454819D01*
X175842858Y-119454819D02*
X175604763Y-119454819D01*
X175604763Y-119454819D02*
X175509525Y-119407200D01*
X175509525Y-119407200D02*
X175461906Y-119311961D01*
X175461906Y-119311961D02*
X175461906Y-119216723D01*
X175461906Y-119216723D02*
X175509525Y-119121485D01*
X175509525Y-119121485D02*
X175604763Y-119073866D01*
X175604763Y-119073866D02*
X175842858Y-119073866D01*
X175842858Y-119073866D02*
X175938096Y-119026247D01*
X105476190Y-80204819D02*
X105476190Y-79681009D01*
X105476190Y-79681009D02*
X105428571Y-79585771D01*
X105428571Y-79585771D02*
X105333333Y-79538152D01*
X105333333Y-79538152D02*
X105142857Y-79538152D01*
X105142857Y-79538152D02*
X105047619Y-79585771D01*
X105476190Y-80157200D02*
X105380952Y-80204819D01*
X105380952Y-80204819D02*
X105142857Y-80204819D01*
X105142857Y-80204819D02*
X105047619Y-80157200D01*
X105047619Y-80157200D02*
X105000000Y-80061961D01*
X105000000Y-80061961D02*
X105000000Y-79966723D01*
X105000000Y-79966723D02*
X105047619Y-79871485D01*
X105047619Y-79871485D02*
X105142857Y-79823866D01*
X105142857Y-79823866D02*
X105380952Y-79823866D01*
X105380952Y-79823866D02*
X105476190Y-79776247D01*
X107000000Y-80585771D02*
X106952381Y-80538152D01*
X106952381Y-80538152D02*
X106857143Y-80395295D01*
X106857143Y-80395295D02*
X106809524Y-80300057D01*
X106809524Y-80300057D02*
X106761905Y-80157200D01*
X106761905Y-80157200D02*
X106714286Y-79919104D01*
X106714286Y-79919104D02*
X106714286Y-79728628D01*
X106714286Y-79728628D02*
X106761905Y-79490533D01*
X106761905Y-79490533D02*
X106809524Y-79347676D01*
X106809524Y-79347676D02*
X106857143Y-79252438D01*
X106857143Y-79252438D02*
X106952381Y-79109580D01*
X106952381Y-79109580D02*
X107000000Y-79061961D01*
X107380953Y-80204819D02*
X107380953Y-79538152D01*
X107380953Y-79204819D02*
X107333334Y-79252438D01*
X107333334Y-79252438D02*
X107380953Y-79300057D01*
X107380953Y-79300057D02*
X107428572Y-79252438D01*
X107428572Y-79252438D02*
X107380953Y-79204819D01*
X107380953Y-79204819D02*
X107380953Y-79300057D01*
X107857143Y-79538152D02*
X107857143Y-80204819D01*
X107857143Y-79633390D02*
X107904762Y-79585771D01*
X107904762Y-79585771D02*
X108000000Y-79538152D01*
X108000000Y-79538152D02*
X108142857Y-79538152D01*
X108142857Y-79538152D02*
X108238095Y-79585771D01*
X108238095Y-79585771D02*
X108285714Y-79681009D01*
X108285714Y-79681009D02*
X108285714Y-80204819D01*
X108666667Y-80585771D02*
X108714286Y-80538152D01*
X108714286Y-80538152D02*
X108809524Y-80395295D01*
X108809524Y-80395295D02*
X108857143Y-80300057D01*
X108857143Y-80300057D02*
X108904762Y-80157200D01*
X108904762Y-80157200D02*
X108952381Y-79919104D01*
X108952381Y-79919104D02*
X108952381Y-79728628D01*
X108952381Y-79728628D02*
X108904762Y-79490533D01*
X108904762Y-79490533D02*
X108857143Y-79347676D01*
X108857143Y-79347676D02*
X108809524Y-79252438D01*
X108809524Y-79252438D02*
X108714286Y-79109580D01*
X108714286Y-79109580D02*
X108666667Y-79061961D01*
X164309523Y-70288152D02*
X164309523Y-71097676D01*
X164309523Y-71097676D02*
X164261904Y-71192914D01*
X164261904Y-71192914D02*
X164214285Y-71240533D01*
X164214285Y-71240533D02*
X164119047Y-71288152D01*
X164119047Y-71288152D02*
X163976190Y-71288152D01*
X163976190Y-71288152D02*
X163880952Y-71240533D01*
X164309523Y-70907200D02*
X164214285Y-70954819D01*
X164214285Y-70954819D02*
X164023809Y-70954819D01*
X164023809Y-70954819D02*
X163928571Y-70907200D01*
X163928571Y-70907200D02*
X163880952Y-70859580D01*
X163880952Y-70859580D02*
X163833333Y-70764342D01*
X163833333Y-70764342D02*
X163833333Y-70478628D01*
X163833333Y-70478628D02*
X163880952Y-70383390D01*
X163880952Y-70383390D02*
X163928571Y-70335771D01*
X163928571Y-70335771D02*
X164023809Y-70288152D01*
X164023809Y-70288152D02*
X164214285Y-70288152D01*
X164214285Y-70288152D02*
X164309523Y-70335771D01*
X164785714Y-70288152D02*
X164785714Y-70954819D01*
X164785714Y-70383390D02*
X164833333Y-70335771D01*
X164833333Y-70335771D02*
X164928571Y-70288152D01*
X164928571Y-70288152D02*
X165071428Y-70288152D01*
X165071428Y-70288152D02*
X165166666Y-70335771D01*
X165166666Y-70335771D02*
X165214285Y-70431009D01*
X165214285Y-70431009D02*
X165214285Y-70954819D01*
X166119047Y-70954819D02*
X166119047Y-69954819D01*
X166119047Y-70907200D02*
X166023809Y-70954819D01*
X166023809Y-70954819D02*
X165833333Y-70954819D01*
X165833333Y-70954819D02*
X165738095Y-70907200D01*
X165738095Y-70907200D02*
X165690476Y-70859580D01*
X165690476Y-70859580D02*
X165642857Y-70764342D01*
X165642857Y-70764342D02*
X165642857Y-70478628D01*
X165642857Y-70478628D02*
X165690476Y-70383390D01*
X165690476Y-70383390D02*
X165738095Y-70335771D01*
X165738095Y-70335771D02*
X165833333Y-70288152D01*
X165833333Y-70288152D02*
X166023809Y-70288152D01*
X166023809Y-70288152D02*
X166119047Y-70335771D01*
X183099999Y-98357200D02*
X183004761Y-98404819D01*
X183004761Y-98404819D02*
X182814285Y-98404819D01*
X182814285Y-98404819D02*
X182719047Y-98357200D01*
X182719047Y-98357200D02*
X182671428Y-98309580D01*
X182671428Y-98309580D02*
X182623809Y-98214342D01*
X182623809Y-98214342D02*
X182623809Y-97928628D01*
X182623809Y-97928628D02*
X182671428Y-97833390D01*
X182671428Y-97833390D02*
X182719047Y-97785771D01*
X182719047Y-97785771D02*
X182814285Y-97738152D01*
X182814285Y-97738152D02*
X183004761Y-97738152D01*
X183004761Y-97738152D02*
X183099999Y-97785771D01*
X184576190Y-98785771D02*
X184528571Y-98738152D01*
X184528571Y-98738152D02*
X184433333Y-98595295D01*
X184433333Y-98595295D02*
X184385714Y-98500057D01*
X184385714Y-98500057D02*
X184338095Y-98357200D01*
X184338095Y-98357200D02*
X184290476Y-98119104D01*
X184290476Y-98119104D02*
X184290476Y-97928628D01*
X184290476Y-97928628D02*
X184338095Y-97690533D01*
X184338095Y-97690533D02*
X184385714Y-97547676D01*
X184385714Y-97547676D02*
X184433333Y-97452438D01*
X184433333Y-97452438D02*
X184528571Y-97309580D01*
X184528571Y-97309580D02*
X184576190Y-97261961D01*
X184957143Y-98404819D02*
X184957143Y-97738152D01*
X184957143Y-97404819D02*
X184909524Y-97452438D01*
X184909524Y-97452438D02*
X184957143Y-97500057D01*
X184957143Y-97500057D02*
X185004762Y-97452438D01*
X185004762Y-97452438D02*
X184957143Y-97404819D01*
X184957143Y-97404819D02*
X184957143Y-97500057D01*
X185433333Y-97738152D02*
X185433333Y-98404819D01*
X185433333Y-97833390D02*
X185480952Y-97785771D01*
X185480952Y-97785771D02*
X185576190Y-97738152D01*
X185576190Y-97738152D02*
X185719047Y-97738152D01*
X185719047Y-97738152D02*
X185814285Y-97785771D01*
X185814285Y-97785771D02*
X185861904Y-97881009D01*
X185861904Y-97881009D02*
X185861904Y-98404819D01*
X186242857Y-98785771D02*
X186290476Y-98738152D01*
X186290476Y-98738152D02*
X186385714Y-98595295D01*
X186385714Y-98595295D02*
X186433333Y-98500057D01*
X186433333Y-98500057D02*
X186480952Y-98357200D01*
X186480952Y-98357200D02*
X186528571Y-98119104D01*
X186528571Y-98119104D02*
X186528571Y-97928628D01*
X186528571Y-97928628D02*
X186480952Y-97690533D01*
X186480952Y-97690533D02*
X186433333Y-97547676D01*
X186433333Y-97547676D02*
X186385714Y-97452438D01*
X186385714Y-97452438D02*
X186290476Y-97309580D01*
X186290476Y-97309580D02*
X186242857Y-97261961D01*
X163238095Y-76538152D02*
X163476190Y-77204819D01*
X163476190Y-77204819D02*
X163714285Y-76538152D01*
X164095238Y-77204819D02*
X164095238Y-76204819D01*
X164095238Y-76585771D02*
X164190476Y-76538152D01*
X164190476Y-76538152D02*
X164380952Y-76538152D01*
X164380952Y-76538152D02*
X164476190Y-76585771D01*
X164476190Y-76585771D02*
X164523809Y-76633390D01*
X164523809Y-76633390D02*
X164571428Y-76728628D01*
X164571428Y-76728628D02*
X164571428Y-77014342D01*
X164571428Y-77014342D02*
X164523809Y-77109580D01*
X164523809Y-77109580D02*
X164476190Y-77157200D01*
X164476190Y-77157200D02*
X164380952Y-77204819D01*
X164380952Y-77204819D02*
X164190476Y-77204819D01*
X164190476Y-77204819D02*
X164095238Y-77157200D01*
X165000000Y-76823866D02*
X165761905Y-76823866D01*
X166238095Y-77204819D02*
X166238095Y-76204819D01*
X166238095Y-76585771D02*
X166333333Y-76538152D01*
X166333333Y-76538152D02*
X166523809Y-76538152D01*
X166523809Y-76538152D02*
X166619047Y-76585771D01*
X166619047Y-76585771D02*
X166666666Y-76633390D01*
X166666666Y-76633390D02*
X166714285Y-76728628D01*
X166714285Y-76728628D02*
X166714285Y-77014342D01*
X166714285Y-77014342D02*
X166666666Y-77109580D01*
X166666666Y-77109580D02*
X166619047Y-77157200D01*
X166619047Y-77157200D02*
X166523809Y-77204819D01*
X166523809Y-77204819D02*
X166333333Y-77204819D01*
X166333333Y-77204819D02*
X166238095Y-77157200D01*
X168461904Y-68538152D02*
X168461904Y-69538152D01*
X168461904Y-68585771D02*
X168557142Y-68538152D01*
X168557142Y-68538152D02*
X168747618Y-68538152D01*
X168747618Y-68538152D02*
X168842856Y-68585771D01*
X168842856Y-68585771D02*
X168890475Y-68633390D01*
X168890475Y-68633390D02*
X168938094Y-68728628D01*
X168938094Y-68728628D02*
X168938094Y-69014342D01*
X168938094Y-69014342D02*
X168890475Y-69109580D01*
X168890475Y-69109580D02*
X168842856Y-69157200D01*
X168842856Y-69157200D02*
X168747618Y-69204819D01*
X168747618Y-69204819D02*
X168557142Y-69204819D01*
X168557142Y-69204819D02*
X168461904Y-69157200D01*
X169366666Y-69204819D02*
X169366666Y-68538152D01*
X169366666Y-68728628D02*
X169414285Y-68633390D01*
X169414285Y-68633390D02*
X169461904Y-68585771D01*
X169461904Y-68585771D02*
X169557142Y-68538152D01*
X169557142Y-68538152D02*
X169652380Y-68538152D01*
X170128571Y-69204819D02*
X170033333Y-69157200D01*
X170033333Y-69157200D02*
X169985714Y-69109580D01*
X169985714Y-69109580D02*
X169938095Y-69014342D01*
X169938095Y-69014342D02*
X169938095Y-68728628D01*
X169938095Y-68728628D02*
X169985714Y-68633390D01*
X169985714Y-68633390D02*
X170033333Y-68585771D01*
X170033333Y-68585771D02*
X170128571Y-68538152D01*
X170128571Y-68538152D02*
X170271428Y-68538152D01*
X170271428Y-68538152D02*
X170366666Y-68585771D01*
X170366666Y-68585771D02*
X170414285Y-68633390D01*
X170414285Y-68633390D02*
X170461904Y-68728628D01*
X170461904Y-68728628D02*
X170461904Y-69014342D01*
X170461904Y-69014342D02*
X170414285Y-69109580D01*
X170414285Y-69109580D02*
X170366666Y-69157200D01*
X170366666Y-69157200D02*
X170271428Y-69204819D01*
X170271428Y-69204819D02*
X170128571Y-69204819D01*
X170747619Y-68538152D02*
X171128571Y-68538152D01*
X170890476Y-68204819D02*
X170890476Y-69061961D01*
X170890476Y-69061961D02*
X170938095Y-69157200D01*
X170938095Y-69157200D02*
X171033333Y-69204819D01*
X171033333Y-69204819D02*
X171128571Y-69204819D01*
X171604762Y-69204819D02*
X171509524Y-69157200D01*
X171509524Y-69157200D02*
X171461905Y-69109580D01*
X171461905Y-69109580D02*
X171414286Y-69014342D01*
X171414286Y-69014342D02*
X171414286Y-68728628D01*
X171414286Y-68728628D02*
X171461905Y-68633390D01*
X171461905Y-68633390D02*
X171509524Y-68585771D01*
X171509524Y-68585771D02*
X171604762Y-68538152D01*
X171604762Y-68538152D02*
X171747619Y-68538152D01*
X171747619Y-68538152D02*
X171842857Y-68585771D01*
X171842857Y-68585771D02*
X171890476Y-68633390D01*
X171890476Y-68633390D02*
X171938095Y-68728628D01*
X171938095Y-68728628D02*
X171938095Y-69014342D01*
X171938095Y-69014342D02*
X171890476Y-69109580D01*
X171890476Y-69109580D02*
X171842857Y-69157200D01*
X171842857Y-69157200D02*
X171747619Y-69204819D01*
X171747619Y-69204819D02*
X171604762Y-69204819D01*
X173557143Y-69204819D02*
X173557143Y-68681009D01*
X173557143Y-68681009D02*
X173509524Y-68585771D01*
X173509524Y-68585771D02*
X173414286Y-68538152D01*
X173414286Y-68538152D02*
X173223810Y-68538152D01*
X173223810Y-68538152D02*
X173128572Y-68585771D01*
X173557143Y-69157200D02*
X173461905Y-69204819D01*
X173461905Y-69204819D02*
X173223810Y-69204819D01*
X173223810Y-69204819D02*
X173128572Y-69157200D01*
X173128572Y-69157200D02*
X173080953Y-69061961D01*
X173080953Y-69061961D02*
X173080953Y-68966723D01*
X173080953Y-68966723D02*
X173128572Y-68871485D01*
X173128572Y-68871485D02*
X173223810Y-68823866D01*
X173223810Y-68823866D02*
X173461905Y-68823866D01*
X173461905Y-68823866D02*
X173557143Y-68776247D01*
X174033334Y-69204819D02*
X174033334Y-68538152D01*
X174033334Y-68728628D02*
X174080953Y-68633390D01*
X174080953Y-68633390D02*
X174128572Y-68585771D01*
X174128572Y-68585771D02*
X174223810Y-68538152D01*
X174223810Y-68538152D02*
X174319048Y-68538152D01*
X175033334Y-69157200D02*
X174938096Y-69204819D01*
X174938096Y-69204819D02*
X174747620Y-69204819D01*
X174747620Y-69204819D02*
X174652382Y-69157200D01*
X174652382Y-69157200D02*
X174604763Y-69061961D01*
X174604763Y-69061961D02*
X174604763Y-68681009D01*
X174604763Y-68681009D02*
X174652382Y-68585771D01*
X174652382Y-68585771D02*
X174747620Y-68538152D01*
X174747620Y-68538152D02*
X174938096Y-68538152D01*
X174938096Y-68538152D02*
X175033334Y-68585771D01*
X175033334Y-68585771D02*
X175080953Y-68681009D01*
X175080953Y-68681009D02*
X175080953Y-68776247D01*
X175080953Y-68776247D02*
X174604763Y-68871485D01*
X175938096Y-69204819D02*
X175938096Y-68681009D01*
X175938096Y-68681009D02*
X175890477Y-68585771D01*
X175890477Y-68585771D02*
X175795239Y-68538152D01*
X175795239Y-68538152D02*
X175604763Y-68538152D01*
X175604763Y-68538152D02*
X175509525Y-68585771D01*
X175938096Y-69157200D02*
X175842858Y-69204819D01*
X175842858Y-69204819D02*
X175604763Y-69204819D01*
X175604763Y-69204819D02*
X175509525Y-69157200D01*
X175509525Y-69157200D02*
X175461906Y-69061961D01*
X175461906Y-69061961D02*
X175461906Y-68966723D01*
X175461906Y-68966723D02*
X175509525Y-68871485D01*
X175509525Y-68871485D02*
X175604763Y-68823866D01*
X175604763Y-68823866D02*
X175842858Y-68823866D01*
X175842858Y-68823866D02*
X175938096Y-68776247D01*
X148954819Y-105961904D02*
X149764342Y-105961904D01*
X149764342Y-105961904D02*
X149859580Y-105914285D01*
X149859580Y-105914285D02*
X149907200Y-105866666D01*
X149907200Y-105866666D02*
X149954819Y-105771428D01*
X149954819Y-105771428D02*
X149954819Y-105580952D01*
X149954819Y-105580952D02*
X149907200Y-105485714D01*
X149907200Y-105485714D02*
X149859580Y-105438095D01*
X149859580Y-105438095D02*
X149764342Y-105390476D01*
X149764342Y-105390476D02*
X148954819Y-105390476D01*
X149050057Y-104961904D02*
X149002438Y-104914285D01*
X149002438Y-104914285D02*
X148954819Y-104819047D01*
X148954819Y-104819047D02*
X148954819Y-104580952D01*
X148954819Y-104580952D02*
X149002438Y-104485714D01*
X149002438Y-104485714D02*
X149050057Y-104438095D01*
X149050057Y-104438095D02*
X149145295Y-104390476D01*
X149145295Y-104390476D02*
X149240533Y-104390476D01*
X149240533Y-104390476D02*
X149383390Y-104438095D01*
X149383390Y-104438095D02*
X149954819Y-105009523D01*
X149954819Y-105009523D02*
X149954819Y-104390476D01*
X141954819Y-83811904D02*
X142764342Y-83811904D01*
X142764342Y-83811904D02*
X142859580Y-83764285D01*
X142859580Y-83764285D02*
X142907200Y-83716666D01*
X142907200Y-83716666D02*
X142954819Y-83621428D01*
X142954819Y-83621428D02*
X142954819Y-83430952D01*
X142954819Y-83430952D02*
X142907200Y-83335714D01*
X142907200Y-83335714D02*
X142859580Y-83288095D01*
X142859580Y-83288095D02*
X142764342Y-83240476D01*
X142764342Y-83240476D02*
X141954819Y-83240476D01*
X142954819Y-82240476D02*
X142954819Y-82811904D01*
X142954819Y-82526190D02*
X141954819Y-82526190D01*
X141954819Y-82526190D02*
X142097676Y-82621428D01*
X142097676Y-82621428D02*
X142192914Y-82716666D01*
X142192914Y-82716666D02*
X142240533Y-82811904D01*
D10*
%TO.C,J3*%
X181245000Y-84060000D02*
X181245000Y-85940000D01*
X187955000Y-84060000D02*
X187955000Y-85940000D01*
%TO.C,C7*%
X153237258Y-102727500D02*
X152762742Y-102727500D01*
X153237258Y-103772500D02*
X152762742Y-103772500D01*
%TO.C,C6*%
X149477500Y-103837742D02*
X149477500Y-104312258D01*
X150522500Y-103837742D02*
X150522500Y-104312258D01*
%TO.C,D5*%
X141477500Y-103837742D02*
X141477500Y-104312258D01*
X142522500Y-103837742D02*
X142522500Y-104312258D01*
%TO.C,D4*%
X139237258Y-105727500D02*
X138762742Y-105727500D01*
X139237258Y-106772500D02*
X138762742Y-106772500D01*
%TO.C,D7*%
X139237258Y-102727500D02*
X138762742Y-102727500D01*
X139237258Y-103772500D02*
X138762742Y-103772500D01*
%TO.C,D2*%
X135477500Y-108187742D02*
X135477500Y-108662258D01*
X136522500Y-108187742D02*
X136522500Y-108662258D01*
%TO.C,D6*%
X135477500Y-103837742D02*
X135477500Y-104312258D01*
X136522500Y-103837742D02*
X136522500Y-104312258D01*
%TO.C,D3*%
X133477500Y-108187742D02*
X133477500Y-108662258D01*
X134522500Y-108187742D02*
X134522500Y-108662258D01*
%TO.C,TP5*%
X165700000Y-109250000D02*
G75*
G02*
X164300000Y-109250000I-700000J0D01*
G01*
X164300000Y-109250000D02*
G75*
G02*
X165700000Y-109250000I700000J0D01*
G01*
%TO.C,TP7*%
X165700000Y-115500000D02*
G75*
G02*
X164300000Y-115500000I-700000J0D01*
G01*
X164300000Y-115500000D02*
G75*
G02*
X165700000Y-115500000I700000J0D01*
G01*
%TO.C,C1*%
X157477500Y-108187742D02*
X157477500Y-108662258D01*
X158522500Y-108187742D02*
X158522500Y-108662258D01*
%TO.C,C4*%
X153237258Y-105727500D02*
X152762742Y-105727500D01*
X153237258Y-106772500D02*
X152762742Y-106772500D01*
%TO.C,C5*%
X155477500Y-103837742D02*
X155477500Y-104312258D01*
X156522500Y-103837742D02*
X156522500Y-104312258D01*
%TO.C,C2*%
X155477500Y-108187742D02*
X155477500Y-108662258D01*
X156522500Y-108187742D02*
X156522500Y-108662258D01*
%TO.C,D1*%
X141477500Y-108187742D02*
X141477500Y-108662258D01*
X142522500Y-108187742D02*
X142522500Y-108662258D01*
%TO.C,U2*%
X143640000Y-103840000D02*
X143870000Y-103840000D01*
X143640000Y-106560000D02*
X143640000Y-103840000D01*
X144950000Y-106560000D02*
X143640000Y-106560000D01*
X148130000Y-102700000D02*
X148130000Y-103840000D01*
X148360000Y-103840000D02*
X148130000Y-103840000D01*
X148360000Y-103840000D02*
X148360000Y-106560000D01*
X148360000Y-106560000D02*
X147050000Y-106560000D01*
%TO.C,C3*%
X149477500Y-108187742D02*
X149477500Y-108662258D01*
X150522500Y-108187742D02*
X150522500Y-108662258D01*
%TO.C,J4*%
X131170000Y-104050000D02*
X131170000Y-102450000D01*
X131170000Y-110050000D02*
X131170000Y-108450000D01*
X137800000Y-96850000D02*
X136200000Y-96850000D01*
X137800000Y-115650000D02*
X136200000Y-115650000D01*
X143800000Y-96850000D02*
X142200000Y-96850000D01*
X143800000Y-115650000D02*
X142200000Y-115650000D01*
X149800000Y-96850000D02*
X148200000Y-96850000D01*
X149800000Y-115650000D02*
X148200000Y-115650000D01*
X155800000Y-96850000D02*
X154200000Y-96850000D01*
X155800000Y-115650000D02*
X154200000Y-115650000D01*
X160830000Y-104050000D02*
X160830000Y-102450000D01*
X160830000Y-110050000D02*
X160830000Y-108450000D01*
%TO.C,B7*%
X153237258Y-84477500D02*
X152762742Y-84477500D01*
X153237258Y-85522500D02*
X152762742Y-85522500D01*
%TO.C,A6*%
X141477500Y-84412258D02*
X141477500Y-83937742D01*
X142522500Y-84412258D02*
X142522500Y-83937742D01*
%TO.C,B6*%
X155477500Y-84412258D02*
X155477500Y-83937742D01*
X156522500Y-84412258D02*
X156522500Y-83937742D01*
%TO.C,A7*%
X139237258Y-84477500D02*
X138762742Y-84477500D01*
X139237258Y-85522500D02*
X138762742Y-85522500D01*
%TO.C,U1*%
X143640000Y-81690000D02*
X144950000Y-81690000D01*
X143640000Y-84410000D02*
X143640000Y-81690000D01*
X143640000Y-84410000D02*
X143870000Y-84410000D01*
X143870000Y-85550000D02*
X143870000Y-84410000D01*
X147050000Y-81690000D02*
X148360000Y-81690000D01*
X148360000Y-81690000D02*
X148360000Y-84410000D01*
X148360000Y-84410000D02*
X148130000Y-84410000D01*
%TO.C,TP3*%
X127700000Y-72750000D02*
G75*
G02*
X126300000Y-72750000I-700000J0D01*
G01*
X126300000Y-72750000D02*
G75*
G02*
X127700000Y-72750000I700000J0D01*
G01*
%TO.C,B5*%
X149477500Y-84412258D02*
X149477500Y-83937742D01*
X150522500Y-84412258D02*
X150522500Y-83937742D01*
%TO.C,A5*%
X135477500Y-84412258D02*
X135477500Y-83937742D01*
X136522500Y-84412258D02*
X136522500Y-83937742D01*
%TO.C,A2*%
X135477500Y-80062258D02*
X135477500Y-79587742D01*
X136522500Y-80062258D02*
X136522500Y-79587742D01*
%TO.C,B3*%
X157477500Y-80062258D02*
X157477500Y-79587742D01*
X158522500Y-80062258D02*
X158522500Y-79587742D01*
%TO.C,B2*%
X155477500Y-80062258D02*
X155477500Y-79587742D01*
X156522500Y-80062258D02*
X156522500Y-79587742D01*
%TO.C,A1*%
X133477500Y-80062258D02*
X133477500Y-79587742D01*
X134522500Y-80062258D02*
X134522500Y-79587742D01*
%TO.C,A3*%
X141477500Y-80062258D02*
X141477500Y-79587742D01*
X142522500Y-80062258D02*
X142522500Y-79587742D01*
%TO.C,A4*%
X139237258Y-81477500D02*
X138762742Y-81477500D01*
X139237258Y-82522500D02*
X138762742Y-82522500D01*
%TO.C,B4*%
X153237258Y-81477500D02*
X152762742Y-81477500D01*
X153237258Y-82522500D02*
X152762742Y-82522500D01*
%TO.C,B1*%
X149477500Y-80062258D02*
X149477500Y-79587742D01*
X150522500Y-80062258D02*
X150522500Y-79587742D01*
%TO.C,J1*%
X131170000Y-78200000D02*
X131170000Y-79800000D01*
X131170000Y-84200000D02*
X131170000Y-85800000D01*
X136200000Y-72600000D02*
X137800000Y-72600000D01*
X136200000Y-91400000D02*
X137800000Y-91400000D01*
X142200000Y-72600000D02*
X143800000Y-72600000D01*
X142200000Y-91400000D02*
X143800000Y-91400000D01*
X148200000Y-72600000D02*
X149800000Y-72600000D01*
X148200000Y-91400000D02*
X149800000Y-91400000D01*
X154200000Y-72600000D02*
X155800000Y-72600000D01*
X154200000Y-91400000D02*
X155800000Y-91400000D01*
X160830000Y-78200000D02*
X160830000Y-79800000D01*
X160830000Y-84200000D02*
X160830000Y-85800000D01*
%TO.C,J2*%
X103645000Y-84060000D02*
X103645000Y-85940000D01*
X110355000Y-84060000D02*
X110355000Y-85940000D01*
%TO.C,TP2*%
X165700000Y-79000000D02*
G75*
G02*
X164300000Y-79000000I-700000J0D01*
G01*
X164300000Y-79000000D02*
G75*
G02*
X165700000Y-79000000I700000J0D01*
G01*
%TO.C,TP4*%
X165700000Y-72750000D02*
G75*
G02*
X164300000Y-72750000I-700000J0D01*
G01*
X164300000Y-72750000D02*
G75*
G02*
X165700000Y-72750000I700000J0D01*
G01*
%TO.C,TP6*%
X127700000Y-109250000D02*
G75*
G02*
X126300000Y-109250000I-700000J0D01*
G01*
X126300000Y-109250000D02*
G75*
G02*
X127700000Y-109250000I700000J0D01*
G01*
%TO.C,TP8*%
X127700000Y-115500000D02*
G75*
G02*
X126300000Y-115500000I-700000J0D01*
G01*
X126300000Y-115500000D02*
G75*
G02*
X127700000Y-115500000I700000J0D01*
G01*
%TO.C,TP1*%
X127700000Y-79000000D02*
G75*
G02*
X126300000Y-79000000I-700000J0D01*
G01*
X126300000Y-79000000D02*
G75*
G02*
X127700000Y-79000000I700000J0D01*
G01*
%TO.C,J5*%
X181245000Y-104190000D02*
X181245000Y-102310000D01*
X187955000Y-104190000D02*
X187955000Y-102310000D01*
%TO.C,J6*%
X103645000Y-104190000D02*
X103645000Y-102310000D01*
X110355000Y-104190000D02*
X110355000Y-102310000D01*
%TD*%
%LPC*%
D14*
X185750000Y-104250000D02*
X157000000Y-104250000D01*
X157000000Y-110250000D01*
X135000000Y-110250000D01*
X135000000Y-104250000D01*
X106000000Y-104250000D01*
X106000000Y-102250000D01*
X185750000Y-102250000D01*
X185750000Y-104250000D01*
G36*
X185750000Y-104250000D02*
G01*
X157000000Y-104250000D01*
X157000000Y-110250000D01*
X135000000Y-110250000D01*
X135000000Y-104250000D01*
X106000000Y-104250000D01*
X106000000Y-102250000D01*
X185750000Y-102250000D01*
X185750000Y-104250000D01*
G37*
X157000000Y-84000000D02*
X185750000Y-84000000D01*
X185750000Y-86000000D01*
X106000000Y-86000000D01*
X106000000Y-84000000D01*
X135000000Y-84000000D01*
X135000000Y-78000000D01*
X157000000Y-78000000D01*
X157000000Y-84000000D01*
G36*
X157000000Y-84000000D02*
G01*
X185750000Y-84000000D01*
X185750000Y-86000000D01*
X106000000Y-86000000D01*
X106000000Y-84000000D01*
X135000000Y-84000000D01*
X135000000Y-78000000D01*
X157000000Y-78000000D01*
X157000000Y-84000000D01*
G37*
D15*
%TO.C,H2*%
X103975000Y-117980000D03*
X104568109Y-116548109D03*
X104568109Y-119411891D03*
X106000000Y-115955000D03*
D16*
X106000000Y-117980000D03*
D15*
X106000000Y-120005000D03*
X107431891Y-116548109D03*
X107431891Y-119411891D03*
X108025000Y-117980000D03*
%TD*%
%TO.C,H3*%
X183575000Y-117980000D03*
X184168109Y-116548109D03*
X184168109Y-119411891D03*
X185600000Y-115955000D03*
D16*
X185600000Y-117980000D03*
D15*
X185600000Y-120005000D03*
X187031891Y-116548109D03*
X187031891Y-119411891D03*
X187625000Y-117980000D03*
%TD*%
%TO.C,H1*%
X103975000Y-70000000D03*
X104568109Y-68568109D03*
X104568109Y-71431891D03*
X106000000Y-67975000D03*
D16*
X106000000Y-70000000D03*
D15*
X106000000Y-72025000D03*
X107431891Y-68568109D03*
X107431891Y-71431891D03*
X108025000Y-70000000D03*
%TD*%
%TO.C,H4*%
X183575000Y-70000000D03*
X184168109Y-68568109D03*
X184168109Y-71431891D03*
X185600000Y-67975000D03*
D16*
X185600000Y-70000000D03*
D15*
X185600000Y-72025000D03*
X187031891Y-68568109D03*
X187031891Y-71431891D03*
X187625000Y-70000000D03*
%TD*%
D17*
%TO.C,J3*%
X184600000Y-85000000D03*
D18*
X184600000Y-82200000D03*
D19*
X184600000Y-87800000D03*
%TD*%
D20*
%TO.C,C7*%
X153825000Y-103250000D03*
X152175000Y-103250000D03*
%TD*%
D21*
%TO.C,C6*%
X150000000Y-103250000D03*
X150000000Y-104900000D03*
%TD*%
%TO.C,D5*%
X142000000Y-103250000D03*
X142000000Y-104900000D03*
%TD*%
D20*
%TO.C,D4*%
X139825000Y-106250000D03*
X138175000Y-106250000D03*
%TD*%
%TO.C,D7*%
X139825000Y-103250000D03*
X138175000Y-103250000D03*
%TD*%
D21*
%TO.C,D2*%
X136000000Y-107600000D03*
X136000000Y-109250000D03*
%TD*%
%TO.C,D6*%
X136000000Y-103250000D03*
X136000000Y-104900000D03*
%TD*%
%TO.C,D3*%
X134000000Y-107600000D03*
X134000000Y-109250000D03*
%TD*%
D22*
%TO.C,TP5*%
X165000000Y-109250000D03*
%TD*%
%TO.C,TP7*%
X165000000Y-115500000D03*
%TD*%
D21*
%TO.C,C1*%
X158000000Y-107600000D03*
X158000000Y-109250000D03*
%TD*%
D20*
%TO.C,C4*%
X153825000Y-106250000D03*
X152175000Y-106250000D03*
%TD*%
D21*
%TO.C,C5*%
X156000000Y-103250000D03*
X156000000Y-104900000D03*
%TD*%
%TO.C,C2*%
X156000000Y-107600000D03*
X156000000Y-109250000D03*
%TD*%
%TO.C,D1*%
X142000000Y-107600000D03*
X142000000Y-109250000D03*
%TD*%
D23*
%TO.C,U2*%
X147500000Y-103250000D03*
D24*
X146000000Y-103337500D03*
D23*
X144500000Y-103250000D03*
%TD*%
D21*
%TO.C,C3*%
X150000000Y-107600000D03*
X150000000Y-109250000D03*
%TD*%
D25*
%TO.C,Z1*%
X116000000Y-71000000D03*
X116000000Y-72270000D03*
X116000000Y-73540000D03*
X116000000Y-74810000D03*
X116000000Y-76080000D03*
X116000000Y-77350000D03*
X116000000Y-78620000D03*
X117270000Y-71000000D03*
X117270000Y-72270000D03*
X117270000Y-73540000D03*
X117270000Y-74810000D03*
X117270000Y-76080000D03*
X117270000Y-77350000D03*
X117270000Y-78620000D03*
X118540000Y-71000000D03*
X118540000Y-72270000D03*
X118540000Y-73540000D03*
X118540000Y-74810000D03*
X118540000Y-76080000D03*
X118540000Y-77350000D03*
X118540000Y-78620000D03*
X119810000Y-71000000D03*
X119810000Y-72270000D03*
X119810000Y-73540000D03*
X119810000Y-74810000D03*
X119810000Y-76080000D03*
X119810000Y-77350000D03*
X119810000Y-78620000D03*
X121080000Y-71000000D03*
X121080000Y-72270000D03*
X121080000Y-73540000D03*
X121080000Y-74810000D03*
X121080000Y-76080000D03*
X121080000Y-77350000D03*
X121080000Y-78620000D03*
X122350000Y-71000000D03*
X122350000Y-72270000D03*
X122350000Y-73540000D03*
X122350000Y-74810000D03*
X122350000Y-76080000D03*
X122350000Y-77350000D03*
X122350000Y-78620000D03*
X123620000Y-71000000D03*
X123620000Y-72270000D03*
X123620000Y-73540000D03*
X123620000Y-74810000D03*
X123620000Y-76080000D03*
X123620000Y-77350000D03*
X123620000Y-78620000D03*
%TD*%
%TO.C,Z2*%
X168380000Y-109380000D03*
X168380000Y-110650000D03*
X168380000Y-111920000D03*
X168380000Y-113190000D03*
X168380000Y-114460000D03*
X168380000Y-115730000D03*
X168380000Y-117000000D03*
X169650000Y-109380000D03*
X169650000Y-110650000D03*
X169650000Y-111920000D03*
X169650000Y-113190000D03*
X169650000Y-114460000D03*
X169650000Y-115730000D03*
X169650000Y-117000000D03*
X170920000Y-109380000D03*
X170920000Y-110650000D03*
X170920000Y-111920000D03*
X170920000Y-113190000D03*
X170920000Y-114460000D03*
X170920000Y-115730000D03*
X170920000Y-117000000D03*
X172190000Y-109380000D03*
X172190000Y-110650000D03*
X172190000Y-111920000D03*
X172190000Y-113190000D03*
X172190000Y-114460000D03*
X172190000Y-115730000D03*
X172190000Y-117000000D03*
X173460000Y-109380000D03*
X173460000Y-110650000D03*
X173460000Y-111920000D03*
X173460000Y-113190000D03*
X173460000Y-114460000D03*
X173460000Y-115730000D03*
X173460000Y-117000000D03*
X174730000Y-109380000D03*
X174730000Y-110650000D03*
X174730000Y-111920000D03*
X174730000Y-113190000D03*
X174730000Y-114460000D03*
X174730000Y-115730000D03*
X174730000Y-117000000D03*
X176000000Y-109380000D03*
X176000000Y-110650000D03*
X176000000Y-111920000D03*
X176000000Y-113190000D03*
X176000000Y-114460000D03*
X176000000Y-115730000D03*
X176000000Y-117000000D03*
%TD*%
%TO.C,Z3*%
X123620000Y-117000000D03*
X123620000Y-115730000D03*
X123620000Y-114460000D03*
X123620000Y-113190000D03*
X123620000Y-111920000D03*
X123620000Y-110650000D03*
X123620000Y-109380000D03*
X122350000Y-117000000D03*
X122350000Y-115730000D03*
X122350000Y-114460000D03*
X122350000Y-113190000D03*
X122350000Y-111920000D03*
X122350000Y-110650000D03*
X122350000Y-109380000D03*
X121080000Y-117000000D03*
X121080000Y-115730000D03*
X121080000Y-114460000D03*
X121080000Y-113190000D03*
X121080000Y-111920000D03*
X121080000Y-110650000D03*
X121080000Y-109380000D03*
X119810000Y-117000000D03*
X119810000Y-115730000D03*
X119810000Y-114460000D03*
X119810000Y-113190000D03*
X119810000Y-111920000D03*
X119810000Y-110650000D03*
X119810000Y-109380000D03*
X118540000Y-117000000D03*
X118540000Y-115730000D03*
X118540000Y-114460000D03*
X118540000Y-113190000D03*
X118540000Y-111920000D03*
X118540000Y-110650000D03*
X118540000Y-109380000D03*
X117270000Y-117000000D03*
X117270000Y-115730000D03*
X117270000Y-114460000D03*
X117270000Y-113190000D03*
X117270000Y-111920000D03*
X117270000Y-110650000D03*
X117270000Y-109380000D03*
X116000000Y-117000000D03*
X116000000Y-115730000D03*
X116000000Y-114460000D03*
X116000000Y-113190000D03*
X116000000Y-111920000D03*
X116000000Y-110650000D03*
X116000000Y-109380000D03*
%TD*%
%TO.C,Z4*%
X168380000Y-71000000D03*
X168380000Y-72270000D03*
X168380000Y-73540000D03*
X168380000Y-74810000D03*
X168380000Y-76080000D03*
X168380000Y-77350000D03*
X168380000Y-78620000D03*
X169650000Y-71000000D03*
X169650000Y-72270000D03*
X169650000Y-73540000D03*
X169650000Y-74810000D03*
X169650000Y-76080000D03*
X169650000Y-77350000D03*
X169650000Y-78620000D03*
X170920000Y-71000000D03*
X170920000Y-72270000D03*
X170920000Y-73540000D03*
X170920000Y-74810000D03*
X170920000Y-76080000D03*
X170920000Y-77350000D03*
X170920000Y-78620000D03*
X172190000Y-71000000D03*
X172190000Y-72270000D03*
X172190000Y-73540000D03*
X172190000Y-74810000D03*
X172190000Y-76080000D03*
X172190000Y-77350000D03*
X172190000Y-78620000D03*
X173460000Y-71000000D03*
X173460000Y-72270000D03*
X173460000Y-73540000D03*
X173460000Y-74810000D03*
X173460000Y-76080000D03*
X173460000Y-77350000D03*
X173460000Y-78620000D03*
X174730000Y-71000000D03*
X174730000Y-72270000D03*
X174730000Y-73540000D03*
X174730000Y-74810000D03*
X174730000Y-76080000D03*
X174730000Y-77350000D03*
X174730000Y-78620000D03*
X176000000Y-71000000D03*
X176000000Y-72270000D03*
X176000000Y-73540000D03*
X176000000Y-74810000D03*
X176000000Y-76080000D03*
X176000000Y-77350000D03*
X176000000Y-78620000D03*
%TD*%
D26*
%TO.C,J4*%
X160580000Y-115400000D03*
D27*
X160580000Y-112625000D03*
D28*
X160580000Y-106250000D03*
D27*
X160580000Y-99875000D03*
D26*
X160580000Y-97100000D03*
D29*
X158090000Y-115400000D03*
X158090000Y-97100000D03*
D30*
X152000000Y-115400000D03*
X152000000Y-97100000D03*
X146000000Y-115400000D03*
X146000000Y-97100000D03*
X140000000Y-115400000D03*
X140000000Y-97100000D03*
D29*
X133910000Y-115400000D03*
X133910000Y-97100000D03*
D26*
X131420000Y-115400000D03*
D27*
X131420000Y-112625000D03*
D28*
X131420000Y-106250000D03*
D27*
X131420000Y-99875000D03*
D26*
X131420000Y-97100000D03*
%TD*%
D20*
%TO.C,B7*%
X153825000Y-85000000D03*
X152175000Y-85000000D03*
%TD*%
D31*
%TO.C,A6*%
X142000000Y-85000000D03*
X142000000Y-83350000D03*
%TD*%
%TO.C,B6*%
X156000000Y-85000000D03*
X156000000Y-83350000D03*
%TD*%
D20*
%TO.C,A7*%
X139825000Y-85000000D03*
X138175000Y-85000000D03*
%TD*%
D23*
%TO.C,U1*%
X144500000Y-85000000D03*
D32*
X146000000Y-84912500D03*
D23*
X147500000Y-85000000D03*
%TD*%
D22*
%TO.C,TP3*%
X127000000Y-72750000D03*
%TD*%
D31*
%TO.C,B5*%
X150000000Y-85000000D03*
X150000000Y-83350000D03*
%TD*%
%TO.C,A5*%
X136000000Y-85000000D03*
X136000000Y-83350000D03*
%TD*%
%TO.C,A2*%
X136000000Y-80650000D03*
X136000000Y-79000000D03*
%TD*%
%TO.C,B3*%
X158000000Y-80650000D03*
X158000000Y-79000000D03*
%TD*%
%TO.C,B2*%
X156000000Y-80650000D03*
X156000000Y-79000000D03*
%TD*%
%TO.C,A1*%
X134000000Y-80650000D03*
X134000000Y-79000000D03*
%TD*%
%TO.C,A3*%
X142000000Y-80650000D03*
X142000000Y-79000000D03*
%TD*%
D20*
%TO.C,A4*%
X139825000Y-82000000D03*
X138175000Y-82000000D03*
%TD*%
%TO.C,B4*%
X153825000Y-82000000D03*
X152175000Y-82000000D03*
%TD*%
D31*
%TO.C,B1*%
X150000000Y-80650000D03*
X150000000Y-79000000D03*
%TD*%
D26*
%TO.C,J1*%
X131420000Y-72850000D03*
D27*
X131420000Y-75625000D03*
D28*
X131420000Y-82000000D03*
D27*
X131420000Y-88375000D03*
D26*
X131420000Y-91150000D03*
D29*
X133910000Y-72850000D03*
X133910000Y-91150000D03*
D30*
X140000000Y-72850000D03*
X140000000Y-91150000D03*
X146000000Y-72850000D03*
X146000000Y-91150000D03*
X152000000Y-72850000D03*
X152000000Y-91150000D03*
D29*
X158090000Y-72850000D03*
X158090000Y-91150000D03*
D26*
X160580000Y-72850000D03*
D27*
X160580000Y-75625000D03*
D28*
X160580000Y-82000000D03*
D27*
X160580000Y-88375000D03*
D26*
X160580000Y-91150000D03*
%TD*%
D17*
%TO.C,J2*%
X107000000Y-85000000D03*
D18*
X107000000Y-82200000D03*
D19*
X107000000Y-87800000D03*
%TD*%
D22*
%TO.C,TP2*%
X165000000Y-79000000D03*
%TD*%
%TO.C,TP4*%
X165000000Y-72750000D03*
%TD*%
%TO.C,TP6*%
X127000000Y-109250000D03*
%TD*%
%TO.C,TP8*%
X127000000Y-115500000D03*
%TD*%
%TO.C,TP1*%
X127000000Y-79000000D03*
%TD*%
D17*
%TO.C,J5*%
X184600000Y-103250000D03*
D19*
X184600000Y-106050000D03*
D18*
X184600000Y-100450000D03*
%TD*%
D17*
%TO.C,J6*%
X107000000Y-103250000D03*
D19*
X107000000Y-106050000D03*
D18*
X107000000Y-100450000D03*
%TD*%
%LPD*%
M02*
