%TF.GenerationSoftware,KiCad,Pcbnew,(5.1.9-0-10_14)*%
%TF.CreationDate,2021-09-14T14:36:21+02:00*%
%TF.ProjectId,rf-proto-card,72662d70-726f-4746-9f2d-636172642e6b,1*%
%TF.SameCoordinates,Original*%
%TF.FileFunction,Legend,Top*%
%TF.FilePolarity,Positive*%
%FSLAX46Y46*%
G04 Gerber Fmt 4.6, Leading zero omitted, Abs format (unit mm)*
G04 Created by KiCad (PCBNEW (5.1.9-0-10_14)) date 2021-09-14 14:36:21*
%MOMM*%
%LPD*%
G01*
G04 APERTURE LIST*
%ADD10C,0.150000*%
%ADD11C,0.300000*%
%ADD12C,0.375000*%
%ADD13C,0.120000*%
%ADD14C,0.100000*%
%ADD15R,1.000000X4.550000*%
%ADD16R,1.000000X3.800000*%
%ADD17R,3.980000X1.000000*%
%ADD18R,3.800000X1.000000*%
%ADD19R,1.000000X1.000000*%
%ADD20C,1.000000*%
%ADD21C,0.900000*%
%ADD22R,0.900000X1.300000*%
%ADD23C,1.730000*%
%ADD24C,0.800000*%
%ADD25C,5.400000*%
G04 APERTURE END LIST*
D10*
X130938095Y-94652380D02*
X130938095Y-93652380D01*
X131366666Y-94652380D02*
X131366666Y-94128571D01*
X131319047Y-94033333D01*
X131223809Y-93985714D01*
X131080952Y-93985714D01*
X130985714Y-94033333D01*
X130938095Y-94080952D01*
X131700000Y-93985714D02*
X132080952Y-93985714D01*
X131842857Y-93652380D02*
X131842857Y-94509523D01*
X131890476Y-94604761D01*
X131985714Y-94652380D01*
X132080952Y-94652380D01*
X132271428Y-93985714D02*
X132652380Y-93985714D01*
X132414285Y-93652380D02*
X132414285Y-94509523D01*
X132461904Y-94604761D01*
X132557142Y-94652380D01*
X132652380Y-94652380D01*
X132985714Y-93985714D02*
X132985714Y-94985714D01*
X132985714Y-94033333D02*
X133080952Y-93985714D01*
X133271428Y-93985714D01*
X133366666Y-94033333D01*
X133414285Y-94080952D01*
X133461904Y-94176190D01*
X133461904Y-94461904D01*
X133414285Y-94557142D01*
X133366666Y-94604761D01*
X133271428Y-94652380D01*
X133080952Y-94652380D01*
X132985714Y-94604761D01*
X133842857Y-94604761D02*
X133938095Y-94652380D01*
X134128571Y-94652380D01*
X134223809Y-94604761D01*
X134271428Y-94509523D01*
X134271428Y-94461904D01*
X134223809Y-94366666D01*
X134128571Y-94319047D01*
X133985714Y-94319047D01*
X133890476Y-94271428D01*
X133842857Y-94176190D01*
X133842857Y-94128571D01*
X133890476Y-94033333D01*
X133985714Y-93985714D01*
X134128571Y-93985714D01*
X134223809Y-94033333D01*
X134700000Y-94557142D02*
X134747619Y-94604761D01*
X134700000Y-94652380D01*
X134652380Y-94604761D01*
X134700000Y-94557142D01*
X134700000Y-94652380D01*
X134700000Y-94033333D02*
X134747619Y-94080952D01*
X134700000Y-94128571D01*
X134652380Y-94080952D01*
X134700000Y-94033333D01*
X134700000Y-94128571D01*
X135890476Y-93604761D02*
X135033333Y-94890476D01*
X136938095Y-93604761D02*
X136080952Y-94890476D01*
X137700000Y-93985714D02*
X137700000Y-94795238D01*
X137652380Y-94890476D01*
X137604761Y-94938095D01*
X137509523Y-94985714D01*
X137366666Y-94985714D01*
X137271428Y-94938095D01*
X137700000Y-94604761D02*
X137604761Y-94652380D01*
X137414285Y-94652380D01*
X137319047Y-94604761D01*
X137271428Y-94557142D01*
X137223809Y-94461904D01*
X137223809Y-94176190D01*
X137271428Y-94080952D01*
X137319047Y-94033333D01*
X137414285Y-93985714D01*
X137604761Y-93985714D01*
X137700000Y-94033333D01*
X138176190Y-94652380D02*
X138176190Y-93985714D01*
X138176190Y-93652380D02*
X138128571Y-93700000D01*
X138176190Y-93747619D01*
X138223809Y-93700000D01*
X138176190Y-93652380D01*
X138176190Y-93747619D01*
X138509523Y-93985714D02*
X138890476Y-93985714D01*
X138652380Y-93652380D02*
X138652380Y-94509523D01*
X138700000Y-94604761D01*
X138795238Y-94652380D01*
X138890476Y-94652380D01*
X139223809Y-94652380D02*
X139223809Y-93652380D01*
X139652380Y-94652380D02*
X139652380Y-94128571D01*
X139604761Y-94033333D01*
X139509523Y-93985714D01*
X139366666Y-93985714D01*
X139271428Y-94033333D01*
X139223809Y-94080952D01*
X140557142Y-93985714D02*
X140557142Y-94652380D01*
X140128571Y-93985714D02*
X140128571Y-94509523D01*
X140176190Y-94604761D01*
X140271428Y-94652380D01*
X140414285Y-94652380D01*
X140509523Y-94604761D01*
X140557142Y-94557142D01*
X141033333Y-94652380D02*
X141033333Y-93652380D01*
X141033333Y-94033333D02*
X141128571Y-93985714D01*
X141319047Y-93985714D01*
X141414285Y-94033333D01*
X141461904Y-94080952D01*
X141509523Y-94176190D01*
X141509523Y-94461904D01*
X141461904Y-94557142D01*
X141414285Y-94604761D01*
X141319047Y-94652380D01*
X141128571Y-94652380D01*
X141033333Y-94604761D01*
X141938095Y-94557142D02*
X141985714Y-94604761D01*
X141938095Y-94652380D01*
X141890476Y-94604761D01*
X141938095Y-94557142D01*
X141938095Y-94652380D01*
X142842857Y-94604761D02*
X142747619Y-94652380D01*
X142557142Y-94652380D01*
X142461904Y-94604761D01*
X142414285Y-94557142D01*
X142366666Y-94461904D01*
X142366666Y-94176190D01*
X142414285Y-94080952D01*
X142461904Y-94033333D01*
X142557142Y-93985714D01*
X142747619Y-93985714D01*
X142842857Y-94033333D01*
X143414285Y-94652380D02*
X143319047Y-94604761D01*
X143271428Y-94557142D01*
X143223809Y-94461904D01*
X143223809Y-94176190D01*
X143271428Y-94080952D01*
X143319047Y-94033333D01*
X143414285Y-93985714D01*
X143557142Y-93985714D01*
X143652380Y-94033333D01*
X143700000Y-94080952D01*
X143747619Y-94176190D01*
X143747619Y-94461904D01*
X143700000Y-94557142D01*
X143652380Y-94604761D01*
X143557142Y-94652380D01*
X143414285Y-94652380D01*
X144176190Y-94652380D02*
X144176190Y-93985714D01*
X144176190Y-94080952D02*
X144223809Y-94033333D01*
X144319047Y-93985714D01*
X144461904Y-93985714D01*
X144557142Y-94033333D01*
X144604761Y-94128571D01*
X144604761Y-94652380D01*
X144604761Y-94128571D02*
X144652380Y-94033333D01*
X144747619Y-93985714D01*
X144890476Y-93985714D01*
X144985714Y-94033333D01*
X145033333Y-94128571D01*
X145033333Y-94652380D01*
X146223809Y-93604761D02*
X145366666Y-94890476D01*
X146509523Y-94604761D02*
X146604761Y-94652380D01*
X146795238Y-94652380D01*
X146890476Y-94604761D01*
X146938095Y-94509523D01*
X146938095Y-94461904D01*
X146890476Y-94366666D01*
X146795238Y-94319047D01*
X146652380Y-94319047D01*
X146557142Y-94271428D01*
X146509523Y-94176190D01*
X146509523Y-94128571D01*
X146557142Y-94033333D01*
X146652380Y-93985714D01*
X146795238Y-93985714D01*
X146890476Y-94033333D01*
X147366666Y-94652380D02*
X147366666Y-93985714D01*
X147366666Y-93652380D02*
X147319047Y-93700000D01*
X147366666Y-93747619D01*
X147414285Y-93700000D01*
X147366666Y-93652380D01*
X147366666Y-93747619D01*
X147985714Y-94652380D02*
X147890476Y-94604761D01*
X147842857Y-94509523D01*
X147842857Y-93652380D01*
X148366666Y-94652380D02*
X148366666Y-93985714D01*
X148366666Y-93652380D02*
X148319047Y-93700000D01*
X148366666Y-93747619D01*
X148414285Y-93700000D01*
X148366666Y-93652380D01*
X148366666Y-93747619D01*
X149271428Y-94604761D02*
X149176190Y-94652380D01*
X148985714Y-94652380D01*
X148890476Y-94604761D01*
X148842857Y-94557142D01*
X148795238Y-94461904D01*
X148795238Y-94176190D01*
X148842857Y-94080952D01*
X148890476Y-94033333D01*
X148985714Y-93985714D01*
X149176190Y-93985714D01*
X149271428Y-94033333D01*
X149842857Y-94652380D02*
X149747619Y-94604761D01*
X149700000Y-94557142D01*
X149652380Y-94461904D01*
X149652380Y-94176190D01*
X149700000Y-94080952D01*
X149747619Y-94033333D01*
X149842857Y-93985714D01*
X149985714Y-93985714D01*
X150080952Y-94033333D01*
X150128571Y-94080952D01*
X150176190Y-94176190D01*
X150176190Y-94461904D01*
X150128571Y-94557142D01*
X150080952Y-94604761D01*
X149985714Y-94652380D01*
X149842857Y-94652380D01*
X150604761Y-93985714D02*
X150604761Y-94652380D01*
X150604761Y-94080952D02*
X150652380Y-94033333D01*
X150747619Y-93985714D01*
X150890476Y-93985714D01*
X150985714Y-94033333D01*
X151033333Y-94128571D01*
X151033333Y-94652380D01*
X151414285Y-93985714D02*
X151604761Y-94652380D01*
X151795238Y-94176190D01*
X151985714Y-94652380D01*
X152176190Y-93985714D01*
X152557142Y-94652380D02*
X152557142Y-93985714D01*
X152557142Y-93652380D02*
X152509523Y-93700000D01*
X152557142Y-93747619D01*
X152604761Y-93700000D01*
X152557142Y-93652380D01*
X152557142Y-93747619D01*
X152890476Y-93985714D02*
X153271428Y-93985714D01*
X153033333Y-93652380D02*
X153033333Y-94509523D01*
X153080952Y-94604761D01*
X153176190Y-94652380D01*
X153271428Y-94652380D01*
X154033333Y-94604761D02*
X153938095Y-94652380D01*
X153747619Y-94652380D01*
X153652380Y-94604761D01*
X153604761Y-94557142D01*
X153557142Y-94461904D01*
X153557142Y-94176190D01*
X153604761Y-94080952D01*
X153652380Y-94033333D01*
X153747619Y-93985714D01*
X153938095Y-93985714D01*
X154033333Y-94033333D01*
X154461904Y-94652380D02*
X154461904Y-93652380D01*
X154890476Y-94652380D02*
X154890476Y-94128571D01*
X154842857Y-94033333D01*
X154747619Y-93985714D01*
X154604761Y-93985714D01*
X154509523Y-94033333D01*
X154461904Y-94080952D01*
X155747619Y-94604761D02*
X155652380Y-94652380D01*
X155461904Y-94652380D01*
X155366666Y-94604761D01*
X155319047Y-94509523D01*
X155319047Y-94128571D01*
X155366666Y-94033333D01*
X155461904Y-93985714D01*
X155652380Y-93985714D01*
X155747619Y-94033333D01*
X155795238Y-94128571D01*
X155795238Y-94223809D01*
X155319047Y-94319047D01*
X156223809Y-94652380D02*
X156223809Y-93985714D01*
X156223809Y-94176190D02*
X156271428Y-94080952D01*
X156319047Y-94033333D01*
X156414285Y-93985714D01*
X156509523Y-93985714D01*
X156747619Y-93985714D02*
X156985714Y-94652380D01*
X157223809Y-93985714D02*
X156985714Y-94652380D01*
X156890476Y-94890476D01*
X156842857Y-94938095D01*
X156747619Y-94985714D01*
X158319047Y-93604761D02*
X157461904Y-94890476D01*
X158652380Y-94652380D02*
X158652380Y-93985714D01*
X158652380Y-94176190D02*
X158700000Y-94080952D01*
X158747619Y-94033333D01*
X158842857Y-93985714D01*
X158938095Y-93985714D01*
X159128571Y-93985714D02*
X159509523Y-93985714D01*
X159271428Y-94652380D02*
X159271428Y-93795238D01*
X159319047Y-93700000D01*
X159414285Y-93652380D01*
X159509523Y-93652380D01*
X159842857Y-94271428D02*
X160604761Y-94271428D01*
X161080952Y-93985714D02*
X161080952Y-94985714D01*
X161080952Y-94033333D02*
X161176190Y-93985714D01*
X161366666Y-93985714D01*
X161461904Y-94033333D01*
X161509523Y-94080952D01*
X161557142Y-94176190D01*
X161557142Y-94461904D01*
X161509523Y-94557142D01*
X161461904Y-94604761D01*
X161366666Y-94652380D01*
X161176190Y-94652380D01*
X161080952Y-94604761D01*
X161985714Y-94652380D02*
X161985714Y-93985714D01*
X161985714Y-94176190D02*
X162033333Y-94080952D01*
X162080952Y-94033333D01*
X162176190Y-93985714D01*
X162271428Y-93985714D01*
X162747619Y-94652380D02*
X162652380Y-94604761D01*
X162604761Y-94557142D01*
X162557142Y-94461904D01*
X162557142Y-94176190D01*
X162604761Y-94080952D01*
X162652380Y-94033333D01*
X162747619Y-93985714D01*
X162890476Y-93985714D01*
X162985714Y-94033333D01*
X163033333Y-94080952D01*
X163080952Y-94176190D01*
X163080952Y-94461904D01*
X163033333Y-94557142D01*
X162985714Y-94604761D01*
X162890476Y-94652380D01*
X162747619Y-94652380D01*
X163366666Y-93985714D02*
X163747619Y-93985714D01*
X163509523Y-93652380D02*
X163509523Y-94509523D01*
X163557142Y-94604761D01*
X163652380Y-94652380D01*
X163747619Y-94652380D01*
X164223809Y-94652380D02*
X164128571Y-94604761D01*
X164080952Y-94557142D01*
X164033333Y-94461904D01*
X164033333Y-94176190D01*
X164080952Y-94080952D01*
X164128571Y-94033333D01*
X164223809Y-93985714D01*
X164366666Y-93985714D01*
X164461904Y-94033333D01*
X164509523Y-94080952D01*
X164557142Y-94176190D01*
X164557142Y-94461904D01*
X164509523Y-94557142D01*
X164461904Y-94604761D01*
X164366666Y-94652380D01*
X164223809Y-94652380D01*
X164985714Y-94271428D02*
X165747619Y-94271428D01*
X166652380Y-94604761D02*
X166557142Y-94652380D01*
X166366666Y-94652380D01*
X166271428Y-94604761D01*
X166223809Y-94557142D01*
X166176190Y-94461904D01*
X166176190Y-94176190D01*
X166223809Y-94080952D01*
X166271428Y-94033333D01*
X166366666Y-93985714D01*
X166557142Y-93985714D01*
X166652380Y-94033333D01*
X167509523Y-94652380D02*
X167509523Y-94128571D01*
X167461904Y-94033333D01*
X167366666Y-93985714D01*
X167176190Y-93985714D01*
X167080952Y-94033333D01*
X167509523Y-94604761D02*
X167414285Y-94652380D01*
X167176190Y-94652380D01*
X167080952Y-94604761D01*
X167033333Y-94509523D01*
X167033333Y-94414285D01*
X167080952Y-94319047D01*
X167176190Y-94271428D01*
X167414285Y-94271428D01*
X167509523Y-94223809D01*
X167985714Y-94652380D02*
X167985714Y-93985714D01*
X167985714Y-94176190D02*
X168033333Y-94080952D01*
X168080952Y-94033333D01*
X168176190Y-93985714D01*
X168271428Y-93985714D01*
X169033333Y-94652380D02*
X169033333Y-93652380D01*
X169033333Y-94604761D02*
X168938095Y-94652380D01*
X168747619Y-94652380D01*
X168652380Y-94604761D01*
X168604761Y-94557142D01*
X168557142Y-94461904D01*
X168557142Y-94176190D01*
X168604761Y-94080952D01*
X168652380Y-94033333D01*
X168747619Y-93985714D01*
X168938095Y-93985714D01*
X169033333Y-94033333D01*
X169509523Y-94557142D02*
X169557142Y-94604761D01*
X169509523Y-94652380D01*
X169461904Y-94604761D01*
X169509523Y-94557142D01*
X169509523Y-94652380D01*
X170414285Y-93985714D02*
X170414285Y-94795238D01*
X170366666Y-94890476D01*
X170319047Y-94938095D01*
X170223809Y-94985714D01*
X170080952Y-94985714D01*
X169985714Y-94938095D01*
X170414285Y-94604761D02*
X170319047Y-94652380D01*
X170128571Y-94652380D01*
X170033333Y-94604761D01*
X169985714Y-94557142D01*
X169938095Y-94461904D01*
X169938095Y-94176190D01*
X169985714Y-94080952D01*
X170033333Y-94033333D01*
X170128571Y-93985714D01*
X170319047Y-93985714D01*
X170414285Y-94033333D01*
X170890476Y-94652380D02*
X170890476Y-93985714D01*
X170890476Y-93652380D02*
X170842857Y-93700000D01*
X170890476Y-93747619D01*
X170938095Y-93700000D01*
X170890476Y-93652380D01*
X170890476Y-93747619D01*
X171223809Y-93985714D02*
X171604761Y-93985714D01*
X171366666Y-93652380D02*
X171366666Y-94509523D01*
X171414285Y-94604761D01*
X171509523Y-94652380D01*
X171604761Y-94652380D01*
D11*
X176800000Y-100400000D02*
X174200000Y-100400000D01*
X174200000Y-100400000D02*
X174800000Y-100800000D01*
X174200000Y-100400000D02*
X174800000Y-100000000D01*
D10*
X168209523Y-99852380D02*
X167733333Y-99852380D01*
X167685714Y-100328571D01*
X167733333Y-100280952D01*
X167828571Y-100233333D01*
X168066666Y-100233333D01*
X168161904Y-100280952D01*
X168209523Y-100328571D01*
X168257142Y-100423809D01*
X168257142Y-100661904D01*
X168209523Y-100757142D01*
X168161904Y-100804761D01*
X168066666Y-100852380D01*
X167828571Y-100852380D01*
X167733333Y-100804761D01*
X167685714Y-100757142D01*
X168876190Y-99852380D02*
X168971428Y-99852380D01*
X169066666Y-99900000D01*
X169114285Y-99947619D01*
X169161904Y-100042857D01*
X169209523Y-100233333D01*
X169209523Y-100471428D01*
X169161904Y-100661904D01*
X169114285Y-100757142D01*
X169066666Y-100804761D01*
X168971428Y-100852380D01*
X168876190Y-100852380D01*
X168780952Y-100804761D01*
X168733333Y-100757142D01*
X168685714Y-100661904D01*
X168638095Y-100471428D01*
X168638095Y-100233333D01*
X168685714Y-100042857D01*
X168733333Y-99947619D01*
X168780952Y-99900000D01*
X168876190Y-99852380D01*
X170542857Y-100852380D02*
X170447619Y-100804761D01*
X170400000Y-100757142D01*
X170352380Y-100661904D01*
X170352380Y-100376190D01*
X170400000Y-100280952D01*
X170447619Y-100233333D01*
X170542857Y-100185714D01*
X170685714Y-100185714D01*
X170780952Y-100233333D01*
X170828571Y-100280952D01*
X170876190Y-100376190D01*
X170876190Y-100661904D01*
X170828571Y-100757142D01*
X170780952Y-100804761D01*
X170685714Y-100852380D01*
X170542857Y-100852380D01*
X171304761Y-100852380D02*
X171304761Y-99852380D01*
X171733333Y-100852380D02*
X171733333Y-100328571D01*
X171685714Y-100233333D01*
X171590476Y-100185714D01*
X171447619Y-100185714D01*
X171352380Y-100233333D01*
X171304761Y-100280952D01*
X172209523Y-100852380D02*
X172209523Y-100185714D01*
X172209523Y-100280952D02*
X172257142Y-100233333D01*
X172352380Y-100185714D01*
X172495238Y-100185714D01*
X172590476Y-100233333D01*
X172638095Y-100328571D01*
X172638095Y-100852380D01*
X172638095Y-100328571D02*
X172685714Y-100233333D01*
X172780952Y-100185714D01*
X172923809Y-100185714D01*
X173019047Y-100233333D01*
X173066666Y-100328571D01*
X173066666Y-100852380D01*
D11*
X124000000Y-100400000D02*
X121400000Y-100400000D01*
X121400000Y-100400000D02*
X122000000Y-100800000D01*
X121400000Y-100400000D02*
X122000000Y-100000000D01*
D10*
X115409523Y-99852380D02*
X114933333Y-99852380D01*
X114885714Y-100328571D01*
X114933333Y-100280952D01*
X115028571Y-100233333D01*
X115266666Y-100233333D01*
X115361904Y-100280952D01*
X115409523Y-100328571D01*
X115457142Y-100423809D01*
X115457142Y-100661904D01*
X115409523Y-100757142D01*
X115361904Y-100804761D01*
X115266666Y-100852380D01*
X115028571Y-100852380D01*
X114933333Y-100804761D01*
X114885714Y-100757142D01*
X116076190Y-99852380D02*
X116171428Y-99852380D01*
X116266666Y-99900000D01*
X116314285Y-99947619D01*
X116361904Y-100042857D01*
X116409523Y-100233333D01*
X116409523Y-100471428D01*
X116361904Y-100661904D01*
X116314285Y-100757142D01*
X116266666Y-100804761D01*
X116171428Y-100852380D01*
X116076190Y-100852380D01*
X115980952Y-100804761D01*
X115933333Y-100757142D01*
X115885714Y-100661904D01*
X115838095Y-100471428D01*
X115838095Y-100233333D01*
X115885714Y-100042857D01*
X115933333Y-99947619D01*
X115980952Y-99900000D01*
X116076190Y-99852380D01*
X117742857Y-100852380D02*
X117647619Y-100804761D01*
X117600000Y-100757142D01*
X117552380Y-100661904D01*
X117552380Y-100376190D01*
X117600000Y-100280952D01*
X117647619Y-100233333D01*
X117742857Y-100185714D01*
X117885714Y-100185714D01*
X117980952Y-100233333D01*
X118028571Y-100280952D01*
X118076190Y-100376190D01*
X118076190Y-100661904D01*
X118028571Y-100757142D01*
X117980952Y-100804761D01*
X117885714Y-100852380D01*
X117742857Y-100852380D01*
X118504761Y-100852380D02*
X118504761Y-99852380D01*
X118933333Y-100852380D02*
X118933333Y-100328571D01*
X118885714Y-100233333D01*
X118790476Y-100185714D01*
X118647619Y-100185714D01*
X118552380Y-100233333D01*
X118504761Y-100280952D01*
X119409523Y-100852380D02*
X119409523Y-100185714D01*
X119409523Y-100280952D02*
X119457142Y-100233333D01*
X119552380Y-100185714D01*
X119695238Y-100185714D01*
X119790476Y-100233333D01*
X119838095Y-100328571D01*
X119838095Y-100852380D01*
X119838095Y-100328571D02*
X119885714Y-100233333D01*
X119980952Y-100185714D01*
X120123809Y-100185714D01*
X120219047Y-100233333D01*
X120266666Y-100328571D01*
X120266666Y-100852380D01*
D11*
X170200000Y-87800000D02*
X169600000Y-87400000D01*
X170200000Y-87800000D02*
X169600000Y-88200000D01*
X167600000Y-87800000D02*
X170200000Y-87800000D01*
D10*
X171809523Y-87252380D02*
X171333333Y-87252380D01*
X171285714Y-87728571D01*
X171333333Y-87680952D01*
X171428571Y-87633333D01*
X171666666Y-87633333D01*
X171761904Y-87680952D01*
X171809523Y-87728571D01*
X171857142Y-87823809D01*
X171857142Y-88061904D01*
X171809523Y-88157142D01*
X171761904Y-88204761D01*
X171666666Y-88252380D01*
X171428571Y-88252380D01*
X171333333Y-88204761D01*
X171285714Y-88157142D01*
X172476190Y-87252380D02*
X172571428Y-87252380D01*
X172666666Y-87300000D01*
X172714285Y-87347619D01*
X172761904Y-87442857D01*
X172809523Y-87633333D01*
X172809523Y-87871428D01*
X172761904Y-88061904D01*
X172714285Y-88157142D01*
X172666666Y-88204761D01*
X172571428Y-88252380D01*
X172476190Y-88252380D01*
X172380952Y-88204761D01*
X172333333Y-88157142D01*
X172285714Y-88061904D01*
X172238095Y-87871428D01*
X172238095Y-87633333D01*
X172285714Y-87442857D01*
X172333333Y-87347619D01*
X172380952Y-87300000D01*
X172476190Y-87252380D01*
X174142857Y-88252380D02*
X174047619Y-88204761D01*
X174000000Y-88157142D01*
X173952380Y-88061904D01*
X173952380Y-87776190D01*
X174000000Y-87680952D01*
X174047619Y-87633333D01*
X174142857Y-87585714D01*
X174285714Y-87585714D01*
X174380952Y-87633333D01*
X174428571Y-87680952D01*
X174476190Y-87776190D01*
X174476190Y-88061904D01*
X174428571Y-88157142D01*
X174380952Y-88204761D01*
X174285714Y-88252380D01*
X174142857Y-88252380D01*
X174904761Y-88252380D02*
X174904761Y-87252380D01*
X175333333Y-88252380D02*
X175333333Y-87728571D01*
X175285714Y-87633333D01*
X175190476Y-87585714D01*
X175047619Y-87585714D01*
X174952380Y-87633333D01*
X174904761Y-87680952D01*
X175809523Y-88252380D02*
X175809523Y-87585714D01*
X175809523Y-87680952D02*
X175857142Y-87633333D01*
X175952380Y-87585714D01*
X176095238Y-87585714D01*
X176190476Y-87633333D01*
X176238095Y-87728571D01*
X176238095Y-88252380D01*
X176238095Y-87728571D02*
X176285714Y-87633333D01*
X176380952Y-87585714D01*
X176523809Y-87585714D01*
X176619047Y-87633333D01*
X176666666Y-87728571D01*
X176666666Y-88252380D01*
X119209523Y-87252380D02*
X118733333Y-87252380D01*
X118685714Y-87728571D01*
X118733333Y-87680952D01*
X118828571Y-87633333D01*
X119066666Y-87633333D01*
X119161904Y-87680952D01*
X119209523Y-87728571D01*
X119257142Y-87823809D01*
X119257142Y-88061904D01*
X119209523Y-88157142D01*
X119161904Y-88204761D01*
X119066666Y-88252380D01*
X118828571Y-88252380D01*
X118733333Y-88204761D01*
X118685714Y-88157142D01*
X119876190Y-87252380D02*
X119971428Y-87252380D01*
X120066666Y-87300000D01*
X120114285Y-87347619D01*
X120161904Y-87442857D01*
X120209523Y-87633333D01*
X120209523Y-87871428D01*
X120161904Y-88061904D01*
X120114285Y-88157142D01*
X120066666Y-88204761D01*
X119971428Y-88252380D01*
X119876190Y-88252380D01*
X119780952Y-88204761D01*
X119733333Y-88157142D01*
X119685714Y-88061904D01*
X119638095Y-87871428D01*
X119638095Y-87633333D01*
X119685714Y-87442857D01*
X119733333Y-87347619D01*
X119780952Y-87300000D01*
X119876190Y-87252380D01*
X121542857Y-88252380D02*
X121447619Y-88204761D01*
X121400000Y-88157142D01*
X121352380Y-88061904D01*
X121352380Y-87776190D01*
X121400000Y-87680952D01*
X121447619Y-87633333D01*
X121542857Y-87585714D01*
X121685714Y-87585714D01*
X121780952Y-87633333D01*
X121828571Y-87680952D01*
X121876190Y-87776190D01*
X121876190Y-88061904D01*
X121828571Y-88157142D01*
X121780952Y-88204761D01*
X121685714Y-88252380D01*
X121542857Y-88252380D01*
X122304761Y-88252380D02*
X122304761Y-87252380D01*
X122733333Y-88252380D02*
X122733333Y-87728571D01*
X122685714Y-87633333D01*
X122590476Y-87585714D01*
X122447619Y-87585714D01*
X122352380Y-87633333D01*
X122304761Y-87680952D01*
X123209523Y-88252380D02*
X123209523Y-87585714D01*
X123209523Y-87680952D02*
X123257142Y-87633333D01*
X123352380Y-87585714D01*
X123495238Y-87585714D01*
X123590476Y-87633333D01*
X123638095Y-87728571D01*
X123638095Y-88252380D01*
X123638095Y-87728571D02*
X123685714Y-87633333D01*
X123780952Y-87585714D01*
X123923809Y-87585714D01*
X124019047Y-87633333D01*
X124066666Y-87728571D01*
X124066666Y-88252380D01*
D12*
X112978571Y-93366071D02*
X112978571Y-91866071D01*
X113478571Y-92937500D01*
X113978571Y-91866071D01*
X113978571Y-93366071D01*
X114692857Y-93366071D02*
X114692857Y-92366071D01*
X114692857Y-91866071D02*
X114621428Y-91937500D01*
X114692857Y-92008928D01*
X114764285Y-91937500D01*
X114692857Y-91866071D01*
X114692857Y-92008928D01*
X116050000Y-93294642D02*
X115907142Y-93366071D01*
X115621428Y-93366071D01*
X115478571Y-93294642D01*
X115407142Y-93223214D01*
X115335714Y-93080357D01*
X115335714Y-92651785D01*
X115407142Y-92508928D01*
X115478571Y-92437500D01*
X115621428Y-92366071D01*
X115907142Y-92366071D01*
X116050000Y-92437500D01*
X116692857Y-93366071D02*
X116692857Y-92366071D01*
X116692857Y-92651785D02*
X116764285Y-92508928D01*
X116835714Y-92437500D01*
X116978571Y-92366071D01*
X117121428Y-92366071D01*
X117835714Y-93366071D02*
X117692857Y-93294642D01*
X117621428Y-93223214D01*
X117550000Y-93080357D01*
X117550000Y-92651785D01*
X117621428Y-92508928D01*
X117692857Y-92437500D01*
X117835714Y-92366071D01*
X118050000Y-92366071D01*
X118192857Y-92437500D01*
X118264285Y-92508928D01*
X118335714Y-92651785D01*
X118335714Y-93080357D01*
X118264285Y-93223214D01*
X118192857Y-93294642D01*
X118050000Y-93366071D01*
X117835714Y-93366071D01*
X118835714Y-92366071D02*
X119121428Y-93366071D01*
X119407142Y-92651785D01*
X119692857Y-93366071D01*
X119978571Y-92366071D01*
X121192857Y-93366071D02*
X121192857Y-92580357D01*
X121121428Y-92437500D01*
X120978571Y-92366071D01*
X120692857Y-92366071D01*
X120550000Y-92437500D01*
X121192857Y-93294642D02*
X121050000Y-93366071D01*
X120692857Y-93366071D01*
X120550000Y-93294642D01*
X120478571Y-93151785D01*
X120478571Y-93008928D01*
X120550000Y-92866071D01*
X120692857Y-92794642D01*
X121050000Y-92794642D01*
X121192857Y-92723214D01*
X121764285Y-92366071D02*
X122121428Y-93366071D01*
X122478571Y-92366071D01*
X123621428Y-93294642D02*
X123478571Y-93366071D01*
X123192857Y-93366071D01*
X123050000Y-93294642D01*
X122978571Y-93151785D01*
X122978571Y-92580357D01*
X123050000Y-92437500D01*
X123192857Y-92366071D01*
X123478571Y-92366071D01*
X123621428Y-92437500D01*
X123692857Y-92580357D01*
X123692857Y-92723214D01*
X122978571Y-92866071D01*
X126692857Y-93366071D02*
X126621428Y-93366071D01*
X126478571Y-93294642D01*
X126264285Y-93080357D01*
X125907142Y-92651785D01*
X125764285Y-92437500D01*
X125692857Y-92223214D01*
X125692857Y-92080357D01*
X125764285Y-91937500D01*
X125907142Y-91866071D01*
X125978571Y-91866071D01*
X126121428Y-91937500D01*
X126192857Y-92080357D01*
X126192857Y-92151785D01*
X126121428Y-92294642D01*
X126050000Y-92366071D01*
X125621428Y-92651785D01*
X125550000Y-92723214D01*
X125478571Y-92866071D01*
X125478571Y-93080357D01*
X125550000Y-93223214D01*
X125621428Y-93294642D01*
X125764285Y-93366071D01*
X125978571Y-93366071D01*
X126121428Y-93294642D01*
X126192857Y-93223214D01*
X126407142Y-92937500D01*
X126478571Y-92723214D01*
X126478571Y-92580357D01*
X112907142Y-95991071D02*
X112407142Y-95276785D01*
X112050000Y-95991071D02*
X112050000Y-94491071D01*
X112621428Y-94491071D01*
X112764285Y-94562500D01*
X112835714Y-94633928D01*
X112907142Y-94776785D01*
X112907142Y-94991071D01*
X112835714Y-95133928D01*
X112764285Y-95205357D01*
X112621428Y-95276785D01*
X112050000Y-95276785D01*
X114050000Y-95205357D02*
X113550000Y-95205357D01*
X113550000Y-95991071D02*
X113550000Y-94491071D01*
X114264285Y-94491071D01*
X115978571Y-95991071D02*
X115978571Y-94491071D01*
X116550000Y-94491071D01*
X116692857Y-94562500D01*
X116764285Y-94633928D01*
X116835714Y-94776785D01*
X116835714Y-94991071D01*
X116764285Y-95133928D01*
X116692857Y-95205357D01*
X116550000Y-95276785D01*
X115978571Y-95276785D01*
X117478571Y-95991071D02*
X117478571Y-94991071D01*
X117478571Y-95276785D02*
X117550000Y-95133928D01*
X117621428Y-95062500D01*
X117764285Y-94991071D01*
X117907142Y-94991071D01*
X118621428Y-95991071D02*
X118478571Y-95919642D01*
X118407142Y-95848214D01*
X118335714Y-95705357D01*
X118335714Y-95276785D01*
X118407142Y-95133928D01*
X118478571Y-95062500D01*
X118621428Y-94991071D01*
X118835714Y-94991071D01*
X118978571Y-95062500D01*
X119050000Y-95133928D01*
X119121428Y-95276785D01*
X119121428Y-95705357D01*
X119050000Y-95848214D01*
X118978571Y-95919642D01*
X118835714Y-95991071D01*
X118621428Y-95991071D01*
X119550000Y-94991071D02*
X120121428Y-94991071D01*
X119764285Y-94491071D02*
X119764285Y-95776785D01*
X119835714Y-95919642D01*
X119978571Y-95991071D01*
X120121428Y-95991071D01*
X120835714Y-95991071D02*
X120692857Y-95919642D01*
X120621428Y-95848214D01*
X120550000Y-95705357D01*
X120550000Y-95276785D01*
X120621428Y-95133928D01*
X120692857Y-95062500D01*
X120835714Y-94991071D01*
X121050000Y-94991071D01*
X121192857Y-95062500D01*
X121264285Y-95133928D01*
X121335714Y-95276785D01*
X121335714Y-95705357D01*
X121264285Y-95848214D01*
X121192857Y-95919642D01*
X121050000Y-95991071D01*
X120835714Y-95991071D01*
X123978571Y-95848214D02*
X123907142Y-95919642D01*
X123692857Y-95991071D01*
X123550000Y-95991071D01*
X123335714Y-95919642D01*
X123192857Y-95776785D01*
X123121428Y-95633928D01*
X123050000Y-95348214D01*
X123050000Y-95133928D01*
X123121428Y-94848214D01*
X123192857Y-94705357D01*
X123335714Y-94562500D01*
X123550000Y-94491071D01*
X123692857Y-94491071D01*
X123907142Y-94562500D01*
X123978571Y-94633928D01*
X125264285Y-95991071D02*
X125264285Y-95205357D01*
X125192857Y-95062500D01*
X125050000Y-94991071D01*
X124764285Y-94991071D01*
X124621428Y-95062500D01*
X125264285Y-95919642D02*
X125121428Y-95991071D01*
X124764285Y-95991071D01*
X124621428Y-95919642D01*
X124550000Y-95776785D01*
X124550000Y-95633928D01*
X124621428Y-95491071D01*
X124764285Y-95419642D01*
X125121428Y-95419642D01*
X125264285Y-95348214D01*
X125978571Y-95991071D02*
X125978571Y-94991071D01*
X125978571Y-95276785D02*
X126050000Y-95133928D01*
X126121428Y-95062500D01*
X126264285Y-94991071D01*
X126407142Y-94991071D01*
X127550000Y-95991071D02*
X127550000Y-94491071D01*
X127550000Y-95919642D02*
X127407142Y-95991071D01*
X127121428Y-95991071D01*
X126978571Y-95919642D01*
X126907142Y-95848214D01*
X126835714Y-95705357D01*
X126835714Y-95276785D01*
X126907142Y-95133928D01*
X126978571Y-95062500D01*
X127121428Y-94991071D01*
X127407142Y-94991071D01*
X127550000Y-95062500D01*
D11*
X117600000Y-87800000D02*
X117000000Y-88200000D01*
X117600000Y-87800000D02*
X117000000Y-87400000D01*
X115000000Y-87800000D02*
X117600000Y-87800000D01*
D13*
X124600000Y-118000000D02*
X115000000Y-118000000D01*
X124600000Y-108400000D02*
X124600000Y-118000000D01*
X115000000Y-118000000D02*
X115000000Y-108400000D01*
X115000000Y-108400000D02*
X124600000Y-108400000D01*
D10*
X116061904Y-118785714D02*
X116061904Y-119785714D01*
X116061904Y-118833333D02*
X116157142Y-118785714D01*
X116347619Y-118785714D01*
X116442857Y-118833333D01*
X116490476Y-118880952D01*
X116538095Y-118976190D01*
X116538095Y-119261904D01*
X116490476Y-119357142D01*
X116442857Y-119404761D01*
X116347619Y-119452380D01*
X116157142Y-119452380D01*
X116061904Y-119404761D01*
X116966666Y-119452380D02*
X116966666Y-118785714D01*
X116966666Y-118976190D02*
X117014285Y-118880952D01*
X117061904Y-118833333D01*
X117157142Y-118785714D01*
X117252380Y-118785714D01*
X117728571Y-119452380D02*
X117633333Y-119404761D01*
X117585714Y-119357142D01*
X117538095Y-119261904D01*
X117538095Y-118976190D01*
X117585714Y-118880952D01*
X117633333Y-118833333D01*
X117728571Y-118785714D01*
X117871428Y-118785714D01*
X117966666Y-118833333D01*
X118014285Y-118880952D01*
X118061904Y-118976190D01*
X118061904Y-119261904D01*
X118014285Y-119357142D01*
X117966666Y-119404761D01*
X117871428Y-119452380D01*
X117728571Y-119452380D01*
X118347619Y-118785714D02*
X118728571Y-118785714D01*
X118490476Y-118452380D02*
X118490476Y-119309523D01*
X118538095Y-119404761D01*
X118633333Y-119452380D01*
X118728571Y-119452380D01*
X119204761Y-119452380D02*
X119109523Y-119404761D01*
X119061904Y-119357142D01*
X119014285Y-119261904D01*
X119014285Y-118976190D01*
X119061904Y-118880952D01*
X119109523Y-118833333D01*
X119204761Y-118785714D01*
X119347619Y-118785714D01*
X119442857Y-118833333D01*
X119490476Y-118880952D01*
X119538095Y-118976190D01*
X119538095Y-119261904D01*
X119490476Y-119357142D01*
X119442857Y-119404761D01*
X119347619Y-119452380D01*
X119204761Y-119452380D01*
X121157142Y-119452380D02*
X121157142Y-118928571D01*
X121109523Y-118833333D01*
X121014285Y-118785714D01*
X120823809Y-118785714D01*
X120728571Y-118833333D01*
X121157142Y-119404761D02*
X121061904Y-119452380D01*
X120823809Y-119452380D01*
X120728571Y-119404761D01*
X120680952Y-119309523D01*
X120680952Y-119214285D01*
X120728571Y-119119047D01*
X120823809Y-119071428D01*
X121061904Y-119071428D01*
X121157142Y-119023809D01*
X121633333Y-119452380D02*
X121633333Y-118785714D01*
X121633333Y-118976190D02*
X121680952Y-118880952D01*
X121728571Y-118833333D01*
X121823809Y-118785714D01*
X121919047Y-118785714D01*
X122633333Y-119404761D02*
X122538095Y-119452380D01*
X122347619Y-119452380D01*
X122252380Y-119404761D01*
X122204761Y-119309523D01*
X122204761Y-118928571D01*
X122252380Y-118833333D01*
X122347619Y-118785714D01*
X122538095Y-118785714D01*
X122633333Y-118833333D01*
X122680952Y-118928571D01*
X122680952Y-119023809D01*
X122204761Y-119119047D01*
X123538095Y-119452380D02*
X123538095Y-118928571D01*
X123490476Y-118833333D01*
X123395238Y-118785714D01*
X123204761Y-118785714D01*
X123109523Y-118833333D01*
X123538095Y-119404761D02*
X123442857Y-119452380D01*
X123204761Y-119452380D01*
X123109523Y-119404761D01*
X123061904Y-119309523D01*
X123061904Y-119214285D01*
X123109523Y-119119047D01*
X123204761Y-119071428D01*
X123442857Y-119071428D01*
X123538095Y-119023809D01*
D13*
X177000000Y-118000000D02*
X167400000Y-118000000D01*
X177000000Y-108400000D02*
X177000000Y-118000000D01*
X167400000Y-118000000D02*
X167400000Y-108400000D01*
X167400000Y-108400000D02*
X177000000Y-108400000D01*
D10*
X168461904Y-118785714D02*
X168461904Y-119785714D01*
X168461904Y-118833333D02*
X168557142Y-118785714D01*
X168747619Y-118785714D01*
X168842857Y-118833333D01*
X168890476Y-118880952D01*
X168938095Y-118976190D01*
X168938095Y-119261904D01*
X168890476Y-119357142D01*
X168842857Y-119404761D01*
X168747619Y-119452380D01*
X168557142Y-119452380D01*
X168461904Y-119404761D01*
X169366666Y-119452380D02*
X169366666Y-118785714D01*
X169366666Y-118976190D02*
X169414285Y-118880952D01*
X169461904Y-118833333D01*
X169557142Y-118785714D01*
X169652380Y-118785714D01*
X170128571Y-119452380D02*
X170033333Y-119404761D01*
X169985714Y-119357142D01*
X169938095Y-119261904D01*
X169938095Y-118976190D01*
X169985714Y-118880952D01*
X170033333Y-118833333D01*
X170128571Y-118785714D01*
X170271428Y-118785714D01*
X170366666Y-118833333D01*
X170414285Y-118880952D01*
X170461904Y-118976190D01*
X170461904Y-119261904D01*
X170414285Y-119357142D01*
X170366666Y-119404761D01*
X170271428Y-119452380D01*
X170128571Y-119452380D01*
X170747619Y-118785714D02*
X171128571Y-118785714D01*
X170890476Y-118452380D02*
X170890476Y-119309523D01*
X170938095Y-119404761D01*
X171033333Y-119452380D01*
X171128571Y-119452380D01*
X171604761Y-119452380D02*
X171509523Y-119404761D01*
X171461904Y-119357142D01*
X171414285Y-119261904D01*
X171414285Y-118976190D01*
X171461904Y-118880952D01*
X171509523Y-118833333D01*
X171604761Y-118785714D01*
X171747619Y-118785714D01*
X171842857Y-118833333D01*
X171890476Y-118880952D01*
X171938095Y-118976190D01*
X171938095Y-119261904D01*
X171890476Y-119357142D01*
X171842857Y-119404761D01*
X171747619Y-119452380D01*
X171604761Y-119452380D01*
X173557142Y-119452380D02*
X173557142Y-118928571D01*
X173509523Y-118833333D01*
X173414285Y-118785714D01*
X173223809Y-118785714D01*
X173128571Y-118833333D01*
X173557142Y-119404761D02*
X173461904Y-119452380D01*
X173223809Y-119452380D01*
X173128571Y-119404761D01*
X173080952Y-119309523D01*
X173080952Y-119214285D01*
X173128571Y-119119047D01*
X173223809Y-119071428D01*
X173461904Y-119071428D01*
X173557142Y-119023809D01*
X174033333Y-119452380D02*
X174033333Y-118785714D01*
X174033333Y-118976190D02*
X174080952Y-118880952D01*
X174128571Y-118833333D01*
X174223809Y-118785714D01*
X174319047Y-118785714D01*
X175033333Y-119404761D02*
X174938095Y-119452380D01*
X174747619Y-119452380D01*
X174652380Y-119404761D01*
X174604761Y-119309523D01*
X174604761Y-118928571D01*
X174652380Y-118833333D01*
X174747619Y-118785714D01*
X174938095Y-118785714D01*
X175033333Y-118833333D01*
X175080952Y-118928571D01*
X175080952Y-119023809D01*
X174604761Y-119119047D01*
X175938095Y-119452380D02*
X175938095Y-118928571D01*
X175890476Y-118833333D01*
X175795238Y-118785714D01*
X175604761Y-118785714D01*
X175509523Y-118833333D01*
X175938095Y-119404761D02*
X175842857Y-119452380D01*
X175604761Y-119452380D01*
X175509523Y-119404761D01*
X175461904Y-119309523D01*
X175461904Y-119214285D01*
X175509523Y-119119047D01*
X175604761Y-119071428D01*
X175842857Y-119071428D01*
X175938095Y-119023809D01*
D13*
X177000000Y-79600000D02*
X167400000Y-79600000D01*
X177000000Y-70000000D02*
X177000000Y-79600000D01*
X167400000Y-79600000D02*
X167400000Y-70000000D01*
X167400000Y-70000000D02*
X177000000Y-70000000D01*
D10*
X168461904Y-68535714D02*
X168461904Y-69535714D01*
X168461904Y-68583333D02*
X168557142Y-68535714D01*
X168747619Y-68535714D01*
X168842857Y-68583333D01*
X168890476Y-68630952D01*
X168938095Y-68726190D01*
X168938095Y-69011904D01*
X168890476Y-69107142D01*
X168842857Y-69154761D01*
X168747619Y-69202380D01*
X168557142Y-69202380D01*
X168461904Y-69154761D01*
X169366666Y-69202380D02*
X169366666Y-68535714D01*
X169366666Y-68726190D02*
X169414285Y-68630952D01*
X169461904Y-68583333D01*
X169557142Y-68535714D01*
X169652380Y-68535714D01*
X170128571Y-69202380D02*
X170033333Y-69154761D01*
X169985714Y-69107142D01*
X169938095Y-69011904D01*
X169938095Y-68726190D01*
X169985714Y-68630952D01*
X170033333Y-68583333D01*
X170128571Y-68535714D01*
X170271428Y-68535714D01*
X170366666Y-68583333D01*
X170414285Y-68630952D01*
X170461904Y-68726190D01*
X170461904Y-69011904D01*
X170414285Y-69107142D01*
X170366666Y-69154761D01*
X170271428Y-69202380D01*
X170128571Y-69202380D01*
X170747619Y-68535714D02*
X171128571Y-68535714D01*
X170890476Y-68202380D02*
X170890476Y-69059523D01*
X170938095Y-69154761D01*
X171033333Y-69202380D01*
X171128571Y-69202380D01*
X171604761Y-69202380D02*
X171509523Y-69154761D01*
X171461904Y-69107142D01*
X171414285Y-69011904D01*
X171414285Y-68726190D01*
X171461904Y-68630952D01*
X171509523Y-68583333D01*
X171604761Y-68535714D01*
X171747619Y-68535714D01*
X171842857Y-68583333D01*
X171890476Y-68630952D01*
X171938095Y-68726190D01*
X171938095Y-69011904D01*
X171890476Y-69107142D01*
X171842857Y-69154761D01*
X171747619Y-69202380D01*
X171604761Y-69202380D01*
X173557142Y-69202380D02*
X173557142Y-68678571D01*
X173509523Y-68583333D01*
X173414285Y-68535714D01*
X173223809Y-68535714D01*
X173128571Y-68583333D01*
X173557142Y-69154761D02*
X173461904Y-69202380D01*
X173223809Y-69202380D01*
X173128571Y-69154761D01*
X173080952Y-69059523D01*
X173080952Y-68964285D01*
X173128571Y-68869047D01*
X173223809Y-68821428D01*
X173461904Y-68821428D01*
X173557142Y-68773809D01*
X174033333Y-69202380D02*
X174033333Y-68535714D01*
X174033333Y-68726190D02*
X174080952Y-68630952D01*
X174128571Y-68583333D01*
X174223809Y-68535714D01*
X174319047Y-68535714D01*
X175033333Y-69154761D02*
X174938095Y-69202380D01*
X174747619Y-69202380D01*
X174652380Y-69154761D01*
X174604761Y-69059523D01*
X174604761Y-68678571D01*
X174652380Y-68583333D01*
X174747619Y-68535714D01*
X174938095Y-68535714D01*
X175033333Y-68583333D01*
X175080952Y-68678571D01*
X175080952Y-68773809D01*
X174604761Y-68869047D01*
X175938095Y-69202380D02*
X175938095Y-68678571D01*
X175890476Y-68583333D01*
X175795238Y-68535714D01*
X175604761Y-68535714D01*
X175509523Y-68583333D01*
X175938095Y-69154761D02*
X175842857Y-69202380D01*
X175604761Y-69202380D01*
X175509523Y-69154761D01*
X175461904Y-69059523D01*
X175461904Y-68964285D01*
X175509523Y-68869047D01*
X175604761Y-68821428D01*
X175842857Y-68821428D01*
X175938095Y-68773809D01*
X116061904Y-68535714D02*
X116061904Y-69535714D01*
X116061904Y-68583333D02*
X116157142Y-68535714D01*
X116347619Y-68535714D01*
X116442857Y-68583333D01*
X116490476Y-68630952D01*
X116538095Y-68726190D01*
X116538095Y-69011904D01*
X116490476Y-69107142D01*
X116442857Y-69154761D01*
X116347619Y-69202380D01*
X116157142Y-69202380D01*
X116061904Y-69154761D01*
X116966666Y-69202380D02*
X116966666Y-68535714D01*
X116966666Y-68726190D02*
X117014285Y-68630952D01*
X117061904Y-68583333D01*
X117157142Y-68535714D01*
X117252380Y-68535714D01*
X117728571Y-69202380D02*
X117633333Y-69154761D01*
X117585714Y-69107142D01*
X117538095Y-69011904D01*
X117538095Y-68726190D01*
X117585714Y-68630952D01*
X117633333Y-68583333D01*
X117728571Y-68535714D01*
X117871428Y-68535714D01*
X117966666Y-68583333D01*
X118014285Y-68630952D01*
X118061904Y-68726190D01*
X118061904Y-69011904D01*
X118014285Y-69107142D01*
X117966666Y-69154761D01*
X117871428Y-69202380D01*
X117728571Y-69202380D01*
X118347619Y-68535714D02*
X118728571Y-68535714D01*
X118490476Y-68202380D02*
X118490476Y-69059523D01*
X118538095Y-69154761D01*
X118633333Y-69202380D01*
X118728571Y-69202380D01*
X119204761Y-69202380D02*
X119109523Y-69154761D01*
X119061904Y-69107142D01*
X119014285Y-69011904D01*
X119014285Y-68726190D01*
X119061904Y-68630952D01*
X119109523Y-68583333D01*
X119204761Y-68535714D01*
X119347619Y-68535714D01*
X119442857Y-68583333D01*
X119490476Y-68630952D01*
X119538095Y-68726190D01*
X119538095Y-69011904D01*
X119490476Y-69107142D01*
X119442857Y-69154761D01*
X119347619Y-69202380D01*
X119204761Y-69202380D01*
X121157142Y-69202380D02*
X121157142Y-68678571D01*
X121109523Y-68583333D01*
X121014285Y-68535714D01*
X120823809Y-68535714D01*
X120728571Y-68583333D01*
X121157142Y-69154761D02*
X121061904Y-69202380D01*
X120823809Y-69202380D01*
X120728571Y-69154761D01*
X120680952Y-69059523D01*
X120680952Y-68964285D01*
X120728571Y-68869047D01*
X120823809Y-68821428D01*
X121061904Y-68821428D01*
X121157142Y-68773809D01*
X121633333Y-69202380D02*
X121633333Y-68535714D01*
X121633333Y-68726190D02*
X121680952Y-68630952D01*
X121728571Y-68583333D01*
X121823809Y-68535714D01*
X121919047Y-68535714D01*
X122633333Y-69154761D02*
X122538095Y-69202380D01*
X122347619Y-69202380D01*
X122252380Y-69154761D01*
X122204761Y-69059523D01*
X122204761Y-68678571D01*
X122252380Y-68583333D01*
X122347619Y-68535714D01*
X122538095Y-68535714D01*
X122633333Y-68583333D01*
X122680952Y-68678571D01*
X122680952Y-68773809D01*
X122204761Y-68869047D01*
X123538095Y-69202380D02*
X123538095Y-68678571D01*
X123490476Y-68583333D01*
X123395238Y-68535714D01*
X123204761Y-68535714D01*
X123109523Y-68583333D01*
X123538095Y-69154761D02*
X123442857Y-69202380D01*
X123204761Y-69202380D01*
X123109523Y-69154761D01*
X123061904Y-69059523D01*
X123061904Y-68964285D01*
X123109523Y-68869047D01*
X123204761Y-68821428D01*
X123442857Y-68821428D01*
X123538095Y-68773809D01*
D13*
X115000000Y-79600000D02*
X115000000Y-70000000D01*
X124600000Y-79600000D02*
X115000000Y-79600000D01*
X124600000Y-70000000D02*
X124600000Y-79600000D01*
X115000000Y-70000000D02*
X124600000Y-70000000D01*
D10*
X104976190Y-98402380D02*
X104976190Y-97402380D01*
X104976190Y-98354761D02*
X104880952Y-98402380D01*
X104690476Y-98402380D01*
X104595238Y-98354761D01*
X104547619Y-98307142D01*
X104500000Y-98211904D01*
X104500000Y-97926190D01*
X104547619Y-97830952D01*
X104595238Y-97783333D01*
X104690476Y-97735714D01*
X104880952Y-97735714D01*
X104976190Y-97783333D01*
X106500000Y-98783333D02*
X106452380Y-98735714D01*
X106357142Y-98592857D01*
X106309523Y-98497619D01*
X106261904Y-98354761D01*
X106214285Y-98116666D01*
X106214285Y-97926190D01*
X106261904Y-97688095D01*
X106309523Y-97545238D01*
X106357142Y-97450000D01*
X106452380Y-97307142D01*
X106500000Y-97259523D01*
X107023809Y-98402380D02*
X106928571Y-98354761D01*
X106880952Y-98307142D01*
X106833333Y-98211904D01*
X106833333Y-97926190D01*
X106880952Y-97830952D01*
X106928571Y-97783333D01*
X107023809Y-97735714D01*
X107166666Y-97735714D01*
X107261904Y-97783333D01*
X107309523Y-97830952D01*
X107357142Y-97926190D01*
X107357142Y-98211904D01*
X107309523Y-98307142D01*
X107261904Y-98354761D01*
X107166666Y-98402380D01*
X107023809Y-98402380D01*
X108214285Y-97735714D02*
X108214285Y-98402380D01*
X107785714Y-97735714D02*
X107785714Y-98259523D01*
X107833333Y-98354761D01*
X107928571Y-98402380D01*
X108071428Y-98402380D01*
X108166666Y-98354761D01*
X108214285Y-98307142D01*
X108547619Y-97735714D02*
X108928571Y-97735714D01*
X108690476Y-97402380D02*
X108690476Y-98259523D01*
X108738095Y-98354761D01*
X108833333Y-98402380D01*
X108928571Y-98402380D01*
X109166666Y-98783333D02*
X109214285Y-98735714D01*
X109309523Y-98592857D01*
X109357142Y-98497619D01*
X109404761Y-98354761D01*
X109452380Y-98116666D01*
X109452380Y-97926190D01*
X109404761Y-97688095D01*
X109357142Y-97545238D01*
X109309523Y-97450000D01*
X109214285Y-97307142D01*
X109166666Y-97259523D01*
X105476190Y-80202380D02*
X105476190Y-79678571D01*
X105428571Y-79583333D01*
X105333333Y-79535714D01*
X105142857Y-79535714D01*
X105047619Y-79583333D01*
X105476190Y-80154761D02*
X105380952Y-80202380D01*
X105142857Y-80202380D01*
X105047619Y-80154761D01*
X105000000Y-80059523D01*
X105000000Y-79964285D01*
X105047619Y-79869047D01*
X105142857Y-79821428D01*
X105380952Y-79821428D01*
X105476190Y-79773809D01*
X107000000Y-80583333D02*
X106952380Y-80535714D01*
X106857142Y-80392857D01*
X106809523Y-80297619D01*
X106761904Y-80154761D01*
X106714285Y-79916666D01*
X106714285Y-79726190D01*
X106761904Y-79488095D01*
X106809523Y-79345238D01*
X106857142Y-79250000D01*
X106952380Y-79107142D01*
X107000000Y-79059523D01*
X107380952Y-80202380D02*
X107380952Y-79535714D01*
X107380952Y-79202380D02*
X107333333Y-79250000D01*
X107380952Y-79297619D01*
X107428571Y-79250000D01*
X107380952Y-79202380D01*
X107380952Y-79297619D01*
X107857142Y-79535714D02*
X107857142Y-80202380D01*
X107857142Y-79630952D02*
X107904761Y-79583333D01*
X108000000Y-79535714D01*
X108142857Y-79535714D01*
X108238095Y-79583333D01*
X108285714Y-79678571D01*
X108285714Y-80202380D01*
X108666666Y-80583333D02*
X108714285Y-80535714D01*
X108809523Y-80392857D01*
X108857142Y-80297619D01*
X108904761Y-80154761D01*
X108952380Y-79916666D01*
X108952380Y-79726190D01*
X108904761Y-79488095D01*
X108857142Y-79345238D01*
X108809523Y-79250000D01*
X108714285Y-79107142D01*
X108666666Y-79059523D01*
X183100000Y-98354761D02*
X183004761Y-98402380D01*
X182814285Y-98402380D01*
X182719047Y-98354761D01*
X182671428Y-98307142D01*
X182623809Y-98211904D01*
X182623809Y-97926190D01*
X182671428Y-97830952D01*
X182719047Y-97783333D01*
X182814285Y-97735714D01*
X183004761Y-97735714D01*
X183100000Y-97783333D01*
X184576190Y-98783333D02*
X184528571Y-98735714D01*
X184433333Y-98592857D01*
X184385714Y-98497619D01*
X184338095Y-98354761D01*
X184290476Y-98116666D01*
X184290476Y-97926190D01*
X184338095Y-97688095D01*
X184385714Y-97545238D01*
X184433333Y-97450000D01*
X184528571Y-97307142D01*
X184576190Y-97259523D01*
X184957142Y-98402380D02*
X184957142Y-97735714D01*
X184957142Y-97402380D02*
X184909523Y-97450000D01*
X184957142Y-97497619D01*
X185004761Y-97450000D01*
X184957142Y-97402380D01*
X184957142Y-97497619D01*
X185433333Y-97735714D02*
X185433333Y-98402380D01*
X185433333Y-97830952D02*
X185480952Y-97783333D01*
X185576190Y-97735714D01*
X185719047Y-97735714D01*
X185814285Y-97783333D01*
X185861904Y-97878571D01*
X185861904Y-98402380D01*
X186242857Y-98783333D02*
X186290476Y-98735714D01*
X186385714Y-98592857D01*
X186433333Y-98497619D01*
X186480952Y-98354761D01*
X186528571Y-98116666D01*
X186528571Y-97926190D01*
X186480952Y-97688095D01*
X186433333Y-97545238D01*
X186385714Y-97450000D01*
X186290476Y-97307142D01*
X186242857Y-97259523D01*
X182147619Y-80202380D02*
X182147619Y-79202380D01*
X182147619Y-79583333D02*
X182242857Y-79535714D01*
X182433333Y-79535714D01*
X182528571Y-79583333D01*
X182576190Y-79630952D01*
X182623809Y-79726190D01*
X182623809Y-80011904D01*
X182576190Y-80107142D01*
X182528571Y-80154761D01*
X182433333Y-80202380D01*
X182242857Y-80202380D01*
X182147619Y-80154761D01*
X184100000Y-80583333D02*
X184052380Y-80535714D01*
X183957142Y-80392857D01*
X183909523Y-80297619D01*
X183861904Y-80154761D01*
X183814285Y-79916666D01*
X183814285Y-79726190D01*
X183861904Y-79488095D01*
X183909523Y-79345238D01*
X183957142Y-79250000D01*
X184052380Y-79107142D01*
X184100000Y-79059523D01*
X184623809Y-80202380D02*
X184528571Y-80154761D01*
X184480952Y-80107142D01*
X184433333Y-80011904D01*
X184433333Y-79726190D01*
X184480952Y-79630952D01*
X184528571Y-79583333D01*
X184623809Y-79535714D01*
X184766666Y-79535714D01*
X184861904Y-79583333D01*
X184909523Y-79630952D01*
X184957142Y-79726190D01*
X184957142Y-80011904D01*
X184909523Y-80107142D01*
X184861904Y-80154761D01*
X184766666Y-80202380D01*
X184623809Y-80202380D01*
X185814285Y-79535714D02*
X185814285Y-80202380D01*
X185385714Y-79535714D02*
X185385714Y-80059523D01*
X185433333Y-80154761D01*
X185528571Y-80202380D01*
X185671428Y-80202380D01*
X185766666Y-80154761D01*
X185814285Y-80107142D01*
X186147619Y-79535714D02*
X186528571Y-79535714D01*
X186290476Y-79202380D02*
X186290476Y-80059523D01*
X186338095Y-80154761D01*
X186433333Y-80202380D01*
X186528571Y-80202380D01*
X186766666Y-80583333D02*
X186814285Y-80535714D01*
X186909523Y-80392857D01*
X186957142Y-80297619D01*
X187004761Y-80154761D01*
X187052380Y-79916666D01*
X187052380Y-79726190D01*
X187004761Y-79488095D01*
X186957142Y-79345238D01*
X186909523Y-79250000D01*
X186814285Y-79107142D01*
X186766666Y-79059523D01*
X125238095Y-106785714D02*
X125476190Y-107452380D01*
X125714285Y-106785714D01*
X126095238Y-107452380D02*
X126095238Y-106452380D01*
X126095238Y-106833333D02*
X126190476Y-106785714D01*
X126380952Y-106785714D01*
X126476190Y-106833333D01*
X126523809Y-106880952D01*
X126571428Y-106976190D01*
X126571428Y-107261904D01*
X126523809Y-107357142D01*
X126476190Y-107404761D01*
X126380952Y-107452380D01*
X126190476Y-107452380D01*
X126095238Y-107404761D01*
X127000000Y-107071428D02*
X127761904Y-107071428D01*
X128666666Y-107452380D02*
X128666666Y-106452380D01*
X128666666Y-107404761D02*
X128571428Y-107452380D01*
X128380952Y-107452380D01*
X128285714Y-107404761D01*
X128238095Y-107357142D01*
X128190476Y-107261904D01*
X128190476Y-106976190D01*
X128238095Y-106880952D01*
X128285714Y-106833333D01*
X128380952Y-106785714D01*
X128571428Y-106785714D01*
X128666666Y-106833333D01*
X163261904Y-106785714D02*
X163500000Y-107452380D01*
X163738095Y-106785714D01*
X164119047Y-107452380D02*
X164119047Y-106452380D01*
X164119047Y-106833333D02*
X164214285Y-106785714D01*
X164404761Y-106785714D01*
X164500000Y-106833333D01*
X164547619Y-106880952D01*
X164595238Y-106976190D01*
X164595238Y-107261904D01*
X164547619Y-107357142D01*
X164500000Y-107404761D01*
X164404761Y-107452380D01*
X164214285Y-107452380D01*
X164119047Y-107404761D01*
X165023809Y-107071428D02*
X165785714Y-107071428D01*
X166690476Y-107404761D02*
X166595238Y-107452380D01*
X166404761Y-107452380D01*
X166309523Y-107404761D01*
X166261904Y-107357142D01*
X166214285Y-107261904D01*
X166214285Y-106976190D01*
X166261904Y-106880952D01*
X166309523Y-106833333D01*
X166404761Y-106785714D01*
X166595238Y-106785714D01*
X166690476Y-106833333D01*
X163238095Y-76535714D02*
X163476190Y-77202380D01*
X163714285Y-76535714D01*
X164095238Y-77202380D02*
X164095238Y-76202380D01*
X164095238Y-76583333D02*
X164190476Y-76535714D01*
X164380952Y-76535714D01*
X164476190Y-76583333D01*
X164523809Y-76630952D01*
X164571428Y-76726190D01*
X164571428Y-77011904D01*
X164523809Y-77107142D01*
X164476190Y-77154761D01*
X164380952Y-77202380D01*
X164190476Y-77202380D01*
X164095238Y-77154761D01*
X165000000Y-76821428D02*
X165761904Y-76821428D01*
X166238095Y-77202380D02*
X166238095Y-76202380D01*
X166238095Y-76583333D02*
X166333333Y-76535714D01*
X166523809Y-76535714D01*
X166619047Y-76583333D01*
X166666666Y-76630952D01*
X166714285Y-76726190D01*
X166714285Y-77011904D01*
X166666666Y-77107142D01*
X166619047Y-77154761D01*
X166523809Y-77202380D01*
X166333333Y-77202380D01*
X166238095Y-77154761D01*
X125238095Y-76535714D02*
X125476190Y-77202380D01*
X125714285Y-76535714D01*
X126095238Y-77202380D02*
X126095238Y-76202380D01*
X126095238Y-76583333D02*
X126190476Y-76535714D01*
X126380952Y-76535714D01*
X126476190Y-76583333D01*
X126523809Y-76630952D01*
X126571428Y-76726190D01*
X126571428Y-77011904D01*
X126523809Y-77107142D01*
X126476190Y-77154761D01*
X126380952Y-77202380D01*
X126190476Y-77202380D01*
X126095238Y-77154761D01*
X127000000Y-76821428D02*
X127761904Y-76821428D01*
X128666666Y-77202380D02*
X128666666Y-76678571D01*
X128619047Y-76583333D01*
X128523809Y-76535714D01*
X128333333Y-76535714D01*
X128238095Y-76583333D01*
X128666666Y-77154761D02*
X128571428Y-77202380D01*
X128333333Y-77202380D01*
X128238095Y-77154761D01*
X128190476Y-77059523D01*
X128190476Y-76964285D01*
X128238095Y-76869047D01*
X128333333Y-76821428D01*
X128571428Y-76821428D01*
X128666666Y-76773809D01*
X126309523Y-113035714D02*
X126309523Y-113845238D01*
X126261904Y-113940476D01*
X126214285Y-113988095D01*
X126119047Y-114035714D01*
X125976190Y-114035714D01*
X125880952Y-113988095D01*
X126309523Y-113654761D02*
X126214285Y-113702380D01*
X126023809Y-113702380D01*
X125928571Y-113654761D01*
X125880952Y-113607142D01*
X125833333Y-113511904D01*
X125833333Y-113226190D01*
X125880952Y-113130952D01*
X125928571Y-113083333D01*
X126023809Y-113035714D01*
X126214285Y-113035714D01*
X126309523Y-113083333D01*
X126785714Y-113035714D02*
X126785714Y-113702380D01*
X126785714Y-113130952D02*
X126833333Y-113083333D01*
X126928571Y-113035714D01*
X127071428Y-113035714D01*
X127166666Y-113083333D01*
X127214285Y-113178571D01*
X127214285Y-113702380D01*
X128119047Y-113702380D02*
X128119047Y-112702380D01*
X128119047Y-113654761D02*
X128023809Y-113702380D01*
X127833333Y-113702380D01*
X127738095Y-113654761D01*
X127690476Y-113607142D01*
X127642857Y-113511904D01*
X127642857Y-113226190D01*
X127690476Y-113130952D01*
X127738095Y-113083333D01*
X127833333Y-113035714D01*
X128023809Y-113035714D01*
X128119047Y-113083333D01*
X164309523Y-113035714D02*
X164309523Y-113845238D01*
X164261904Y-113940476D01*
X164214285Y-113988095D01*
X164119047Y-114035714D01*
X163976190Y-114035714D01*
X163880952Y-113988095D01*
X164309523Y-113654761D02*
X164214285Y-113702380D01*
X164023809Y-113702380D01*
X163928571Y-113654761D01*
X163880952Y-113607142D01*
X163833333Y-113511904D01*
X163833333Y-113226190D01*
X163880952Y-113130952D01*
X163928571Y-113083333D01*
X164023809Y-113035714D01*
X164214285Y-113035714D01*
X164309523Y-113083333D01*
X164785714Y-113035714D02*
X164785714Y-113702380D01*
X164785714Y-113130952D02*
X164833333Y-113083333D01*
X164928571Y-113035714D01*
X165071428Y-113035714D01*
X165166666Y-113083333D01*
X165214285Y-113178571D01*
X165214285Y-113702380D01*
X166119047Y-113702380D02*
X166119047Y-112702380D01*
X166119047Y-113654761D02*
X166023809Y-113702380D01*
X165833333Y-113702380D01*
X165738095Y-113654761D01*
X165690476Y-113607142D01*
X165642857Y-113511904D01*
X165642857Y-113226190D01*
X165690476Y-113130952D01*
X165738095Y-113083333D01*
X165833333Y-113035714D01*
X166023809Y-113035714D01*
X166119047Y-113083333D01*
X164309523Y-70285714D02*
X164309523Y-71095238D01*
X164261904Y-71190476D01*
X164214285Y-71238095D01*
X164119047Y-71285714D01*
X163976190Y-71285714D01*
X163880952Y-71238095D01*
X164309523Y-70904761D02*
X164214285Y-70952380D01*
X164023809Y-70952380D01*
X163928571Y-70904761D01*
X163880952Y-70857142D01*
X163833333Y-70761904D01*
X163833333Y-70476190D01*
X163880952Y-70380952D01*
X163928571Y-70333333D01*
X164023809Y-70285714D01*
X164214285Y-70285714D01*
X164309523Y-70333333D01*
X164785714Y-70285714D02*
X164785714Y-70952380D01*
X164785714Y-70380952D02*
X164833333Y-70333333D01*
X164928571Y-70285714D01*
X165071428Y-70285714D01*
X165166666Y-70333333D01*
X165214285Y-70428571D01*
X165214285Y-70952380D01*
X166119047Y-70952380D02*
X166119047Y-69952380D01*
X166119047Y-70904761D02*
X166023809Y-70952380D01*
X165833333Y-70952380D01*
X165738095Y-70904761D01*
X165690476Y-70857142D01*
X165642857Y-70761904D01*
X165642857Y-70476190D01*
X165690476Y-70380952D01*
X165738095Y-70333333D01*
X165833333Y-70285714D01*
X166023809Y-70285714D01*
X166119047Y-70333333D01*
X126309523Y-70285714D02*
X126309523Y-71095238D01*
X126261904Y-71190476D01*
X126214285Y-71238095D01*
X126119047Y-71285714D01*
X125976190Y-71285714D01*
X125880952Y-71238095D01*
X126309523Y-70904761D02*
X126214285Y-70952380D01*
X126023809Y-70952380D01*
X125928571Y-70904761D01*
X125880952Y-70857142D01*
X125833333Y-70761904D01*
X125833333Y-70476190D01*
X125880952Y-70380952D01*
X125928571Y-70333333D01*
X126023809Y-70285714D01*
X126214285Y-70285714D01*
X126309523Y-70333333D01*
X126785714Y-70285714D02*
X126785714Y-70952380D01*
X126785714Y-70380952D02*
X126833333Y-70333333D01*
X126928571Y-70285714D01*
X127071428Y-70285714D01*
X127166666Y-70333333D01*
X127214285Y-70428571D01*
X127214285Y-70952380D01*
X128119047Y-70952380D02*
X128119047Y-69952380D01*
X128119047Y-70904761D02*
X128023809Y-70952380D01*
X127833333Y-70952380D01*
X127738095Y-70904761D01*
X127690476Y-70857142D01*
X127642857Y-70761904D01*
X127642857Y-70476190D01*
X127690476Y-70380952D01*
X127738095Y-70333333D01*
X127833333Y-70285714D01*
X128023809Y-70285714D01*
X128119047Y-70333333D01*
D13*
%TO.C,J5*%
X136200000Y-72600000D02*
X137800000Y-72600000D01*
X136200000Y-91400000D02*
X137800000Y-91400000D01*
X142200000Y-72600000D02*
X143800000Y-72600000D01*
X142200000Y-91400000D02*
X143800000Y-91400000D01*
X148200000Y-72600000D02*
X149800000Y-72600000D01*
X148200000Y-91400000D02*
X149800000Y-91400000D01*
X154200000Y-72600000D02*
X155800000Y-72600000D01*
X154200000Y-91400000D02*
X155800000Y-91400000D01*
X131170000Y-78200000D02*
X131170000Y-79800000D01*
X160830000Y-78200000D02*
X160830000Y-79800000D01*
X131170000Y-84200000D02*
X131170000Y-85800000D01*
X160830000Y-84200000D02*
X160830000Y-85800000D01*
%TO.C,TP8*%
X127700000Y-115500000D02*
G75*
G03*
X127700000Y-115500000I-700000J0D01*
G01*
%TO.C,TP7*%
X127700000Y-109250000D02*
G75*
G03*
X127700000Y-109250000I-700000J0D01*
G01*
%TO.C,TP6*%
X165700000Y-72750000D02*
G75*
G03*
X165700000Y-72750000I-700000J0D01*
G01*
%TO.C,TP5*%
X165700000Y-79000000D02*
G75*
G03*
X165700000Y-79000000I-700000J0D01*
G01*
%TO.C,J6*%
X155800000Y-115650000D02*
X154200000Y-115650000D01*
X155800000Y-96850000D02*
X154200000Y-96850000D01*
X149800000Y-115650000D02*
X148200000Y-115650000D01*
X149800000Y-96850000D02*
X148200000Y-96850000D01*
X143800000Y-115650000D02*
X142200000Y-115650000D01*
X143800000Y-96850000D02*
X142200000Y-96850000D01*
X137800000Y-115650000D02*
X136200000Y-115650000D01*
X137800000Y-96850000D02*
X136200000Y-96850000D01*
X160830000Y-110050000D02*
X160830000Y-108450000D01*
X131170000Y-110050000D02*
X131170000Y-108450000D01*
X160830000Y-104050000D02*
X160830000Y-102450000D01*
X131170000Y-104050000D02*
X131170000Y-102450000D01*
%TO.C,U2*%
X144950000Y-106560000D02*
X143640000Y-106560000D01*
X143640000Y-106560000D02*
X143640000Y-103840000D01*
X148130000Y-102700000D02*
X148130000Y-103840000D01*
X148360000Y-106560000D02*
X147050000Y-106560000D01*
X148360000Y-103840000D02*
X148360000Y-106560000D01*
X148360000Y-103840000D02*
X148130000Y-103840000D01*
X143640000Y-103840000D02*
X143870000Y-103840000D01*
%TO.C,TP4*%
X165700000Y-115500000D02*
G75*
G03*
X165700000Y-115500000I-700000J0D01*
G01*
%TO.C,TP3*%
X165700000Y-109250000D02*
G75*
G03*
X165700000Y-109250000I-700000J0D01*
G01*
%TO.C,J4*%
X110355000Y-104190000D02*
X110355000Y-102310000D01*
X103645000Y-104190000D02*
X103645000Y-102310000D01*
%TO.C,J2*%
X187955000Y-104190000D02*
X187955000Y-102310000D01*
X181245000Y-104190000D02*
X181245000Y-102310000D01*
%TO.C,B14*%
X134522500Y-108187742D02*
X134522500Y-108662258D01*
X133477500Y-108187742D02*
X133477500Y-108662258D01*
%TO.C,B13*%
X136522500Y-103837742D02*
X136522500Y-104312258D01*
X135477500Y-103837742D02*
X135477500Y-104312258D01*
%TO.C,B12*%
X136522500Y-108187742D02*
X136522500Y-108662258D01*
X135477500Y-108187742D02*
X135477500Y-108662258D01*
%TO.C,B11*%
X139237258Y-103772500D02*
X138762742Y-103772500D01*
X139237258Y-102727500D02*
X138762742Y-102727500D01*
%TO.C,B10*%
X139237258Y-106772500D02*
X138762742Y-106772500D01*
X139237258Y-105727500D02*
X138762742Y-105727500D01*
%TO.C,B9*%
X142522500Y-103837742D02*
X142522500Y-104312258D01*
X141477500Y-103837742D02*
X141477500Y-104312258D01*
%TO.C,B8*%
X142522500Y-108187742D02*
X142522500Y-108662258D01*
X141477500Y-108187742D02*
X141477500Y-108662258D01*
%TO.C,B7*%
X150522500Y-103837742D02*
X150522500Y-104312258D01*
X149477500Y-103837742D02*
X149477500Y-104312258D01*
%TO.C,B6*%
X150522500Y-108187742D02*
X150522500Y-108662258D01*
X149477500Y-108187742D02*
X149477500Y-108662258D01*
%TO.C,B5*%
X153237258Y-103772500D02*
X152762742Y-103772500D01*
X153237258Y-102727500D02*
X152762742Y-102727500D01*
%TO.C,B4*%
X153237258Y-106772500D02*
X152762742Y-106772500D01*
X153237258Y-105727500D02*
X152762742Y-105727500D01*
%TO.C,B3*%
X156522500Y-103837742D02*
X156522500Y-104312258D01*
X155477500Y-103837742D02*
X155477500Y-104312258D01*
%TO.C,B2*%
X156522500Y-108187742D02*
X156522500Y-108662258D01*
X155477500Y-108187742D02*
X155477500Y-108662258D01*
%TO.C,B1*%
X158522500Y-108187742D02*
X158522500Y-108662258D01*
X157477500Y-108187742D02*
X157477500Y-108662258D01*
%TO.C,U1*%
X147050000Y-81690000D02*
X148360000Y-81690000D01*
X148360000Y-81690000D02*
X148360000Y-84410000D01*
X143870000Y-85550000D02*
X143870000Y-84410000D01*
X143640000Y-81690000D02*
X144950000Y-81690000D01*
X143640000Y-84410000D02*
X143640000Y-81690000D01*
X143640000Y-84410000D02*
X143870000Y-84410000D01*
X148360000Y-84410000D02*
X148130000Y-84410000D01*
%TO.C,TP2*%
X127700000Y-72750000D02*
G75*
G03*
X127700000Y-72750000I-700000J0D01*
G01*
%TO.C,TP1*%
X127700000Y-79000000D02*
G75*
G03*
X127700000Y-79000000I-700000J0D01*
G01*
%TO.C,J3*%
X181245000Y-84060000D02*
X181245000Y-85940000D01*
X187955000Y-84060000D02*
X187955000Y-85940000D01*
%TO.C,J1*%
X103645000Y-84060000D02*
X103645000Y-85940000D01*
X110355000Y-84060000D02*
X110355000Y-85940000D01*
%TO.C,A11*%
X153237258Y-85522500D02*
X152762742Y-85522500D01*
X153237258Y-84477500D02*
X152762742Y-84477500D01*
%TO.C,A5*%
X139237258Y-85522500D02*
X138762742Y-85522500D01*
X139237258Y-84477500D02*
X138762742Y-84477500D01*
%TO.C,A13*%
X155477500Y-84412258D02*
X155477500Y-83937742D01*
X156522500Y-84412258D02*
X156522500Y-83937742D01*
%TO.C,A9*%
X149477500Y-84412258D02*
X149477500Y-83937742D01*
X150522500Y-84412258D02*
X150522500Y-83937742D01*
%TO.C,A7*%
X141477500Y-84412258D02*
X141477500Y-83937742D01*
X142522500Y-84412258D02*
X142522500Y-83937742D01*
%TO.C,A3*%
X135477500Y-84412258D02*
X135477500Y-83937742D01*
X136522500Y-84412258D02*
X136522500Y-83937742D01*
%TO.C,A10*%
X153237258Y-82522500D02*
X152762742Y-82522500D01*
X153237258Y-81477500D02*
X152762742Y-81477500D01*
%TO.C,A4*%
X139237258Y-82522500D02*
X138762742Y-82522500D01*
X139237258Y-81477500D02*
X138762742Y-81477500D01*
%TO.C,A14*%
X157477500Y-80062258D02*
X157477500Y-79587742D01*
X158522500Y-80062258D02*
X158522500Y-79587742D01*
%TO.C,A12*%
X155477500Y-80062258D02*
X155477500Y-79587742D01*
X156522500Y-80062258D02*
X156522500Y-79587742D01*
%TO.C,A8*%
X149477500Y-80062258D02*
X149477500Y-79587742D01*
X150522500Y-80062258D02*
X150522500Y-79587742D01*
%TO.C,A6*%
X141477500Y-80062258D02*
X141477500Y-79587742D01*
X142522500Y-80062258D02*
X142522500Y-79587742D01*
%TO.C,A2*%
X135477500Y-80062258D02*
X135477500Y-79587742D01*
X136522500Y-80062258D02*
X136522500Y-79587742D01*
%TO.C,A1*%
X133477500Y-80062258D02*
X133477500Y-79587742D01*
X134522500Y-80062258D02*
X134522500Y-79587742D01*
%TD*%
%LPC*%
D14*
G36*
X157000000Y-84000000D02*
G01*
X185750000Y-84000000D01*
X185750000Y-86000000D01*
X106000000Y-86000000D01*
X106000000Y-84000000D01*
X135000000Y-84000000D01*
X135000000Y-78000000D01*
X157000000Y-78000000D01*
X157000000Y-84000000D01*
G37*
X157000000Y-84000000D02*
X185750000Y-84000000D01*
X185750000Y-86000000D01*
X106000000Y-86000000D01*
X106000000Y-84000000D01*
X135000000Y-84000000D01*
X135000000Y-78000000D01*
X157000000Y-78000000D01*
X157000000Y-84000000D01*
G36*
X185750000Y-104250000D02*
G01*
X157000000Y-104250000D01*
X157000000Y-110250000D01*
X135000000Y-110250000D01*
X135000000Y-104250000D01*
X106000000Y-104250000D01*
X106000000Y-102250000D01*
X185750000Y-102250000D01*
X185750000Y-104250000D01*
G37*
X185750000Y-104250000D02*
X157000000Y-104250000D01*
X157000000Y-110250000D01*
X135000000Y-110250000D01*
X135000000Y-104250000D01*
X106000000Y-104250000D01*
X106000000Y-102250000D01*
X185750000Y-102250000D01*
X185750000Y-104250000D01*
D15*
%TO.C,J5*%
X160580000Y-88375000D03*
X131420000Y-88375000D03*
D16*
X160580000Y-82000000D03*
X131420000Y-82000000D03*
D15*
X160580000Y-75625000D03*
X131420000Y-75625000D03*
D17*
X158090000Y-91150000D03*
X158090000Y-72850000D03*
D18*
X152000000Y-91150000D03*
X152000000Y-72850000D03*
X146000000Y-91150000D03*
X146000000Y-72850000D03*
X140000000Y-91150000D03*
X140000000Y-72850000D03*
D17*
X133910000Y-91150000D03*
X133910000Y-72850000D03*
D19*
X131420000Y-91150000D03*
X160580000Y-91150000D03*
X160580000Y-72850000D03*
X131420000Y-72850000D03*
%TD*%
D20*
%TO.C,TP8*%
X127000000Y-115500000D03*
%TD*%
%TO.C,TP7*%
X127000000Y-109250000D03*
%TD*%
%TO.C,TP6*%
X165000000Y-72750000D03*
%TD*%
%TO.C,TP5*%
X165000000Y-79000000D03*
%TD*%
D15*
%TO.C,J6*%
X131420000Y-99875000D03*
X160580000Y-99875000D03*
D16*
X131420000Y-106250000D03*
X160580000Y-106250000D03*
D15*
X131420000Y-112625000D03*
X160580000Y-112625000D03*
D17*
X133910000Y-97100000D03*
X133910000Y-115400000D03*
D18*
X140000000Y-97100000D03*
X140000000Y-115400000D03*
X146000000Y-97100000D03*
X146000000Y-115400000D03*
X152000000Y-97100000D03*
X152000000Y-115400000D03*
D17*
X158090000Y-97100000D03*
X158090000Y-115400000D03*
D19*
X160580000Y-97100000D03*
X131420000Y-97100000D03*
X131420000Y-115400000D03*
X160580000Y-115400000D03*
%TD*%
D21*
%TO.C,Z4*%
X169650000Y-71000000D03*
X174730000Y-71000000D03*
X173460000Y-72270000D03*
X168380000Y-71000000D03*
X169650000Y-72270000D03*
X172190000Y-71000000D03*
X176000000Y-71000000D03*
X176000000Y-72270000D03*
X176000000Y-73540000D03*
X174730000Y-73540000D03*
X174730000Y-72270000D03*
X168380000Y-72270000D03*
X168380000Y-73540000D03*
X169650000Y-73540000D03*
X173460000Y-73540000D03*
X172190000Y-73540000D03*
X172190000Y-72270000D03*
X170920000Y-73540000D03*
X170920000Y-72270000D03*
X170920000Y-71000000D03*
X173460000Y-71000000D03*
X173460000Y-74810000D03*
X169650000Y-74810000D03*
X176000000Y-74810000D03*
X176000000Y-76080000D03*
X174730000Y-76080000D03*
X174730000Y-74810000D03*
X168380000Y-74810000D03*
X168380000Y-76080000D03*
X169650000Y-76080000D03*
X173460000Y-76080000D03*
X172190000Y-76080000D03*
X172190000Y-74810000D03*
X170920000Y-76080000D03*
X170920000Y-74810000D03*
X168380000Y-78620000D03*
X168380000Y-77350000D03*
X174730000Y-77350000D03*
X174730000Y-78620000D03*
X176000000Y-78620000D03*
X176000000Y-77350000D03*
X172190000Y-77350000D03*
X172190000Y-78620000D03*
X173460000Y-78620000D03*
X173460000Y-77350000D03*
X169650000Y-77350000D03*
X170920000Y-77350000D03*
X170920000Y-78620000D03*
X169650000Y-78620000D03*
%TD*%
%TO.C,Z3*%
X122350000Y-117000000D03*
X117270000Y-117000000D03*
X118540000Y-115730000D03*
X123620000Y-117000000D03*
X122350000Y-115730000D03*
X119810000Y-117000000D03*
X116000000Y-117000000D03*
X116000000Y-115730000D03*
X116000000Y-114460000D03*
X117270000Y-114460000D03*
X117270000Y-115730000D03*
X123620000Y-115730000D03*
X123620000Y-114460000D03*
X122350000Y-114460000D03*
X118540000Y-114460000D03*
X119810000Y-114460000D03*
X119810000Y-115730000D03*
X121080000Y-114460000D03*
X121080000Y-115730000D03*
X121080000Y-117000000D03*
X118540000Y-117000000D03*
X118540000Y-113190000D03*
X122350000Y-113190000D03*
X116000000Y-113190000D03*
X116000000Y-111920000D03*
X117270000Y-111920000D03*
X117270000Y-113190000D03*
X123620000Y-113190000D03*
X123620000Y-111920000D03*
X122350000Y-111920000D03*
X118540000Y-111920000D03*
X119810000Y-111920000D03*
X119810000Y-113190000D03*
X121080000Y-111920000D03*
X121080000Y-113190000D03*
X123620000Y-109380000D03*
X123620000Y-110650000D03*
X117270000Y-110650000D03*
X117270000Y-109380000D03*
X116000000Y-109380000D03*
X116000000Y-110650000D03*
X119810000Y-110650000D03*
X119810000Y-109380000D03*
X118540000Y-109380000D03*
X118540000Y-110650000D03*
X122350000Y-110650000D03*
X121080000Y-110650000D03*
X121080000Y-109380000D03*
X122350000Y-109380000D03*
%TD*%
%TO.C,Z2*%
X169650000Y-109380000D03*
X174730000Y-109380000D03*
X173460000Y-110650000D03*
X168380000Y-109380000D03*
X169650000Y-110650000D03*
X172190000Y-109380000D03*
X176000000Y-109380000D03*
X176000000Y-110650000D03*
X176000000Y-111920000D03*
X174730000Y-111920000D03*
X174730000Y-110650000D03*
X168380000Y-110650000D03*
X168380000Y-111920000D03*
X169650000Y-111920000D03*
X173460000Y-111920000D03*
X172190000Y-111920000D03*
X172190000Y-110650000D03*
X170920000Y-111920000D03*
X170920000Y-110650000D03*
X170920000Y-109380000D03*
X173460000Y-109380000D03*
X173460000Y-113190000D03*
X169650000Y-113190000D03*
X176000000Y-113190000D03*
X176000000Y-114460000D03*
X174730000Y-114460000D03*
X174730000Y-113190000D03*
X168380000Y-113190000D03*
X168380000Y-114460000D03*
X169650000Y-114460000D03*
X173460000Y-114460000D03*
X172190000Y-114460000D03*
X172190000Y-113190000D03*
X170920000Y-114460000D03*
X170920000Y-113190000D03*
X168380000Y-117000000D03*
X168380000Y-115730000D03*
X174730000Y-115730000D03*
X174730000Y-117000000D03*
X176000000Y-117000000D03*
X176000000Y-115730000D03*
X172190000Y-115730000D03*
X172190000Y-117000000D03*
X173460000Y-117000000D03*
X173460000Y-115730000D03*
X169650000Y-115730000D03*
X170920000Y-115730000D03*
X170920000Y-117000000D03*
X169650000Y-117000000D03*
%TD*%
%TO.C,Z1*%
X117270000Y-71000000D03*
X122350000Y-71000000D03*
X121080000Y-72270000D03*
X116000000Y-71000000D03*
X117270000Y-72270000D03*
X119810000Y-71000000D03*
X123620000Y-71000000D03*
X123620000Y-72270000D03*
X123620000Y-73540000D03*
X122350000Y-73540000D03*
X122350000Y-72270000D03*
X116000000Y-72270000D03*
X116000000Y-73540000D03*
X117270000Y-73540000D03*
X121080000Y-73540000D03*
X119810000Y-73540000D03*
X119810000Y-72270000D03*
X118540000Y-73540000D03*
X118540000Y-72270000D03*
X118540000Y-71000000D03*
X121080000Y-71000000D03*
X121080000Y-74810000D03*
X117270000Y-74810000D03*
X123620000Y-74810000D03*
X123620000Y-76080000D03*
X122350000Y-76080000D03*
X122350000Y-74810000D03*
X116000000Y-74810000D03*
X116000000Y-76080000D03*
X117270000Y-76080000D03*
X121080000Y-76080000D03*
X119810000Y-76080000D03*
X119810000Y-74810000D03*
X118540000Y-76080000D03*
X118540000Y-74810000D03*
X116000000Y-78620000D03*
X116000000Y-77350000D03*
X122350000Y-77350000D03*
X122350000Y-78620000D03*
X123620000Y-78620000D03*
X123620000Y-77350000D03*
X119810000Y-77350000D03*
X119810000Y-78620000D03*
X121080000Y-78620000D03*
X121080000Y-77350000D03*
X117270000Y-77350000D03*
X118540000Y-77350000D03*
X118540000Y-78620000D03*
X117270000Y-78620000D03*
%TD*%
D14*
%TO.C,U2*%
G36*
X145133500Y-107200000D02*
G01*
X145133500Y-104075000D01*
X145550000Y-104075000D01*
X145550000Y-102600000D01*
X146450000Y-102600000D01*
X146450000Y-104075000D01*
X146866500Y-104075000D01*
X146866500Y-107200000D01*
X145133500Y-107200000D01*
G37*
D22*
X144500000Y-103250000D03*
X147500000Y-103250000D03*
%TD*%
D20*
%TO.C,TP4*%
X165000000Y-115500000D03*
%TD*%
%TO.C,TP3*%
X165000000Y-109250000D03*
%TD*%
D14*
%TO.C,J4*%
G36*
X105500000Y-104630000D02*
G01*
X105640000Y-104770000D01*
X105795000Y-104895000D01*
X105965000Y-105005000D01*
X106140000Y-105100000D01*
X106325000Y-105175000D01*
X106520000Y-105230000D01*
X106720000Y-105270000D01*
X106915000Y-105285000D01*
X107085000Y-105285000D01*
X107280000Y-105270000D01*
X107480000Y-105230000D01*
X107675000Y-105175000D01*
X107860000Y-105100000D01*
X108035000Y-105005000D01*
X108205000Y-104895000D01*
X108360000Y-104770000D01*
X108500000Y-104630000D01*
X108645000Y-104455000D01*
X110555000Y-104455000D01*
X110555000Y-106805000D01*
X103445000Y-106805000D01*
X103445000Y-104455000D01*
X105355000Y-104455000D01*
X105500000Y-104630000D01*
G37*
G36*
X108500000Y-101870000D02*
G01*
X108360000Y-101730000D01*
X108205000Y-101605000D01*
X108035000Y-101495000D01*
X107860000Y-101400000D01*
X107675000Y-101325000D01*
X107480000Y-101270000D01*
X107280000Y-101230000D01*
X107085000Y-101215000D01*
X106915000Y-101215000D01*
X106720000Y-101230000D01*
X106520000Y-101270000D01*
X106325000Y-101325000D01*
X106140000Y-101400000D01*
X105965000Y-101495000D01*
X105795000Y-101605000D01*
X105640000Y-101730000D01*
X105500000Y-101870000D01*
X105355000Y-102045000D01*
X103445000Y-102045000D01*
X103445000Y-99695000D01*
X110555000Y-99695000D01*
X110555000Y-102045000D01*
X108645000Y-102045000D01*
X108500000Y-101870000D01*
G37*
D23*
X107000000Y-103250000D03*
%TD*%
D14*
%TO.C,J2*%
G36*
X183100000Y-104630000D02*
G01*
X183240000Y-104770000D01*
X183395000Y-104895000D01*
X183565000Y-105005000D01*
X183740000Y-105100000D01*
X183925000Y-105175000D01*
X184120000Y-105230000D01*
X184320000Y-105270000D01*
X184515000Y-105285000D01*
X184685000Y-105285000D01*
X184880000Y-105270000D01*
X185080000Y-105230000D01*
X185275000Y-105175000D01*
X185460000Y-105100000D01*
X185635000Y-105005000D01*
X185805000Y-104895000D01*
X185960000Y-104770000D01*
X186100000Y-104630000D01*
X186245000Y-104455000D01*
X188155000Y-104455000D01*
X188155000Y-106805000D01*
X181045000Y-106805000D01*
X181045000Y-104455000D01*
X182955000Y-104455000D01*
X183100000Y-104630000D01*
G37*
G36*
X186100000Y-101870000D02*
G01*
X185960000Y-101730000D01*
X185805000Y-101605000D01*
X185635000Y-101495000D01*
X185460000Y-101400000D01*
X185275000Y-101325000D01*
X185080000Y-101270000D01*
X184880000Y-101230000D01*
X184685000Y-101215000D01*
X184515000Y-101215000D01*
X184320000Y-101230000D01*
X184120000Y-101270000D01*
X183925000Y-101325000D01*
X183740000Y-101400000D01*
X183565000Y-101495000D01*
X183395000Y-101605000D01*
X183240000Y-101730000D01*
X183100000Y-101870000D01*
X182955000Y-102045000D01*
X181045000Y-102045000D01*
X181045000Y-99695000D01*
X188155000Y-99695000D01*
X188155000Y-102045000D01*
X186245000Y-102045000D01*
X186100000Y-101870000D01*
G37*
D23*
X184600000Y-103250000D03*
%TD*%
%TO.C,B14*%
G36*
G01*
X133725000Y-108850000D02*
X134275000Y-108850000D01*
G75*
G02*
X134475000Y-109050000I0J-200000D01*
G01*
X134475000Y-109450000D01*
G75*
G02*
X134275000Y-109650000I-200000J0D01*
G01*
X133725000Y-109650000D01*
G75*
G02*
X133525000Y-109450000I0J200000D01*
G01*
X133525000Y-109050000D01*
G75*
G02*
X133725000Y-108850000I200000J0D01*
G01*
G37*
G36*
G01*
X133725000Y-107200000D02*
X134275000Y-107200000D01*
G75*
G02*
X134475000Y-107400000I0J-200000D01*
G01*
X134475000Y-107800000D01*
G75*
G02*
X134275000Y-108000000I-200000J0D01*
G01*
X133725000Y-108000000D01*
G75*
G02*
X133525000Y-107800000I0J200000D01*
G01*
X133525000Y-107400000D01*
G75*
G02*
X133725000Y-107200000I200000J0D01*
G01*
G37*
%TD*%
%TO.C,B13*%
G36*
G01*
X135725000Y-104500000D02*
X136275000Y-104500000D01*
G75*
G02*
X136475000Y-104700000I0J-200000D01*
G01*
X136475000Y-105100000D01*
G75*
G02*
X136275000Y-105300000I-200000J0D01*
G01*
X135725000Y-105300000D01*
G75*
G02*
X135525000Y-105100000I0J200000D01*
G01*
X135525000Y-104700000D01*
G75*
G02*
X135725000Y-104500000I200000J0D01*
G01*
G37*
G36*
G01*
X135725000Y-102850000D02*
X136275000Y-102850000D01*
G75*
G02*
X136475000Y-103050000I0J-200000D01*
G01*
X136475000Y-103450000D01*
G75*
G02*
X136275000Y-103650000I-200000J0D01*
G01*
X135725000Y-103650000D01*
G75*
G02*
X135525000Y-103450000I0J200000D01*
G01*
X135525000Y-103050000D01*
G75*
G02*
X135725000Y-102850000I200000J0D01*
G01*
G37*
%TD*%
%TO.C,B12*%
G36*
G01*
X135725000Y-108850000D02*
X136275000Y-108850000D01*
G75*
G02*
X136475000Y-109050000I0J-200000D01*
G01*
X136475000Y-109450000D01*
G75*
G02*
X136275000Y-109650000I-200000J0D01*
G01*
X135725000Y-109650000D01*
G75*
G02*
X135525000Y-109450000I0J200000D01*
G01*
X135525000Y-109050000D01*
G75*
G02*
X135725000Y-108850000I200000J0D01*
G01*
G37*
G36*
G01*
X135725000Y-107200000D02*
X136275000Y-107200000D01*
G75*
G02*
X136475000Y-107400000I0J-200000D01*
G01*
X136475000Y-107800000D01*
G75*
G02*
X136275000Y-108000000I-200000J0D01*
G01*
X135725000Y-108000000D01*
G75*
G02*
X135525000Y-107800000I0J200000D01*
G01*
X135525000Y-107400000D01*
G75*
G02*
X135725000Y-107200000I200000J0D01*
G01*
G37*
%TD*%
%TO.C,B11*%
G36*
G01*
X138575000Y-102975000D02*
X138575000Y-103525000D01*
G75*
G02*
X138375000Y-103725000I-200000J0D01*
G01*
X137975000Y-103725000D01*
G75*
G02*
X137775000Y-103525000I0J200000D01*
G01*
X137775000Y-102975000D01*
G75*
G02*
X137975000Y-102775000I200000J0D01*
G01*
X138375000Y-102775000D01*
G75*
G02*
X138575000Y-102975000I0J-200000D01*
G01*
G37*
G36*
G01*
X140225000Y-102975000D02*
X140225000Y-103525000D01*
G75*
G02*
X140025000Y-103725000I-200000J0D01*
G01*
X139625000Y-103725000D01*
G75*
G02*
X139425000Y-103525000I0J200000D01*
G01*
X139425000Y-102975000D01*
G75*
G02*
X139625000Y-102775000I200000J0D01*
G01*
X140025000Y-102775000D01*
G75*
G02*
X140225000Y-102975000I0J-200000D01*
G01*
G37*
%TD*%
%TO.C,B10*%
G36*
G01*
X138575000Y-105975000D02*
X138575000Y-106525000D01*
G75*
G02*
X138375000Y-106725000I-200000J0D01*
G01*
X137975000Y-106725000D01*
G75*
G02*
X137775000Y-106525000I0J200000D01*
G01*
X137775000Y-105975000D01*
G75*
G02*
X137975000Y-105775000I200000J0D01*
G01*
X138375000Y-105775000D01*
G75*
G02*
X138575000Y-105975000I0J-200000D01*
G01*
G37*
G36*
G01*
X140225000Y-105975000D02*
X140225000Y-106525000D01*
G75*
G02*
X140025000Y-106725000I-200000J0D01*
G01*
X139625000Y-106725000D01*
G75*
G02*
X139425000Y-106525000I0J200000D01*
G01*
X139425000Y-105975000D01*
G75*
G02*
X139625000Y-105775000I200000J0D01*
G01*
X140025000Y-105775000D01*
G75*
G02*
X140225000Y-105975000I0J-200000D01*
G01*
G37*
%TD*%
%TO.C,B9*%
G36*
G01*
X141725000Y-104500000D02*
X142275000Y-104500000D01*
G75*
G02*
X142475000Y-104700000I0J-200000D01*
G01*
X142475000Y-105100000D01*
G75*
G02*
X142275000Y-105300000I-200000J0D01*
G01*
X141725000Y-105300000D01*
G75*
G02*
X141525000Y-105100000I0J200000D01*
G01*
X141525000Y-104700000D01*
G75*
G02*
X141725000Y-104500000I200000J0D01*
G01*
G37*
G36*
G01*
X141725000Y-102850000D02*
X142275000Y-102850000D01*
G75*
G02*
X142475000Y-103050000I0J-200000D01*
G01*
X142475000Y-103450000D01*
G75*
G02*
X142275000Y-103650000I-200000J0D01*
G01*
X141725000Y-103650000D01*
G75*
G02*
X141525000Y-103450000I0J200000D01*
G01*
X141525000Y-103050000D01*
G75*
G02*
X141725000Y-102850000I200000J0D01*
G01*
G37*
%TD*%
%TO.C,B8*%
G36*
G01*
X141725000Y-108850000D02*
X142275000Y-108850000D01*
G75*
G02*
X142475000Y-109050000I0J-200000D01*
G01*
X142475000Y-109450000D01*
G75*
G02*
X142275000Y-109650000I-200000J0D01*
G01*
X141725000Y-109650000D01*
G75*
G02*
X141525000Y-109450000I0J200000D01*
G01*
X141525000Y-109050000D01*
G75*
G02*
X141725000Y-108850000I200000J0D01*
G01*
G37*
G36*
G01*
X141725000Y-107200000D02*
X142275000Y-107200000D01*
G75*
G02*
X142475000Y-107400000I0J-200000D01*
G01*
X142475000Y-107800000D01*
G75*
G02*
X142275000Y-108000000I-200000J0D01*
G01*
X141725000Y-108000000D01*
G75*
G02*
X141525000Y-107800000I0J200000D01*
G01*
X141525000Y-107400000D01*
G75*
G02*
X141725000Y-107200000I200000J0D01*
G01*
G37*
%TD*%
%TO.C,B7*%
G36*
G01*
X149725000Y-104500000D02*
X150275000Y-104500000D01*
G75*
G02*
X150475000Y-104700000I0J-200000D01*
G01*
X150475000Y-105100000D01*
G75*
G02*
X150275000Y-105300000I-200000J0D01*
G01*
X149725000Y-105300000D01*
G75*
G02*
X149525000Y-105100000I0J200000D01*
G01*
X149525000Y-104700000D01*
G75*
G02*
X149725000Y-104500000I200000J0D01*
G01*
G37*
G36*
G01*
X149725000Y-102850000D02*
X150275000Y-102850000D01*
G75*
G02*
X150475000Y-103050000I0J-200000D01*
G01*
X150475000Y-103450000D01*
G75*
G02*
X150275000Y-103650000I-200000J0D01*
G01*
X149725000Y-103650000D01*
G75*
G02*
X149525000Y-103450000I0J200000D01*
G01*
X149525000Y-103050000D01*
G75*
G02*
X149725000Y-102850000I200000J0D01*
G01*
G37*
%TD*%
%TO.C,B6*%
G36*
G01*
X149725000Y-108850000D02*
X150275000Y-108850000D01*
G75*
G02*
X150475000Y-109050000I0J-200000D01*
G01*
X150475000Y-109450000D01*
G75*
G02*
X150275000Y-109650000I-200000J0D01*
G01*
X149725000Y-109650000D01*
G75*
G02*
X149525000Y-109450000I0J200000D01*
G01*
X149525000Y-109050000D01*
G75*
G02*
X149725000Y-108850000I200000J0D01*
G01*
G37*
G36*
G01*
X149725000Y-107200000D02*
X150275000Y-107200000D01*
G75*
G02*
X150475000Y-107400000I0J-200000D01*
G01*
X150475000Y-107800000D01*
G75*
G02*
X150275000Y-108000000I-200000J0D01*
G01*
X149725000Y-108000000D01*
G75*
G02*
X149525000Y-107800000I0J200000D01*
G01*
X149525000Y-107400000D01*
G75*
G02*
X149725000Y-107200000I200000J0D01*
G01*
G37*
%TD*%
%TO.C,B5*%
G36*
G01*
X152575000Y-102975000D02*
X152575000Y-103525000D01*
G75*
G02*
X152375000Y-103725000I-200000J0D01*
G01*
X151975000Y-103725000D01*
G75*
G02*
X151775000Y-103525000I0J200000D01*
G01*
X151775000Y-102975000D01*
G75*
G02*
X151975000Y-102775000I200000J0D01*
G01*
X152375000Y-102775000D01*
G75*
G02*
X152575000Y-102975000I0J-200000D01*
G01*
G37*
G36*
G01*
X154225000Y-102975000D02*
X154225000Y-103525000D01*
G75*
G02*
X154025000Y-103725000I-200000J0D01*
G01*
X153625000Y-103725000D01*
G75*
G02*
X153425000Y-103525000I0J200000D01*
G01*
X153425000Y-102975000D01*
G75*
G02*
X153625000Y-102775000I200000J0D01*
G01*
X154025000Y-102775000D01*
G75*
G02*
X154225000Y-102975000I0J-200000D01*
G01*
G37*
%TD*%
%TO.C,B4*%
G36*
G01*
X152575000Y-105975000D02*
X152575000Y-106525000D01*
G75*
G02*
X152375000Y-106725000I-200000J0D01*
G01*
X151975000Y-106725000D01*
G75*
G02*
X151775000Y-106525000I0J200000D01*
G01*
X151775000Y-105975000D01*
G75*
G02*
X151975000Y-105775000I200000J0D01*
G01*
X152375000Y-105775000D01*
G75*
G02*
X152575000Y-105975000I0J-200000D01*
G01*
G37*
G36*
G01*
X154225000Y-105975000D02*
X154225000Y-106525000D01*
G75*
G02*
X154025000Y-106725000I-200000J0D01*
G01*
X153625000Y-106725000D01*
G75*
G02*
X153425000Y-106525000I0J200000D01*
G01*
X153425000Y-105975000D01*
G75*
G02*
X153625000Y-105775000I200000J0D01*
G01*
X154025000Y-105775000D01*
G75*
G02*
X154225000Y-105975000I0J-200000D01*
G01*
G37*
%TD*%
%TO.C,B3*%
G36*
G01*
X155725000Y-104500000D02*
X156275000Y-104500000D01*
G75*
G02*
X156475000Y-104700000I0J-200000D01*
G01*
X156475000Y-105100000D01*
G75*
G02*
X156275000Y-105300000I-200000J0D01*
G01*
X155725000Y-105300000D01*
G75*
G02*
X155525000Y-105100000I0J200000D01*
G01*
X155525000Y-104700000D01*
G75*
G02*
X155725000Y-104500000I200000J0D01*
G01*
G37*
G36*
G01*
X155725000Y-102850000D02*
X156275000Y-102850000D01*
G75*
G02*
X156475000Y-103050000I0J-200000D01*
G01*
X156475000Y-103450000D01*
G75*
G02*
X156275000Y-103650000I-200000J0D01*
G01*
X155725000Y-103650000D01*
G75*
G02*
X155525000Y-103450000I0J200000D01*
G01*
X155525000Y-103050000D01*
G75*
G02*
X155725000Y-102850000I200000J0D01*
G01*
G37*
%TD*%
%TO.C,B2*%
G36*
G01*
X155725000Y-108850000D02*
X156275000Y-108850000D01*
G75*
G02*
X156475000Y-109050000I0J-200000D01*
G01*
X156475000Y-109450000D01*
G75*
G02*
X156275000Y-109650000I-200000J0D01*
G01*
X155725000Y-109650000D01*
G75*
G02*
X155525000Y-109450000I0J200000D01*
G01*
X155525000Y-109050000D01*
G75*
G02*
X155725000Y-108850000I200000J0D01*
G01*
G37*
G36*
G01*
X155725000Y-107200000D02*
X156275000Y-107200000D01*
G75*
G02*
X156475000Y-107400000I0J-200000D01*
G01*
X156475000Y-107800000D01*
G75*
G02*
X156275000Y-108000000I-200000J0D01*
G01*
X155725000Y-108000000D01*
G75*
G02*
X155525000Y-107800000I0J200000D01*
G01*
X155525000Y-107400000D01*
G75*
G02*
X155725000Y-107200000I200000J0D01*
G01*
G37*
%TD*%
%TO.C,B1*%
G36*
G01*
X157725000Y-108850000D02*
X158275000Y-108850000D01*
G75*
G02*
X158475000Y-109050000I0J-200000D01*
G01*
X158475000Y-109450000D01*
G75*
G02*
X158275000Y-109650000I-200000J0D01*
G01*
X157725000Y-109650000D01*
G75*
G02*
X157525000Y-109450000I0J200000D01*
G01*
X157525000Y-109050000D01*
G75*
G02*
X157725000Y-108850000I200000J0D01*
G01*
G37*
G36*
G01*
X157725000Y-107200000D02*
X158275000Y-107200000D01*
G75*
G02*
X158475000Y-107400000I0J-200000D01*
G01*
X158475000Y-107800000D01*
G75*
G02*
X158275000Y-108000000I-200000J0D01*
G01*
X157725000Y-108000000D01*
G75*
G02*
X157525000Y-107800000I0J200000D01*
G01*
X157525000Y-107400000D01*
G75*
G02*
X157725000Y-107200000I200000J0D01*
G01*
G37*
%TD*%
D14*
%TO.C,U1*%
G36*
X146866500Y-81050000D02*
G01*
X146866500Y-84175000D01*
X146450000Y-84175000D01*
X146450000Y-85650000D01*
X145550000Y-85650000D01*
X145550000Y-84175000D01*
X145133500Y-84175000D01*
X145133500Y-81050000D01*
X146866500Y-81050000D01*
G37*
D22*
X147500000Y-85000000D03*
X144500000Y-85000000D03*
%TD*%
D20*
%TO.C,TP2*%
X127000000Y-72750000D03*
%TD*%
%TO.C,TP1*%
X127000000Y-79000000D03*
%TD*%
D14*
%TO.C,J3*%
G36*
X186100000Y-83620000D02*
G01*
X185960000Y-83480000D01*
X185805000Y-83355000D01*
X185635000Y-83245000D01*
X185460000Y-83150000D01*
X185275000Y-83075000D01*
X185080000Y-83020000D01*
X184880000Y-82980000D01*
X184685000Y-82965000D01*
X184515000Y-82965000D01*
X184320000Y-82980000D01*
X184120000Y-83020000D01*
X183925000Y-83075000D01*
X183740000Y-83150000D01*
X183565000Y-83245000D01*
X183395000Y-83355000D01*
X183240000Y-83480000D01*
X183100000Y-83620000D01*
X182955000Y-83795000D01*
X181045000Y-83795000D01*
X181045000Y-81445000D01*
X188155000Y-81445000D01*
X188155000Y-83795000D01*
X186245000Y-83795000D01*
X186100000Y-83620000D01*
G37*
G36*
X183100000Y-86380000D02*
G01*
X183240000Y-86520000D01*
X183395000Y-86645000D01*
X183565000Y-86755000D01*
X183740000Y-86850000D01*
X183925000Y-86925000D01*
X184120000Y-86980000D01*
X184320000Y-87020000D01*
X184515000Y-87035000D01*
X184685000Y-87035000D01*
X184880000Y-87020000D01*
X185080000Y-86980000D01*
X185275000Y-86925000D01*
X185460000Y-86850000D01*
X185635000Y-86755000D01*
X185805000Y-86645000D01*
X185960000Y-86520000D01*
X186100000Y-86380000D01*
X186245000Y-86205000D01*
X188155000Y-86205000D01*
X188155000Y-88555000D01*
X181045000Y-88555000D01*
X181045000Y-86205000D01*
X182955000Y-86205000D01*
X183100000Y-86380000D01*
G37*
D23*
X184600000Y-85000000D03*
%TD*%
D14*
%TO.C,J1*%
G36*
X108500000Y-83620000D02*
G01*
X108360000Y-83480000D01*
X108205000Y-83355000D01*
X108035000Y-83245000D01*
X107860000Y-83150000D01*
X107675000Y-83075000D01*
X107480000Y-83020000D01*
X107280000Y-82980000D01*
X107085000Y-82965000D01*
X106915000Y-82965000D01*
X106720000Y-82980000D01*
X106520000Y-83020000D01*
X106325000Y-83075000D01*
X106140000Y-83150000D01*
X105965000Y-83245000D01*
X105795000Y-83355000D01*
X105640000Y-83480000D01*
X105500000Y-83620000D01*
X105355000Y-83795000D01*
X103445000Y-83795000D01*
X103445000Y-81445000D01*
X110555000Y-81445000D01*
X110555000Y-83795000D01*
X108645000Y-83795000D01*
X108500000Y-83620000D01*
G37*
G36*
X105500000Y-86380000D02*
G01*
X105640000Y-86520000D01*
X105795000Y-86645000D01*
X105965000Y-86755000D01*
X106140000Y-86850000D01*
X106325000Y-86925000D01*
X106520000Y-86980000D01*
X106720000Y-87020000D01*
X106915000Y-87035000D01*
X107085000Y-87035000D01*
X107280000Y-87020000D01*
X107480000Y-86980000D01*
X107675000Y-86925000D01*
X107860000Y-86850000D01*
X108035000Y-86755000D01*
X108205000Y-86645000D01*
X108360000Y-86520000D01*
X108500000Y-86380000D01*
X108645000Y-86205000D01*
X110555000Y-86205000D01*
X110555000Y-88555000D01*
X103445000Y-88555000D01*
X103445000Y-86205000D01*
X105355000Y-86205000D01*
X105500000Y-86380000D01*
G37*
D23*
X107000000Y-85000000D03*
%TD*%
%TO.C,A11*%
G36*
G01*
X152575000Y-84725000D02*
X152575000Y-85275000D01*
G75*
G02*
X152375000Y-85475000I-200000J0D01*
G01*
X151975000Y-85475000D01*
G75*
G02*
X151775000Y-85275000I0J200000D01*
G01*
X151775000Y-84725000D01*
G75*
G02*
X151975000Y-84525000I200000J0D01*
G01*
X152375000Y-84525000D01*
G75*
G02*
X152575000Y-84725000I0J-200000D01*
G01*
G37*
G36*
G01*
X154225000Y-84725000D02*
X154225000Y-85275000D01*
G75*
G02*
X154025000Y-85475000I-200000J0D01*
G01*
X153625000Y-85475000D01*
G75*
G02*
X153425000Y-85275000I0J200000D01*
G01*
X153425000Y-84725000D01*
G75*
G02*
X153625000Y-84525000I200000J0D01*
G01*
X154025000Y-84525000D01*
G75*
G02*
X154225000Y-84725000I0J-200000D01*
G01*
G37*
%TD*%
%TO.C,A5*%
G36*
G01*
X138575000Y-84725000D02*
X138575000Y-85275000D01*
G75*
G02*
X138375000Y-85475000I-200000J0D01*
G01*
X137975000Y-85475000D01*
G75*
G02*
X137775000Y-85275000I0J200000D01*
G01*
X137775000Y-84725000D01*
G75*
G02*
X137975000Y-84525000I200000J0D01*
G01*
X138375000Y-84525000D01*
G75*
G02*
X138575000Y-84725000I0J-200000D01*
G01*
G37*
G36*
G01*
X140225000Y-84725000D02*
X140225000Y-85275000D01*
G75*
G02*
X140025000Y-85475000I-200000J0D01*
G01*
X139625000Y-85475000D01*
G75*
G02*
X139425000Y-85275000I0J200000D01*
G01*
X139425000Y-84725000D01*
G75*
G02*
X139625000Y-84525000I200000J0D01*
G01*
X140025000Y-84525000D01*
G75*
G02*
X140225000Y-84725000I0J-200000D01*
G01*
G37*
%TD*%
%TO.C,A13*%
G36*
G01*
X156275000Y-83750000D02*
X155725000Y-83750000D01*
G75*
G02*
X155525000Y-83550000I0J200000D01*
G01*
X155525000Y-83150000D01*
G75*
G02*
X155725000Y-82950000I200000J0D01*
G01*
X156275000Y-82950000D01*
G75*
G02*
X156475000Y-83150000I0J-200000D01*
G01*
X156475000Y-83550000D01*
G75*
G02*
X156275000Y-83750000I-200000J0D01*
G01*
G37*
G36*
G01*
X156275000Y-85400000D02*
X155725000Y-85400000D01*
G75*
G02*
X155525000Y-85200000I0J200000D01*
G01*
X155525000Y-84800000D01*
G75*
G02*
X155725000Y-84600000I200000J0D01*
G01*
X156275000Y-84600000D01*
G75*
G02*
X156475000Y-84800000I0J-200000D01*
G01*
X156475000Y-85200000D01*
G75*
G02*
X156275000Y-85400000I-200000J0D01*
G01*
G37*
%TD*%
%TO.C,A9*%
G36*
G01*
X150275000Y-83750000D02*
X149725000Y-83750000D01*
G75*
G02*
X149525000Y-83550000I0J200000D01*
G01*
X149525000Y-83150000D01*
G75*
G02*
X149725000Y-82950000I200000J0D01*
G01*
X150275000Y-82950000D01*
G75*
G02*
X150475000Y-83150000I0J-200000D01*
G01*
X150475000Y-83550000D01*
G75*
G02*
X150275000Y-83750000I-200000J0D01*
G01*
G37*
G36*
G01*
X150275000Y-85400000D02*
X149725000Y-85400000D01*
G75*
G02*
X149525000Y-85200000I0J200000D01*
G01*
X149525000Y-84800000D01*
G75*
G02*
X149725000Y-84600000I200000J0D01*
G01*
X150275000Y-84600000D01*
G75*
G02*
X150475000Y-84800000I0J-200000D01*
G01*
X150475000Y-85200000D01*
G75*
G02*
X150275000Y-85400000I-200000J0D01*
G01*
G37*
%TD*%
%TO.C,A7*%
G36*
G01*
X142275000Y-83750000D02*
X141725000Y-83750000D01*
G75*
G02*
X141525000Y-83550000I0J200000D01*
G01*
X141525000Y-83150000D01*
G75*
G02*
X141725000Y-82950000I200000J0D01*
G01*
X142275000Y-82950000D01*
G75*
G02*
X142475000Y-83150000I0J-200000D01*
G01*
X142475000Y-83550000D01*
G75*
G02*
X142275000Y-83750000I-200000J0D01*
G01*
G37*
G36*
G01*
X142275000Y-85400000D02*
X141725000Y-85400000D01*
G75*
G02*
X141525000Y-85200000I0J200000D01*
G01*
X141525000Y-84800000D01*
G75*
G02*
X141725000Y-84600000I200000J0D01*
G01*
X142275000Y-84600000D01*
G75*
G02*
X142475000Y-84800000I0J-200000D01*
G01*
X142475000Y-85200000D01*
G75*
G02*
X142275000Y-85400000I-200000J0D01*
G01*
G37*
%TD*%
%TO.C,A3*%
G36*
G01*
X136275000Y-83750000D02*
X135725000Y-83750000D01*
G75*
G02*
X135525000Y-83550000I0J200000D01*
G01*
X135525000Y-83150000D01*
G75*
G02*
X135725000Y-82950000I200000J0D01*
G01*
X136275000Y-82950000D01*
G75*
G02*
X136475000Y-83150000I0J-200000D01*
G01*
X136475000Y-83550000D01*
G75*
G02*
X136275000Y-83750000I-200000J0D01*
G01*
G37*
G36*
G01*
X136275000Y-85400000D02*
X135725000Y-85400000D01*
G75*
G02*
X135525000Y-85200000I0J200000D01*
G01*
X135525000Y-84800000D01*
G75*
G02*
X135725000Y-84600000I200000J0D01*
G01*
X136275000Y-84600000D01*
G75*
G02*
X136475000Y-84800000I0J-200000D01*
G01*
X136475000Y-85200000D01*
G75*
G02*
X136275000Y-85400000I-200000J0D01*
G01*
G37*
%TD*%
%TO.C,A10*%
G36*
G01*
X152575000Y-81725000D02*
X152575000Y-82275000D01*
G75*
G02*
X152375000Y-82475000I-200000J0D01*
G01*
X151975000Y-82475000D01*
G75*
G02*
X151775000Y-82275000I0J200000D01*
G01*
X151775000Y-81725000D01*
G75*
G02*
X151975000Y-81525000I200000J0D01*
G01*
X152375000Y-81525000D01*
G75*
G02*
X152575000Y-81725000I0J-200000D01*
G01*
G37*
G36*
G01*
X154225000Y-81725000D02*
X154225000Y-82275000D01*
G75*
G02*
X154025000Y-82475000I-200000J0D01*
G01*
X153625000Y-82475000D01*
G75*
G02*
X153425000Y-82275000I0J200000D01*
G01*
X153425000Y-81725000D01*
G75*
G02*
X153625000Y-81525000I200000J0D01*
G01*
X154025000Y-81525000D01*
G75*
G02*
X154225000Y-81725000I0J-200000D01*
G01*
G37*
%TD*%
%TO.C,A4*%
G36*
G01*
X138575000Y-81725000D02*
X138575000Y-82275000D01*
G75*
G02*
X138375000Y-82475000I-200000J0D01*
G01*
X137975000Y-82475000D01*
G75*
G02*
X137775000Y-82275000I0J200000D01*
G01*
X137775000Y-81725000D01*
G75*
G02*
X137975000Y-81525000I200000J0D01*
G01*
X138375000Y-81525000D01*
G75*
G02*
X138575000Y-81725000I0J-200000D01*
G01*
G37*
G36*
G01*
X140225000Y-81725000D02*
X140225000Y-82275000D01*
G75*
G02*
X140025000Y-82475000I-200000J0D01*
G01*
X139625000Y-82475000D01*
G75*
G02*
X139425000Y-82275000I0J200000D01*
G01*
X139425000Y-81725000D01*
G75*
G02*
X139625000Y-81525000I200000J0D01*
G01*
X140025000Y-81525000D01*
G75*
G02*
X140225000Y-81725000I0J-200000D01*
G01*
G37*
%TD*%
%TO.C,A14*%
G36*
G01*
X158275000Y-79400000D02*
X157725000Y-79400000D01*
G75*
G02*
X157525000Y-79200000I0J200000D01*
G01*
X157525000Y-78800000D01*
G75*
G02*
X157725000Y-78600000I200000J0D01*
G01*
X158275000Y-78600000D01*
G75*
G02*
X158475000Y-78800000I0J-200000D01*
G01*
X158475000Y-79200000D01*
G75*
G02*
X158275000Y-79400000I-200000J0D01*
G01*
G37*
G36*
G01*
X158275000Y-81050000D02*
X157725000Y-81050000D01*
G75*
G02*
X157525000Y-80850000I0J200000D01*
G01*
X157525000Y-80450000D01*
G75*
G02*
X157725000Y-80250000I200000J0D01*
G01*
X158275000Y-80250000D01*
G75*
G02*
X158475000Y-80450000I0J-200000D01*
G01*
X158475000Y-80850000D01*
G75*
G02*
X158275000Y-81050000I-200000J0D01*
G01*
G37*
%TD*%
%TO.C,A12*%
G36*
G01*
X156275000Y-79400000D02*
X155725000Y-79400000D01*
G75*
G02*
X155525000Y-79200000I0J200000D01*
G01*
X155525000Y-78800000D01*
G75*
G02*
X155725000Y-78600000I200000J0D01*
G01*
X156275000Y-78600000D01*
G75*
G02*
X156475000Y-78800000I0J-200000D01*
G01*
X156475000Y-79200000D01*
G75*
G02*
X156275000Y-79400000I-200000J0D01*
G01*
G37*
G36*
G01*
X156275000Y-81050000D02*
X155725000Y-81050000D01*
G75*
G02*
X155525000Y-80850000I0J200000D01*
G01*
X155525000Y-80450000D01*
G75*
G02*
X155725000Y-80250000I200000J0D01*
G01*
X156275000Y-80250000D01*
G75*
G02*
X156475000Y-80450000I0J-200000D01*
G01*
X156475000Y-80850000D01*
G75*
G02*
X156275000Y-81050000I-200000J0D01*
G01*
G37*
%TD*%
%TO.C,A8*%
G36*
G01*
X150275000Y-79400000D02*
X149725000Y-79400000D01*
G75*
G02*
X149525000Y-79200000I0J200000D01*
G01*
X149525000Y-78800000D01*
G75*
G02*
X149725000Y-78600000I200000J0D01*
G01*
X150275000Y-78600000D01*
G75*
G02*
X150475000Y-78800000I0J-200000D01*
G01*
X150475000Y-79200000D01*
G75*
G02*
X150275000Y-79400000I-200000J0D01*
G01*
G37*
G36*
G01*
X150275000Y-81050000D02*
X149725000Y-81050000D01*
G75*
G02*
X149525000Y-80850000I0J200000D01*
G01*
X149525000Y-80450000D01*
G75*
G02*
X149725000Y-80250000I200000J0D01*
G01*
X150275000Y-80250000D01*
G75*
G02*
X150475000Y-80450000I0J-200000D01*
G01*
X150475000Y-80850000D01*
G75*
G02*
X150275000Y-81050000I-200000J0D01*
G01*
G37*
%TD*%
%TO.C,A6*%
G36*
G01*
X142275000Y-79400000D02*
X141725000Y-79400000D01*
G75*
G02*
X141525000Y-79200000I0J200000D01*
G01*
X141525000Y-78800000D01*
G75*
G02*
X141725000Y-78600000I200000J0D01*
G01*
X142275000Y-78600000D01*
G75*
G02*
X142475000Y-78800000I0J-200000D01*
G01*
X142475000Y-79200000D01*
G75*
G02*
X142275000Y-79400000I-200000J0D01*
G01*
G37*
G36*
G01*
X142275000Y-81050000D02*
X141725000Y-81050000D01*
G75*
G02*
X141525000Y-80850000I0J200000D01*
G01*
X141525000Y-80450000D01*
G75*
G02*
X141725000Y-80250000I200000J0D01*
G01*
X142275000Y-80250000D01*
G75*
G02*
X142475000Y-80450000I0J-200000D01*
G01*
X142475000Y-80850000D01*
G75*
G02*
X142275000Y-81050000I-200000J0D01*
G01*
G37*
%TD*%
%TO.C,A2*%
G36*
G01*
X136275000Y-79400000D02*
X135725000Y-79400000D01*
G75*
G02*
X135525000Y-79200000I0J200000D01*
G01*
X135525000Y-78800000D01*
G75*
G02*
X135725000Y-78600000I200000J0D01*
G01*
X136275000Y-78600000D01*
G75*
G02*
X136475000Y-78800000I0J-200000D01*
G01*
X136475000Y-79200000D01*
G75*
G02*
X136275000Y-79400000I-200000J0D01*
G01*
G37*
G36*
G01*
X136275000Y-81050000D02*
X135725000Y-81050000D01*
G75*
G02*
X135525000Y-80850000I0J200000D01*
G01*
X135525000Y-80450000D01*
G75*
G02*
X135725000Y-80250000I200000J0D01*
G01*
X136275000Y-80250000D01*
G75*
G02*
X136475000Y-80450000I0J-200000D01*
G01*
X136475000Y-80850000D01*
G75*
G02*
X136275000Y-81050000I-200000J0D01*
G01*
G37*
%TD*%
%TO.C,A1*%
G36*
G01*
X134275000Y-79400000D02*
X133725000Y-79400000D01*
G75*
G02*
X133525000Y-79200000I0J200000D01*
G01*
X133525000Y-78800000D01*
G75*
G02*
X133725000Y-78600000I200000J0D01*
G01*
X134275000Y-78600000D01*
G75*
G02*
X134475000Y-78800000I0J-200000D01*
G01*
X134475000Y-79200000D01*
G75*
G02*
X134275000Y-79400000I-200000J0D01*
G01*
G37*
G36*
G01*
X134275000Y-81050000D02*
X133725000Y-81050000D01*
G75*
G02*
X133525000Y-80850000I0J200000D01*
G01*
X133525000Y-80450000D01*
G75*
G02*
X133725000Y-80250000I200000J0D01*
G01*
X134275000Y-80250000D01*
G75*
G02*
X134475000Y-80450000I0J-200000D01*
G01*
X134475000Y-80850000D01*
G75*
G02*
X134275000Y-81050000I-200000J0D01*
G01*
G37*
%TD*%
D24*
%TO.C,H4*%
X187031891Y-68568109D03*
X185600000Y-67975000D03*
X184168109Y-68568109D03*
X183575000Y-70000000D03*
X184168109Y-71431891D03*
X185600000Y-72025000D03*
X187031891Y-71431891D03*
X187625000Y-70000000D03*
D25*
X185600000Y-70000000D03*
%TD*%
D24*
%TO.C,H3*%
X187031891Y-116548109D03*
X185600000Y-115955000D03*
X184168109Y-116548109D03*
X183575000Y-117980000D03*
X184168109Y-119411891D03*
X185600000Y-120005000D03*
X187031891Y-119411891D03*
X187625000Y-117980000D03*
D25*
X185600000Y-117980000D03*
%TD*%
D24*
%TO.C,H2*%
X107431891Y-116548109D03*
X106000000Y-115955000D03*
X104568109Y-116548109D03*
X103975000Y-117980000D03*
X104568109Y-119411891D03*
X106000000Y-120005000D03*
X107431891Y-119411891D03*
X108025000Y-117980000D03*
D25*
X106000000Y-117980000D03*
%TD*%
D24*
%TO.C,H1*%
X107431891Y-68568109D03*
X106000000Y-67975000D03*
X104568109Y-68568109D03*
X103975000Y-70000000D03*
X104568109Y-71431891D03*
X106000000Y-72025000D03*
X107431891Y-71431891D03*
X108025000Y-70000000D03*
D25*
X106000000Y-70000000D03*
%TD*%
M02*
