%TF.GenerationSoftware,KiCad,Pcbnew,9.0.0*%
%TF.CreationDate,2025-02-26T11:30:23+01:00*%
%TF.ProjectId,rf-proto-card,72662d70-726f-4746-9f2d-636172642e6b,2*%
%TF.SameCoordinates,Original*%
%TF.FileFunction,Soldermask,Bot*%
%TF.FilePolarity,Negative*%
%FSLAX46Y46*%
G04 Gerber Fmt 4.6, Leading zero omitted, Abs format (unit mm)*
G04 Created by KiCad (PCBNEW 9.0.0) date 2025-02-26 11:30:23*
%MOMM*%
%LPD*%
G01*
G04 APERTURE LIST*
%ADD10C,0.000000*%
%ADD11C,0.423333*%
%ADD12C,0.800000*%
%ADD13C,5.400000*%
G04 APERTURE END LIST*
D10*
G36*
X121881450Y-90326695D02*
G01*
X121891840Y-90327329D01*
X121902000Y-90328385D01*
X121911932Y-90329864D01*
X121921636Y-90331765D01*
X121931110Y-90334088D01*
X121940356Y-90336832D01*
X121949372Y-90339999D01*
X121958160Y-90343587D01*
X121966718Y-90347597D01*
X121975046Y-90352028D01*
X121983145Y-90356880D01*
X121991015Y-90362154D01*
X121998655Y-90367848D01*
X122006065Y-90373964D01*
X122013245Y-90380500D01*
X122019781Y-90387051D01*
X122025896Y-90393812D01*
X122031591Y-90400783D01*
X122036864Y-90407965D01*
X122041716Y-90415358D01*
X122046147Y-90422962D01*
X122050157Y-90430778D01*
X122053745Y-90438804D01*
X122056911Y-90447042D01*
X122059656Y-90455491D01*
X122061978Y-90464151D01*
X122063879Y-90473023D01*
X122065357Y-90482108D01*
X122066414Y-90491404D01*
X122067047Y-90500912D01*
X122067259Y-90510632D01*
X122067047Y-90520056D01*
X122066414Y-90529309D01*
X122065357Y-90538390D01*
X122063879Y-90547301D01*
X122061978Y-90556039D01*
X122059656Y-90564606D01*
X122056911Y-90573001D01*
X122053745Y-90581223D01*
X122050157Y-90589273D01*
X122046147Y-90597150D01*
X122041716Y-90604854D01*
X122036864Y-90612384D01*
X122031591Y-90619740D01*
X122025896Y-90626923D01*
X122019781Y-90633932D01*
X122013245Y-90640766D01*
X122006065Y-90647302D01*
X121998655Y-90653418D01*
X121991015Y-90659113D01*
X121983145Y-90664386D01*
X121975046Y-90669239D01*
X121966718Y-90673670D01*
X121958160Y-90677680D01*
X121949372Y-90681268D01*
X121940356Y-90684435D01*
X121931110Y-90687180D01*
X121921636Y-90689503D01*
X121911932Y-90691404D01*
X121902000Y-90692883D01*
X121891840Y-90693939D01*
X121881450Y-90694573D01*
X121870833Y-90694785D01*
X121859918Y-90694573D01*
X121849272Y-90693939D01*
X121838893Y-90692883D01*
X121828783Y-90691404D01*
X121818941Y-90689503D01*
X121809368Y-90687180D01*
X121800063Y-90684435D01*
X121791026Y-90681268D01*
X121782259Y-90677680D01*
X121773760Y-90673670D01*
X121765531Y-90669239D01*
X121757570Y-90664386D01*
X121749879Y-90659113D01*
X121742457Y-90653418D01*
X121735304Y-90647302D01*
X121728421Y-90640766D01*
X121721871Y-90633606D01*
X121715745Y-90626256D01*
X121710044Y-90618715D01*
X121704766Y-90610983D01*
X121699912Y-90603060D01*
X121695482Y-90594946D01*
X121691474Y-90586641D01*
X121687890Y-90578144D01*
X121684728Y-90569456D01*
X121681988Y-90560577D01*
X121679671Y-90551505D01*
X121677775Y-90542242D01*
X121676301Y-90532787D01*
X121675249Y-90523140D01*
X121674617Y-90513300D01*
X121674407Y-90503269D01*
X121674627Y-90493865D01*
X121675288Y-90484671D01*
X121676390Y-90475688D01*
X121677933Y-90466914D01*
X121679917Y-90458352D01*
X121682342Y-90449999D01*
X121685208Y-90441857D01*
X121688516Y-90433926D01*
X121692265Y-90426204D01*
X121696456Y-90418693D01*
X121701089Y-90411393D01*
X121706163Y-90404303D01*
X121711679Y-90397423D01*
X121717638Y-90390754D01*
X121724039Y-90384295D01*
X121730882Y-90378046D01*
X121737753Y-90371803D01*
X121744875Y-90365961D01*
X121752246Y-90360523D01*
X121759868Y-90355488D01*
X121767740Y-90350855D01*
X121775862Y-90346626D01*
X121784234Y-90342799D01*
X121792856Y-90339375D01*
X121801728Y-90336353D01*
X121810850Y-90333735D01*
X121820222Y-90331519D01*
X121829844Y-90329707D01*
X121839716Y-90328297D01*
X121849838Y-90327290D01*
X121860211Y-90326685D01*
X121870833Y-90326484D01*
X121881450Y-90326695D01*
G37*
G36*
X115842414Y-90896389D02*
G01*
X115865318Y-90897196D01*
X115887744Y-90898540D01*
X115909692Y-90900421D01*
X115931162Y-90902840D01*
X115952154Y-90905795D01*
X115972667Y-90909288D01*
X115992702Y-90913318D01*
X116012259Y-90917885D01*
X116031338Y-90922988D01*
X116049939Y-90928628D01*
X116068062Y-90934804D01*
X116085706Y-90941516D01*
X116102872Y-90948765D01*
X116119560Y-90956550D01*
X116135769Y-90964870D01*
X116151163Y-90973708D01*
X116166039Y-90983046D01*
X116180397Y-90992884D01*
X116194237Y-91003222D01*
X116207559Y-91014059D01*
X116220363Y-91025396D01*
X116232649Y-91037232D01*
X116244417Y-91049568D01*
X116255668Y-91062402D01*
X116266400Y-91075736D01*
X116276615Y-91089568D01*
X116285545Y-91102766D01*
X116285545Y-90910854D01*
X116577732Y-90910854D01*
X116577732Y-92222002D01*
X116270813Y-92222002D01*
X116270813Y-91586071D01*
X116270410Y-91561302D01*
X116269202Y-91537318D01*
X116267188Y-91514121D01*
X116264368Y-91491709D01*
X116260743Y-91470083D01*
X116256311Y-91449243D01*
X116251075Y-91429188D01*
X116245032Y-91409920D01*
X116238184Y-91391437D01*
X116230530Y-91373740D01*
X116222071Y-91356830D01*
X116212806Y-91340704D01*
X116202735Y-91325365D01*
X116191858Y-91310812D01*
X116180176Y-91297044D01*
X116167688Y-91284062D01*
X116154519Y-91271574D01*
X116140792Y-91259892D01*
X116126509Y-91249016D01*
X116111668Y-91238945D01*
X116096271Y-91229680D01*
X116080317Y-91221221D01*
X116063808Y-91213567D01*
X116046742Y-91206720D01*
X116029121Y-91200677D01*
X116010945Y-91195441D01*
X115992213Y-91191010D01*
X115972927Y-91187384D01*
X115953086Y-91184565D01*
X115932690Y-91182551D01*
X115911741Y-91181342D01*
X115890237Y-91180939D01*
X115885923Y-91180979D01*
X115881616Y-91181097D01*
X115877315Y-91181292D01*
X115873019Y-91181563D01*
X115868726Y-91181910D01*
X115864436Y-91182332D01*
X115860149Y-91182827D01*
X115855862Y-91183396D01*
X115851509Y-91183471D01*
X115847083Y-91183698D01*
X115842586Y-91184079D01*
X115838018Y-91184612D01*
X115833378Y-91185301D01*
X115828667Y-91186145D01*
X115823885Y-91187145D01*
X115819031Y-91188303D01*
X115819031Y-90896120D01*
X115842414Y-90896389D01*
G37*
G36*
X120593120Y-90896389D02*
G01*
X120614140Y-90897196D01*
X120634854Y-90898540D01*
X120655263Y-90900421D01*
X120675365Y-90902840D01*
X120695161Y-90905795D01*
X120714651Y-90909288D01*
X120733835Y-90913318D01*
X120752711Y-90917885D01*
X120771281Y-90922988D01*
X120789545Y-90928628D01*
X120807501Y-90934804D01*
X120825150Y-90941516D01*
X120842492Y-90948765D01*
X120859526Y-90956550D01*
X120876253Y-90964870D01*
X120892271Y-90973387D01*
X120907810Y-90982365D01*
X120922871Y-90991802D01*
X120937453Y-91001700D01*
X120951557Y-91012059D01*
X120965183Y-91022878D01*
X120978331Y-91034157D01*
X120991000Y-91045896D01*
X121003191Y-91058096D01*
X121014904Y-91070757D01*
X121023577Y-91080886D01*
X121023577Y-90910854D01*
X121315760Y-90910854D01*
X121315760Y-92222002D01*
X121008846Y-92222002D01*
X121008846Y-91559062D01*
X121008673Y-91542671D01*
X121008155Y-91526645D01*
X121007291Y-91510983D01*
X121006083Y-91495687D01*
X121004529Y-91480755D01*
X121002629Y-91466187D01*
X121000384Y-91451984D01*
X120997795Y-91438145D01*
X120994859Y-91424671D01*
X120991579Y-91411560D01*
X120987953Y-91398813D01*
X120983982Y-91386430D01*
X120979666Y-91374411D01*
X120975005Y-91362755D01*
X120969998Y-91351463D01*
X120964646Y-91340534D01*
X120958661Y-91329658D01*
X120952391Y-91319127D01*
X120945834Y-91308942D01*
X120938991Y-91299102D01*
X120931862Y-91289607D01*
X120924446Y-91280457D01*
X120916744Y-91271652D01*
X120908756Y-91263193D01*
X120900480Y-91255079D01*
X120891918Y-91247310D01*
X120883069Y-91239887D01*
X120873933Y-91232808D01*
X120864509Y-91226076D01*
X120854799Y-91219688D01*
X120844800Y-91213646D01*
X120834514Y-91207949D01*
X120823974Y-91202597D01*
X120813243Y-91197590D01*
X120802321Y-91192928D01*
X120791208Y-91188612D01*
X120779905Y-91184642D01*
X120768412Y-91181016D01*
X120756728Y-91177736D01*
X120744853Y-91174801D01*
X120732788Y-91172211D01*
X120720533Y-91169967D01*
X120708087Y-91168068D01*
X120695450Y-91166514D01*
X120682623Y-91165306D01*
X120669606Y-91164443D01*
X120656399Y-91163925D01*
X120643001Y-91163752D01*
X120624844Y-91164087D01*
X120607205Y-91165094D01*
X120590085Y-91166771D01*
X120573482Y-91169119D01*
X120557397Y-91172138D01*
X120541831Y-91175829D01*
X120526782Y-91180191D01*
X120512251Y-91185225D01*
X120498239Y-91190930D01*
X120484744Y-91197307D01*
X120471767Y-91204357D01*
X120459308Y-91212078D01*
X120447367Y-91220472D01*
X120435944Y-91229538D01*
X120425039Y-91239276D01*
X120414651Y-91249687D01*
X120404533Y-91260779D01*
X120395070Y-91272559D01*
X120386261Y-91285029D01*
X120378105Y-91298188D01*
X120370604Y-91312037D01*
X120363756Y-91326575D01*
X120357562Y-91341804D01*
X120352020Y-91357723D01*
X120347131Y-91374332D01*
X120342895Y-91391633D01*
X120339311Y-91409624D01*
X120336380Y-91428306D01*
X120334100Y-91447680D01*
X120332472Y-91467746D01*
X120331495Y-91488503D01*
X120331170Y-91509953D01*
X120331170Y-92222002D01*
X120024256Y-92222002D01*
X120024256Y-91470668D01*
X120024534Y-91446096D01*
X120025367Y-91422099D01*
X120026756Y-91398677D01*
X120028702Y-91375831D01*
X120031203Y-91353561D01*
X120034261Y-91331866D01*
X120037875Y-91310746D01*
X120042046Y-91290202D01*
X120046773Y-91270233D01*
X120052056Y-91250840D01*
X120057897Y-91232022D01*
X120064295Y-91213779D01*
X120071249Y-91196112D01*
X120078761Y-91179021D01*
X120086830Y-91162505D01*
X120095457Y-91146564D01*
X120104560Y-91130868D01*
X120114087Y-91115688D01*
X120124038Y-91101024D01*
X120134414Y-91086877D01*
X120145212Y-91073247D01*
X120156435Y-91060134D01*
X120168080Y-91047538D01*
X120180148Y-91035461D01*
X120192639Y-91023901D01*
X120205552Y-91012859D01*
X120218887Y-91002336D01*
X120232645Y-90992331D01*
X120246823Y-90982846D01*
X120261424Y-90973879D01*
X120276445Y-90965432D01*
X120291888Y-90957504D01*
X120307358Y-90950076D01*
X120323097Y-90943126D01*
X120339107Y-90936654D01*
X120355387Y-90930661D01*
X120371936Y-90925147D01*
X120388756Y-90920111D01*
X120405845Y-90915555D01*
X120423204Y-90911477D01*
X120440833Y-90907879D01*
X120458732Y-90904760D01*
X120476901Y-90902121D01*
X120495340Y-90899961D01*
X120514049Y-90898281D01*
X120533027Y-90897080D01*
X120552276Y-90896360D01*
X120571795Y-90896120D01*
X120593120Y-90896389D01*
G37*
G36*
X122025520Y-92222002D02*
G01*
X121718606Y-92222002D01*
X121718606Y-90910854D01*
X122025520Y-90910854D01*
X122025520Y-92222002D01*
G37*
G36*
X124690904Y-90896389D02*
G01*
X124711923Y-90897196D01*
X124732638Y-90898540D01*
X124753046Y-90900421D01*
X124773148Y-90902840D01*
X124792945Y-90905795D01*
X124812435Y-90909288D01*
X124831618Y-90913318D01*
X124850495Y-90917885D01*
X124869066Y-90922988D01*
X124887330Y-90928628D01*
X124905286Y-90934804D01*
X124922936Y-90941516D01*
X124940278Y-90948765D01*
X124957313Y-90956550D01*
X124974041Y-90964870D01*
X124990072Y-90973387D01*
X125005622Y-90982365D01*
X125020693Y-90991802D01*
X125035284Y-91001700D01*
X125049395Y-91012059D01*
X125063025Y-91022878D01*
X125076176Y-91034157D01*
X125088846Y-91045896D01*
X125101036Y-91058096D01*
X125112747Y-91070757D01*
X125121360Y-91080820D01*
X125121360Y-90910854D01*
X125413543Y-90910854D01*
X125413543Y-92222002D01*
X125106624Y-92222002D01*
X125106624Y-91559062D01*
X125106451Y-91542671D01*
X125105933Y-91526645D01*
X125105070Y-91510983D01*
X125103862Y-91495687D01*
X125102308Y-91480755D01*
X125100409Y-91466187D01*
X125098165Y-91451984D01*
X125095575Y-91438145D01*
X125092640Y-91424671D01*
X125089360Y-91411560D01*
X125085735Y-91398813D01*
X125081765Y-91386430D01*
X125077449Y-91374411D01*
X125072788Y-91362755D01*
X125067781Y-91351463D01*
X125062430Y-91340534D01*
X125056459Y-91329658D01*
X125050199Y-91319127D01*
X125043650Y-91308942D01*
X125036811Y-91299102D01*
X125029684Y-91289607D01*
X125022268Y-91280457D01*
X125014564Y-91271652D01*
X125006571Y-91263193D01*
X124998291Y-91255079D01*
X124989723Y-91247310D01*
X124980868Y-91239887D01*
X124971726Y-91232808D01*
X124962298Y-91226076D01*
X124952582Y-91219688D01*
X124942580Y-91213646D01*
X124932293Y-91207949D01*
X124921767Y-91202597D01*
X124911049Y-91197590D01*
X124900138Y-91192928D01*
X124889035Y-91188612D01*
X124877739Y-91184642D01*
X124866251Y-91181016D01*
X124854571Y-91177736D01*
X124842698Y-91174801D01*
X124830633Y-91172211D01*
X124818375Y-91169967D01*
X124805924Y-91168068D01*
X124793281Y-91166514D01*
X124780446Y-91165306D01*
X124767418Y-91164443D01*
X124754197Y-91163925D01*
X124740784Y-91163752D01*
X124722627Y-91164087D01*
X124704988Y-91165094D01*
X124687868Y-91166771D01*
X124671265Y-91169119D01*
X124655180Y-91172138D01*
X124639614Y-91175829D01*
X124624565Y-91180191D01*
X124610035Y-91185225D01*
X124596022Y-91190930D01*
X124582527Y-91197307D01*
X124569550Y-91204357D01*
X124557091Y-91212078D01*
X124545150Y-91220472D01*
X124533727Y-91229538D01*
X124522822Y-91239276D01*
X124512434Y-91249687D01*
X124502330Y-91260779D01*
X124492877Y-91272559D01*
X124484075Y-91285029D01*
X124475924Y-91298188D01*
X124468425Y-91312037D01*
X124461577Y-91326575D01*
X124455381Y-91341804D01*
X124449837Y-91357723D01*
X124444944Y-91374332D01*
X124440704Y-91391633D01*
X124437115Y-91409624D01*
X124434179Y-91428306D01*
X124431895Y-91447680D01*
X124430263Y-91467746D01*
X124429284Y-91488503D01*
X124428958Y-91509953D01*
X124428958Y-92222002D01*
X124122039Y-92222002D01*
X124122039Y-91470668D01*
X124122317Y-91446096D01*
X124123150Y-91422099D01*
X124124540Y-91398677D01*
X124126485Y-91375831D01*
X124128987Y-91353561D01*
X124132044Y-91331866D01*
X124135658Y-91310746D01*
X124139829Y-91290202D01*
X124144556Y-91270233D01*
X124149840Y-91250840D01*
X124155680Y-91232022D01*
X124162078Y-91213779D01*
X124169033Y-91196112D01*
X124176544Y-91179021D01*
X124184614Y-91162505D01*
X124193240Y-91146564D01*
X124202357Y-91130868D01*
X124211894Y-91115688D01*
X124221852Y-91101024D01*
X124232232Y-91086877D01*
X124243032Y-91073247D01*
X124254254Y-91060134D01*
X124265897Y-91047538D01*
X124277962Y-91035461D01*
X124290448Y-91023901D01*
X124303356Y-91012859D01*
X124316686Y-91002336D01*
X124330437Y-90992331D01*
X124344611Y-90982846D01*
X124359207Y-90973879D01*
X124374225Y-90965432D01*
X124389666Y-90957504D01*
X124405151Y-90950076D01*
X124420905Y-90943126D01*
X124436926Y-90936654D01*
X124453215Y-90930661D01*
X124469772Y-90925147D01*
X124486597Y-90920111D01*
X124503690Y-90915555D01*
X124521051Y-90911477D01*
X124538679Y-90907879D01*
X124556576Y-90904760D01*
X124574740Y-90902121D01*
X124593172Y-90899961D01*
X124611872Y-90898281D01*
X124630839Y-90897080D01*
X124650075Y-90896360D01*
X124669578Y-90896120D01*
X124690904Y-90896389D01*
G37*
G36*
X127028982Y-92222002D02*
G01*
X125739930Y-92222002D01*
X125739930Y-91954367D01*
X126709788Y-91954367D01*
X126709788Y-91480490D01*
X125879886Y-91480490D01*
X125879886Y-91217771D01*
X126709788Y-91217771D01*
X126709788Y-90770898D01*
X125774305Y-90770898D01*
X125774305Y-90503269D01*
X127028982Y-90503269D01*
X127028982Y-92222002D01*
G37*
G36*
X139415012Y-90896379D02*
G01*
X139434865Y-90897156D01*
X139454451Y-90898451D01*
X139473769Y-90900264D01*
X139492818Y-90902595D01*
X139511599Y-90905443D01*
X139530112Y-90908810D01*
X139548356Y-90912694D01*
X139566331Y-90917097D01*
X139584037Y-90922017D01*
X139601474Y-90927455D01*
X139618642Y-90933411D01*
X139635540Y-90939885D01*
X139652169Y-90946877D01*
X139668528Y-90954387D01*
X139684617Y-90962414D01*
X139700040Y-90970941D01*
X139715002Y-90979947D01*
X139729504Y-90989434D01*
X139743545Y-90999401D01*
X139757126Y-91009847D01*
X139770247Y-91020774D01*
X139782907Y-91032179D01*
X139795107Y-91044064D01*
X139806846Y-91056428D01*
X139818125Y-91069272D01*
X139824568Y-91077206D01*
X139824568Y-90910854D01*
X140116751Y-90910854D01*
X140116751Y-92222002D01*
X139809837Y-92222002D01*
X139809837Y-91556604D01*
X139809674Y-91540213D01*
X139809186Y-91524187D01*
X139808372Y-91508526D01*
X139807232Y-91493230D01*
X139805767Y-91478298D01*
X139803975Y-91463731D01*
X139801858Y-91449529D01*
X139799414Y-91435690D01*
X139796643Y-91422216D01*
X139793546Y-91409106D01*
X139790123Y-91396359D01*
X139786372Y-91383976D01*
X139782294Y-91371957D01*
X139777890Y-91360302D01*
X139773158Y-91349010D01*
X139768098Y-91338081D01*
X139762450Y-91327497D01*
X139756553Y-91317241D01*
X139750408Y-91307311D01*
X139744014Y-91297709D01*
X139737371Y-91288434D01*
X139730478Y-91279485D01*
X139723336Y-91270864D01*
X139715944Y-91262569D01*
X139708302Y-91254600D01*
X139700410Y-91246957D01*
X139692267Y-91239641D01*
X139683873Y-91232651D01*
X139675229Y-91225987D01*
X139666333Y-91219648D01*
X139657185Y-91213636D01*
X139647786Y-91207949D01*
X139637888Y-91202597D01*
X139627815Y-91197590D01*
X139617568Y-91192928D01*
X139607147Y-91188612D01*
X139596552Y-91184642D01*
X139585782Y-91181016D01*
X139574839Y-91177736D01*
X139563722Y-91174801D01*
X139552432Y-91172211D01*
X139540968Y-91169967D01*
X139529330Y-91168068D01*
X139517520Y-91166514D01*
X139505536Y-91165306D01*
X139493379Y-91164443D01*
X139481050Y-91163925D01*
X139468548Y-91163752D01*
X139451011Y-91164087D01*
X139433991Y-91165094D01*
X139417490Y-91166771D01*
X139401506Y-91169119D01*
X139386039Y-91172138D01*
X139371090Y-91175829D01*
X139356658Y-91180191D01*
X139342743Y-91185225D01*
X139329344Y-91190930D01*
X139316463Y-91197307D01*
X139304098Y-91204357D01*
X139292249Y-91212078D01*
X139280917Y-91220472D01*
X139270101Y-91229538D01*
X139259801Y-91239276D01*
X139250017Y-91249687D01*
X139240805Y-91260779D01*
X139232187Y-91272559D01*
X139224162Y-91285029D01*
X139216730Y-91298188D01*
X139209893Y-91312037D01*
X139203649Y-91326575D01*
X139197999Y-91341804D01*
X139192943Y-91357723D01*
X139188482Y-91374332D01*
X139184615Y-91391633D01*
X139181343Y-91409624D01*
X139178665Y-91428306D01*
X139176583Y-91447680D01*
X139175095Y-91467746D01*
X139174202Y-91488503D01*
X139173904Y-91509953D01*
X139173904Y-92222002D01*
X138866990Y-92222002D01*
X138866990Y-91556604D01*
X138866827Y-91540213D01*
X138866339Y-91524187D01*
X138865525Y-91508526D01*
X138864385Y-91493230D01*
X138862919Y-91478298D01*
X138861127Y-91463731D01*
X138859010Y-91449529D01*
X138856565Y-91435690D01*
X138853795Y-91422216D01*
X138850698Y-91409106D01*
X138847274Y-91396359D01*
X138843523Y-91383976D01*
X138839446Y-91371957D01*
X138835042Y-91360302D01*
X138830310Y-91349010D01*
X138825252Y-91338081D01*
X138819603Y-91327497D01*
X138813705Y-91317241D01*
X138807559Y-91307311D01*
X138801165Y-91297709D01*
X138794522Y-91288434D01*
X138787629Y-91279485D01*
X138780487Y-91270864D01*
X138773095Y-91262569D01*
X138765453Y-91254600D01*
X138757560Y-91246957D01*
X138749418Y-91239641D01*
X138741024Y-91232651D01*
X138732379Y-91225987D01*
X138723482Y-91219648D01*
X138714334Y-91213636D01*
X138704934Y-91207949D01*
X138695037Y-91202597D01*
X138684965Y-91197590D01*
X138674719Y-91192928D01*
X138664298Y-91188612D01*
X138653703Y-91184642D01*
X138642934Y-91181016D01*
X138631991Y-91177736D01*
X138620874Y-91174801D01*
X138609584Y-91172211D01*
X138598120Y-91169967D01*
X138586482Y-91168068D01*
X138574671Y-91166514D01*
X138562687Y-91165306D01*
X138550529Y-91164443D01*
X138538199Y-91163925D01*
X138525696Y-91163752D01*
X138508160Y-91164087D01*
X138491141Y-91165094D01*
X138474641Y-91166771D01*
X138458657Y-91169119D01*
X138443191Y-91172138D01*
X138428242Y-91175829D01*
X138413810Y-91180191D01*
X138399895Y-91185225D01*
X138386497Y-91190930D01*
X138373616Y-91197307D01*
X138361251Y-91204357D01*
X138349403Y-91212078D01*
X138338071Y-91220472D01*
X138327255Y-91229538D01*
X138316955Y-91239276D01*
X138307171Y-91249687D01*
X138297959Y-91260779D01*
X138289340Y-91272559D01*
X138281315Y-91285029D01*
X138273884Y-91298188D01*
X138267046Y-91312037D01*
X138260802Y-91326575D01*
X138255152Y-91341804D01*
X138250097Y-91357723D01*
X138245635Y-91374332D01*
X138241769Y-91391633D01*
X138238496Y-91409624D01*
X138235819Y-91428306D01*
X138233736Y-91447680D01*
X138232248Y-91467746D01*
X138231355Y-91488503D01*
X138231057Y-91509953D01*
X138231057Y-92222002D01*
X137924143Y-92222002D01*
X137924143Y-91470668D01*
X137924412Y-91446096D01*
X137925219Y-91422099D01*
X137926563Y-91398677D01*
X137928444Y-91375831D01*
X137930863Y-91353561D01*
X137933819Y-91331866D01*
X137937312Y-91310746D01*
X137941341Y-91290202D01*
X137945908Y-91270233D01*
X137951011Y-91250840D01*
X137956651Y-91232022D01*
X137962827Y-91213779D01*
X137969539Y-91196112D01*
X137976788Y-91179021D01*
X137984573Y-91162505D01*
X137992893Y-91146564D01*
X138001708Y-91130868D01*
X138010943Y-91115688D01*
X138020599Y-91101024D01*
X138030675Y-91086877D01*
X138041173Y-91073247D01*
X138052090Y-91060134D01*
X138063429Y-91047538D01*
X138075188Y-91035461D01*
X138087368Y-91023901D01*
X138099969Y-91012859D01*
X138112990Y-91002336D01*
X138126432Y-90992331D01*
X138140295Y-90982846D01*
X138154578Y-90973879D01*
X138169282Y-90965432D01*
X138184407Y-90957504D01*
X138199599Y-90950076D01*
X138215078Y-90943126D01*
X138230842Y-90936654D01*
X138246892Y-90930661D01*
X138263229Y-90925147D01*
X138279852Y-90920111D01*
X138296762Y-90915555D01*
X138313958Y-90911477D01*
X138331441Y-90907879D01*
X138349211Y-90904760D01*
X138367268Y-90902121D01*
X138385612Y-90899961D01*
X138404244Y-90898281D01*
X138423162Y-90897080D01*
X138442369Y-90896360D01*
X138461863Y-90896120D01*
X138485936Y-90896465D01*
X138509643Y-90897501D01*
X138532982Y-90899228D01*
X138555956Y-90901645D01*
X138578563Y-90904752D01*
X138600804Y-90908550D01*
X138622680Y-90913039D01*
X138644190Y-90918218D01*
X138665335Y-90924088D01*
X138686115Y-90930648D01*
X138706531Y-90937899D01*
X138726583Y-90945841D01*
X138746270Y-90954473D01*
X138765594Y-90963796D01*
X138784555Y-90973810D01*
X138803152Y-90984514D01*
X138821242Y-90995793D01*
X138838680Y-91007532D01*
X138855467Y-91019731D01*
X138871602Y-91032392D01*
X138887086Y-91045512D01*
X138901918Y-91059093D01*
X138916097Y-91073134D01*
X138929623Y-91087636D01*
X138942497Y-91102598D01*
X138952619Y-91115373D01*
X138961540Y-91101130D01*
X138973262Y-91084306D01*
X138985713Y-91068212D01*
X138998892Y-91052846D01*
X139012798Y-91038211D01*
X139027432Y-91024305D01*
X139042793Y-91011129D01*
X139058881Y-90998683D01*
X139075696Y-90986967D01*
X139092776Y-90975971D01*
X139110238Y-90965683D01*
X139128082Y-90956104D01*
X139146308Y-90947233D01*
X139164915Y-90939072D01*
X139183906Y-90931619D01*
X139203279Y-90924876D01*
X139223034Y-90918842D01*
X139243173Y-90913518D01*
X139263695Y-90908903D01*
X139284601Y-90904998D01*
X139305891Y-90901802D01*
X139327564Y-90899316D01*
X139349622Y-90897541D01*
X139372064Y-90896475D01*
X139394890Y-90896120D01*
X139415012Y-90896379D01*
G37*
G36*
X141732195Y-92222002D02*
G01*
X140443147Y-92222002D01*
X140443147Y-91954367D01*
X141413006Y-91954367D01*
X141413006Y-91480490D01*
X140583098Y-91480490D01*
X140583098Y-91217771D01*
X141413006Y-91217771D01*
X141413006Y-90770898D01*
X140477522Y-90770898D01*
X140477522Y-90503269D01*
X141732195Y-90503269D01*
X141732195Y-92222002D01*
G37*
G36*
X118207768Y-91471112D02*
G01*
X118210121Y-91494393D01*
X118211802Y-91518038D01*
X118212811Y-91542049D01*
X118213147Y-91566425D01*
X118212802Y-91590504D01*
X118211766Y-91614257D01*
X118210040Y-91637685D01*
X118207624Y-91660787D01*
X118204517Y-91683564D01*
X118200719Y-91706015D01*
X118196231Y-91728141D01*
X118191052Y-91749941D01*
X118185183Y-91771416D01*
X118178623Y-91792566D01*
X118171372Y-91813390D01*
X118163431Y-91833889D01*
X118154799Y-91854062D01*
X118145476Y-91873910D01*
X118135463Y-91893432D01*
X118124759Y-91912629D01*
X118113115Y-91931413D01*
X118100917Y-91949697D01*
X118088165Y-91967482D01*
X118074859Y-91984767D01*
X118060998Y-92001552D01*
X118046583Y-92017837D01*
X118031612Y-92033623D01*
X118016086Y-92048910D01*
X118000005Y-92063698D01*
X117983368Y-92077987D01*
X117966174Y-92091777D01*
X117948425Y-92105069D01*
X117930118Y-92117861D01*
X117911256Y-92130156D01*
X117891836Y-92141951D01*
X117871858Y-92153249D01*
X117851074Y-92163660D01*
X117829869Y-92173399D01*
X117808244Y-92182465D01*
X117786198Y-92190859D01*
X117763731Y-92198580D01*
X117740843Y-92205630D01*
X117717535Y-92212008D01*
X117693806Y-92217714D01*
X117669656Y-92222748D01*
X117645086Y-92227111D01*
X117620094Y-92230802D01*
X117594682Y-92233821D01*
X117568849Y-92236170D01*
X117542596Y-92237847D01*
X117515921Y-92238854D01*
X117488826Y-92239189D01*
X117467486Y-92238978D01*
X117446455Y-92238344D01*
X117425734Y-92237287D01*
X117405321Y-92235809D01*
X117385217Y-92233908D01*
X117365421Y-92231584D01*
X117345933Y-92228840D01*
X117326753Y-92225673D01*
X117307880Y-92222084D01*
X117289315Y-92218074D01*
X117271057Y-92213643D01*
X117253105Y-92208791D01*
X117235461Y-92203517D01*
X117218122Y-92197822D01*
X117201090Y-92191707D01*
X117184363Y-92185170D01*
X117167656Y-92177924D01*
X117151316Y-92170315D01*
X117135342Y-92162342D01*
X117119734Y-92154006D01*
X117104493Y-92145306D01*
X117089617Y-92136243D01*
X117075107Y-92126815D01*
X117060963Y-92117024D01*
X117047183Y-92106868D01*
X117033769Y-92096349D01*
X117020719Y-92085464D01*
X117008033Y-92074216D01*
X116995712Y-92062602D01*
X116983754Y-92050624D01*
X116972161Y-92038281D01*
X116960931Y-92025573D01*
X117125437Y-91836513D01*
X117134103Y-91845567D01*
X117142924Y-91854313D01*
X117151899Y-91862752D01*
X117161028Y-91870884D01*
X117170312Y-91878709D01*
X117179750Y-91886226D01*
X117189341Y-91893437D01*
X117199087Y-91900341D01*
X117208987Y-91906939D01*
X117219040Y-91913230D01*
X117229247Y-91919215D01*
X117239607Y-91924893D01*
X117250121Y-91930266D01*
X117260788Y-91935332D01*
X117271608Y-91940093D01*
X117282581Y-91944548D01*
X117293716Y-91948715D01*
X117305024Y-91952612D01*
X117316504Y-91956240D01*
X117328157Y-91959599D01*
X117339983Y-91962688D01*
X117351982Y-91965507D01*
X117364154Y-91968058D01*
X117376498Y-91970340D01*
X117389014Y-91972352D01*
X117401703Y-91974096D01*
X117414565Y-91975572D01*
X117427600Y-91976778D01*
X117454186Y-91978387D01*
X117481463Y-91978923D01*
X117497302Y-91978731D01*
X117512912Y-91978157D01*
X117528291Y-91977199D01*
X117543441Y-91975858D01*
X117558361Y-91974133D01*
X117573051Y-91972025D01*
X117587511Y-91969533D01*
X117601742Y-91966657D01*
X117615744Y-91963397D01*
X117629517Y-91959753D01*
X117643061Y-91955725D01*
X117656376Y-91951313D01*
X117669463Y-91946516D01*
X117682320Y-91941334D01*
X117694950Y-91935768D01*
X117707351Y-91929816D01*
X117719450Y-91923510D01*
X117731204Y-91916878D01*
X117742613Y-91909920D01*
X117753677Y-91902637D01*
X117764396Y-91895029D01*
X117774770Y-91887095D01*
X117784799Y-91878836D01*
X117794485Y-91870252D01*
X117803825Y-91861342D01*
X117812822Y-91852106D01*
X117821475Y-91842546D01*
X117829784Y-91832660D01*
X117837749Y-91822448D01*
X117845370Y-91811911D01*
X117852648Y-91801048D01*
X117859583Y-91789860D01*
X117866120Y-91778404D01*
X117872236Y-91766735D01*
X117877931Y-91754855D01*
X117883205Y-91742762D01*
X117888058Y-91730457D01*
X117892489Y-91717941D01*
X117896499Y-91705213D01*
X117900087Y-91692274D01*
X117903254Y-91679123D01*
X117905998Y-91665761D01*
X117906190Y-91664638D01*
X116877449Y-91664638D01*
X116876857Y-91659075D01*
X116876351Y-91653433D01*
X116875927Y-91647714D01*
X116875586Y-91641917D01*
X116875323Y-91636046D01*
X116875138Y-91630099D01*
X116875029Y-91624080D01*
X116874993Y-91617988D01*
X116874401Y-91611936D01*
X116873894Y-91606034D01*
X116873471Y-91600284D01*
X116873130Y-91594684D01*
X116872867Y-91589235D01*
X116872682Y-91583936D01*
X116872573Y-91578788D01*
X116872537Y-91573791D01*
X116872872Y-91548222D01*
X116873879Y-91523075D01*
X116875556Y-91498350D01*
X116877904Y-91474048D01*
X116879573Y-91460847D01*
X117162815Y-91460847D01*
X117908939Y-91460847D01*
X117907033Y-91448156D01*
X117904662Y-91435046D01*
X117901927Y-91422186D01*
X117898827Y-91409575D01*
X117895364Y-91397212D01*
X117891537Y-91385099D01*
X117887345Y-91373234D01*
X117882791Y-91361618D01*
X117877873Y-91350250D01*
X117872591Y-91339130D01*
X117866946Y-91328259D01*
X117860669Y-91317364D01*
X117854124Y-91306776D01*
X117847311Y-91296495D01*
X117840230Y-91286522D01*
X117832881Y-91276856D01*
X117825265Y-91267497D01*
X117817380Y-91258445D01*
X117809228Y-91249699D01*
X117800807Y-91241260D01*
X117792119Y-91233128D01*
X117783163Y-91225302D01*
X117773939Y-91217782D01*
X117764447Y-91210568D01*
X117754687Y-91203660D01*
X117744659Y-91197058D01*
X117734363Y-91190761D01*
X117723511Y-91184810D01*
X117712447Y-91179244D01*
X117701174Y-91174062D01*
X117689690Y-91169265D01*
X117677996Y-91164852D01*
X117666091Y-91160824D01*
X117653977Y-91157180D01*
X117641651Y-91153920D01*
X117629116Y-91151043D01*
X117616370Y-91148551D01*
X117603414Y-91146443D01*
X117590248Y-91144718D01*
X117576871Y-91143377D01*
X117563285Y-91142419D01*
X117549488Y-91141844D01*
X117535481Y-91141652D01*
X117521775Y-91141844D01*
X117508279Y-91142419D01*
X117494993Y-91143377D01*
X117481919Y-91144718D01*
X117469055Y-91146443D01*
X117456402Y-91148551D01*
X117443961Y-91151043D01*
X117431730Y-91153920D01*
X117419711Y-91157180D01*
X117407903Y-91160824D01*
X117396307Y-91164852D01*
X117384923Y-91169265D01*
X117373751Y-91174062D01*
X117362791Y-91179244D01*
X117352043Y-91184810D01*
X117341507Y-91190761D01*
X117330903Y-91197048D01*
X117320588Y-91203620D01*
X117310560Y-91210479D01*
X117300821Y-91217625D01*
X117291370Y-91225057D01*
X117282207Y-91232776D01*
X117273333Y-91240782D01*
X117264747Y-91249076D01*
X117256450Y-91257657D01*
X117248442Y-91266527D01*
X117240722Y-91275685D01*
X117233292Y-91285131D01*
X117226151Y-91294866D01*
X117219299Y-91304890D01*
X117212736Y-91315203D01*
X117206463Y-91325805D01*
X117200521Y-91336658D01*
X117194982Y-91347721D01*
X117189846Y-91358994D01*
X117185113Y-91370477D01*
X117180784Y-91382171D01*
X117176857Y-91394075D01*
X117173335Y-91406189D01*
X117170216Y-91418514D01*
X117167501Y-91431049D01*
X117165189Y-91443795D01*
X117163282Y-91456751D01*
X117162815Y-91460847D01*
X116879573Y-91460847D01*
X116880924Y-91450167D01*
X116884615Y-91426709D01*
X116888977Y-91403673D01*
X116894011Y-91381059D01*
X116899717Y-91358866D01*
X116906094Y-91337094D01*
X116913144Y-91315744D01*
X116920865Y-91294816D01*
X116929259Y-91274308D01*
X116938325Y-91254222D01*
X116948063Y-91234557D01*
X116958474Y-91215312D01*
X116969456Y-91196547D01*
X116980938Y-91178320D01*
X116992920Y-91160631D01*
X117005402Y-91143479D01*
X117018384Y-91126865D01*
X117031865Y-91110789D01*
X117045847Y-91095250D01*
X117060329Y-91080249D01*
X117075311Y-91065786D01*
X117090793Y-91051861D01*
X117106775Y-91038474D01*
X117123258Y-91025624D01*
X117140240Y-91013312D01*
X117157722Y-91001537D01*
X117175705Y-90990301D01*
X117194187Y-90979602D01*
X117213067Y-90969497D01*
X117232275Y-90960044D01*
X117251809Y-90951242D01*
X117271671Y-90943091D01*
X117291860Y-90935591D01*
X117312376Y-90928743D01*
X117333219Y-90922546D01*
X117354388Y-90917002D01*
X117375884Y-90912108D01*
X117397706Y-90907867D01*
X117419854Y-90904279D01*
X117442328Y-90901342D01*
X117465128Y-90899058D01*
X117488254Y-90897426D01*
X117511705Y-90896447D01*
X117535481Y-90896120D01*
X117559861Y-90896456D01*
X117583918Y-90897462D01*
X117607650Y-90899139D01*
X117631059Y-90901487D01*
X117654143Y-90904507D01*
X117676902Y-90908198D01*
X117699337Y-90912560D01*
X117721447Y-90917594D01*
X117743231Y-90923300D01*
X117764690Y-90929677D01*
X117785823Y-90936727D01*
X117806629Y-90944448D01*
X117827110Y-90952842D01*
X117847263Y-90961908D01*
X117867090Y-90971647D01*
X117886590Y-90982058D01*
X117905360Y-90993063D01*
X117923634Y-91004585D01*
X117941411Y-91016622D01*
X117958691Y-91029177D01*
X117975474Y-91042249D01*
X117991760Y-91055837D01*
X118007549Y-91069943D01*
X118022839Y-91084567D01*
X118037631Y-91099709D01*
X118051925Y-91115369D01*
X118065721Y-91131547D01*
X118079017Y-91148244D01*
X118091815Y-91165460D01*
X118104113Y-91183195D01*
X118115911Y-91201450D01*
X118127210Y-91220224D01*
X118137607Y-91239123D01*
X118147336Y-91258388D01*
X118156395Y-91278017D01*
X118164784Y-91298011D01*
X118172504Y-91318371D01*
X118179554Y-91339096D01*
X118185933Y-91360186D01*
X118191642Y-91381641D01*
X118196680Y-91403461D01*
X118201048Y-91425646D01*
X118204744Y-91448197D01*
X118206414Y-91460847D01*
X118207768Y-91471112D01*
G37*
G36*
X119735173Y-91471112D02*
G01*
X119737521Y-91494393D01*
X119739198Y-91518038D01*
X119740204Y-91542049D01*
X119740540Y-91566425D01*
X119740195Y-91590504D01*
X119739159Y-91614257D01*
X119737432Y-91637685D01*
X119735015Y-91660787D01*
X119731907Y-91683564D01*
X119728109Y-91706015D01*
X119723620Y-91728141D01*
X119718440Y-91749941D01*
X119712570Y-91771416D01*
X119706010Y-91792566D01*
X119698759Y-91813390D01*
X119690817Y-91833889D01*
X119682185Y-91854062D01*
X119672863Y-91873910D01*
X119662850Y-91893432D01*
X119652146Y-91912629D01*
X119640517Y-91931413D01*
X119628330Y-91949697D01*
X119615586Y-91967482D01*
X119602284Y-91984767D01*
X119588426Y-92001552D01*
X119574010Y-92017837D01*
X119559038Y-92033623D01*
X119543509Y-92048910D01*
X119527423Y-92063698D01*
X119510781Y-92077987D01*
X119493582Y-92091777D01*
X119475827Y-92105069D01*
X119457516Y-92117861D01*
X119438648Y-92130156D01*
X119419225Y-92141951D01*
X119399246Y-92153249D01*
X119378476Y-92163660D01*
X119357284Y-92173399D01*
X119335669Y-92182465D01*
X119313631Y-92190859D01*
X119291171Y-92198580D01*
X119268288Y-92205630D01*
X119244982Y-92212008D01*
X119221254Y-92217714D01*
X119197103Y-92222748D01*
X119172529Y-92227111D01*
X119147533Y-92230802D01*
X119122114Y-92233821D01*
X119096273Y-92236170D01*
X119070009Y-92237847D01*
X119043323Y-92238854D01*
X119016214Y-92239189D01*
X118994887Y-92238978D01*
X118973867Y-92238344D01*
X118953152Y-92237287D01*
X118932744Y-92235809D01*
X118912641Y-92233908D01*
X118892845Y-92231584D01*
X118873355Y-92228840D01*
X118854172Y-92225673D01*
X118835296Y-92222084D01*
X118816726Y-92218074D01*
X118798463Y-92213643D01*
X118780507Y-92208791D01*
X118762858Y-92203517D01*
X118745517Y-92197822D01*
X118728482Y-92191707D01*
X118711756Y-92185170D01*
X118695061Y-92177924D01*
X118678731Y-92170315D01*
X118662763Y-92162342D01*
X118647159Y-92154006D01*
X118631919Y-92145306D01*
X118617043Y-92136243D01*
X118602531Y-92126815D01*
X118588382Y-92117024D01*
X118574598Y-92106868D01*
X118561179Y-92096349D01*
X118548123Y-92085464D01*
X118535433Y-92074216D01*
X118523107Y-92062602D01*
X118511146Y-92050624D01*
X118499549Y-92038281D01*
X118488318Y-92025573D01*
X118652825Y-91836513D01*
X118661491Y-91845567D01*
X118670311Y-91854313D01*
X118679286Y-91862752D01*
X118688416Y-91870884D01*
X118697699Y-91878709D01*
X118707137Y-91886226D01*
X118716729Y-91893437D01*
X118726474Y-91900341D01*
X118736374Y-91906939D01*
X118746427Y-91913230D01*
X118756633Y-91919215D01*
X118766993Y-91924893D01*
X118777506Y-91930266D01*
X118788172Y-91935332D01*
X118798992Y-91940093D01*
X118809964Y-91944548D01*
X118821099Y-91948715D01*
X118832408Y-91952612D01*
X118843889Y-91956240D01*
X118855542Y-91959599D01*
X118867368Y-91962688D01*
X118879367Y-91965507D01*
X118891538Y-91968058D01*
X118903882Y-91970340D01*
X118916399Y-91972352D01*
X118929088Y-91974096D01*
X118941949Y-91975572D01*
X118954983Y-91976778D01*
X118981569Y-91978387D01*
X119008846Y-91978923D01*
X119024686Y-91978731D01*
X119040299Y-91978157D01*
X119055682Y-91977199D01*
X119070837Y-91975858D01*
X119085762Y-91974133D01*
X119100458Y-91972025D01*
X119114924Y-91969533D01*
X119129160Y-91966657D01*
X119143166Y-91963397D01*
X119156942Y-91959753D01*
X119170486Y-91955725D01*
X119183800Y-91951313D01*
X119196882Y-91946516D01*
X119209733Y-91941334D01*
X119222352Y-91935768D01*
X119234739Y-91929816D01*
X119246838Y-91923510D01*
X119258594Y-91916878D01*
X119270006Y-91909920D01*
X119281075Y-91902637D01*
X119291799Y-91895029D01*
X119302179Y-91887095D01*
X119312213Y-91878836D01*
X119321903Y-91870252D01*
X119331248Y-91861342D01*
X119340247Y-91852106D01*
X119348901Y-91842546D01*
X119357208Y-91832660D01*
X119365169Y-91822448D01*
X119372783Y-91811911D01*
X119380050Y-91801048D01*
X119386971Y-91789860D01*
X119393507Y-91778404D01*
X119399622Y-91766735D01*
X119405317Y-91754855D01*
X119410591Y-91742762D01*
X119415443Y-91730457D01*
X119419875Y-91717941D01*
X119423884Y-91705213D01*
X119427473Y-91692274D01*
X119430640Y-91679123D01*
X119433385Y-91665761D01*
X119433577Y-91664638D01*
X118404837Y-91664638D01*
X118404269Y-91659075D01*
X118403773Y-91653433D01*
X118403352Y-91647714D01*
X118403004Y-91641917D01*
X118402733Y-91636046D01*
X118402538Y-91630099D01*
X118402420Y-91624080D01*
X118402381Y-91617988D01*
X118401813Y-91611936D01*
X118401317Y-91606034D01*
X118400895Y-91600284D01*
X118400548Y-91594684D01*
X118400277Y-91589235D01*
X118400082Y-91583936D01*
X118399964Y-91578788D01*
X118399925Y-91573791D01*
X118400260Y-91548222D01*
X118401266Y-91523075D01*
X118402944Y-91498350D01*
X118405292Y-91474048D01*
X118406961Y-91460847D01*
X118690238Y-91460847D01*
X119436327Y-91460847D01*
X119434420Y-91448156D01*
X119432050Y-91435046D01*
X119429314Y-91422186D01*
X119426215Y-91409575D01*
X119422751Y-91397212D01*
X119418924Y-91385099D01*
X119414733Y-91373234D01*
X119410178Y-91361618D01*
X119405260Y-91350250D01*
X119399979Y-91339130D01*
X119394334Y-91328259D01*
X119388057Y-91317364D01*
X119381511Y-91306776D01*
X119374698Y-91296495D01*
X119367617Y-91286522D01*
X119360268Y-91276856D01*
X119352651Y-91267497D01*
X119344766Y-91258445D01*
X119336613Y-91249699D01*
X119328192Y-91241260D01*
X119319503Y-91233128D01*
X119310547Y-91225302D01*
X119301322Y-91217782D01*
X119291830Y-91210568D01*
X119282070Y-91203660D01*
X119272042Y-91197058D01*
X119261746Y-91190761D01*
X119250893Y-91184810D01*
X119239830Y-91179244D01*
X119228557Y-91174062D01*
X119217074Y-91169265D01*
X119205380Y-91164852D01*
X119193476Y-91160824D01*
X119181361Y-91157180D01*
X119169036Y-91153920D01*
X119156501Y-91151043D01*
X119143755Y-91148551D01*
X119130799Y-91146443D01*
X119117633Y-91144718D01*
X119104256Y-91143377D01*
X119090669Y-91142419D01*
X119076872Y-91141844D01*
X119062864Y-91141652D01*
X119049159Y-91141844D01*
X119035663Y-91142419D01*
X119022379Y-91143377D01*
X119009305Y-91144718D01*
X118996442Y-91146443D01*
X118983790Y-91148551D01*
X118971349Y-91151043D01*
X118959119Y-91153920D01*
X118947100Y-91157180D01*
X118935293Y-91160824D01*
X118923697Y-91164852D01*
X118912313Y-91169265D01*
X118901140Y-91174062D01*
X118890180Y-91179244D01*
X118879431Y-91184810D01*
X118868894Y-91190761D01*
X118858292Y-91197048D01*
X118847979Y-91203620D01*
X118837955Y-91210479D01*
X118828220Y-91217625D01*
X118818773Y-91225057D01*
X118809615Y-91232776D01*
X118800746Y-91240782D01*
X118792164Y-91249076D01*
X118783870Y-91257657D01*
X118775864Y-91266527D01*
X118768145Y-91275685D01*
X118760713Y-91285131D01*
X118753567Y-91294866D01*
X118746709Y-91304890D01*
X118740137Y-91315203D01*
X118733850Y-91325805D01*
X118727909Y-91336658D01*
X118722372Y-91347721D01*
X118717239Y-91358994D01*
X118712510Y-91370477D01*
X118708186Y-91382171D01*
X118704265Y-91394075D01*
X118700747Y-91406189D01*
X118697633Y-91418514D01*
X118694921Y-91431049D01*
X118692612Y-91443795D01*
X118690706Y-91456751D01*
X118690238Y-91460847D01*
X118406961Y-91460847D01*
X118408311Y-91450167D01*
X118412002Y-91426709D01*
X118416365Y-91403673D01*
X118421399Y-91381059D01*
X118427104Y-91358866D01*
X118433482Y-91337094D01*
X118440531Y-91315744D01*
X118448253Y-91294816D01*
X118456647Y-91274308D01*
X118465713Y-91254222D01*
X118475451Y-91234557D01*
X118485862Y-91215312D01*
X118496859Y-91196547D01*
X118508353Y-91178320D01*
X118520346Y-91160631D01*
X118532836Y-91143479D01*
X118545825Y-91126865D01*
X118559312Y-91110789D01*
X118573296Y-91095250D01*
X118587779Y-91080249D01*
X118602760Y-91065786D01*
X118618239Y-91051861D01*
X118634217Y-91038474D01*
X118650692Y-91025624D01*
X118667666Y-91013312D01*
X118685137Y-91001537D01*
X118703107Y-90990301D01*
X118721575Y-90979602D01*
X118740455Y-90969497D01*
X118759662Y-90960044D01*
X118779197Y-90951242D01*
X118799058Y-90943091D01*
X118819247Y-90935591D01*
X118839762Y-90928743D01*
X118860605Y-90922546D01*
X118881773Y-90917002D01*
X118903269Y-90912108D01*
X118925090Y-90907867D01*
X118947238Y-90904279D01*
X118969712Y-90901342D01*
X118992511Y-90899058D01*
X119015637Y-90897426D01*
X119039088Y-90896447D01*
X119062864Y-90896120D01*
X119087259Y-90896456D01*
X119111327Y-90897462D01*
X119135068Y-90899139D01*
X119158482Y-90901487D01*
X119181569Y-90904507D01*
X119204329Y-90908198D01*
X119226762Y-90912560D01*
X119248869Y-90917594D01*
X119270649Y-90923300D01*
X119292103Y-90929677D01*
X119313230Y-90936727D01*
X119334031Y-90944448D01*
X119354507Y-90952842D01*
X119374656Y-90961908D01*
X119394480Y-90971647D01*
X119413977Y-90982058D01*
X119432762Y-90993063D01*
X119451047Y-91004585D01*
X119468831Y-91016622D01*
X119486116Y-91029177D01*
X119502901Y-91042249D01*
X119519187Y-91055837D01*
X119534973Y-91069943D01*
X119550260Y-91084567D01*
X119565048Y-91099709D01*
X119579337Y-91115369D01*
X119593128Y-91131547D01*
X119606419Y-91148244D01*
X119619213Y-91165460D01*
X119631507Y-91183195D01*
X119643304Y-91201450D01*
X119654602Y-91220224D01*
X119665013Y-91239123D01*
X119674752Y-91258388D01*
X119683818Y-91278017D01*
X119692212Y-91298011D01*
X119699933Y-91318371D01*
X119706983Y-91339096D01*
X119713360Y-91360186D01*
X119719066Y-91381641D01*
X119724100Y-91403461D01*
X119728462Y-91425646D01*
X119732153Y-91448197D01*
X119733820Y-91460847D01*
X119735173Y-91471112D01*
G37*
G36*
X129530374Y-91591694D02*
G01*
X129529366Y-91616539D01*
X129527685Y-91640962D01*
X129525332Y-91664962D01*
X129522307Y-91688540D01*
X129518611Y-91711694D01*
X129514244Y-91734427D01*
X129509206Y-91756736D01*
X129503497Y-91778623D01*
X129497117Y-91800087D01*
X129490067Y-91821128D01*
X129482348Y-91841747D01*
X129473958Y-91861943D01*
X129464899Y-91881716D01*
X129455171Y-91901067D01*
X129444773Y-91919995D01*
X129433777Y-91938462D01*
X129422282Y-91956432D01*
X129410290Y-91973903D01*
X129397799Y-91990877D01*
X129384811Y-92007352D01*
X129371324Y-92023329D01*
X129357339Y-92038808D01*
X129342856Y-92053790D01*
X129327875Y-92068273D01*
X129312396Y-92082258D01*
X129296419Y-92095744D01*
X129279943Y-92108733D01*
X129262970Y-92121224D01*
X129245498Y-92133217D01*
X129227528Y-92144711D01*
X129209060Y-92155708D01*
X129189883Y-92165812D01*
X129170418Y-92175265D01*
X129150665Y-92184067D01*
X129130625Y-92192218D01*
X129110297Y-92199718D01*
X129089683Y-92206566D01*
X129068781Y-92212763D01*
X129047593Y-92218308D01*
X129026118Y-92223201D01*
X129004356Y-92227442D01*
X128982308Y-92231031D01*
X128959973Y-92233967D01*
X128937352Y-92236252D01*
X128914444Y-92237883D01*
X128891251Y-92238863D01*
X128867771Y-92239189D01*
X128846747Y-92238901D01*
X128826029Y-92238038D01*
X128805616Y-92236599D01*
X128785510Y-92234585D01*
X128765711Y-92231995D01*
X128746218Y-92228830D01*
X128727032Y-92225089D01*
X128708154Y-92220773D01*
X128689583Y-92215882D01*
X128671320Y-92210415D01*
X128653365Y-92204372D01*
X128635719Y-92197754D01*
X128618381Y-92190561D01*
X128601352Y-92182793D01*
X128584631Y-92174449D01*
X128568221Y-92165529D01*
X128552170Y-92156034D01*
X128536562Y-92145963D01*
X128521396Y-92135316D01*
X128506672Y-92124094D01*
X128492390Y-92112297D01*
X128478550Y-92099924D01*
X128465152Y-92086976D01*
X128452196Y-92073453D01*
X128439681Y-92059354D01*
X128433177Y-92051448D01*
X128433177Y-92222002D01*
X128140994Y-92222002D01*
X128140994Y-91566425D01*
X128440545Y-91566425D01*
X128440755Y-91581954D01*
X128441386Y-91597232D01*
X128442439Y-91612260D01*
X128443913Y-91627039D01*
X128445809Y-91641568D01*
X128448126Y-91655847D01*
X128450866Y-91669878D01*
X128454028Y-91683659D01*
X128457613Y-91697191D01*
X128461621Y-91710474D01*
X128466052Y-91723509D01*
X128470906Y-91736294D01*
X128476184Y-91748831D01*
X128481886Y-91761120D01*
X128488013Y-91773161D01*
X128494563Y-91784953D01*
X128501152Y-91796447D01*
X128508029Y-91807594D01*
X128515194Y-91818394D01*
X128522646Y-91828848D01*
X128530385Y-91838956D01*
X128538413Y-91848718D01*
X128546728Y-91858134D01*
X128555331Y-91867204D01*
X128564222Y-91875930D01*
X128573401Y-91884310D01*
X128582867Y-91892346D01*
X128592622Y-91900037D01*
X128602664Y-91907383D01*
X128612995Y-91914386D01*
X128623613Y-91921045D01*
X128634519Y-91927360D01*
X128645347Y-91933312D01*
X128656370Y-91938878D01*
X128667586Y-91944059D01*
X128678996Y-91948856D01*
X128690599Y-91953269D01*
X128702396Y-91957297D01*
X128714386Y-91960941D01*
X128726568Y-91964201D01*
X128738943Y-91967077D01*
X128751511Y-91969569D01*
X128764270Y-91971677D01*
X128777221Y-91973402D01*
X128790364Y-91974743D01*
X128803699Y-91975701D01*
X128817224Y-91976275D01*
X128830940Y-91976467D01*
X128844666Y-91976275D01*
X128858220Y-91975701D01*
X128871600Y-91974743D01*
X128884807Y-91973402D01*
X128897842Y-91971677D01*
X128910704Y-91969569D01*
X128923393Y-91967077D01*
X128935909Y-91964201D01*
X128948253Y-91960941D01*
X128960423Y-91957297D01*
X128972422Y-91953269D01*
X128984247Y-91948856D01*
X128995900Y-91944059D01*
X129007380Y-91938878D01*
X129018687Y-91933312D01*
X129029822Y-91927360D01*
X129040430Y-91921045D01*
X129050790Y-91914386D01*
X129060902Y-91907383D01*
X129070765Y-91900037D01*
X129080381Y-91892346D01*
X129089749Y-91884310D01*
X129098868Y-91875930D01*
X129107740Y-91867204D01*
X129116363Y-91858134D01*
X129124738Y-91848718D01*
X129132865Y-91838956D01*
X129140744Y-91828848D01*
X129148375Y-91818394D01*
X129155758Y-91807594D01*
X129162892Y-91796447D01*
X129169778Y-91784953D01*
X129176022Y-91773161D01*
X129181863Y-91761120D01*
X129187301Y-91748831D01*
X129192337Y-91736294D01*
X129196969Y-91723509D01*
X129201199Y-91710474D01*
X129205026Y-91697191D01*
X129208450Y-91683659D01*
X129211471Y-91669878D01*
X129214090Y-91655847D01*
X129216305Y-91641568D01*
X129218118Y-91627039D01*
X129219528Y-91612260D01*
X129220535Y-91597232D01*
X129221139Y-91581954D01*
X129221341Y-91566425D01*
X129221139Y-91550614D01*
X129220535Y-91535089D01*
X129219528Y-91519850D01*
X129218118Y-91504897D01*
X129216305Y-91490231D01*
X129214090Y-91475852D01*
X129211471Y-91461761D01*
X129208450Y-91447956D01*
X129205026Y-91434440D01*
X129201199Y-91421211D01*
X129196969Y-91408271D01*
X129192337Y-91395619D01*
X129187301Y-91383256D01*
X129181863Y-91371182D01*
X129176022Y-91359397D01*
X129169778Y-91347902D01*
X129162892Y-91336408D01*
X129155758Y-91325261D01*
X129148375Y-91314460D01*
X129140744Y-91304006D01*
X129132865Y-91293898D01*
X129124738Y-91284136D01*
X129116363Y-91274719D01*
X129107740Y-91265649D01*
X129098868Y-91256923D01*
X129089749Y-91248543D01*
X129080381Y-91240507D01*
X129070765Y-91232815D01*
X129060902Y-91225468D01*
X129050790Y-91218465D01*
X129040430Y-91211806D01*
X129029822Y-91205490D01*
X129018687Y-91199540D01*
X129007380Y-91193974D01*
X128995900Y-91188792D01*
X128984247Y-91183996D01*
X128972422Y-91179583D01*
X128960423Y-91175555D01*
X128948253Y-91171912D01*
X128935909Y-91168652D01*
X128923393Y-91165776D01*
X128910704Y-91163284D01*
X128897842Y-91161176D01*
X128884807Y-91159451D01*
X128871600Y-91158110D01*
X128858220Y-91157152D01*
X128844666Y-91156578D01*
X128830940Y-91156386D01*
X128817224Y-91156578D01*
X128803699Y-91157152D01*
X128790364Y-91158110D01*
X128777221Y-91159451D01*
X128764270Y-91161176D01*
X128751511Y-91163284D01*
X128738943Y-91165776D01*
X128726568Y-91168652D01*
X128714386Y-91171912D01*
X128702396Y-91175555D01*
X128690599Y-91179583D01*
X128678996Y-91183996D01*
X128667586Y-91188792D01*
X128656370Y-91193974D01*
X128645347Y-91199540D01*
X128634519Y-91205490D01*
X128623613Y-91211806D01*
X128612995Y-91218465D01*
X128602664Y-91225468D01*
X128592622Y-91232815D01*
X128582867Y-91240507D01*
X128573401Y-91248543D01*
X128564222Y-91256923D01*
X128555331Y-91265649D01*
X128546728Y-91274719D01*
X128538413Y-91284136D01*
X128530385Y-91293898D01*
X128522646Y-91304006D01*
X128515194Y-91314460D01*
X128508029Y-91325261D01*
X128501152Y-91336408D01*
X128494563Y-91347902D01*
X128488013Y-91359397D01*
X128481886Y-91371182D01*
X128476184Y-91383256D01*
X128470906Y-91395619D01*
X128466052Y-91408271D01*
X128461621Y-91421211D01*
X128457613Y-91434440D01*
X128454028Y-91447956D01*
X128450866Y-91461761D01*
X128448126Y-91475852D01*
X128445809Y-91490231D01*
X128443913Y-91504897D01*
X128442439Y-91519850D01*
X128441386Y-91535089D01*
X128440755Y-91550614D01*
X128440545Y-91566425D01*
X128140994Y-91566425D01*
X128140994Y-90400144D01*
X128445457Y-90400144D01*
X128445457Y-91072160D01*
X128456484Y-91060024D01*
X128469586Y-91046665D01*
X128483110Y-91033899D01*
X128497057Y-91021728D01*
X128511427Y-91010151D01*
X128526220Y-90999168D01*
X128541435Y-90988778D01*
X128557072Y-90978982D01*
X128573133Y-90969780D01*
X128589523Y-90960860D01*
X128606183Y-90952516D01*
X128623113Y-90944747D01*
X128640314Y-90937554D01*
X128657784Y-90930936D01*
X128675524Y-90924893D01*
X128693535Y-90919427D01*
X128711815Y-90914535D01*
X128730365Y-90910219D01*
X128749185Y-90906479D01*
X128768275Y-90903313D01*
X128787635Y-90900724D01*
X128807264Y-90898710D01*
X128827163Y-90897271D01*
X128847332Y-90896408D01*
X128867771Y-90896120D01*
X128891251Y-90896447D01*
X128914444Y-90897426D01*
X128937352Y-90899058D01*
X128959973Y-90901342D01*
X128982308Y-90904279D01*
X129004356Y-90907867D01*
X129026118Y-90912108D01*
X129047593Y-90917002D01*
X129068781Y-90922546D01*
X129089683Y-90928743D01*
X129110297Y-90935591D01*
X129130625Y-90943091D01*
X129150665Y-90951242D01*
X129170418Y-90960044D01*
X129189883Y-90969497D01*
X129209060Y-90979602D01*
X129227528Y-90990292D01*
X129245498Y-91001501D01*
X129262970Y-91013230D01*
X129279943Y-91025478D01*
X129296419Y-91038245D01*
X129312396Y-91051531D01*
X129327875Y-91065335D01*
X129342856Y-91079657D01*
X129357339Y-91094497D01*
X129371324Y-91109855D01*
X129384811Y-91125730D01*
X129397799Y-91142122D01*
X129410290Y-91159032D01*
X129422282Y-91176458D01*
X129433777Y-91194400D01*
X129444773Y-91212858D01*
X129455171Y-91231786D01*
X129464899Y-91251137D01*
X129473958Y-91270910D01*
X129482348Y-91291106D01*
X129490067Y-91311725D01*
X129497117Y-91332766D01*
X129503497Y-91354230D01*
X129509206Y-91376117D01*
X129514244Y-91398426D01*
X129518611Y-91421158D01*
X129522307Y-91444313D01*
X129525332Y-91467890D01*
X129527685Y-91491890D01*
X129529366Y-91516312D01*
X129530374Y-91541158D01*
X129530711Y-91566425D01*
X129530374Y-91591694D01*
G37*
G36*
X131052724Y-91471112D02*
G01*
X131055077Y-91494393D01*
X131056758Y-91518038D01*
X131057767Y-91542049D01*
X131058103Y-91566425D01*
X131057758Y-91590504D01*
X131056722Y-91614257D01*
X131054995Y-91637685D01*
X131052578Y-91660787D01*
X131049471Y-91683564D01*
X131045672Y-91706015D01*
X131041183Y-91728141D01*
X131036004Y-91749941D01*
X131030134Y-91771416D01*
X131023573Y-91792566D01*
X131016322Y-91813390D01*
X131008381Y-91833889D01*
X130999749Y-91854062D01*
X130990426Y-91873910D01*
X130980413Y-91893432D01*
X130969710Y-91912629D01*
X130958066Y-91931413D01*
X130945868Y-91949697D01*
X130933117Y-91967482D01*
X130919811Y-91984767D01*
X130905950Y-92001552D01*
X130891535Y-92017837D01*
X130876565Y-92033623D01*
X130861039Y-92048910D01*
X130844958Y-92063698D01*
X130828321Y-92077987D01*
X130811128Y-92091777D01*
X130793378Y-92105069D01*
X130775071Y-92117861D01*
X130756208Y-92130156D01*
X130736788Y-92141951D01*
X130716809Y-92153249D01*
X130696024Y-92163660D01*
X130674819Y-92173399D01*
X130653193Y-92182465D01*
X130631146Y-92190859D01*
X130608679Y-92198580D01*
X130585791Y-92205630D01*
X130562482Y-92212008D01*
X130538753Y-92217714D01*
X130514603Y-92222748D01*
X130490032Y-92227111D01*
X130465041Y-92230802D01*
X130439628Y-92233821D01*
X130413796Y-92236170D01*
X130387542Y-92237847D01*
X130360868Y-92238854D01*
X130333772Y-92239189D01*
X130312433Y-92238978D01*
X130291403Y-92238344D01*
X130270682Y-92237287D01*
X130250269Y-92235809D01*
X130230165Y-92233908D01*
X130210369Y-92231584D01*
X130190881Y-92228840D01*
X130171701Y-92225673D01*
X130152829Y-92222084D01*
X130134264Y-92218074D01*
X130116006Y-92213643D01*
X130098054Y-92208791D01*
X130080410Y-92203517D01*
X130063072Y-92197822D01*
X130046040Y-92191707D01*
X130029314Y-92185170D01*
X130012607Y-92177924D01*
X129996267Y-92170315D01*
X129980293Y-92162342D01*
X129964685Y-92154006D01*
X129949443Y-92145306D01*
X129934567Y-92136243D01*
X129920057Y-92126815D01*
X129905912Y-92117024D01*
X129892132Y-92106868D01*
X129878717Y-92096349D01*
X129865666Y-92085464D01*
X129852980Y-92074216D01*
X129840659Y-92062602D01*
X129828701Y-92050624D01*
X129817107Y-92038281D01*
X129805877Y-92025573D01*
X129970384Y-91836513D01*
X129979050Y-91845567D01*
X129987870Y-91854313D01*
X129996845Y-91862752D01*
X130005975Y-91870884D01*
X130015259Y-91878709D01*
X130024697Y-91886226D01*
X130034289Y-91893437D01*
X130044035Y-91900341D01*
X130053935Y-91906939D01*
X130063989Y-91913230D01*
X130074195Y-91919215D01*
X130084556Y-91924893D01*
X130095069Y-91930266D01*
X130105736Y-91935332D01*
X130116555Y-91940093D01*
X130127527Y-91944548D01*
X130138662Y-91948715D01*
X130149970Y-91952612D01*
X130161450Y-91956240D01*
X130173104Y-91959599D01*
X130184930Y-91962688D01*
X130196928Y-91965507D01*
X130209100Y-91968058D01*
X130221444Y-91970340D01*
X130233960Y-91972352D01*
X130246650Y-91974096D01*
X130259512Y-91975572D01*
X130272546Y-91976778D01*
X130299133Y-91978387D01*
X130326409Y-91978923D01*
X130342249Y-91978731D01*
X130357858Y-91978157D01*
X130373238Y-91977199D01*
X130388387Y-91975858D01*
X130403307Y-91974133D01*
X130417997Y-91972025D01*
X130432458Y-91969533D01*
X130446689Y-91966657D01*
X130460691Y-91963397D01*
X130474465Y-91959753D01*
X130488009Y-91955725D01*
X130501324Y-91951313D01*
X130514411Y-91946516D01*
X130527270Y-91941334D01*
X130539900Y-91935768D01*
X130552303Y-91929816D01*
X130564401Y-91923510D01*
X130576154Y-91916878D01*
X130587562Y-91909920D01*
X130598625Y-91902637D01*
X130609343Y-91895029D01*
X130619717Y-91887095D01*
X130629747Y-91878836D01*
X130639431Y-91870252D01*
X130648772Y-91861342D01*
X130657769Y-91852106D01*
X130666421Y-91842546D01*
X130674730Y-91832660D01*
X130682695Y-91822448D01*
X130690317Y-91811911D01*
X130697595Y-91801048D01*
X130704529Y-91789860D01*
X130711066Y-91778404D01*
X130717182Y-91766735D01*
X130722877Y-91754855D01*
X130728151Y-91742762D01*
X130733004Y-91730457D01*
X130737435Y-91717941D01*
X130741445Y-91705213D01*
X130745033Y-91692274D01*
X130748200Y-91679123D01*
X130750944Y-91665761D01*
X130751137Y-91664638D01*
X129722400Y-91664638D01*
X129721808Y-91659075D01*
X129721301Y-91653433D01*
X129720877Y-91647714D01*
X129720534Y-91641917D01*
X129720271Y-91636046D01*
X129720086Y-91630099D01*
X129719976Y-91624080D01*
X129719939Y-91617988D01*
X129719349Y-91611936D01*
X129718843Y-91606034D01*
X129718420Y-91600284D01*
X129718078Y-91594684D01*
X129717815Y-91589235D01*
X129717629Y-91583936D01*
X129717519Y-91578788D01*
X129717483Y-91573791D01*
X129717819Y-91548222D01*
X129718825Y-91523075D01*
X129720503Y-91498350D01*
X129722851Y-91474048D01*
X129724520Y-91460847D01*
X130007763Y-91460847D01*
X130753885Y-91460847D01*
X130751979Y-91448156D01*
X130749609Y-91435046D01*
X130746874Y-91422186D01*
X130743774Y-91409575D01*
X130740311Y-91397212D01*
X130736484Y-91385099D01*
X130732294Y-91373234D01*
X130727740Y-91361618D01*
X130722822Y-91350250D01*
X130717541Y-91339130D01*
X130711897Y-91328259D01*
X130705620Y-91317364D01*
X130699075Y-91306776D01*
X130692262Y-91296495D01*
X130685181Y-91286522D01*
X130677831Y-91276856D01*
X130670214Y-91267497D01*
X130662329Y-91258445D01*
X130654176Y-91249699D01*
X130645755Y-91241260D01*
X130637067Y-91233128D01*
X130628110Y-91225302D01*
X130618886Y-91217782D01*
X130609393Y-91210568D01*
X130599633Y-91203660D01*
X130589605Y-91197058D01*
X130579309Y-91190761D01*
X130568457Y-91184810D01*
X130557394Y-91179244D01*
X130546120Y-91174062D01*
X130534636Y-91169265D01*
X130522942Y-91164852D01*
X130511038Y-91160824D01*
X130498923Y-91157180D01*
X130486598Y-91153920D01*
X130474062Y-91151043D01*
X130461316Y-91148551D01*
X130448360Y-91146443D01*
X130435194Y-91144718D01*
X130421818Y-91143377D01*
X130408231Y-91142419D01*
X130394434Y-91141844D01*
X130380428Y-91141652D01*
X130366721Y-91141844D01*
X130353225Y-91142419D01*
X130339940Y-91143377D01*
X130326866Y-91144718D01*
X130314002Y-91146443D01*
X130301350Y-91148551D01*
X130288908Y-91151043D01*
X130276678Y-91153920D01*
X130264659Y-91157180D01*
X130252852Y-91160824D01*
X130241256Y-91164852D01*
X130229872Y-91169265D01*
X130218699Y-91174062D01*
X130207738Y-91179244D01*
X130196990Y-91184810D01*
X130186453Y-91190761D01*
X130175850Y-91197048D01*
X130165534Y-91203620D01*
X130155507Y-91210479D01*
X130145767Y-91217625D01*
X130136316Y-91225057D01*
X130127154Y-91232776D01*
X130118279Y-91240782D01*
X130109694Y-91249076D01*
X130101397Y-91257657D01*
X130093389Y-91266527D01*
X130085670Y-91275685D01*
X130078240Y-91285131D01*
X130071100Y-91294866D01*
X130064248Y-91304890D01*
X130057686Y-91315203D01*
X130051414Y-91325805D01*
X130045471Y-91336658D01*
X130039932Y-91347721D01*
X130034795Y-91358994D01*
X130030062Y-91370477D01*
X130025732Y-91382171D01*
X130021806Y-91394075D01*
X130018283Y-91406189D01*
X130015165Y-91418514D01*
X130012449Y-91431049D01*
X130010138Y-91443795D01*
X130008231Y-91456751D01*
X130007763Y-91460847D01*
X129724520Y-91460847D01*
X129725871Y-91450167D01*
X129729562Y-91426709D01*
X129733925Y-91403673D01*
X129738960Y-91381059D01*
X129744666Y-91358866D01*
X129751044Y-91337094D01*
X129758094Y-91315744D01*
X129765816Y-91294816D01*
X129774210Y-91274308D01*
X129783276Y-91254222D01*
X129793015Y-91234557D01*
X129803426Y-91215312D01*
X129814407Y-91196547D01*
X129825889Y-91178320D01*
X129837871Y-91160631D01*
X129850353Y-91143479D01*
X129863335Y-91126865D01*
X129876816Y-91110789D01*
X129890798Y-91095250D01*
X129905280Y-91080249D01*
X129920262Y-91065786D01*
X129935743Y-91051861D01*
X129951725Y-91038474D01*
X129968207Y-91025624D01*
X129985189Y-91013312D01*
X130002670Y-91001537D01*
X130020652Y-90990301D01*
X130039134Y-90979602D01*
X130058014Y-90969497D01*
X130077222Y-90960044D01*
X130096758Y-90951242D01*
X130116620Y-90943091D01*
X130136809Y-90935591D01*
X130157325Y-90928743D01*
X130178167Y-90922546D01*
X130199336Y-90917002D01*
X130220832Y-90912108D01*
X130242653Y-90907867D01*
X130264801Y-90904279D01*
X130287275Y-90901342D01*
X130310075Y-90899058D01*
X130333200Y-90897426D01*
X130356651Y-90896447D01*
X130380428Y-90896120D01*
X130404808Y-90896456D01*
X130428866Y-90897462D01*
X130452599Y-90899139D01*
X130476008Y-90901487D01*
X130499092Y-90904507D01*
X130521852Y-90908198D01*
X130544287Y-90912560D01*
X130566397Y-90917594D01*
X130588181Y-90923300D01*
X130609640Y-90929677D01*
X130630772Y-90936727D01*
X130651578Y-90944448D01*
X130672058Y-90952842D01*
X130692211Y-90961908D01*
X130712037Y-90971647D01*
X130731536Y-90982058D01*
X130750307Y-90993063D01*
X130768582Y-91004585D01*
X130786359Y-91016622D01*
X130803640Y-91029177D01*
X130820424Y-91042249D01*
X130836710Y-91055837D01*
X130852499Y-91069943D01*
X130867790Y-91084567D01*
X130882582Y-91099709D01*
X130896876Y-91115369D01*
X130910672Y-91131547D01*
X130923968Y-91148244D01*
X130936766Y-91165460D01*
X130949064Y-91183195D01*
X130960862Y-91201450D01*
X130972161Y-91220224D01*
X130982558Y-91239123D01*
X130992287Y-91258388D01*
X131001346Y-91278017D01*
X131009736Y-91298011D01*
X131017456Y-91318371D01*
X131024506Y-91339096D01*
X131030886Y-91360186D01*
X131036596Y-91381641D01*
X131041635Y-91403461D01*
X131046002Y-91425646D01*
X131049699Y-91448197D01*
X131051369Y-91460847D01*
X131052724Y-91471112D01*
G37*
G36*
X132743393Y-91591694D02*
G01*
X132742387Y-91616539D01*
X132740709Y-91640962D01*
X132738361Y-91664962D01*
X132735342Y-91688540D01*
X132731651Y-91711694D01*
X132727288Y-91734427D01*
X132722254Y-91756736D01*
X132716549Y-91778623D01*
X132710171Y-91800087D01*
X132703122Y-91821128D01*
X132695400Y-91841747D01*
X132687006Y-91861943D01*
X132677940Y-91881716D01*
X132668202Y-91901067D01*
X132657791Y-91919995D01*
X132646794Y-91938462D01*
X132635300Y-91956432D01*
X132623307Y-91973903D01*
X132610817Y-91990877D01*
X132597828Y-92007352D01*
X132584342Y-92023329D01*
X132570357Y-92038808D01*
X132555874Y-92053790D01*
X132540893Y-92068273D01*
X132525414Y-92082258D01*
X132509436Y-92095744D01*
X132492961Y-92108733D01*
X132475987Y-92121224D01*
X132458516Y-92133217D01*
X132440546Y-92144711D01*
X132422078Y-92155708D01*
X132402900Y-92165812D01*
X132383437Y-92175265D01*
X132363688Y-92184067D01*
X132343652Y-92192218D01*
X132323330Y-92199718D01*
X132302720Y-92206566D01*
X132281824Y-92212763D01*
X132260640Y-92218308D01*
X132239168Y-92223201D01*
X132217409Y-92227442D01*
X132195361Y-92231031D01*
X132173025Y-92233967D01*
X132150400Y-92236252D01*
X132127486Y-92237883D01*
X132104282Y-92238863D01*
X132080789Y-92239189D01*
X132059766Y-92238901D01*
X132039050Y-92238038D01*
X132018641Y-92236599D01*
X131998539Y-92234585D01*
X131978745Y-92231995D01*
X131959257Y-92228830D01*
X131940076Y-92225089D01*
X131921202Y-92220773D01*
X131902634Y-92215882D01*
X131884373Y-92210415D01*
X131866418Y-92204372D01*
X131848769Y-92197754D01*
X131831427Y-92190561D01*
X131814390Y-92182793D01*
X131797659Y-92174449D01*
X131781233Y-92165529D01*
X131765184Y-92156034D01*
X131749576Y-92145963D01*
X131734411Y-92135316D01*
X131719688Y-92124094D01*
X131705406Y-92112297D01*
X131691567Y-92099924D01*
X131678169Y-92086976D01*
X131665212Y-92073453D01*
X131652697Y-92059354D01*
X131646194Y-92051450D01*
X131646194Y-92222002D01*
X131354012Y-92222002D01*
X131354012Y-91566425D01*
X131653557Y-91566425D01*
X131653769Y-91581954D01*
X131654403Y-91597232D01*
X131655459Y-91612260D01*
X131656938Y-91627039D01*
X131658839Y-91641568D01*
X131661162Y-91655847D01*
X131663907Y-91669878D01*
X131667074Y-91683659D01*
X131670662Y-91697191D01*
X131674672Y-91710474D01*
X131679103Y-91723509D01*
X131683956Y-91736294D01*
X131689230Y-91748831D01*
X131694924Y-91761120D01*
X131701040Y-91773161D01*
X131707576Y-91784953D01*
X131714165Y-91796447D01*
X131721042Y-91807594D01*
X131728207Y-91818394D01*
X131735660Y-91828848D01*
X131743400Y-91838956D01*
X131751428Y-91848718D01*
X131759744Y-91858134D01*
X131768348Y-91867204D01*
X131777239Y-91875930D01*
X131786418Y-91884310D01*
X131795884Y-91892346D01*
X131805639Y-91900037D01*
X131815681Y-91907383D01*
X131826010Y-91914386D01*
X131836627Y-91921045D01*
X131847532Y-91927360D01*
X131858375Y-91933312D01*
X131869408Y-91938878D01*
X131880632Y-91944059D01*
X131892047Y-91948856D01*
X131903653Y-91953269D01*
X131915450Y-91957297D01*
X131927439Y-91960941D01*
X131939618Y-91964201D01*
X131951989Y-91967077D01*
X131964552Y-91969569D01*
X131977307Y-91971677D01*
X131990253Y-91973402D01*
X132003391Y-91974743D01*
X132016721Y-91975701D01*
X132030243Y-91976275D01*
X132043958Y-91976467D01*
X132057683Y-91976275D01*
X132071236Y-91975701D01*
X132084616Y-91974743D01*
X132097823Y-91973402D01*
X132110857Y-91971677D01*
X132123719Y-91969569D01*
X132136408Y-91967077D01*
X132148925Y-91964201D01*
X132161269Y-91960941D01*
X132173440Y-91957297D01*
X132185438Y-91953269D01*
X132197264Y-91948856D01*
X132208917Y-91944059D01*
X132220397Y-91938878D01*
X132231705Y-91933312D01*
X132242840Y-91927360D01*
X132253462Y-91921045D01*
X132263834Y-91914386D01*
X132273957Y-91907383D01*
X132283829Y-91900037D01*
X132293451Y-91892346D01*
X132302823Y-91884310D01*
X132311945Y-91875930D01*
X132320818Y-91867204D01*
X132329440Y-91858134D01*
X132337812Y-91848718D01*
X132345934Y-91838956D01*
X132353806Y-91828848D01*
X132361429Y-91818394D01*
X132368801Y-91807594D01*
X132375923Y-91796447D01*
X132382796Y-91784953D01*
X132389040Y-91773161D01*
X132394880Y-91761120D01*
X132400318Y-91748831D01*
X132405354Y-91736294D01*
X132409986Y-91723509D01*
X132414215Y-91710474D01*
X132418042Y-91697191D01*
X132421465Y-91683659D01*
X132424486Y-91669878D01*
X132427104Y-91655847D01*
X132429319Y-91641568D01*
X132431131Y-91627039D01*
X132432541Y-91612260D01*
X132433548Y-91597232D01*
X132434152Y-91581954D01*
X132434353Y-91566425D01*
X132434152Y-91550614D01*
X132433548Y-91535089D01*
X132432541Y-91519850D01*
X132431131Y-91504897D01*
X132429319Y-91490231D01*
X132427104Y-91475852D01*
X132424486Y-91461761D01*
X132421465Y-91447956D01*
X132418042Y-91434440D01*
X132414215Y-91421211D01*
X132409986Y-91408271D01*
X132405354Y-91395619D01*
X132400318Y-91383256D01*
X132394880Y-91371182D01*
X132389040Y-91359397D01*
X132382796Y-91347902D01*
X132375923Y-91336408D01*
X132368801Y-91325261D01*
X132361429Y-91314460D01*
X132353806Y-91304006D01*
X132345934Y-91293898D01*
X132337812Y-91284136D01*
X132329440Y-91274719D01*
X132320818Y-91265649D01*
X132311945Y-91256923D01*
X132302823Y-91248543D01*
X132293451Y-91240507D01*
X132283829Y-91232815D01*
X132273957Y-91225468D01*
X132263834Y-91218465D01*
X132253462Y-91211806D01*
X132242840Y-91205490D01*
X132231705Y-91199540D01*
X132220397Y-91193974D01*
X132208917Y-91188792D01*
X132197264Y-91183996D01*
X132185438Y-91179583D01*
X132173440Y-91175555D01*
X132161269Y-91171912D01*
X132148925Y-91168652D01*
X132136408Y-91165776D01*
X132123719Y-91163284D01*
X132110857Y-91161176D01*
X132097823Y-91159451D01*
X132084616Y-91158110D01*
X132071236Y-91157152D01*
X132057683Y-91156578D01*
X132043958Y-91156386D01*
X132030243Y-91156578D01*
X132016721Y-91157152D01*
X132003391Y-91158110D01*
X131990253Y-91159451D01*
X131977307Y-91161176D01*
X131964552Y-91163284D01*
X131951989Y-91165776D01*
X131939618Y-91168652D01*
X131927439Y-91171912D01*
X131915450Y-91175555D01*
X131903653Y-91179583D01*
X131892047Y-91183996D01*
X131880632Y-91188792D01*
X131869408Y-91193974D01*
X131858375Y-91199540D01*
X131847532Y-91205490D01*
X131836627Y-91211806D01*
X131826010Y-91218465D01*
X131815681Y-91225468D01*
X131805639Y-91232815D01*
X131795884Y-91240507D01*
X131786418Y-91248543D01*
X131777239Y-91256923D01*
X131768348Y-91265649D01*
X131759744Y-91274719D01*
X131751428Y-91284136D01*
X131743400Y-91293898D01*
X131735660Y-91304006D01*
X131728207Y-91314460D01*
X131721042Y-91325261D01*
X131714165Y-91336408D01*
X131707576Y-91347902D01*
X131701040Y-91359397D01*
X131694924Y-91371182D01*
X131689230Y-91383256D01*
X131683956Y-91395619D01*
X131679103Y-91408271D01*
X131674672Y-91421211D01*
X131670662Y-91434440D01*
X131667074Y-91447956D01*
X131663907Y-91461761D01*
X131661162Y-91475852D01*
X131658839Y-91490231D01*
X131656938Y-91504897D01*
X131655459Y-91519850D01*
X131654403Y-91535089D01*
X131653769Y-91550614D01*
X131653557Y-91566425D01*
X131354012Y-91566425D01*
X131354012Y-90400144D01*
X131658474Y-90400144D01*
X131658474Y-91072155D01*
X131669497Y-91060024D01*
X131682599Y-91046665D01*
X131696124Y-91033899D01*
X131710072Y-91021728D01*
X131724442Y-91010151D01*
X131739235Y-90999168D01*
X131754451Y-90988778D01*
X131770089Y-90978982D01*
X131786150Y-90969780D01*
X131802556Y-90960860D01*
X131819229Y-90952516D01*
X131836171Y-90944747D01*
X131853380Y-90937554D01*
X131870857Y-90930936D01*
X131888603Y-90924893D01*
X131906616Y-90919427D01*
X131924897Y-90914535D01*
X131943445Y-90910219D01*
X131962262Y-90906479D01*
X131981347Y-90903313D01*
X132000699Y-90900724D01*
X132020320Y-90898710D01*
X132040208Y-90897271D01*
X132060365Y-90896408D01*
X132080789Y-90896120D01*
X132104282Y-90896447D01*
X132127486Y-90897426D01*
X132150400Y-90899058D01*
X132173025Y-90901342D01*
X132195361Y-90904279D01*
X132217409Y-90907867D01*
X132239168Y-90912108D01*
X132260640Y-90917002D01*
X132281824Y-90922546D01*
X132302720Y-90928743D01*
X132323330Y-90935591D01*
X132343652Y-90943091D01*
X132363688Y-90951242D01*
X132383437Y-90960044D01*
X132402900Y-90969497D01*
X132422078Y-90979602D01*
X132440546Y-90990292D01*
X132458516Y-91001501D01*
X132475987Y-91013230D01*
X132492961Y-91025478D01*
X132509436Y-91038245D01*
X132525414Y-91051531D01*
X132540893Y-91065335D01*
X132555874Y-91079657D01*
X132570357Y-91094497D01*
X132584342Y-91109855D01*
X132597828Y-91125730D01*
X132610817Y-91142122D01*
X132623307Y-91159032D01*
X132635300Y-91176458D01*
X132646794Y-91194400D01*
X132657791Y-91212858D01*
X132668202Y-91231786D01*
X132677940Y-91251137D01*
X132687006Y-91270910D01*
X132695400Y-91291106D01*
X132703122Y-91311725D01*
X132710171Y-91332766D01*
X132716549Y-91354230D01*
X132722254Y-91376117D01*
X132727288Y-91398426D01*
X132731651Y-91421158D01*
X132735342Y-91444313D01*
X132738361Y-91467890D01*
X132740709Y-91491890D01*
X132742387Y-91516312D01*
X132743393Y-91541158D01*
X132743728Y-91566425D01*
X132743393Y-91591694D01*
G37*
G36*
X134429023Y-91591694D02*
G01*
X134428017Y-91616539D01*
X134426339Y-91640962D01*
X134423991Y-91664962D01*
X134420971Y-91688540D01*
X134417281Y-91711694D01*
X134412918Y-91734427D01*
X134407884Y-91756736D01*
X134402179Y-91778623D01*
X134395801Y-91800087D01*
X134388752Y-91821128D01*
X134381030Y-91841747D01*
X134372636Y-91861943D01*
X134363570Y-91881716D01*
X134353832Y-91901067D01*
X134343421Y-91919995D01*
X134332424Y-91938462D01*
X134320930Y-91956432D01*
X134308937Y-91973903D01*
X134296447Y-91990877D01*
X134283458Y-92007352D01*
X134269971Y-92023329D01*
X134255987Y-92038808D01*
X134241504Y-92053790D01*
X134226523Y-92068273D01*
X134211043Y-92082258D01*
X134195066Y-92095744D01*
X134178591Y-92108733D01*
X134161617Y-92121224D01*
X134144146Y-92133217D01*
X134126176Y-92144711D01*
X134107708Y-92155708D01*
X134088530Y-92165812D01*
X134069067Y-92175265D01*
X134049318Y-92184067D01*
X134029282Y-92192218D01*
X134008959Y-92199718D01*
X133988350Y-92206566D01*
X133967454Y-92212763D01*
X133946270Y-92218308D01*
X133924798Y-92223201D01*
X133903039Y-92227442D01*
X133880991Y-92231031D01*
X133858655Y-92233967D01*
X133836030Y-92236252D01*
X133813115Y-92237883D01*
X133789912Y-92238863D01*
X133766419Y-92239189D01*
X133745395Y-92238901D01*
X133724679Y-92238038D01*
X133704271Y-92236599D01*
X133684169Y-92234585D01*
X133664375Y-92231995D01*
X133644887Y-92228830D01*
X133625706Y-92225089D01*
X133606832Y-92220773D01*
X133588264Y-92215882D01*
X133570003Y-92210415D01*
X133552048Y-92204372D01*
X133534399Y-92197754D01*
X133517056Y-92190561D01*
X133500020Y-92182793D01*
X133483289Y-92174449D01*
X133466863Y-92165529D01*
X133450814Y-92156034D01*
X133435206Y-92145963D01*
X133420041Y-92135316D01*
X133405317Y-92124094D01*
X133391036Y-92112297D01*
X133377196Y-92099924D01*
X133363798Y-92086976D01*
X133350842Y-92073453D01*
X133338327Y-92059354D01*
X133331824Y-92051450D01*
X133331824Y-92222002D01*
X133039641Y-92222002D01*
X133039641Y-91566425D01*
X133339187Y-91566425D01*
X133339399Y-91581954D01*
X133340032Y-91597232D01*
X133341089Y-91612260D01*
X133342567Y-91627039D01*
X133344468Y-91641568D01*
X133346791Y-91655847D01*
X133349535Y-91669878D01*
X133352702Y-91683659D01*
X133356290Y-91697191D01*
X133360300Y-91710474D01*
X133364731Y-91723509D01*
X133369584Y-91736294D01*
X133374858Y-91748831D01*
X133380553Y-91761120D01*
X133386669Y-91773161D01*
X133393206Y-91784953D01*
X133399795Y-91796447D01*
X133406672Y-91807594D01*
X133413837Y-91818394D01*
X133421289Y-91828848D01*
X133429029Y-91838956D01*
X133437056Y-91848718D01*
X133445372Y-91858134D01*
X133453975Y-91867204D01*
X133462866Y-91875930D01*
X133472044Y-91884310D01*
X133481510Y-91892346D01*
X133491264Y-91900037D01*
X133501306Y-91907383D01*
X133511635Y-91914386D01*
X133522252Y-91921045D01*
X133533157Y-91927360D01*
X133544001Y-91933312D01*
X133555034Y-91938878D01*
X133566259Y-91944059D01*
X133577674Y-91948856D01*
X133589280Y-91953269D01*
X133601078Y-91957297D01*
X133613066Y-91960941D01*
X133625246Y-91964201D01*
X133637617Y-91967077D01*
X133650180Y-91969569D01*
X133662934Y-91971677D01*
X133675880Y-91973402D01*
X133689019Y-91974743D01*
X133702349Y-91975701D01*
X133715872Y-91976275D01*
X133729588Y-91976467D01*
X133743312Y-91976275D01*
X133756864Y-91975701D01*
X133770244Y-91974743D01*
X133783451Y-91973402D01*
X133796485Y-91971677D01*
X133809347Y-91969569D01*
X133822036Y-91967077D01*
X133834553Y-91964201D01*
X133846897Y-91960941D01*
X133859068Y-91957297D01*
X133871067Y-91953269D01*
X133882893Y-91948856D01*
X133894546Y-91944059D01*
X133906027Y-91938878D01*
X133917335Y-91933312D01*
X133928470Y-91927360D01*
X133939092Y-91921045D01*
X133949464Y-91914386D01*
X133959586Y-91907383D01*
X133969458Y-91900037D01*
X133979080Y-91892346D01*
X133988452Y-91884310D01*
X133997574Y-91875930D01*
X134006446Y-91867204D01*
X134015068Y-91858134D01*
X134023440Y-91848718D01*
X134031562Y-91838956D01*
X134039434Y-91828848D01*
X134047057Y-91818394D01*
X134054429Y-91807594D01*
X134061552Y-91796447D01*
X134068426Y-91784953D01*
X134074670Y-91773161D01*
X134080511Y-91761120D01*
X134085949Y-91748831D01*
X134090984Y-91736294D01*
X134095617Y-91723509D01*
X134099847Y-91710474D01*
X134103673Y-91697191D01*
X134107098Y-91683659D01*
X134110119Y-91669878D01*
X134112737Y-91655847D01*
X134114953Y-91641568D01*
X134116765Y-91627039D01*
X134118175Y-91612260D01*
X134119182Y-91597232D01*
X134119787Y-91581954D01*
X134119988Y-91566425D01*
X134119787Y-91550614D01*
X134119182Y-91535089D01*
X134118175Y-91519850D01*
X134116765Y-91504897D01*
X134114953Y-91490231D01*
X134112737Y-91475852D01*
X134110119Y-91461761D01*
X134107098Y-91447956D01*
X134103673Y-91434440D01*
X134099847Y-91421211D01*
X134095617Y-91408271D01*
X134090984Y-91395619D01*
X134085949Y-91383256D01*
X134080511Y-91371182D01*
X134074670Y-91359397D01*
X134068426Y-91347902D01*
X134061552Y-91336408D01*
X134054429Y-91325261D01*
X134047057Y-91314460D01*
X134039434Y-91304006D01*
X134031562Y-91293898D01*
X134023440Y-91284136D01*
X134015068Y-91274719D01*
X134006446Y-91265649D01*
X133997574Y-91256923D01*
X133988452Y-91248543D01*
X133979080Y-91240507D01*
X133969458Y-91232815D01*
X133959586Y-91225468D01*
X133949464Y-91218465D01*
X133939092Y-91211806D01*
X133928470Y-91205490D01*
X133917335Y-91199540D01*
X133906027Y-91193974D01*
X133894546Y-91188792D01*
X133882893Y-91183996D01*
X133871067Y-91179583D01*
X133859068Y-91175555D01*
X133846897Y-91171912D01*
X133834553Y-91168652D01*
X133822036Y-91165776D01*
X133809347Y-91163284D01*
X133796485Y-91161176D01*
X133783451Y-91159451D01*
X133770244Y-91158110D01*
X133756864Y-91157152D01*
X133743312Y-91156578D01*
X133729588Y-91156386D01*
X133715872Y-91156578D01*
X133702349Y-91157152D01*
X133689019Y-91158110D01*
X133675880Y-91159451D01*
X133662934Y-91161176D01*
X133650180Y-91163284D01*
X133637617Y-91165776D01*
X133625246Y-91168652D01*
X133613066Y-91171912D01*
X133601078Y-91175555D01*
X133589280Y-91179583D01*
X133577674Y-91183996D01*
X133566259Y-91188792D01*
X133555034Y-91193974D01*
X133544001Y-91199540D01*
X133533157Y-91205490D01*
X133522252Y-91211806D01*
X133511635Y-91218465D01*
X133501306Y-91225468D01*
X133491264Y-91232815D01*
X133481510Y-91240507D01*
X133472044Y-91248543D01*
X133462866Y-91256923D01*
X133453975Y-91265649D01*
X133445372Y-91274719D01*
X133437056Y-91284136D01*
X133429029Y-91293898D01*
X133421289Y-91304006D01*
X133413837Y-91314460D01*
X133406672Y-91325261D01*
X133399795Y-91336408D01*
X133393206Y-91347902D01*
X133386669Y-91359397D01*
X133380553Y-91371182D01*
X133374858Y-91383256D01*
X133369584Y-91395619D01*
X133364731Y-91408271D01*
X133360300Y-91421211D01*
X133356290Y-91434440D01*
X133352702Y-91447956D01*
X133349535Y-91461761D01*
X133346791Y-91475852D01*
X133344468Y-91490231D01*
X133342567Y-91504897D01*
X133341089Y-91519850D01*
X133340032Y-91535089D01*
X133339399Y-91550614D01*
X133339187Y-91566425D01*
X133039641Y-91566425D01*
X133039641Y-90400144D01*
X133344099Y-90400144D01*
X133344099Y-91072159D01*
X133355127Y-91060024D01*
X133368229Y-91046665D01*
X133381754Y-91033899D01*
X133395701Y-91021728D01*
X133410072Y-91010151D01*
X133424865Y-90999168D01*
X133440080Y-90988778D01*
X133455719Y-90978982D01*
X133471780Y-90969780D01*
X133488185Y-90960860D01*
X133504858Y-90952516D01*
X133521799Y-90944747D01*
X133539008Y-90937554D01*
X133556485Y-90930936D01*
X133574230Y-90924893D01*
X133592243Y-90919427D01*
X133610525Y-90914535D01*
X133629074Y-90910219D01*
X133647891Y-90906479D01*
X133666976Y-90903313D01*
X133686329Y-90900724D01*
X133705949Y-90898710D01*
X133725838Y-90897271D01*
X133745995Y-90896408D01*
X133766419Y-90896120D01*
X133789912Y-90896447D01*
X133813115Y-90897426D01*
X133836030Y-90899058D01*
X133858655Y-90901342D01*
X133880991Y-90904279D01*
X133903039Y-90907867D01*
X133924798Y-90912108D01*
X133946270Y-90917002D01*
X133967454Y-90922546D01*
X133988350Y-90928743D01*
X134008959Y-90935591D01*
X134029282Y-90943091D01*
X134049318Y-90951242D01*
X134069067Y-90960044D01*
X134088530Y-90969497D01*
X134107708Y-90979602D01*
X134126176Y-90990292D01*
X134144146Y-91001501D01*
X134161617Y-91013230D01*
X134178591Y-91025478D01*
X134195066Y-91038245D01*
X134211043Y-91051531D01*
X134226523Y-91065335D01*
X134241504Y-91079657D01*
X134255987Y-91094497D01*
X134269971Y-91109855D01*
X134283458Y-91125730D01*
X134296447Y-91142122D01*
X134308937Y-91159032D01*
X134320930Y-91176458D01*
X134332424Y-91194400D01*
X134343421Y-91212858D01*
X134353832Y-91231786D01*
X134363570Y-91251137D01*
X134372636Y-91270910D01*
X134381030Y-91291106D01*
X134388752Y-91311725D01*
X134395801Y-91332766D01*
X134402179Y-91354230D01*
X134407884Y-91376117D01*
X134412918Y-91398426D01*
X134417281Y-91421158D01*
X134420971Y-91444313D01*
X134423991Y-91467890D01*
X134426339Y-91491890D01*
X134428017Y-91516312D01*
X134429023Y-91541158D01*
X134429358Y-91566425D01*
X134429023Y-91591694D01*
G37*
G36*
X135951374Y-91471112D02*
G01*
X135953722Y-91494393D01*
X135955399Y-91518038D01*
X135956406Y-91542049D01*
X135956741Y-91566425D01*
X135956396Y-91590504D01*
X135955360Y-91614257D01*
X135953634Y-91637685D01*
X135951217Y-91660787D01*
X135948109Y-91683564D01*
X135944311Y-91706015D01*
X135939823Y-91728141D01*
X135934644Y-91749941D01*
X135928774Y-91771416D01*
X135922214Y-91792566D01*
X135914964Y-91813390D01*
X135907022Y-91833889D01*
X135898391Y-91854062D01*
X135889068Y-91873910D01*
X135879056Y-91893432D01*
X135868352Y-91912629D01*
X135856723Y-91931413D01*
X135844536Y-91949697D01*
X135831791Y-91967482D01*
X135818490Y-91984767D01*
X135804631Y-92001552D01*
X135790215Y-92017837D01*
X135775242Y-92033623D01*
X135759713Y-92048910D01*
X135743627Y-92063698D01*
X135726984Y-92077987D01*
X135709786Y-92091777D01*
X135692031Y-92105069D01*
X135673720Y-92117861D01*
X135654853Y-92130156D01*
X135635430Y-92141951D01*
X135615452Y-92153249D01*
X135594683Y-92163660D01*
X135573490Y-92173399D01*
X135551876Y-92182465D01*
X135529838Y-92190859D01*
X135507378Y-92198580D01*
X135484495Y-92205630D01*
X135461190Y-92212008D01*
X135437462Y-92217714D01*
X135413311Y-92222748D01*
X135388738Y-92227111D01*
X135363741Y-92230802D01*
X135338323Y-92233821D01*
X135312481Y-92236170D01*
X135286217Y-92237847D01*
X135259530Y-92238854D01*
X135232420Y-92239189D01*
X135211093Y-92238978D01*
X135190073Y-92238344D01*
X135169358Y-92237287D01*
X135148950Y-92235809D01*
X135128847Y-92233908D01*
X135109051Y-92231584D01*
X135089561Y-92228840D01*
X135070378Y-92225673D01*
X135051501Y-92222084D01*
X135032931Y-92218074D01*
X135014667Y-92213643D01*
X134996711Y-92208791D01*
X134979062Y-92203517D01*
X134961719Y-92197822D01*
X134944684Y-92191707D01*
X134927957Y-92185170D01*
X134911263Y-92177924D01*
X134894933Y-92170315D01*
X134878966Y-92162342D01*
X134863363Y-92154006D01*
X134848124Y-92145306D01*
X134833248Y-92136243D01*
X134818736Y-92126815D01*
X134804588Y-92117024D01*
X134790804Y-92106868D01*
X134777384Y-92096349D01*
X134764329Y-92085464D01*
X134751639Y-92074216D01*
X134739313Y-92062602D01*
X134727352Y-92050624D01*
X134715755Y-92038281D01*
X134704524Y-92025573D01*
X134869031Y-91836513D01*
X134877697Y-91845567D01*
X134886518Y-91854313D01*
X134895492Y-91862752D01*
X134904622Y-91870884D01*
X134913905Y-91878709D01*
X134923343Y-91886226D01*
X134932935Y-91893437D01*
X134942680Y-91900341D01*
X134952580Y-91906939D01*
X134962633Y-91913230D01*
X134972839Y-91919215D01*
X134983199Y-91924893D01*
X134993712Y-91930266D01*
X135004378Y-91935332D01*
X135015198Y-91940093D01*
X135026170Y-91944548D01*
X135037306Y-91948715D01*
X135048614Y-91952612D01*
X135060094Y-91956240D01*
X135071748Y-91959599D01*
X135083574Y-91962688D01*
X135095572Y-91965507D01*
X135107743Y-91968058D01*
X135120087Y-91970340D01*
X135132603Y-91972352D01*
X135145293Y-91974096D01*
X135158155Y-91975572D01*
X135171189Y-91976778D01*
X135197777Y-91978387D01*
X135225056Y-91978923D01*
X135240896Y-91978731D01*
X135256506Y-91978157D01*
X135271889Y-91977199D01*
X135287042Y-91975858D01*
X135301967Y-91974133D01*
X135316662Y-91972025D01*
X135331128Y-91969533D01*
X135345363Y-91966657D01*
X135359369Y-91963397D01*
X135373145Y-91959753D01*
X135386690Y-91955725D01*
X135400003Y-91951313D01*
X135413086Y-91946516D01*
X135425938Y-91941334D01*
X135438557Y-91935768D01*
X135450945Y-91929816D01*
X135463045Y-91923510D01*
X135474801Y-91916878D01*
X135486214Y-91909920D01*
X135497282Y-91902637D01*
X135508006Y-91895029D01*
X135518385Y-91887095D01*
X135528420Y-91878836D01*
X135538109Y-91870252D01*
X135547453Y-91861342D01*
X135556451Y-91852106D01*
X135565104Y-91842546D01*
X135573410Y-91832660D01*
X135581371Y-91822448D01*
X135588985Y-91811911D01*
X135596252Y-91801048D01*
X135603172Y-91789860D01*
X135609709Y-91778404D01*
X135615825Y-91766735D01*
X135621520Y-91754855D01*
X135626794Y-91742762D01*
X135631647Y-91730457D01*
X135636078Y-91717941D01*
X135640088Y-91705213D01*
X135643676Y-91692274D01*
X135646842Y-91679123D01*
X135649587Y-91665761D01*
X135649779Y-91664638D01*
X134621043Y-91664638D01*
X134620476Y-91659075D01*
X134619981Y-91653433D01*
X134619560Y-91647714D01*
X134619212Y-91641917D01*
X134618940Y-91636046D01*
X134618745Y-91630099D01*
X134618626Y-91624080D01*
X134618587Y-91617988D01*
X134618020Y-91611936D01*
X134617525Y-91606034D01*
X134617104Y-91600284D01*
X134616756Y-91594684D01*
X134616484Y-91589235D01*
X134616289Y-91583936D01*
X134616170Y-91578788D01*
X134616131Y-91573791D01*
X134616466Y-91548222D01*
X134617472Y-91523075D01*
X134619150Y-91498350D01*
X134621498Y-91474048D01*
X134623167Y-91460847D01*
X134906445Y-91460847D01*
X135652529Y-91460847D01*
X135650623Y-91448156D01*
X135648253Y-91435046D01*
X135645518Y-91422186D01*
X135642419Y-91409575D01*
X135638956Y-91397212D01*
X135635129Y-91385099D01*
X135630938Y-91373234D01*
X135626384Y-91361618D01*
X135621466Y-91350250D01*
X135616185Y-91339130D01*
X135610540Y-91328259D01*
X135604262Y-91317364D01*
X135597716Y-91306776D01*
X135590903Y-91296495D01*
X135583822Y-91286522D01*
X135576473Y-91276856D01*
X135568856Y-91267497D01*
X135560972Y-91258445D01*
X135552820Y-91249699D01*
X135544399Y-91241260D01*
X135535711Y-91233128D01*
X135526756Y-91225302D01*
X135517532Y-91217782D01*
X135508040Y-91210568D01*
X135498280Y-91203660D01*
X135488253Y-91197058D01*
X135477957Y-91190761D01*
X135467104Y-91184810D01*
X135456041Y-91179244D01*
X135444768Y-91174062D01*
X135433284Y-91169265D01*
X135421590Y-91164852D01*
X135409685Y-91160824D01*
X135397570Y-91157180D01*
X135385245Y-91153920D01*
X135372710Y-91151043D01*
X135359964Y-91148551D01*
X135347008Y-91146443D01*
X135333842Y-91144718D01*
X135320465Y-91143377D01*
X135306879Y-91142419D01*
X135293082Y-91141844D01*
X135279075Y-91141652D01*
X135265368Y-91141844D01*
X135251871Y-91142419D01*
X135238585Y-91143377D01*
X135225511Y-91144718D01*
X135212647Y-91146443D01*
X135199994Y-91148551D01*
X135187552Y-91151043D01*
X135175322Y-91153920D01*
X135163303Y-91157180D01*
X135151496Y-91160824D01*
X135139900Y-91164852D01*
X135128516Y-91169265D01*
X135117344Y-91174062D01*
X135106384Y-91179244D01*
X135095636Y-91184810D01*
X135085100Y-91190761D01*
X135074498Y-91197048D01*
X135064185Y-91203620D01*
X135054161Y-91210479D01*
X135044426Y-91217625D01*
X135034980Y-91225057D01*
X135025823Y-91232776D01*
X135016953Y-91240782D01*
X135008372Y-91249076D01*
X135000078Y-91257657D01*
X134992072Y-91266527D01*
X134984353Y-91275685D01*
X134976921Y-91285131D01*
X134969775Y-91294866D01*
X134962916Y-91304890D01*
X134956343Y-91315203D01*
X134950056Y-91325805D01*
X134944116Y-91336658D01*
X134938579Y-91347721D01*
X134933447Y-91358994D01*
X134928719Y-91370477D01*
X134924394Y-91382171D01*
X134920473Y-91394075D01*
X134916955Y-91406189D01*
X134913841Y-91418514D01*
X134911129Y-91431049D01*
X134908820Y-91443795D01*
X134906913Y-91456751D01*
X134906445Y-91460847D01*
X134623167Y-91460847D01*
X134624517Y-91450167D01*
X134628208Y-91426709D01*
X134632571Y-91403673D01*
X134637605Y-91381059D01*
X134643310Y-91358866D01*
X134649688Y-91337094D01*
X134656737Y-91315744D01*
X134664459Y-91294816D01*
X134672853Y-91274308D01*
X134681919Y-91254222D01*
X134691657Y-91234557D01*
X134702068Y-91215312D01*
X134713065Y-91196547D01*
X134724559Y-91178320D01*
X134736552Y-91160631D01*
X134749042Y-91143479D01*
X134762031Y-91126865D01*
X134775518Y-91110789D01*
X134789502Y-91095250D01*
X134803985Y-91080249D01*
X134818966Y-91065786D01*
X134834445Y-91051861D01*
X134850423Y-91038474D01*
X134866898Y-91025624D01*
X134883872Y-91013312D01*
X134901343Y-91001537D01*
X134919313Y-90990301D01*
X134937781Y-90979602D01*
X134956661Y-90969497D01*
X134975868Y-90960044D01*
X134995402Y-90951242D01*
X135015264Y-90943091D01*
X135035452Y-90935591D01*
X135055967Y-90928743D01*
X135076810Y-90922546D01*
X135097978Y-90917002D01*
X135119474Y-90912108D01*
X135141295Y-90907867D01*
X135163443Y-90904279D01*
X135185918Y-90901342D01*
X135208718Y-90899058D01*
X135231844Y-90897426D01*
X135255297Y-90896447D01*
X135279075Y-90896120D01*
X135303469Y-90896456D01*
X135327537Y-90897462D01*
X135351277Y-90899139D01*
X135374690Y-90901487D01*
X135397776Y-90904507D01*
X135420535Y-90908198D01*
X135442967Y-90912560D01*
X135465074Y-90917594D01*
X135486853Y-90923300D01*
X135508307Y-90929677D01*
X135529434Y-90936727D01*
X135550235Y-90944448D01*
X135570711Y-90952842D01*
X135590861Y-90961908D01*
X135610685Y-90971647D01*
X135630183Y-90982058D01*
X135648967Y-90993063D01*
X135667251Y-91004585D01*
X135685035Y-91016622D01*
X135702320Y-91029177D01*
X135719105Y-91042249D01*
X135735391Y-91055837D01*
X135751177Y-91069943D01*
X135766464Y-91084567D01*
X135781252Y-91099709D01*
X135795541Y-91115369D01*
X135809331Y-91131547D01*
X135822623Y-91148244D01*
X135835416Y-91165460D01*
X135847710Y-91183195D01*
X135859506Y-91201450D01*
X135870804Y-91220224D01*
X135881215Y-91239123D01*
X135890953Y-91258388D01*
X135900019Y-91278017D01*
X135908413Y-91298011D01*
X135916134Y-91318371D01*
X135923184Y-91339096D01*
X135929561Y-91360186D01*
X135935267Y-91381641D01*
X135940301Y-91403461D01*
X135944663Y-91425646D01*
X135948354Y-91448197D01*
X135950021Y-91460847D01*
X135951374Y-91471112D01*
G37*
G36*
X137531966Y-92222002D02*
G01*
X137239778Y-92222002D01*
X137239778Y-92049576D01*
X137231612Y-92059354D01*
X137218932Y-92073453D01*
X137205830Y-92086976D01*
X137192306Y-92099924D01*
X137178359Y-92112297D01*
X137163989Y-92124094D01*
X137149196Y-92135316D01*
X137133981Y-92145963D01*
X137118343Y-92156034D01*
X137102283Y-92165529D01*
X137085868Y-92174449D01*
X137069168Y-92182793D01*
X137052181Y-92190561D01*
X137034907Y-92197754D01*
X137017347Y-92204372D01*
X136999499Y-92210415D01*
X136981364Y-92215882D01*
X136962942Y-92220773D01*
X136944232Y-92225089D01*
X136925235Y-92228830D01*
X136905949Y-92231995D01*
X136886374Y-92234585D01*
X136866511Y-92236599D01*
X136846359Y-92238038D01*
X136825919Y-92238901D01*
X136805188Y-92239189D01*
X136781129Y-92238863D01*
X136757432Y-92237883D01*
X136734099Y-92236252D01*
X136711130Y-92233967D01*
X136688524Y-92231031D01*
X136666282Y-92227442D01*
X136644404Y-92223201D01*
X136622890Y-92218308D01*
X136601740Y-92212763D01*
X136580955Y-92206566D01*
X136560533Y-92199718D01*
X136540476Y-92192218D01*
X136520784Y-92184067D01*
X136501456Y-92175265D01*
X136482493Y-92165812D01*
X136463894Y-92155708D01*
X136445426Y-92144711D01*
X136427457Y-92133217D01*
X136409985Y-92121224D01*
X136393011Y-92108733D01*
X136376536Y-92095744D01*
X136360559Y-92082258D01*
X136345080Y-92068273D01*
X136330099Y-92053790D01*
X136315616Y-92038808D01*
X136301631Y-92023329D01*
X136288144Y-92007352D01*
X136275155Y-91990877D01*
X136262665Y-91973903D01*
X136250672Y-91956432D01*
X136239178Y-91938462D01*
X136228181Y-91919995D01*
X136217478Y-91901067D01*
X136207465Y-91881716D01*
X136198143Y-91861943D01*
X136189511Y-91841747D01*
X136181570Y-91821128D01*
X136174320Y-91800087D01*
X136167760Y-91778623D01*
X136161890Y-91756736D01*
X136156711Y-91734427D01*
X136152222Y-91711694D01*
X136148425Y-91688540D01*
X136145317Y-91664962D01*
X136142900Y-91640962D01*
X136141174Y-91616539D01*
X136140138Y-91591694D01*
X136139793Y-91566425D01*
X136451624Y-91566425D01*
X136451825Y-91581954D01*
X136452429Y-91597232D01*
X136453436Y-91612260D01*
X136454846Y-91627039D01*
X136456658Y-91641568D01*
X136458873Y-91655847D01*
X136461491Y-91669878D01*
X136464512Y-91683659D01*
X136467936Y-91697191D01*
X136471762Y-91710474D01*
X136475991Y-91723509D01*
X136480624Y-91736294D01*
X136485659Y-91748831D01*
X136491097Y-91761120D01*
X136496938Y-91773161D01*
X136503181Y-91784953D01*
X136509771Y-91796447D01*
X136516648Y-91807594D01*
X136523812Y-91818394D01*
X136531264Y-91828848D01*
X136539004Y-91838956D01*
X136547032Y-91848718D01*
X136555347Y-91858134D01*
X136563951Y-91867204D01*
X136572841Y-91875930D01*
X136582020Y-91884310D01*
X136591486Y-91892346D01*
X136601240Y-91900037D01*
X136611282Y-91907383D01*
X136621611Y-91914386D01*
X136632228Y-91921045D01*
X136643133Y-91927360D01*
X136653975Y-91933312D01*
X136665009Y-91938878D01*
X136676233Y-91944059D01*
X136687648Y-91948856D01*
X136699254Y-91953269D01*
X136711051Y-91957297D01*
X136723040Y-91960941D01*
X136735219Y-91964201D01*
X136747591Y-91967077D01*
X136760154Y-91969569D01*
X136772909Y-91971677D01*
X136785855Y-91973402D01*
X136798994Y-91974743D01*
X136812325Y-91975701D01*
X136825848Y-91976275D01*
X136839563Y-91976467D01*
X136853288Y-91976275D01*
X136866840Y-91975701D01*
X136880219Y-91974743D01*
X136893426Y-91973402D01*
X136906461Y-91971677D01*
X136919323Y-91969569D01*
X136932012Y-91967077D01*
X136944529Y-91964201D01*
X136956873Y-91960941D01*
X136969044Y-91957297D01*
X136981043Y-91953269D01*
X136992869Y-91948856D01*
X137004522Y-91944059D01*
X137016002Y-91938878D01*
X137027310Y-91933312D01*
X137038445Y-91927360D01*
X137049350Y-91921045D01*
X137059967Y-91914386D01*
X137070297Y-91907383D01*
X137080339Y-91900037D01*
X137090093Y-91892346D01*
X137099560Y-91884310D01*
X137108738Y-91875930D01*
X137117630Y-91867204D01*
X137126233Y-91858134D01*
X137134549Y-91848718D01*
X137142577Y-91838956D01*
X137150318Y-91828848D01*
X137157770Y-91818394D01*
X137164935Y-91807594D01*
X137171812Y-91796447D01*
X137178401Y-91784953D01*
X137184645Y-91773161D01*
X137190486Y-91761120D01*
X137195924Y-91748831D01*
X137200960Y-91736294D01*
X137205592Y-91723509D01*
X137209822Y-91710474D01*
X137213649Y-91697191D01*
X137217073Y-91683659D01*
X137220094Y-91669878D01*
X137222713Y-91655847D01*
X137224928Y-91641568D01*
X137226741Y-91627039D01*
X137228151Y-91612260D01*
X137229158Y-91597232D01*
X137229762Y-91581954D01*
X137229964Y-91566425D01*
X137229762Y-91550614D01*
X137229158Y-91535089D01*
X137228151Y-91519850D01*
X137226741Y-91504897D01*
X137224928Y-91490231D01*
X137222713Y-91475852D01*
X137220094Y-91461761D01*
X137217073Y-91447956D01*
X137213649Y-91434440D01*
X137209822Y-91421211D01*
X137205592Y-91408271D01*
X137200960Y-91395619D01*
X137195924Y-91383256D01*
X137190486Y-91371182D01*
X137184645Y-91359397D01*
X137178401Y-91347902D01*
X137171812Y-91336408D01*
X137164935Y-91325261D01*
X137157770Y-91314460D01*
X137150318Y-91304006D01*
X137142577Y-91293898D01*
X137134549Y-91284136D01*
X137126233Y-91274719D01*
X137117630Y-91265649D01*
X137108738Y-91256923D01*
X137099560Y-91248543D01*
X137090093Y-91240507D01*
X137080339Y-91232815D01*
X137070297Y-91225468D01*
X137059967Y-91218465D01*
X137049350Y-91211806D01*
X137038445Y-91205490D01*
X137027310Y-91199540D01*
X137016002Y-91193974D01*
X137004522Y-91188792D01*
X136992869Y-91183996D01*
X136981043Y-91179583D01*
X136969044Y-91175555D01*
X136956873Y-91171912D01*
X136944529Y-91168652D01*
X136932012Y-91165776D01*
X136919323Y-91163284D01*
X136906461Y-91161176D01*
X136893426Y-91159451D01*
X136880219Y-91158110D01*
X136866840Y-91157152D01*
X136853288Y-91156578D01*
X136839563Y-91156386D01*
X136825848Y-91156578D01*
X136812325Y-91157152D01*
X136798994Y-91158110D01*
X136785855Y-91159451D01*
X136772909Y-91161176D01*
X136760154Y-91163284D01*
X136747591Y-91165776D01*
X136735219Y-91168652D01*
X136723040Y-91171912D01*
X136711051Y-91175555D01*
X136699254Y-91179583D01*
X136687648Y-91183996D01*
X136676233Y-91188792D01*
X136665009Y-91193974D01*
X136653975Y-91199540D01*
X136643133Y-91205490D01*
X136632228Y-91211806D01*
X136621611Y-91218465D01*
X136611282Y-91225468D01*
X136601240Y-91232815D01*
X136591486Y-91240507D01*
X136582020Y-91248543D01*
X136572841Y-91256923D01*
X136563951Y-91265649D01*
X136555347Y-91274719D01*
X136547032Y-91284136D01*
X136539004Y-91293898D01*
X136531264Y-91304006D01*
X136523812Y-91314460D01*
X136516648Y-91325261D01*
X136509771Y-91336408D01*
X136503181Y-91347902D01*
X136496938Y-91359397D01*
X136491097Y-91371182D01*
X136485659Y-91383256D01*
X136480624Y-91395619D01*
X136475991Y-91408271D01*
X136471762Y-91421211D01*
X136467936Y-91434440D01*
X136464512Y-91447956D01*
X136461491Y-91461761D01*
X136458873Y-91475852D01*
X136456658Y-91490231D01*
X136454846Y-91504897D01*
X136453436Y-91519850D01*
X136452429Y-91535089D01*
X136451825Y-91550614D01*
X136451624Y-91566425D01*
X136139793Y-91566425D01*
X136140138Y-91541158D01*
X136141174Y-91516312D01*
X136142900Y-91491890D01*
X136145317Y-91467890D01*
X136148425Y-91444313D01*
X136152222Y-91421158D01*
X136156711Y-91398426D01*
X136161890Y-91376117D01*
X136167760Y-91354230D01*
X136174320Y-91332766D01*
X136181570Y-91311725D01*
X136189511Y-91291106D01*
X136198143Y-91270910D01*
X136207465Y-91251137D01*
X136217478Y-91231786D01*
X136228181Y-91212858D01*
X136239178Y-91194400D01*
X136250672Y-91176458D01*
X136262665Y-91159032D01*
X136275155Y-91142122D01*
X136288144Y-91125730D01*
X136301631Y-91109855D01*
X136315616Y-91094497D01*
X136330099Y-91079657D01*
X136345080Y-91065335D01*
X136360559Y-91051531D01*
X136376536Y-91038245D01*
X136393011Y-91025478D01*
X136409985Y-91013230D01*
X136427457Y-91001501D01*
X136445426Y-90990292D01*
X136463894Y-90979602D01*
X136482493Y-90969497D01*
X136501456Y-90960044D01*
X136520784Y-90951242D01*
X136540476Y-90943091D01*
X136560533Y-90935591D01*
X136580955Y-90928743D01*
X136601740Y-90922546D01*
X136622890Y-90917002D01*
X136644404Y-90912108D01*
X136666282Y-90907867D01*
X136688524Y-90904279D01*
X136711130Y-90901342D01*
X136734099Y-90899058D01*
X136757432Y-90897426D01*
X136781129Y-90896447D01*
X136805188Y-90896120D01*
X136825037Y-90896408D01*
X136844673Y-90897271D01*
X136864098Y-90898710D01*
X136883310Y-90900724D01*
X136902310Y-90903313D01*
X136921099Y-90906479D01*
X136939676Y-90910219D01*
X136958042Y-90914535D01*
X136976196Y-90919427D01*
X136994139Y-90924893D01*
X137011871Y-90930936D01*
X137029392Y-90937554D01*
X137046703Y-90944747D01*
X137063803Y-90952516D01*
X137080692Y-90960860D01*
X137097371Y-90969780D01*
X137113441Y-90978982D01*
X137129106Y-90988778D01*
X137144367Y-90999168D01*
X137159224Y-91010151D01*
X137173677Y-91021728D01*
X137187726Y-91033899D01*
X137201372Y-91046665D01*
X137214615Y-91060024D01*
X137225047Y-91071361D01*
X137225047Y-90400144D01*
X137531966Y-90400144D01*
X137531966Y-91566425D01*
X137531966Y-92222002D01*
G37*
G36*
X123837983Y-91550889D02*
G01*
X123836977Y-91574254D01*
X123835299Y-91597235D01*
X123832951Y-91619834D01*
X123829931Y-91642049D01*
X123826241Y-91663880D01*
X123821878Y-91685327D01*
X123816844Y-91706391D01*
X123811139Y-91727070D01*
X123804761Y-91747366D01*
X123797712Y-91767277D01*
X123789990Y-91786804D01*
X123781596Y-91805947D01*
X123772530Y-91824705D01*
X123762792Y-91843078D01*
X123752381Y-91861066D01*
X123741093Y-91878623D01*
X123729327Y-91895702D01*
X123717082Y-91912302D01*
X123704358Y-91928423D01*
X123691154Y-91944066D01*
X123677472Y-91959230D01*
X123663309Y-91973914D01*
X123648667Y-91988120D01*
X123633544Y-92001846D01*
X123617941Y-92015093D01*
X123601857Y-92027861D01*
X123585292Y-92040149D01*
X123568245Y-92051957D01*
X123550718Y-92063285D01*
X123532708Y-92074133D01*
X123514217Y-92084502D01*
X123495063Y-92094020D01*
X123475640Y-92102924D01*
X123455947Y-92111213D01*
X123435984Y-92118887D01*
X123415751Y-92125947D01*
X123395248Y-92132392D01*
X123374476Y-92138223D01*
X123353433Y-92143439D01*
X123332120Y-92148041D01*
X123310538Y-92152029D01*
X123288686Y-92155404D01*
X123266564Y-92158164D01*
X123244172Y-92160311D01*
X123221511Y-92161844D01*
X123198580Y-92162764D01*
X123175379Y-92163071D01*
X123154651Y-92162812D01*
X123134190Y-92162035D01*
X123113996Y-92160740D01*
X123094068Y-92158928D01*
X123074407Y-92156597D01*
X123055013Y-92153748D01*
X123035887Y-92150382D01*
X123017029Y-92146498D01*
X122998438Y-92142095D01*
X122980116Y-92137175D01*
X122962062Y-92131737D01*
X122944277Y-92125781D01*
X122926760Y-92119307D01*
X122909513Y-92112315D01*
X122892536Y-92104805D01*
X122875828Y-92096777D01*
X122859466Y-92087910D01*
X122843527Y-92078486D01*
X122828010Y-92068504D01*
X122812915Y-92057965D01*
X122798243Y-92046868D01*
X122783992Y-92035215D01*
X122770163Y-92023005D01*
X122756756Y-92010238D01*
X122743771Y-91996914D01*
X122735877Y-91988193D01*
X122735877Y-92057495D01*
X122736271Y-92081962D01*
X122737452Y-92105643D01*
X122739420Y-92128538D01*
X122742176Y-92150646D01*
X122745718Y-92171969D01*
X122750047Y-92192505D01*
X122755162Y-92212255D01*
X122761063Y-92231218D01*
X122767750Y-92249394D01*
X122775222Y-92266784D01*
X122783480Y-92283386D01*
X122792523Y-92299202D01*
X122802351Y-92314230D01*
X122812963Y-92328471D01*
X122824360Y-92341924D01*
X122836541Y-92354589D01*
X122849581Y-92366784D01*
X122863521Y-92378192D01*
X122878363Y-92388812D01*
X122894106Y-92398644D01*
X122910749Y-92407689D01*
X122928293Y-92415947D01*
X122946738Y-92423418D01*
X122966084Y-92430102D01*
X122986331Y-92435999D01*
X123007479Y-92441109D01*
X123029528Y-92445433D01*
X123052477Y-92448971D01*
X123076328Y-92451722D01*
X123101079Y-92453687D01*
X123126731Y-92454865D01*
X123153284Y-92455258D01*
X123187021Y-92454568D01*
X123220673Y-92452496D01*
X123254243Y-92449043D01*
X123287732Y-92444209D01*
X123321142Y-92437993D01*
X123354475Y-92430397D01*
X123387732Y-92421420D01*
X123420916Y-92411062D01*
X123437014Y-92405724D01*
X123452767Y-92400159D01*
X123468175Y-92394364D01*
X123483237Y-92388341D01*
X123497954Y-92382089D01*
X123512325Y-92375607D01*
X123526349Y-92368895D01*
X123540028Y-92361954D01*
X123553361Y-92354782D01*
X123566348Y-92347380D01*
X123578988Y-92339747D01*
X123591281Y-92331883D01*
X123603227Y-92323789D01*
X123614827Y-92315462D01*
X123626080Y-92306905D01*
X123636985Y-92298115D01*
X123774480Y-92528918D01*
X123760429Y-92540097D01*
X123745900Y-92550932D01*
X123730892Y-92561423D01*
X123715405Y-92571570D01*
X123699439Y-92581373D01*
X123682993Y-92590832D01*
X123666068Y-92599946D01*
X123648663Y-92608714D01*
X123630778Y-92617138D01*
X123612412Y-92625216D01*
X123593566Y-92632948D01*
X123574239Y-92640335D01*
X123554430Y-92647375D01*
X123534141Y-92654069D01*
X123513370Y-92660416D01*
X123492117Y-92666416D01*
X123448437Y-92677933D01*
X123404520Y-92687912D01*
X123360367Y-92696352D01*
X123315978Y-92703256D01*
X123271356Y-92708624D01*
X123226501Y-92712457D01*
X123181414Y-92714756D01*
X123136097Y-92715522D01*
X123093770Y-92714860D01*
X123052708Y-92712875D01*
X123012910Y-92709566D01*
X122974377Y-92704933D01*
X122937109Y-92698977D01*
X122901105Y-92691697D01*
X122866366Y-92683094D01*
X122832892Y-92673167D01*
X122800683Y-92661917D01*
X122769739Y-92649343D01*
X122740060Y-92635445D01*
X122711647Y-92620224D01*
X122684500Y-92603680D01*
X122658618Y-92585812D01*
X122634002Y-92566620D01*
X122610652Y-92546106D01*
X122588660Y-92524491D01*
X122568085Y-92501401D01*
X122548927Y-92476834D01*
X122531186Y-92450791D01*
X122514864Y-92423272D01*
X122499959Y-92394276D01*
X122486472Y-92363804D01*
X122474404Y-92331855D01*
X122463755Y-92298430D01*
X122454525Y-92263529D01*
X122446714Y-92227151D01*
X122440322Y-92189297D01*
X122435351Y-92149967D01*
X122431799Y-92109160D01*
X122429668Y-92066877D01*
X122428958Y-92023117D01*
X122428958Y-91527141D01*
X122730960Y-91527141D01*
X122731161Y-91540856D01*
X122731765Y-91554378D01*
X122732773Y-91567709D01*
X122734182Y-91580847D01*
X122735995Y-91593794D01*
X122738211Y-91606548D01*
X122740829Y-91619111D01*
X122743850Y-91631482D01*
X122747275Y-91643662D01*
X122751101Y-91655651D01*
X122755331Y-91667448D01*
X122759964Y-91679054D01*
X122764999Y-91690469D01*
X122770437Y-91701693D01*
X122776278Y-91712726D01*
X122782522Y-91723569D01*
X122788829Y-91733865D01*
X122795461Y-91743892D01*
X122802419Y-91753652D01*
X122809702Y-91763144D01*
X122817310Y-91772369D01*
X122825244Y-91781325D01*
X122833503Y-91790013D01*
X122842087Y-91798434D01*
X122850997Y-91806586D01*
X122860232Y-91814471D01*
X122869793Y-91822088D01*
X122879679Y-91829437D01*
X122889891Y-91836518D01*
X122900428Y-91843331D01*
X122911290Y-91849877D01*
X122922478Y-91856154D01*
X122933941Y-91861799D01*
X122945594Y-91867081D01*
X122957437Y-91871999D01*
X122969470Y-91876553D01*
X122981695Y-91880744D01*
X122994109Y-91884571D01*
X123006714Y-91888034D01*
X123019509Y-91891134D01*
X123032495Y-91893869D01*
X123045671Y-91896239D01*
X123059037Y-91898246D01*
X123072593Y-91899887D01*
X123086340Y-91901165D01*
X123100278Y-91902077D01*
X123114405Y-91902625D01*
X123128723Y-91902807D01*
X123143068Y-91902625D01*
X123157239Y-91902077D01*
X123171238Y-91901165D01*
X123185064Y-91899887D01*
X123198716Y-91898246D01*
X123212195Y-91896239D01*
X123225501Y-91893869D01*
X123238634Y-91891134D01*
X123251592Y-91888034D01*
X123264377Y-91884571D01*
X123276988Y-91880744D01*
X123289425Y-91876553D01*
X123301688Y-91871999D01*
X123313776Y-91867081D01*
X123325690Y-91861799D01*
X123337430Y-91856154D01*
X123348642Y-91849877D01*
X123359545Y-91843331D01*
X123370139Y-91836518D01*
X123380424Y-91829437D01*
X123390400Y-91822088D01*
X123400068Y-91814471D01*
X123409427Y-91806586D01*
X123418479Y-91798434D01*
X123427224Y-91790013D01*
X123435660Y-91781325D01*
X123443790Y-91772369D01*
X123451613Y-91763144D01*
X123459130Y-91753652D01*
X123466340Y-91743892D01*
X123473244Y-91733865D01*
X123479842Y-91723569D01*
X123485792Y-91712726D01*
X123491358Y-91701693D01*
X123496540Y-91690469D01*
X123501337Y-91679054D01*
X123505749Y-91667448D01*
X123509777Y-91655651D01*
X123513421Y-91643662D01*
X123516681Y-91631482D01*
X123519557Y-91619111D01*
X123522049Y-91606548D01*
X123524158Y-91593794D01*
X123525883Y-91580847D01*
X123527224Y-91567709D01*
X123528182Y-91554378D01*
X123528757Y-91540856D01*
X123528948Y-91527141D01*
X123528757Y-91513435D01*
X123528182Y-91499939D01*
X123527224Y-91486654D01*
X123525883Y-91473580D01*
X123524158Y-91460717D01*
X123522049Y-91448064D01*
X123519557Y-91435623D01*
X123516681Y-91423393D01*
X123513421Y-91411374D01*
X123509777Y-91399567D01*
X123505749Y-91387971D01*
X123501337Y-91376587D01*
X123496540Y-91365415D01*
X123491358Y-91354455D01*
X123485792Y-91343707D01*
X123479842Y-91333171D01*
X123473244Y-91322587D01*
X123466340Y-91312331D01*
X123459130Y-91302401D01*
X123451613Y-91292799D01*
X123443790Y-91283524D01*
X123435660Y-91274575D01*
X123427224Y-91265953D01*
X123418479Y-91257658D01*
X123409427Y-91249689D01*
X123400068Y-91242046D01*
X123390400Y-91234730D01*
X123380424Y-91227739D01*
X123370139Y-91221075D01*
X123359545Y-91214736D01*
X123348642Y-91208724D01*
X123337430Y-91203037D01*
X123325690Y-91197392D01*
X123313776Y-91192111D01*
X123301688Y-91187193D01*
X123289425Y-91182639D01*
X123276988Y-91178448D01*
X123264377Y-91174622D01*
X123251592Y-91171159D01*
X123238634Y-91168060D01*
X123225501Y-91165325D01*
X123212195Y-91162954D01*
X123198716Y-91160948D01*
X123185064Y-91159306D01*
X123171238Y-91158029D01*
X123157239Y-91157116D01*
X123143068Y-91156569D01*
X123128723Y-91156386D01*
X123114405Y-91156569D01*
X123100278Y-91157116D01*
X123086340Y-91158029D01*
X123072593Y-91159306D01*
X123059037Y-91160948D01*
X123045671Y-91162954D01*
X123032495Y-91165325D01*
X123019509Y-91168060D01*
X123006714Y-91171159D01*
X122994109Y-91174622D01*
X122981695Y-91178448D01*
X122969470Y-91182639D01*
X122957437Y-91187193D01*
X122945594Y-91192111D01*
X122933941Y-91197392D01*
X122922478Y-91203037D01*
X122911290Y-91208724D01*
X122900428Y-91214736D01*
X122889891Y-91221075D01*
X122879679Y-91227739D01*
X122869793Y-91234730D01*
X122860232Y-91242046D01*
X122850997Y-91249689D01*
X122842087Y-91257658D01*
X122833503Y-91265953D01*
X122825244Y-91274575D01*
X122817310Y-91283524D01*
X122809702Y-91292799D01*
X122802419Y-91302401D01*
X122795461Y-91312331D01*
X122788829Y-91322587D01*
X122782522Y-91333171D01*
X122776278Y-91343707D01*
X122770437Y-91354455D01*
X122764999Y-91365415D01*
X122759964Y-91376587D01*
X122755331Y-91387971D01*
X122751101Y-91399567D01*
X122747275Y-91411374D01*
X122743850Y-91423393D01*
X122740829Y-91435623D01*
X122738211Y-91448064D01*
X122735995Y-91460717D01*
X122734182Y-91473580D01*
X122732773Y-91486654D01*
X122731765Y-91499939D01*
X122731161Y-91513435D01*
X122730960Y-91527141D01*
X122428958Y-91527141D01*
X122428958Y-90910854D01*
X122721140Y-90910854D01*
X122721140Y-91085935D01*
X122731207Y-91074055D01*
X122743771Y-91060301D01*
X122756756Y-91047123D01*
X122770163Y-91034520D01*
X122783992Y-91022493D01*
X122798243Y-91011041D01*
X122812915Y-91000164D01*
X122828010Y-90989863D01*
X122843527Y-90980138D01*
X122859466Y-90970988D01*
X122875828Y-90962414D01*
X122892536Y-90954387D01*
X122909513Y-90946877D01*
X122926760Y-90939885D01*
X122944277Y-90933411D01*
X122962062Y-90927455D01*
X122980116Y-90922017D01*
X122998438Y-90917097D01*
X123017029Y-90912694D01*
X123035887Y-90908810D01*
X123055013Y-90905443D01*
X123074407Y-90902595D01*
X123094068Y-90900264D01*
X123113996Y-90898451D01*
X123134190Y-90897156D01*
X123154651Y-90896379D01*
X123175379Y-90896120D01*
X123198580Y-90896427D01*
X123221511Y-90897347D01*
X123244172Y-90898880D01*
X123266564Y-90901027D01*
X123288686Y-90903787D01*
X123310538Y-90907162D01*
X123332120Y-90911150D01*
X123353433Y-90915752D01*
X123374476Y-90920969D01*
X123395248Y-90926800D01*
X123415751Y-90933245D01*
X123435984Y-90940305D01*
X123455947Y-90947979D01*
X123475640Y-90956268D01*
X123495063Y-90965173D01*
X123514217Y-90974692D01*
X123532708Y-90984767D01*
X123550718Y-90995341D01*
X123568245Y-91006412D01*
X123585292Y-91017982D01*
X123601857Y-91030050D01*
X123617941Y-91042616D01*
X123633544Y-91055680D01*
X123648667Y-91069242D01*
X123663309Y-91083302D01*
X123677472Y-91097861D01*
X123691154Y-91112917D01*
X123704358Y-91128472D01*
X123717082Y-91144524D01*
X123729327Y-91161075D01*
X123741093Y-91178124D01*
X123752381Y-91195671D01*
X123762792Y-91213649D01*
X123772530Y-91231992D01*
X123781596Y-91250701D01*
X123789990Y-91269775D01*
X123797712Y-91289213D01*
X123804761Y-91309017D01*
X123811139Y-91329187D01*
X123816844Y-91349721D01*
X123821878Y-91370620D01*
X123826241Y-91391885D01*
X123829931Y-91413515D01*
X123832951Y-91435510D01*
X123835299Y-91457870D01*
X123836977Y-91480595D01*
X123837983Y-91503685D01*
X123838318Y-91527141D01*
X123837983Y-91550889D01*
G37*
D11*
X145899998Y-79183335D02*
X145899998Y-108816667D01*
D12*
%TO.C,H2*%
X103975000Y-117980000D03*
X104568109Y-116548109D03*
X104568109Y-119411891D03*
X106000000Y-115955000D03*
D13*
X106000000Y-117980000D03*
D12*
X106000000Y-120005000D03*
X107431891Y-116548109D03*
X107431891Y-119411891D03*
X108025000Y-117980000D03*
%TD*%
%TO.C,H3*%
X183575000Y-117980000D03*
X184168109Y-116548109D03*
X184168109Y-119411891D03*
X185600000Y-115955000D03*
D13*
X185600000Y-117980000D03*
D12*
X185600000Y-120005000D03*
X187031891Y-116548109D03*
X187031891Y-119411891D03*
X187625000Y-117980000D03*
%TD*%
%TO.C,H1*%
X103975000Y-70000000D03*
X104568109Y-68568109D03*
X104568109Y-71431891D03*
X106000000Y-67975000D03*
D13*
X106000000Y-70000000D03*
D12*
X106000000Y-72025000D03*
X107431891Y-68568109D03*
X107431891Y-71431891D03*
X108025000Y-70000000D03*
%TD*%
%TO.C,H4*%
X183575000Y-70000000D03*
X184168109Y-68568109D03*
X184168109Y-71431891D03*
X185600000Y-67975000D03*
D13*
X185600000Y-70000000D03*
D12*
X185600000Y-72025000D03*
X187031891Y-68568109D03*
X187031891Y-71431891D03*
X187625000Y-70000000D03*
%TD*%
M02*
